<svg width="190" height="126" viewBox="0 0 190 126" fill="none" xmlns="http://www.w3.org/2000/svg">
<path d="M176.9 126H13.1C6.14375 126 0.5 120.356 0.5 113.4V12.6C0.5 5.64375 6.14375 0 13.1 0H176.9C183.856 0 189.5 5.64375 189.5 12.6V113.4C189.5 120.356 183.856 126 176.9 126ZM146.413 88.6725V94.5C147.248 94.6155 148.209 94.6837 149.185 94.6837H149.269C156.588 94.6837 160.058 91.8382 163.051 83.412L176.249 46.3995H168.615L159.764 74.991H159.607L150.755 46.3995H142.901L155.632 81.6427L154.95 83.7847C154.488 86.667 152.015 88.8405 149.044 88.8405C148.896 88.8405 148.749 88.8353 148.602 88.8248H148.624C148.036 88.7985 146.881 88.7302 146.419 88.6725H146.413ZM30.4932 42.2835H30.3567C25.7052 42.4147 21.689 45.0083 19.5522 48.7988L19.5208 48.8618C15.0897 56.4848 17.909 68.1502 22.8125 75.2535C25.112 78.6135 27.632 81.9 30.9552 81.9H31.1338C32.525 81.8108 33.8112 81.4485 34.9715 80.8658L34.9137 80.892C36.3155 80.1885 37.964 79.7738 39.707 79.758C41.3923 79.7685 42.9882 80.178 44.39 80.892L44.3322 80.8658C45.461 81.4538 46.7893 81.8107 48.2015 81.8422H48.212H48.3537C52.055 81.774 54.3755 78.3773 56.4282 75.3848C57.893 73.2637 59.1057 70.8225 59.9562 68.2132L60.014 68.0137V67.9613L59.9195 67.9193C55.8245 66.0555 53.0262 62.013 53 57.309V57.3037C53.042 53.1247 55.2418 49.4707 58.5387 47.397L58.586 47.3708L58.6805 47.3077C56.5332 44.2207 53.042 42.1943 49.073 42.0893H49.0572C48.8735 42.0893 48.6845 42.0893 48.5007 42.0893C46.1592 42.2153 43.9753 42.777 41.996 43.701L42.1063 43.6537C41.2033 44.0947 40.1533 44.415 39.0455 44.5515L38.9983 44.5568C37.8013 44.4255 36.7092 44.1 35.7118 43.6065L35.7695 43.6327C34.2313 42.8872 32.4305 42.399 30.5353 42.273H30.4932V42.2835ZM125.587 51.8175C130.206 51.8175 132.758 53.9805 132.758 57.9023V60.5745L123.382 61.131C114.588 61.6613 109.942 65.226 109.942 71.4368C110.005 77.2538 114.729 81.942 120.557 81.942C120.998 81.942 121.428 81.9157 121.854 81.8633L121.801 81.8685C121.901 81.8737 122.022 81.8737 122.143 81.8737C126.705 81.8737 130.695 79.4168 132.858 75.747L132.889 75.6892H133.047V81.4747H140.003V57.3982C140.003 50.4157 134.433 45.9113 125.812 45.9113C117.864 45.9113 111.952 50.4682 111.716 56.742H118.489C119.245 53.8597 121.822 51.7702 124.888 51.7702C125.135 51.7702 125.382 51.786 125.623 51.8123L125.592 51.807L125.587 51.8175ZM74 33.096V81.48H81.5127V64.932H91.892C92.1335 64.9478 92.4222 64.953 92.7057 64.953C101.2 64.953 108.083 58.0702 108.083 49.5757C108.083 49.3605 108.078 49.1505 108.073 48.9405V48.972C108.083 48.7725 108.088 48.5415 108.088 48.3053C108.088 39.8948 101.274 33.0802 92.8633 33.0802C92.6113 33.0802 92.3593 33.0855 92.1125 33.096H92.1493H74ZM49.0783 29.4C45.9598 29.7045 43.2402 31.185 41.324 33.39L41.3135 33.4058C39.5653 35.364 38.4995 37.9627 38.4995 40.8083C38.4995 41.055 38.51 41.3018 38.5257 41.5433V41.5117C38.7043 41.5117 38.8932 41.5327 39.1033 41.5327C42.0433 41.3647 44.621 39.9577 46.3377 37.821L46.3535 37.8C48.0703 35.7682 49.115 33.1222 49.115 30.2243C49.115 29.9355 49.1045 29.6467 49.0835 29.358V29.3948L49.0783 29.4ZM123.817 76.1302C119.838 76.1302 117.26 74.214 117.26 71.253C117.26 68.1975 119.728 66.4388 124.4 66.1605L132.747 65.6355V68.3708C132.564 72.7178 128.994 76.167 124.62 76.167C124.337 76.167 124.059 76.1513 123.781 76.125L123.817 76.1302ZM90.1227 58.6477H81.4918V39.4275H90.1543C90.5218 39.375 90.947 39.3435 91.3828 39.3435C96.3755 39.3435 100.423 43.3912 100.423 48.384C100.423 48.6045 100.413 48.8302 100.397 49.0455V49.014C100.413 49.203 100.418 49.4287 100.418 49.6545C100.418 54.663 96.3545 58.7265 91.346 58.7265C90.9155 58.7265 90.485 58.695 90.0703 58.6372L90.1175 58.6425L90.1227 58.6477Z" fill="black"/>
</svg>
