<svg width="214" height="214" viewBox="0 0 214 214" fill="none" xmlns="http://www.w3.org/2000/svg">
<path d="M167.15 140.449H46.75C35.15 140.449 25.85 131.049 25.85 119.549V94.4488C25.85 82.8488 35.25 73.5488 46.75 73.5488H167.15C178.75 73.5488 188.05 82.9488 188.05 94.4488V119.549C188.05 131.049 178.75 140.449 167.15 140.449Z" fill="#5AFEAE"/>
<path d="M158.85 95.0484L150.55 126.748V126.848H157.05L165.35 95.1484H158.85V95.0484ZM56.2499 113.048C55.2499 113.548 54.2499 113.748 53.1499 113.748C50.8499 113.748 49.5499 113.348 49.3499 111.448V111.348C49.3499 111.248 49.3499 111.248 49.3499 111.148V105.648V105.048V101.148V99.5484V98.9484V95.2484L43.5499 95.9484C47.4499 95.1484 49.6499 92.1484 49.6499 89.0484V87.1484H43.1499V96.0484L42.7499 96.1484V112.548C42.9499 117.148 46.0499 119.948 50.9499 119.948C52.7499 119.948 54.6499 119.548 56.1499 118.848L56.2499 113.048Z" fill="#292929"/>
<path d="M57.2499 93.8488L39.0499 96.6488V101.249L57.2499 98.4488V93.8488ZM57.2499 100.649L39.0499 103.449V107.849L57.2499 105.049V100.649ZM77.6499 102.749C77.3499 97.6488 74.1499 94.5488 68.9499 94.5488C65.9499 94.5488 63.4499 95.7488 61.7499 97.9488C60.0499 100.149 59.1499 103.349 59.1499 107.249C59.1499 111.149 60.0499 114.349 61.7499 116.549C63.4499 118.749 65.9499 119.849 68.9499 119.849C74.1499 119.849 77.3499 116.849 77.6499 111.649V119.349H84.1499V95.1488L77.6499 96.1488V102.749ZM78.0499 107.249C78.0499 111.749 75.6499 114.749 71.9499 114.749C68.1499 114.749 65.8499 111.949 65.8499 107.249C65.8499 102.549 68.1499 99.7488 71.9499 99.7488C73.7499 99.7488 75.3499 100.449 76.4499 101.849C77.4499 103.149 78.0499 105.049 78.0499 107.249ZM103.05 94.5488C97.8499 94.5488 94.6499 97.5488 94.3499 102.749V88.0488L87.8499 89.0488V119.349H94.3499V111.649C94.6499 116.849 97.8499 119.849 103.05 119.849C109.15 119.849 112.85 115.149 112.85 107.249C112.85 99.3488 109.15 94.5488 103.05 94.5488ZM100.15 114.749C96.4499 114.749 94.0499 111.849 94.0499 107.249C94.0499 105.049 94.6499 103.149 95.6499 101.849C96.7499 100.449 98.2499 99.7488 100.15 99.7488C103.95 99.7488 106.25 102.549 106.25 107.249C106.25 111.949 103.95 114.749 100.15 114.749ZM130.45 94.5488C125.25 94.5488 122.05 97.5488 121.75 102.749V88.0488L115.25 89.0488V119.349H121.75V111.649C122.05 116.849 125.25 119.849 130.45 119.849C136.55 119.849 140.25 115.149 140.25 107.249C140.25 99.3488 136.55 94.5488 130.45 94.5488ZM127.55 114.749C123.85 114.749 121.45 111.849 121.45 107.249C121.45 105.049 122.05 103.149 123.05 101.849C124.15 100.449 125.65 99.7488 127.55 99.7488C131.35 99.7488 133.65 102.549 133.65 107.249C133.65 111.949 131.35 114.749 127.55 114.749ZM140.25 95.0488H147.15L152.75 119.349H146.55L140.25 95.0488ZM170.65 97.5488V95.6488H169.85V95.2488H171.95V95.6488H171.15V97.5488H170.65ZM172.05 97.5488V95.1488H172.85L173.25 96.2488C173.35 96.5488 173.45 96.6488 173.45 96.7488C173.45 96.6488 173.55 96.5488 173.65 96.2488L174.05 95.1488H174.85V97.5488H174.35V95.6488L173.65 97.5488H173.15L172.55 95.6488V97.5488H172.05Z" fill="#292929"/>
</svg>
