<svg width="181" height="78" viewBox="0 0 181 78" fill="none" xmlns="http://www.w3.org/2000/svg">
<path d="M171.347 0.0644531H9.65333C4.32194 0.0644531 0 3.02534 0 6.67779V71.3231C0 74.9756 4.32194 77.9365 9.65333 77.9365H171.347C176.678 77.9365 181 74.9756 181 71.3231V6.67779C181 3.02534 176.678 0.0644531 171.347 0.0644531Z" fill="#0E4595"/>
<path d="M67.1383 55.323L75.1894 22.957H88.0667L80.0101 55.323H67.1383Z" fill="white"/>
<path d="M126.533 23.6562C123.982 23.0005 119.984 22.2969 114.992 22.2969C102.268 22.2969 93.3044 26.6866 93.2282 32.9781C93.1565 37.6287 99.6269 40.2231 104.511 41.7713C109.524 43.3577 111.209 44.3695 111.185 45.7861C111.153 47.9556 107.182 48.9468 103.481 48.9468C98.3268 48.9468 95.5886 48.4562 91.3598 47.2478L89.7003 46.7333L87.893 53.9789C90.9007 54.8823 96.4625 55.6651 102.237 55.7056C115.774 55.7056 124.561 51.3661 124.661 44.6478C124.709 40.966 121.279 38.1639 113.849 35.854C109.348 34.3568 106.592 33.3577 106.621 31.8416C106.621 30.4963 108.954 29.0577 113.995 29.0577C118.206 29.0129 121.257 29.642 123.633 30.2977L124.787 30.6712L126.533 23.6562Z" fill="white"/>
<path d="M159.67 22.957H149.719C146.637 22.957 144.33 23.5334 142.976 25.6411L123.852 55.3023H137.374C137.374 55.3023 139.585 51.3142 140.085 50.4386C141.563 50.4386 154.699 50.4525 156.577 50.4525C156.962 51.5855 158.143 55.3023 158.143 55.3023H170.092L159.67 22.957ZM143.882 43.8563C144.947 41.9915 149.013 34.8088 149.013 34.8088C148.937 34.8949 150.07 32.9349 150.72 31.7197L151.591 34.5102C151.591 34.5102 154.056 42.2361 154.572 43.8562H143.882V43.8563Z" fill="white"/>
<path d="M11.0721 22.957L10.9076 23.6306C15.9976 24.4747 20.5438 25.6962 24.5241 27.216L35.9502 55.2716L49.5747 55.2606L69.8476 22.957H56.2071L43.5998 45.0284L42.2564 40.5431C42.1943 40.4062 42.127 40.2688 42.058 40.1314L37.6739 25.6896C36.8944 23.6401 34.6335 23.0285 31.8367 22.957H11.0721Z" fill="white"/>
</svg>
