<svg width="129" height="48" viewBox="0 0 129 48" fill="none" xmlns="http://www.w3.org/2000/svg">
<rect width="129" height="48" rx="24" fill="black"/>
<path fill-rule="evenodd" clip-rule="evenodd" d="M20.2639 17.8736C20.9201 17.1131 21.3624 16.0539 21.2413 15C20.2957 15.036 19.1518 15.604 18.4738 16.3636C17.8649 17.0377 17.3334 18.1148 17.4763 19.148C18.5311 19.2263 19.6077 18.635 20.2639 17.8736ZM22.6292 24.5625C22.6556 27.2868 25.1228 28.193 25.1501 28.2047C25.1301 28.2686 24.756 29.496 23.8505 30.7649C23.0669 31.8611 22.2542 32.9529 20.9738 32.9763C19.716 32.9988 19.311 32.2617 17.8722 32.2617C16.4343 32.2617 15.9847 32.9528 14.7943 32.9987C13.5585 33.0428 12.6165 31.8127 11.8275 30.7201C10.213 28.4854 8.97986 24.4051 10.6362 21.6511C11.4589 20.284 12.9287 19.417 14.525 19.3954C15.7381 19.3729 16.8839 20.1776 17.6256 20.1776C18.3673 20.1776 19.7597 19.2101 21.2231 19.3523C21.8356 19.3766 23.5556 19.589 24.6596 21.1378C24.5704 21.1909 22.6073 22.2855 22.6292 24.5625Z" fill="white"/>
<path d="M38.916 12.44C39.508 12.44 40.0253 12.5547 40.468 12.784C40.916 13.008 41.26 13.3333 41.5 13.76C41.7453 14.1813 41.868 14.6747 41.868 15.24C41.868 15.8053 41.7453 16.296 41.5 16.712C41.26 17.128 40.916 17.448 40.468 17.672C40.0253 17.8907 39.508 18 38.916 18H37.1V12.44H38.916ZM38.916 17.256C39.5667 17.256 40.0653 17.08 40.412 16.728C40.7587 16.376 40.932 15.88 40.932 15.24C40.932 14.5947 40.7587 14.0907 40.412 13.728C40.0653 13.3653 39.5667 13.184 38.916 13.184H38.012V17.256H38.916ZM44.6839 18.072C44.2679 18.072 43.8919 17.9787 43.5559 17.792C43.2199 17.6 42.9559 17.3333 42.7639 16.992C42.5719 16.6453 42.4759 16.2453 42.4759 15.792C42.4759 15.344 42.5745 14.9467 42.7719 14.6C42.9692 14.2533 43.2385 13.9867 43.5799 13.8C43.9212 13.6133 44.3025 13.52 44.7239 13.52C45.1452 13.52 45.5265 13.6133 45.8679 13.8C46.2092 13.9867 46.4785 14.2533 46.6759 14.6C46.8732 14.9467 46.9719 15.344 46.9719 15.792C46.9719 16.24 46.8705 16.6373 46.6679 16.984C46.4652 17.3307 46.1879 17.6 45.8359 17.792C45.4892 17.9787 45.1052 18.072 44.6839 18.072ZM44.6839 17.28C44.9185 17.28 45.1372 17.224 45.3399 17.112C45.5479 17 45.7159 16.832 45.8439 16.608C45.9719 16.384 46.0359 16.112 46.0359 15.792C46.0359 15.472 45.9745 15.2027 45.8519 14.984C45.7292 14.76 45.5665 14.592 45.3639 14.48C45.1612 14.368 44.9425 14.312 44.7079 14.312C44.4732 14.312 44.2545 14.368 44.0519 14.48C43.8545 14.592 43.6972 14.76 43.5799 14.984C43.4625 15.2027 43.4039 15.472 43.4039 15.792C43.4039 16.2667 43.5239 16.6347 43.7639 16.896C44.0092 17.152 44.3159 17.28 44.6839 17.28ZM53.7934 13.592L52.4254 18H51.4654L50.5774 14.744L49.6894 18H48.7294L47.3534 13.592H48.2814L49.2014 17.136L50.1374 13.592H51.0894L51.9854 17.12L52.8974 13.592H53.7934ZM56.699 13.52C57.0457 13.52 57.355 13.592 57.627 13.736C57.9043 13.88 58.1203 14.0933 58.275 14.376C58.4297 14.6587 58.507 15 58.507 15.4V18H57.603V15.536C57.603 15.1413 57.5043 14.84 57.307 14.632C57.1097 14.4187 56.8403 14.312 56.499 14.312C56.1577 14.312 55.8857 14.4187 55.683 14.632C55.4857 14.84 55.387 15.1413 55.387 15.536V18H54.475V13.592H55.387V14.096C55.5363 13.9147 55.7257 13.7733 55.955 13.672C56.1897 13.5707 56.4377 13.52 56.699 13.52ZM60.5823 12.08V18H59.6703V12.08H60.5823ZM63.6917 18.072C63.2757 18.072 62.8997 17.9787 62.5637 17.792C62.2277 17.6 61.9637 17.3333 61.7717 16.992C61.5797 16.6453 61.4837 16.2453 61.4837 15.792C61.4837 15.344 61.5824 14.9467 61.7797 14.6C61.977 14.2533 62.2464 13.9867 62.5877 13.8C62.929 13.6133 63.3104 13.52 63.7317 13.52C64.153 13.52 64.5344 13.6133 64.8757 13.8C65.217 13.9867 65.4864 14.2533 65.6837 14.6C65.881 14.9467 65.9797 15.344 65.9797 15.792C65.9797 16.24 65.8784 16.6373 65.6757 16.984C65.473 17.3307 65.1957 17.6 64.8437 17.792C64.497 17.9787 64.113 18.072 63.6917 18.072ZM63.6917 17.28C63.9264 17.28 64.145 17.224 64.3477 17.112C64.5557 17 64.7237 16.832 64.8517 16.608C64.9797 16.384 65.0437 16.112 65.0437 15.792C65.0437 15.472 64.9824 15.2027 64.8597 14.984C64.737 14.76 64.5744 14.592 64.3717 14.48C64.169 14.368 63.9504 14.312 63.7157 14.312C63.481 14.312 63.2624 14.368 63.0597 14.48C62.8624 14.592 62.705 14.76 62.5877 14.984C62.4704 15.2027 62.4117 15.472 62.4117 15.792C62.4117 16.2667 62.5317 16.6347 62.7717 16.896C63.017 17.152 63.3237 17.28 63.6917 17.28ZM66.5773 15.776C66.5773 15.3333 66.6679 14.9413 66.8493 14.6C67.0359 14.2587 67.2866 13.9947 67.6013 13.808C67.9213 13.616 68.2733 13.52 68.6573 13.52C69.0039 13.52 69.3053 13.5893 69.5613 13.728C69.8226 13.8613 70.0306 14.0293 70.1853 14.232V13.592H71.1053V18H70.1853V17.344C70.0306 17.552 69.8199 17.7253 69.5533 17.864C69.2866 18.0027 68.9826 18.072 68.6413 18.072C68.2626 18.072 67.9159 17.976 67.6013 17.784C67.2866 17.5867 67.0359 17.3147 66.8493 16.968C66.6679 16.616 66.5773 16.2187 66.5773 15.776ZM70.1853 15.792C70.1853 15.488 70.1213 15.224 69.9933 15C69.8706 14.776 69.7079 14.6053 69.5053 14.488C69.3026 14.3707 69.0839 14.312 68.8493 14.312C68.6146 14.312 68.3959 14.3707 68.1933 14.488C67.9906 14.6 67.8253 14.768 67.6973 14.992C67.5746 15.2107 67.5133 15.472 67.5133 15.776C67.5133 16.08 67.5746 16.3467 67.6973 16.576C67.8253 16.8053 67.9906 16.9813 68.1933 17.104C68.4013 17.2213 68.6199 17.28 68.8493 17.28C69.0839 17.28 69.3026 17.2213 69.5053 17.104C69.7079 16.9867 69.8706 16.816 69.9933 16.592C70.1213 16.3627 70.1853 16.096 70.1853 15.792ZM71.9991 15.776C71.9991 15.3333 72.0898 14.9413 72.2711 14.6C72.4578 14.2587 72.7085 13.9947 73.0231 13.808C73.3431 13.616 73.6978 13.52 74.0871 13.52C74.3751 13.52 74.6578 13.584 74.9351 13.712C75.2178 13.8347 75.4418 14 75.6071 14.208V12.08H76.5271V18H75.6071V17.336C75.4578 17.5493 75.2498 17.7253 74.9831 17.864C74.7218 18.0027 74.4205 18.072 74.0791 18.072C73.6951 18.072 73.3431 17.976 73.0231 17.784C72.7085 17.5867 72.4578 17.3147 72.2711 16.968C72.0898 16.616 71.9991 16.2187 71.9991 15.776ZM75.6071 15.792C75.6071 15.488 75.5431 15.224 75.4151 15C75.2925 14.776 75.1298 14.6053 74.9271 14.488C74.7245 14.3707 74.5058 14.312 74.2711 14.312C74.0365 14.312 73.8178 14.3707 73.6151 14.488C73.4125 14.6 73.2471 14.768 73.1191 14.992C72.9965 15.2107 72.9351 15.472 72.9351 15.776C72.9351 16.08 72.9965 16.3467 73.1191 16.576C73.2471 16.8053 73.4125 16.9813 73.6151 17.104C73.8231 17.2213 74.0418 17.28 74.2711 17.28C74.5058 17.28 74.7245 17.2213 74.9271 17.104C75.1298 16.9867 75.2925 16.816 75.4151 16.592C75.5431 16.3627 75.6071 16.096 75.6071 15.792ZM82.3391 18.056C81.8218 18.056 81.3445 17.936 80.9071 17.696C80.4751 17.4507 80.1311 17.112 79.8751 16.68C79.6245 16.2427 79.4991 15.752 79.4991 15.208C79.4991 14.664 79.6245 14.176 79.8751 13.744C80.1311 13.312 80.4751 12.976 80.9071 12.736C81.3445 12.4907 81.8218 12.368 82.3391 12.368C82.8618 12.368 83.3391 12.4907 83.7711 12.736C84.2085 12.976 84.5525 13.312 84.8031 13.744C85.0538 14.176 85.1791 14.664 85.1791 15.208C85.1791 15.752 85.0538 16.2427 84.8031 16.68C84.5525 17.112 84.2085 17.4507 83.7711 17.696C83.3391 17.936 82.8618 18.056 82.3391 18.056ZM82.3391 17.264C82.7071 17.264 83.0351 17.1813 83.3231 17.016C83.6111 16.8453 83.8351 16.6053 83.9951 16.296C84.1605 15.9813 84.2431 15.6187 84.2431 15.208C84.2431 14.7973 84.1605 14.4373 83.9951 14.128C83.8351 13.8187 83.6111 13.5813 83.3231 13.416C83.0351 13.2507 82.7071 13.168 82.3391 13.168C81.9711 13.168 81.6431 13.2507 81.3551 13.416C81.0671 13.5813 80.8405 13.8187 80.6751 14.128C80.5151 14.4373 80.4351 14.7973 80.4351 15.208C80.4351 15.6187 80.5151 15.9813 80.6751 16.296C80.8405 16.6053 81.0671 16.8453 81.3551 17.016C81.6431 17.1813 81.9711 17.264 82.3391 17.264ZM88.3006 13.52C88.6472 13.52 88.9566 13.592 89.2286 13.736C89.5059 13.88 89.7219 14.0933 89.8766 14.376C90.0312 14.6587 90.1086 15 90.1086 15.4V18H89.2046V15.536C89.2046 15.1413 89.1059 14.84 88.9086 14.632C88.7112 14.4187 88.4419 14.312 88.1006 14.312C87.7592 14.312 87.4872 14.4187 87.2846 14.632C87.0872 14.84 86.9886 15.1413 86.9886 15.536V18H86.0766V13.592H86.9886V14.096C87.1379 13.9147 87.3272 13.7733 87.5566 13.672C87.7912 13.5707 88.0392 13.52 88.3006 13.52ZM96.942 12.44V13.184H95.462V18H94.55V13.184H93.062V12.44H96.942ZM100.146 13.52C100.482 13.52 100.78 13.592 101.042 13.736C101.308 13.88 101.516 14.0933 101.666 14.376C101.82 14.6587 101.898 15 101.898 15.4V18H100.994V15.536C100.994 15.1413 100.895 14.84 100.698 14.632C100.5 14.4187 100.231 14.312 99.8896 14.312C99.5483 14.312 99.2763 14.4187 99.0736 14.632C98.8763 14.84 98.7776 15.1413 98.7776 15.536V18H97.8656V12.08H98.7776V14.104C98.9323 13.9173 99.127 13.7733 99.3616 13.672C99.6016 13.5707 99.863 13.52 100.146 13.52ZM107.101 15.688C107.101 15.8533 107.09 16.0027 107.069 16.136H103.701C103.728 16.488 103.858 16.7707 104.093 16.984C104.328 17.1973 104.616 17.304 104.957 17.304C105.448 17.304 105.794 17.0987 105.997 16.688H106.981C106.848 17.0933 106.605 17.4267 106.253 17.688C105.906 17.944 105.474 18.072 104.957 18.072C104.536 18.072 104.157 17.9787 103.821 17.792C103.49 17.6 103.229 17.3333 103.037 16.992C102.85 16.6453 102.757 16.2453 102.757 15.792C102.757 15.3387 102.848 14.9413 103.029 14.6C103.216 14.2533 103.474 13.9867 103.805 13.8C104.141 13.6133 104.525 13.52 104.957 13.52C105.373 13.52 105.744 13.6107 106.069 13.792C106.394 13.9733 106.648 14.2293 106.829 14.56C107.01 14.8853 107.101 15.2613 107.101 15.688ZM106.149 15.4C106.144 15.064 106.024 14.7947 105.789 14.592C105.554 14.3893 105.264 14.288 104.917 14.288C104.602 14.288 104.333 14.3893 104.109 14.592C103.885 14.7893 103.752 15.0587 103.709 15.4H106.149Z" fill="white"/>
<path d="M41.8227 33.85H39.3227L38.9427 35H36.8827L39.4527 27.95H41.7127L44.2727 35H42.2027L41.8227 33.85ZM41.3327 32.35L40.5727 30.07L39.8227 32.35H41.3327ZM46.8716 30.17C47.0249 29.91 47.2416 29.7033 47.5216 29.55C47.8016 29.3967 48.1316 29.32 48.5116 29.32C48.9582 29.32 49.3616 29.4367 49.7216 29.67C50.0882 29.9033 50.3749 30.2367 50.5816 30.67C50.7949 31.1033 50.9016 31.61 50.9016 32.19C50.9016 32.77 50.7949 33.28 50.5816 33.72C50.3749 34.1533 50.0882 34.4867 49.7216 34.72C49.3616 34.9533 48.9582 35.07 48.5116 35.07C48.1316 35.07 47.8016 34.9933 47.5216 34.84C47.2482 34.6867 47.0316 34.48 46.8716 34.22V37.68H44.9116V29.39H46.8716V30.17ZM48.9116 32.19C48.9116 31.8233 48.8116 31.54 48.6116 31.34C48.4182 31.1333 48.1782 31.03 47.8916 31.03C47.6049 31.03 47.3616 31.1333 47.1616 31.34C46.9682 31.5467 46.8716 31.83 46.8716 32.19C46.8716 32.5567 46.9682 32.8433 47.1616 33.05C47.3616 33.2567 47.6049 33.36 47.8916 33.36C48.1782 33.36 48.4182 33.2567 48.6116 33.05C48.8116 32.8367 48.9116 32.55 48.9116 32.19ZM53.6684 30.17C53.8218 29.91 54.0384 29.7033 54.3184 29.55C54.5984 29.3967 54.9284 29.32 55.3084 29.32C55.7551 29.32 56.1584 29.4367 56.5184 29.67C56.8851 29.9033 57.1718 30.2367 57.3784 30.67C57.5918 31.1033 57.6984 31.61 57.6984 32.19C57.6984 32.77 57.5918 33.28 57.3784 33.72C57.1718 34.1533 56.8851 34.4867 56.5184 34.72C56.1584 34.9533 55.7551 35.07 55.3084 35.07C54.9284 35.07 54.5984 34.9933 54.3184 34.84C54.0451 34.6867 53.8284 34.48 53.6684 34.22V37.68H51.7084V29.39H53.6684V30.17ZM55.7084 32.19C55.7084 31.8233 55.6084 31.54 55.4084 31.34C55.2151 31.1333 54.9751 31.03 54.6884 31.03C54.4018 31.03 54.1584 31.1333 53.9584 31.34C53.7651 31.5467 53.6684 31.83 53.6684 32.19C53.6684 32.5567 53.7651 32.8433 53.9584 33.05C54.1584 33.2567 54.4018 33.36 54.6884 33.36C54.9751 33.36 55.2151 33.2567 55.4084 33.05C55.6084 32.8367 55.7084 32.55 55.7084 32.19ZM60.4653 27.6V35H58.5053V27.6H60.4653ZM66.9415 32.13C66.9415 32.2833 66.9315 32.4367 66.9115 32.59H63.2015C63.2215 32.8967 63.3048 33.1267 63.4515 33.28C63.6048 33.4267 63.7982 33.5 64.0315 33.5C64.3582 33.5 64.5915 33.3533 64.7315 33.06H66.8215C66.7348 33.4467 66.5648 33.7933 66.3115 34.1C66.0648 34.4 65.7515 34.6367 65.3715 34.81C64.9915 34.9833 64.5715 35.07 64.1115 35.07C63.5582 35.07 63.0648 34.9533 62.6315 34.72C62.2048 34.4867 61.8682 34.1533 61.6215 33.72C61.3815 33.2867 61.2615 32.7767 61.2615 32.19C61.2615 31.6033 61.3815 31.0967 61.6215 30.67C61.8615 30.2367 62.1948 29.9033 62.6215 29.67C63.0548 29.4367 63.5515 29.32 64.1115 29.32C64.6648 29.32 65.1548 29.4333 65.5815 29.66C66.0082 29.8867 66.3415 30.2133 66.5815 30.64C66.8215 31.06 66.9415 31.5567 66.9415 32.13ZM64.9415 31.64C64.9415 31.4 64.8615 31.2133 64.7015 31.08C64.5415 30.94 64.3415 30.87 64.1015 30.87C63.8615 30.87 63.6648 30.9367 63.5115 31.07C63.3582 31.1967 63.2582 31.3867 63.2115 31.64H64.9415ZM72.3177 35.07C71.4977 35.07 70.8243 34.8767 70.2977 34.49C69.771 34.0967 69.4877 33.5367 69.4477 32.81H71.5377C71.5577 33.0567 71.631 33.2367 71.7577 33.35C71.8843 33.4633 72.0477 33.52 72.2477 33.52C72.4277 33.52 72.5743 33.4767 72.6877 33.39C72.8077 33.2967 72.8677 33.17 72.8677 33.01C72.8677 32.8033 72.771 32.6433 72.5777 32.53C72.3843 32.4167 72.071 32.29 71.6377 32.15C71.1777 31.9967 70.8043 31.85 70.5177 31.71C70.2377 31.5633 69.991 31.3533 69.7777 31.08C69.571 30.8 69.4677 30.4367 69.4677 29.99C69.4677 29.5367 69.581 29.15 69.8077 28.83C70.0343 28.5033 70.3477 28.2567 70.7477 28.09C71.1477 27.9233 71.601 27.84 72.1077 27.84C72.9277 27.84 73.581 28.0333 74.0677 28.42C74.561 28.8 74.8243 29.3367 74.8577 30.03H72.7277C72.721 29.8167 72.6543 29.6567 72.5277 29.55C72.4077 29.4433 72.251 29.39 72.0577 29.39C71.911 29.39 71.791 29.4333 71.6977 29.52C71.6043 29.6067 71.5577 29.73 71.5577 29.89C71.5577 30.0233 71.6077 30.14 71.7077 30.24C71.8143 30.3333 71.9443 30.4167 72.0977 30.49C72.251 30.5567 72.4777 30.6433 72.7777 30.75C73.2243 30.9033 73.591 31.0567 73.8777 31.21C74.171 31.3567 74.421 31.5667 74.6277 31.84C74.841 32.1067 74.9477 32.4467 74.9477 32.86C74.9477 33.28 74.841 33.6567 74.6277 33.99C74.421 34.3233 74.1177 34.5867 73.7177 34.78C73.3243 34.9733 72.8577 35.07 72.3177 35.07ZM79.1688 33.33V35H78.3188C76.8855 35 76.1688 34.29 76.1688 32.87V31.02H75.4788V29.39H76.1688V28.03H78.1388V29.39H79.1588V31.02H78.1388V32.9C78.1388 33.0533 78.1722 33.1633 78.2388 33.23C78.3122 33.2967 78.4322 33.33 78.5988 33.33H79.1688ZM82.6778 35.07C82.1178 35.07 81.6145 34.9533 81.1678 34.72C80.7278 34.4867 80.3811 34.1533 80.1278 33.72C79.8745 33.2867 79.7478 32.7767 79.7478 32.19C79.7478 31.61 79.8745 31.1033 80.1278 30.67C80.3878 30.2367 80.7378 29.9033 81.1778 29.67C81.6245 29.4367 82.1278 29.32 82.6878 29.32C83.2478 29.32 83.7478 29.4367 84.1878 29.67C84.6345 29.9033 84.9845 30.2367 85.2378 30.67C85.4978 31.1033 85.6278 31.61 85.6278 32.19C85.6278 32.77 85.4978 33.28 85.2378 33.72C84.9845 34.1533 84.6345 34.4867 84.1878 34.72C83.7411 34.9533 83.2378 35.07 82.6778 35.07ZM82.6778 33.37C82.9511 33.37 83.1778 33.27 83.3578 33.07C83.5445 32.8633 83.6378 32.57 83.6378 32.19C83.6378 31.81 83.5445 31.52 83.3578 31.32C83.1778 31.12 82.9545 31.02 82.6878 31.02C82.4211 31.02 82.1978 31.12 82.0178 31.32C81.8378 31.52 81.7478 31.81 81.7478 32.19C81.7478 32.5767 81.8345 32.87 82.0078 33.07C82.1811 33.27 82.4045 33.37 82.6778 33.37ZM88.3852 30.38C88.6052 30.06 88.8719 29.8067 89.1852 29.62C89.4986 29.4333 89.8352 29.34 90.1952 29.34V31.43H89.6452C89.2186 31.43 88.9019 31.5133 88.6952 31.68C88.4886 31.8467 88.3852 32.1367 88.3852 32.55V35H86.4252V29.39H88.3852V30.38ZM96.2579 32.13C96.2579 32.2833 96.2479 32.4367 96.2279 32.59H92.5179C92.5379 32.8967 92.6212 33.1267 92.7679 33.28C92.9212 33.4267 93.1146 33.5 93.3479 33.5C93.6746 33.5 93.9079 33.3533 94.0479 33.06H96.1379C96.0512 33.4467 95.8812 33.7933 95.6279 34.1C95.3812 34.4 95.0679 34.6367 94.6879 34.81C94.3079 34.9833 93.8879 35.07 93.4279 35.07C92.8746 35.07 92.3812 34.9533 91.9479 34.72C91.5212 34.4867 91.1846 34.1533 90.9379 33.72C90.6979 33.2867 90.5779 32.7767 90.5779 32.19C90.5779 31.6033 90.6979 31.0967 90.9379 30.67C91.1779 30.2367 91.5112 29.9033 91.9379 29.67C92.3712 29.4367 92.8679 29.32 93.4279 29.32C93.9812 29.32 94.4712 29.4333 94.8979 29.66C95.3246 29.8867 95.6579 30.2133 95.8979 30.64C96.1379 31.06 96.2579 31.5567 96.2579 32.13ZM94.2579 31.64C94.2579 31.4 94.1779 31.2133 94.0179 31.08C93.8579 30.94 93.6579 30.87 93.4179 30.87C93.1779 30.87 92.9812 30.9367 92.8279 31.07C92.6746 31.1967 92.5746 31.3867 92.5279 31.64H94.2579Z" fill="white"/>
</svg>
