<svg width="150" height="99" viewBox="0 0 150 99" fill="none" xmlns="http://www.w3.org/2000/svg">
<path d="M140 99H10C4.47917 99 0 94.5656 0 89.1V9.9C0 4.43438 4.47917 0 10 0H140C145.521 0 150 4.43438 150 9.9V89.1C150 94.5656 145.521 99 140 99ZM115.804 69.6712V74.25C116.467 74.3408 117.229 74.3944 118.004 74.3944H118.071C123.879 74.3944 126.633 72.1586 129.008 65.538L139.483 36.4568H133.425L126.4 58.9215H126.275L119.25 36.4568H113.017L123.121 64.1479L122.579 65.8309C122.213 68.0955 120.25 69.8033 117.892 69.8033C117.775 69.8033 117.658 69.7991 117.542 69.7909H117.558C117.092 69.7703 116.175 69.7166 115.808 69.6712H115.804ZM23.8042 33.2227H23.6958C20.0042 33.3259 16.8167 35.3636 15.1208 38.3419L15.0958 38.3914C11.5792 44.3809 13.8167 53.5466 17.7083 59.1277C19.5333 61.7677 21.5333 64.35 24.1708 64.35H24.3125C25.4167 64.2799 26.4375 63.9953 27.3583 63.5374L27.3125 63.558C28.425 63.0052 29.7333 62.6794 31.1167 62.667C32.4542 62.6753 33.7208 62.997 34.8333 63.558L34.7875 63.5374C35.6833 63.9994 36.7375 64.2799 37.8583 64.3046H37.8667H37.9792C40.9167 64.251 42.7583 61.5821 44.3875 59.2309C45.55 57.5644 46.5125 55.6463 47.1875 53.5961L47.2333 53.4394V53.3981L47.1583 53.3651C43.9083 51.9008 41.6875 48.7245 41.6667 45.0285V45.0244C41.7 41.7409 43.4458 38.8699 46.0625 37.2405L46.1 37.2199L46.175 37.1704C44.4708 34.7449 41.7 33.1526 38.55 33.0701H38.5375C38.3917 33.0701 38.2417 33.0701 38.0958 33.0701C36.2375 33.1691 34.5042 33.6105 32.9333 34.3365L33.0208 34.2994C32.3042 34.6459 31.4708 34.8975 30.5917 35.0047L30.5542 35.0089C29.6042 34.9058 28.7375 34.65 27.9458 34.2622L27.9917 34.2829C26.7708 33.6971 25.3417 33.3135 23.8375 33.2145H23.8042V33.2227ZM99.275 40.7137C102.942 40.7137 104.967 42.4132 104.967 45.4946V47.5942L97.525 48.0315C90.5458 48.4481 86.8583 51.249 86.8583 56.1289C86.9083 60.6994 90.6583 64.383 95.2833 64.383C95.6333 64.383 95.975 64.3624 96.3125 64.3211L96.2708 64.3252C96.35 64.3294 96.4458 64.3294 96.5417 64.3294C100.162 64.3294 103.329 62.3989 105.046 59.5155L105.071 59.4701H105.196V64.0159H110.717V45.0986C110.717 39.6124 106.296 36.0731 99.4542 36.0731C93.1458 36.0731 88.4542 39.6536 88.2667 44.583H93.6417C94.2417 42.3184 96.2875 40.6766 98.7208 40.6766C98.9167 40.6766 99.1125 40.689 99.3042 40.7096L99.2792 40.7055L99.275 40.7137ZM58.3333 26.004V64.02H64.2958V51.018H72.5333C72.725 51.0304 72.9542 51.0345 73.1792 51.0345C79.9208 51.0345 85.3833 45.6266 85.3833 38.9524C85.3833 38.7832 85.3792 38.6182 85.375 38.4532V38.478C85.3833 38.3213 85.3875 38.1398 85.3875 37.9541C85.3875 31.3459 79.9792 25.9916 73.3042 25.9916C73.1042 25.9916 72.9042 25.9958 72.7083 26.004H72.7375H58.3333ZM38.5542 23.1C36.0792 23.3392 33.9208 24.5025 32.4 26.235L32.3917 26.2474C31.0042 27.786 30.1583 29.8279 30.1583 32.0636C30.1583 32.2575 30.1667 32.4514 30.1792 32.6411V32.6164C30.3208 32.6164 30.4708 32.6329 30.6375 32.6329C32.9708 32.5009 35.0167 31.3954 36.3792 29.7165L36.3917 29.7C37.7542 28.1036 38.5833 26.0246 38.5833 23.7476C38.5833 23.5208 38.575 23.2939 38.5583 23.067V23.0959L38.5542 23.1ZM97.8708 59.8166C94.7125 59.8166 92.6667 58.311 92.6667 55.9845C92.6667 53.5837 94.625 52.2019 98.3333 51.9832L104.958 51.5708V53.7199C104.812 57.1354 101.979 59.8455 98.5083 59.8455C98.2833 59.8455 98.0625 59.8331 97.8417 59.8125L97.8708 59.8166ZM71.1292 46.0804H64.2792V30.9788H71.1542C71.4458 30.9375 71.7833 30.9128 72.1292 30.9128C76.0917 30.9128 79.3042 34.0931 79.3042 38.016C79.3042 38.1892 79.2958 38.3666 79.2833 38.5358V38.511C79.2958 38.6595 79.3 38.8369 79.3 39.0143C79.3 42.9495 76.075 46.1423 72.1 46.1423C71.7583 46.1423 71.4167 46.1175 71.0875 46.0721L71.125 46.0763L71.1292 46.0804Z" fill="black"/>
</svg>
