<svg width="208" height="71" viewBox="0 0 208 71" fill="none" xmlns="http://www.w3.org/2000/svg">
<g clip-path="url(#clip0_2746_337)">
<path d="M48.3801 37.7264C48.2943 28.7422 55.7355 24.4257 56.0702 24.2202C51.8819 18.1137 45.3762 17.2743 43.0589 17.1801C37.5231 16.6149 32.2534 20.4346 29.4383 20.4346C26.6232 20.4346 22.289 17.2572 17.6972 17.3514C11.6551 17.4371 6.08495 20.8543 2.96946 26.25C-3.29586 37.0927 1.37309 53.194 7.4925 62.0069C10.4878 66.3149 14.041 71.171 18.7272 70.9911C23.2416 70.8112 24.941 68.0792 30.3824 68.0792C35.8238 68.0792 37.3601 70.9911 42.1234 70.9055C46.9726 70.8112 50.0452 66.5033 53.0148 62.1782C56.4307 57.1679 57.8468 52.329 57.9326 52.072C57.821 52.0292 48.4831 48.4578 48.3801 37.7264Z" fill="black"/>
<path d="M39.4285 11.3394C41.9175 8.33329 43.5911 4.16236 43.1362 0C39.5573 0.145597 35.223 2.38094 32.6568 5.38709C30.3567 8.0421 28.3398 12.2901 28.8891 16.3668C32.8628 16.6752 36.9481 14.337 39.4285 11.3394ZM79.7669 46.5568L75.6472 59.0182H70.3517L83.835 19.4158H90.0145L103.549 59.0182H98.0736L93.8338 46.5568H79.7669ZM92.7781 42.5572L88.8988 31.1578C88.0148 28.5713 87.4312 26.2246 86.839 23.9293H86.7274C86.1352 26.276 85.4915 28.6826 84.7276 31.0978L80.8483 42.5486L92.7781 42.5572ZM107.566 39.8593C107.566 36.2194 107.454 33.2732 107.326 30.5754H111.977L112.218 35.4572H112.329C114.449 31.9885 117.805 29.9331 122.457 29.9331C129.349 29.9331 134.524 35.7484 134.524 44.39C134.524 54.616 128.284 59.6606 121.573 59.6606C117.805 59.6606 114.509 58.0162 112.801 55.1984H112.69V70.6489H107.566V39.8593ZM112.681 47.439C112.681 48.2098 112.793 48.9035 112.922 49.5544C113.866 53.1344 116.981 55.6095 120.697 55.6095C126.173 55.6095 129.357 51.1474 129.357 44.6212C129.357 38.9172 126.353 34.0526 120.878 34.0526C117.35 34.0526 114.054 36.5791 113.042 40.4589C112.861 41.1012 112.69 41.872 112.69 42.5743L112.681 47.439ZM139.88 39.8593C139.88 36.2194 139.768 33.2732 139.639 30.5754H144.291L144.531 35.4572H144.643C146.763 31.9885 150.119 29.9331 154.77 29.9331C161.662 29.9331 166.838 35.7484 166.838 44.39C166.838 54.616 160.598 59.6606 153.886 59.6606C150.119 59.6606 146.823 58.0162 145.115 55.1984H145.003V70.6489H139.88V39.8593ZM145.003 47.439C145.003 48.2098 145.115 48.9035 145.244 49.5544C146.188 53.1344 149.303 55.6095 153.02 55.6095C158.495 55.6095 161.679 51.1474 161.679 44.6212C161.679 38.9172 158.676 34.0526 153.2 34.0526C149.672 34.0526 146.377 36.5791 145.364 40.4589C145.184 41.1012 145.012 41.872 145.012 42.5743L145.003 47.439ZM172.202 17.3004H177.386V59.0097H172.202V17.3004ZM187.805 45.7346C187.917 52.7233 192.397 55.6095 197.572 55.6095C201.28 55.6095 203.52 54.9672 205.459 54.145L206.343 57.8449C204.524 58.6671 201.4 59.6092 196.868 59.6092C188.097 59.6092 182.853 53.8538 182.853 45.2721C182.853 36.6905 187.917 29.9331 196.216 29.9331C205.52 29.9331 207.991 38.0951 207.991 43.328C207.991 44.39 207.88 45.2036 207.811 45.7346H187.805ZM202.996 42.0347C203.056 38.746 201.64 33.6329 195.813 33.6329C190.569 33.6329 188.277 38.4548 187.865 42.0347H202.996Z" fill="black"/>
</g>
<defs>
<clipPath id="clip0_2746_337">
<rect width="208" height="71" fill="white"/>
</clipPath>
</defs>
</svg>
