<svg width="14" height="17" viewBox="0 0 14 17" fill="none" xmlns="http://www.w3.org/2000/svg">
<g clip-path="url(#clip0_3037_2521)">
<path d="M8.71261 15.0599C8.46278 15.6617 8.29764 16.3149 8.23438 16.9998L13.5212 15.7788C13.771 15.1771 13.936 14.5238 13.9994 13.8389L8.71261 15.0599Z" fill="#016AB5"/>
<path d="M13.5218 12.1209C13.7716 11.5192 13.9367 10.8659 14 10.181L9.88172 11.1326V9.30326L13.5216 8.46286C13.7715 7.86114 13.9366 7.20787 13.9999 6.52294L9.8816 7.47375V0.894794C9.25056 1.27975 8.69013 1.79216 8.23456 2.39658V7.85424L6.58752 8.23459V0C5.95648 0.384817 5.39605 0.897365 4.94049 1.50179V8.61481L1.25524 9.46563C1.00541 10.0673 0.840144 10.7206 0.776754 11.4055L4.94049 10.4442V12.7479L0.478232 13.7782C0.228406 14.3799 0.0632661 15.0332 0 15.7181L4.67073 14.6397C5.05095 14.5538 5.37775 14.3095 5.59021 13.9734L6.4468 12.5937V12.5934C6.53572 12.4507 6.58752 12.2786 6.58752 12.0932V10.0638L8.23456 9.68347V13.3422L13.5216 12.1206L13.5218 12.1209Z" fill="#016AB5"/>
</g>
<defs>
<clipPath id="clip0_3037_2521">
<rect width="14" height="17" fill="white"/>
</clipPath>
</defs>
</svg>
