<svg width="21" height="24" viewBox="0 0 21 24" fill="none" xmlns="http://www.w3.org/2000/svg">
<path d="M7.58301 0C6.61651 0 5.83301 0.783498 5.83301 1.75V2.91667C5.83301 3.88317 6.61651 4.66667 7.58301 4.66667H13.4163C14.3828 4.66667 15.1663 3.88317 15.1663 2.91667V1.75C15.1663 0.783498 14.3828 0 13.4163 0H7.58301Z" fill="white"/>
<path fill-rule="evenodd" clip-rule="evenodd" d="M4.08333 2.37598C2.61577 2.45831 1.68931 2.69217 1.02513 3.35635C0 4.38148 0 6.03139 0 9.33122V16.3313C0 19.6311 0 21.281 1.02513 22.3061C2.05025 23.3313 3.70017 23.3313 7 23.3313H14C17.2998 23.3313 18.9497 23.3313 19.9748 22.3061C21 21.281 21 19.6311 21 16.3313V9.33122C21 6.03139 21 4.38148 19.9748 3.35635C19.3107 2.69217 18.3842 2.45831 16.9167 2.37598V2.91659C16.9167 4.84958 15.3497 6.41659 13.4167 6.41659H7.58333C5.65034 6.41659 4.08333 4.84958 4.08333 2.91659V2.37598ZM14.597 12.3063C14.9504 11.9766 14.9694 11.4229 14.6397 11.0696C14.31 10.7163 13.7563 10.6972 13.403 11.0269L9.00002 15.1364L7.59703 13.8269C7.24375 13.4972 6.69006 13.5163 6.36033 13.8696C6.0306 14.2229 6.04969 14.7766 6.40297 15.1063L8.40292 16.9729C8.73915 17.2867 9.26088 17.2867 9.597 16.9729L14.597 12.3063Z" fill="white"/>
</svg>
