<svg width="43" height="54" viewBox="0 0 43 54" fill="none" xmlns="http://www.w3.org/2000/svg">
<path d="M4.45209 21.105L12.6178 10.0569C17.896 2.91539 20.5352 -0.655327 22.9976 0.0992332C25.4597 0.85382 25.4597 5.23331 25.4597 13.9923V14.8182C25.4597 17.9774 25.4597 19.557 26.4693 20.5478L26.5227 20.5991C27.5539 21.5691 29.1979 21.5691 32.4859 21.5691C38.4029 21.5691 41.3616 21.5691 42.3613 23.3635C42.3779 23.3931 42.3939 23.4232 42.4096 23.4533C43.3536 25.2757 41.6405 27.5933 38.2144 32.2285L30.0488 43.2765C24.7704 50.4179 22.1312 53.9888 19.6688 53.2341C17.2067 52.4795 17.2067 48.1 17.2067 39.3408L17.2069 38.5155C17.2069 35.356 17.2069 33.7765 16.1973 32.7856L16.144 32.7344C15.1128 31.7645 13.4688 31.7645 10.1807 31.7645C4.26369 31.7645 1.30521 31.7645 0.305341 29.9699C0.288781 29.9403 0.272673 29.9104 0.257047 29.88C-0.68682 28.0579 1.02614 25.7403 4.45209 21.105Z" fill="#A71755"/>
</svg>
