<svg width="34" height="34" viewBox="0 0 34 34" fill="none" xmlns="http://www.w3.org/2000/svg">
<path fill-rule="evenodd" clip-rule="evenodd" d="M0.558945 9.79158C-0.341822 11.6705 -0.0256218 13.868 0.606778 18.2632L1.07139 21.492C1.88374 27.1378 2.28993 29.9607 4.24838 31.647C6.20681 33.3333 9.07895 33.3333 14.8232 33.3333H18.5102C24.2543 33.3333 27.1265 33.3333 29.085 31.647C31.0433 29.9607 31.4495 27.1378 32.262 21.492L32.7265 18.2632C33.359 13.868 33.6752 11.6705 32.7743 9.79158C31.8737 7.91267 29.9563 6.77057 26.1218 4.48635L23.8137 3.11145C20.3317 1.03715 18.5905 0 16.6667 0C14.7428 0 13.0017 1.03715 9.51958 3.11145L7.21151 4.48635C3.37698 6.77057 1.45971 7.91267 0.558945 9.79158ZM16.6667 27.9167C15.9763 27.9167 15.4167 27.357 15.4167 26.6667V21.6667C15.4167 20.9763 15.9763 20.4167 16.6667 20.4167C17.357 20.4167 17.9167 20.9763 17.9167 21.6667V26.6667C17.9167 27.357 17.357 27.9167 16.6667 27.9167Z" fill="#0D1214"/>
<path fill-rule="evenodd" clip-rule="evenodd" d="M0.558945 9.79158C-0.341822 11.6705 -0.0256218 13.868 0.606778 18.2632L1.07139 21.492C1.88374 27.1378 2.28993 29.9607 4.24838 31.647C6.20681 33.3333 9.07895 33.3333 14.8232 33.3333H18.5102C24.2543 33.3333 27.1265 33.3333 29.085 31.647C31.0433 29.9607 31.4495 27.1378 32.262 21.492L32.7265 18.2632C33.359 13.868 33.6752 11.6705 32.7743 9.79158C31.8737 7.91267 29.9563 6.77057 26.1218 4.48635L23.8137 3.11145C20.3317 1.03715 18.5905 0 16.6667 0C14.7428 0 13.0017 1.03715 9.51958 3.11145L7.21151 4.48635C3.37698 6.77057 1.45971 7.91267 0.558945 9.79158ZM16.6667 27.9167C15.9763 27.9167 15.4167 27.357 15.4167 26.6667V21.6667C15.4167 20.9763 15.9763 20.4167 16.6667 20.4167C17.357 20.4167 17.9167 20.9763 17.9167 21.6667V26.6667C17.9167 27.357 17.357 27.9167 16.6667 27.9167Z" fill="black" fill-opacity="0.2"/>
</svg>
