<svg width="370" height="125" viewBox="0 0 370 125" fill="none" xmlns="http://www.w3.org/2000/svg">
<path fillRule="evenodd" clipRule="evenodd" d="M71.4953 47.4655C92.2004 38.1659 116.815 46.7923 126.473 66.7336C136.131 86.6706 127.172 110.375 106.463 119.67C85.7576 128.97 0.546387 123.274 0.546387 123.274C0.546387 123.274 50.7902 56.7608 71.4953 47.4612V47.4655Z" fill="#6D7172"/>
<path fillRule="evenodd" clipRule="evenodd" d="M59.408 77.5347C38.7029 86.8343 14.088 78.2079 4.43023 58.2666C-5.22755 38.3296 3.73114 14.6253 24.4406 5.33005C45.1457 -3.96956 130.357 1.72672 130.357 1.72672C130.357 1.72672 80.1131 68.2394 59.408 77.539V77.5347Z" fill="url(#paint0_linear_17_793)"/>
<path fillRule="evenodd" clipRule="evenodd" d="M71.4953 47.4655C92.2004 38.1659 116.815 46.7923 126.473 66.7336C136.131 86.6706 127.172 110.375 106.463 119.67C85.7576 128.97 0.546387 123.274 0.546387 123.274C0.546387 123.274 50.7902 56.7608 71.4953 47.4612V47.4655Z" fill="url(#paint1_linear_17_793)"/>
<path d="M187.513 67.6698C189.372 68.3689 191.345 68.9601 193.429 69.4434C195.518 69.9311 197.658 70.3238 199.846 70.6259C202.034 70.9279 204.187 71.079 206.31 71.079C208.761 71.079 211.036 70.8977 213.124 70.5352C215.213 70.1727 217.021 69.5988 218.544 68.8091C220.068 68.0237 221.276 67.0053 222.174 65.7667C223.067 64.5239 223.516 63.0524 223.516 61.3565C223.516 59.8418 223.153 58.5385 222.42 57.4467C221.69 56.3549 220.663 55.4142 219.338 54.6288C218.014 53.8391 216.404 53.1702 214.514 52.6265C212.628 52.0827 210.518 51.5347 208.2 50.9909L201.533 49.446C194.175 47.8062 188.639 45.1091 184.928 41.3504C181.216 37.5961 179.357 32.957 179.357 27.4377C179.357 24.4687 180.051 21.7414 181.445 19.2514C182.835 16.7658 184.824 14.6297 187.413 12.8388C189.998 11.0522 193.084 9.67133 196.661 8.70469C200.239 7.73373 204.222 7.24609 208.593 7.24609C211.113 7.24609 213.685 7.41439 216.305 7.74668C218.924 8.07896 221.457 8.54933 223.913 9.1578C226.364 9.76195 228.703 10.461 230.925 11.2464C233.148 12.0361 235.12 12.9165 236.841 13.8831L231.171 25.431C228.189 23.6747 224.642 22.2808 220.529 21.2495C216.417 20.2181 212.408 19.7045 208.494 19.7045C206.569 19.7045 204.748 19.8729 203.022 20.2051C201.296 20.5374 199.773 21.038 198.448 21.7026C197.123 22.3671 196.079 23.2043 195.315 24.2055C194.551 25.2066 194.171 26.3761 194.171 27.7052C194.171 30.1305 195.181 32.0681 197.205 33.5267C199.224 34.9809 202.491 36.2238 207.001 37.2551L213.763 38.8C217.142 39.5854 220.344 40.5866 223.36 41.7992C226.377 43.0118 229.013 44.5265 231.266 46.3433C233.519 48.1644 235.31 50.3134 236.634 52.7991C237.959 55.2847 238.624 58.1631 238.624 61.4384C238.624 65.0159 237.812 68.1661 236.186 70.8977C234.563 73.625 232.341 75.9122 229.523 77.7635C226.705 79.6104 223.339 81.0216 219.429 81.9925C215.515 82.9635 211.273 83.4468 206.699 83.4468C203.911 83.4468 201.11 83.2785 198.297 82.9462C195.479 82.6139 192.773 82.1608 190.192 81.5826C187.607 81.0086 185.187 80.3268 182.934 79.5371C180.677 78.7517 178.688 77.867 176.966 76.9004L182.636 65.3525C184.03 66.2026 185.653 66.9751 187.508 67.6698H187.513Z" fill="#091B3C"/>
<path d="M283.637 70.6263C285.26 70.3847 286.818 70.0653 288.311 69.6726C289.804 69.2756 291.176 68.8052 292.44 68.2615C293.696 67.7178 294.693 67.1136 295.422 66.4404L301.589 77.8071C298.607 79.3218 295.159 80.6423 291.245 81.7599C287.331 82.8776 282.627 83.443 277.125 83.443C272.685 83.443 268.589 82.7611 264.844 81.3975C261.098 80.0338 257.849 78.1394 255.1 75.7098C252.346 73.2846 250.206 70.4235 248.683 67.1179C247.159 63.8167 246.396 60.2522 246.396 56.4374C246.396 52.6226 247.172 48.8596 248.734 45.5238C250.292 42.1881 252.411 39.327 255.1 36.932C257.784 34.5369 260.934 32.6727 264.546 31.3392C268.158 30.0015 272.02 29.3369 276.128 29.3369C280.439 29.3369 284.401 30.036 288.017 31.4299C291.629 32.8194 294.728 34.8692 297.317 37.5663C299.902 40.2634 301.891 43.5517 303.285 47.4312C304.675 51.3107 305.274 55.7081 305.076 60.6147H260.718C261.646 64.1317 263.584 66.7382 266.54 68.4341C269.487 70.1344 273.151 70.9802 277.531 70.9802H279.024C280.483 70.9802 282.023 70.855 283.65 70.6134L283.637 70.6263ZM266.384 43.3014C263.799 45.0923 262.073 47.3492 261.21 50.0766H290.451C289.717 46.9263 288.065 44.5615 285.475 42.9864C282.891 41.407 279.71 40.6216 275.93 40.6216C272.15 40.6216 268.969 41.5149 266.38 43.3014H266.384Z" fill="#091B3C"/>
<path d="M330.286 82.5367C327.071 81.9283 324.249 80.9573 321.833 79.6282C319.412 78.2904 317.474 76.5513 316.016 74.3979C314.557 72.2446 313.828 69.5949 313.828 66.4404C313.828 63.5923 314.475 61.0764 315.765 58.8928C317.06 56.7093 318.851 54.8925 321.138 53.4382C323.425 51.9796 326.178 50.8922 329.393 50.1629C332.608 49.4379 336.104 49.0711 339.884 49.0711C341.407 49.0711 343.086 49.1185 344.907 49.2092C346.732 49.2998 348.704 49.4983 350.823 49.8004V49.0711C350.823 46.1625 349.632 44.1904 347.246 43.159C344.859 42.132 341.744 41.6141 337.894 41.6141C336.436 41.6141 334.843 41.735 333.122 41.9766C331.395 42.2226 329.656 42.5549 327.9 42.9778C326.144 43.4007 324.435 43.884 322.778 44.4321C321.121 44.9758 319.597 45.5541 318.208 46.1582L319.999 33.156C322.251 32.1246 325.134 31.227 328.651 30.4719C332.164 29.7124 335.879 29.3369 339.789 29.3369C343.366 29.3369 346.685 29.6994 349.731 30.4287C352.782 31.158 355.419 32.3102 357.637 33.8853C359.86 35.4647 361.599 37.5534 362.859 40.1598C364.119 42.7706 364.749 45.9209 364.749 49.6191V79.4469C361.167 80.72 357.257 81.7038 353.011 82.4029C348.769 83.0977 344.557 83.4473 340.384 83.4473C336.872 83.4473 333.501 83.1452 330.291 82.541L330.286 82.5367ZM346.249 59.3934C344.527 59.182 342.9 59.0784 341.377 59.0784C339.586 59.0784 337.912 59.182 336.354 59.3934C334.796 59.6049 333.419 59.9717 332.224 60.4895C331.033 61.0031 330.088 61.6849 329.393 62.535C328.694 63.3851 328.349 64.4165 328.349 65.6291C328.349 67.9939 329.523 69.6467 331.879 70.5832C334.235 71.5239 337.135 71.9943 340.583 71.9943C342.305 71.9943 344.061 71.8735 345.852 71.6275C347.643 71.3858 349.296 71.0233 350.823 70.5357V60.1702C349.498 59.8681 347.971 59.6092 346.249 59.3977V59.3934Z" fill="#091B3C"/>
<path d="M182.343 106.361V117.56H180.694V106.361H176.966V105.023H186.076V106.361H182.347H182.343Z" fill="#091B3C"/>
<path d="M208.675 112.825C208.675 110.012 210.134 108.022 212.935 108.022C215.735 108.022 217.194 110.016 217.194 112.825C217.194 115.635 215.735 117.628 212.935 117.628C210.134 117.628 208.675 115.622 208.675 112.825ZM210.099 112.825C210.099 114.832 210.949 116.537 212.939 116.537C214.928 116.537 215.74 114.836 215.74 112.825C215.74 110.815 214.928 109.114 212.939 109.114C210.949 109.114 210.099 110.797 210.099 112.825Z" fill="#091B3C"/>
<path d="M248.023 108.312V117.555H246.508V116.459C245.373 117.339 244.311 117.741 243.081 117.741C241.17 117.741 240.203 116.701 240.203 114.763V108.312H241.718V114.306C241.718 115.622 242.344 116.312 243.686 116.312C244.859 116.312 245.938 115.6 246.508 115.143V108.312H248.023Z" fill="#091B3C"/>
<path d="M271.33 117.504V108.312H272.845V109.939C273.807 108.735 275.115 108.222 276.383 108.222V109.408C274.925 109.318 273.332 110.341 272.845 111.091V117.504H271.33Z" fill="#091B3C"/>
<path d="M298.556 106.417C298.556 105.977 298.953 105.593 299.427 105.593C299.902 105.593 300.299 105.977 300.299 106.417C300.299 106.857 299.902 107.254 299.427 107.254C298.953 107.254 298.556 106.87 298.556 106.417ZM300.204 117.503H298.689V108.445H300.204V117.503Z" fill="#091B3C"/>
<path d="M323.602 117.12V115.985C324.871 116.442 326.196 116.606 326.916 116.606C328.884 116.606 329.259 115.618 329.259 115.092C329.259 114.104 328.125 113.754 326.877 113.353C325.458 112.895 323.809 112.352 323.809 110.595C323.809 108.839 325.229 107.851 327.689 107.851C328.901 107.851 329.79 108.071 330.813 108.455V109.59C329.544 109.098 328.711 108.986 328.047 108.986C326.118 108.986 325.531 109.866 325.531 110.483C325.531 111.488 326.726 111.834 328.012 112.257C329.428 112.731 331.003 113.297 331.003 114.958C331.003 116.619 329.449 117.754 327.197 117.754C325.984 117.754 324.854 117.573 323.602 117.116V117.12Z" fill="#091B3C"/>
<path d="M367.908 111.109V117.504H366.393V111.566C366.393 110.25 365.767 109.559 364.442 109.559C363.307 109.559 362.341 110.237 361.681 110.785C361.715 111.018 361.737 111.277 361.737 111.57V117.508H360.205V111.57C360.205 110.254 359.579 109.564 358.254 109.564C357.08 109.564 356.131 110.293 355.548 110.75V117.513H354.034V108.321H355.548V109.603C356.476 108.744 357.477 108.14 358.841 108.14C360.205 108.14 361.094 108.653 361.495 109.732C362.686 108.653 363.73 108.14 365.034 108.14C366.963 108.14 367.912 109.167 367.912 111.117L367.908 111.109Z" fill="#091B3C"/>
<defs>
<linearGradient id="paint0_linear_17_793" x1="0.542087" y1="40.6384" x2="130.357" y2="40.6384" gradientUnits="userSpaceOnUse">
<stop stop-color="#016AB5"/>
<stop offset="0.27" stop-color="#016AB5"/>
<stop offset="0.65" stop-color="#174474"/>
<stop offset="1" stop-color="#174474"/>
</linearGradient>
<linearGradient id="paint1_linear_17_793" x1="0.542071" y1="84.3619" x2="130.357" y2="84.3619" gradientUnits="userSpaceOnUse">
<stop stop-color="#A71755"/>
<stop offset="0.35" stop-color="#A71755"/>
<stop offset="0.61" stop-color="#6F0635"/>
<stop offset="1" stop-color="#0D1214"/>
</linearGradient>
</defs>
</svg>
