<svg width="34" height="34" viewBox="0 0 34 34" fill="none" xmlns="http://www.w3.org/2000/svg">
<path fill-rule="evenodd" clip-rule="evenodd" d="M18.5102 33.3333H14.8232C9.07895 33.3333 6.20681 33.3333 4.24838 31.647C2.28993 29.9607 1.88374 27.1378 1.07139 21.492L0.606778 18.2632C-0.0256218 13.868 -0.341822 11.6705 0.558945 9.79158C1.45971 7.91267 3.37698 6.77057 7.21151 4.48635L9.51958 3.11145C13.0017 1.03715 14.7428 0 16.6667 0C18.5905 0 20.3317 1.03715 23.8137 3.11145L26.1218 4.48635C29.9563 6.77057 31.8737 7.91267 32.7743 9.79158C33.6752 11.6705 33.359 13.868 32.7265 18.2632L32.262 21.492C31.4495 27.1378 31.0433 29.9607 29.085 31.647C27.1265 33.3333 24.2543 33.3333 18.5102 33.3333ZM10.6626 22.5887C11.0737 22.034 11.8566 21.9177 12.4112 22.3288C13.6252 23.2285 15.0903 23.7497 16.6668 23.7497C18.2433 23.7497 19.7085 23.2285 20.9225 22.3288C21.4772 21.9177 22.26 22.034 22.671 22.5887C23.0822 23.1432 22.9658 23.9262 22.4112 24.3372C20.7905 25.5385 18.8085 26.2497 16.6668 26.2497C14.5252 26.2497 12.5432 25.5385 10.9225 24.3372C10.3679 23.9262 10.2515 23.1432 10.6626 22.5887Z" fill="black"/>
</svg>
