<svg width="22" height="19" viewBox="0 0 22 19" fill="none" xmlns="http://www.w3.org/2000/svg">
<path d="M8.32256 0.712663L2.10031 6.24359C0.937063 7.27753 0.355436 7.79453 0.141186 8.40503C-0.0470638 8.94115 -0.0470638 9.52528 0.141186 10.0614C0.355436 10.6719 0.937063 11.1889 2.10031 12.2229L8.32256 17.7538C8.85044 18.223 9.11444 18.4577 9.33856 18.466C9.53331 18.4733 9.72031 18.3893 9.84431 18.2389C9.98694 18.0658 9.98694 17.7127 9.98694 17.0064V13.5189C13.0221 13.5189 16.2278 14.4938 18.5686 16.2242C19.7872 17.125 20.3965 17.5755 20.6286 17.5578C20.8548 17.5404 20.9984 17.4522 21.1157 17.2579C21.2362 17.0588 21.1298 16.4364 20.9171 15.1917C19.5359 7.1089 13.9734 4.94751 9.98694 4.94751V1.46008C9.98694 0.753801 9.98694 0.400663 9.84431 0.227538C9.72031 0.0771258 9.53331 -0.00684947 9.33856 0.000438033C9.11444 0.00882553 8.85044 0.243438 8.32256 0.712663Z" fill="#016AB5"/>
</svg>
