<svg width="150" height="51" viewBox="0 0 150 51" fill="none" xmlns="http://www.w3.org/2000/svg">
<path d="M63.4506 28.8435H0V49.9812H63.4506V28.8435Z" fill="#84B740"/>
<path d="M63.4506 0H0V21.1565H63.4506V0Z" fill="#259BD6"/>
<path d="M126.902 45.687L126.619 45.7435C125.639 45.9319 125.281 46.0072 124.565 46.0072C122.908 46.0072 120.948 45.1595 120.948 41.1656C120.948 39.1121 121.287 36.3804 124.377 36.3804H124.396C124.923 36.4181 125.526 36.4746 126.657 36.8137L126.902 36.889V45.687ZM127.41 25.7739L126.902 25.8681V33.2531L126.449 33.1212L126.317 33.0835C125.809 32.9328 124.641 32.5937 123.51 32.5937C117.331 32.5937 116.031 37.2658 116.031 41.1844C116.031 46.5536 119.046 49.6432 124.302 49.6432C126.525 49.6432 128.164 49.4172 129.822 48.8708C131.348 48.381 131.894 47.6839 131.894 46.1956V25.0015C130.424 25.2652 128.898 25.529 127.41 25.7739Z" fill="#27292D"/>
<path d="M145.265 45.8179L145.002 45.8933L144.06 46.1382C143.174 46.3642 142.383 46.4961 141.78 46.4961C140.329 46.4961 139.463 45.7802 139.463 44.5557C139.463 43.7644 139.821 42.4268 142.194 42.4268H145.265V45.8179ZM143.099 32.4985C141.196 32.4985 139.237 32.8376 136.806 33.5912L135.224 34.0622L135.751 37.6417L137.296 37.133C138.916 36.6055 140.932 36.2664 142.439 36.2664C143.118 36.2664 145.19 36.2664 145.19 38.5083V39.4879H142.308C137.051 39.4879 134.621 41.1646 134.621 44.7629C134.621 47.8337 136.863 49.6799 140.631 49.6799C141.799 49.6799 143.419 49.4539 144.813 49.1148L144.888 49.0959L144.964 49.1148L145.435 49.1901C146.904 49.4539 148.43 49.7176 149.919 50.0002V38.2445C149.919 34.439 147.62 32.4985 143.099 32.4985Z" fill="#27292D"/>
<path d="M108.664 45.8179L108.4 45.8933L107.458 46.1382C106.573 46.3642 105.8 46.4961 105.178 46.4961C103.728 46.4961 102.861 45.7802 102.861 44.5557C102.861 43.7644 103.219 42.4268 105.574 42.4268H108.645V45.8179H108.664ZM106.516 32.4985C104.594 32.4985 102.654 32.8376 100.224 33.5912L98.6412 34.0622L99.1687 37.6417L100.714 37.133C102.334 36.6055 104.35 36.2664 105.857 36.2664C106.535 36.2664 108.607 36.2664 108.607 38.5083V39.4879H105.725C100.469 39.4879 98.0195 41.1646 98.0195 44.7629C98.0195 47.8337 100.261 49.68 104.048 49.68C105.216 49.68 106.836 49.4539 108.23 49.1148L108.306 49.0959L108.381 49.1148L108.833 49.1901C110.322 49.4539 111.829 49.7176 113.317 50.0191V38.2634C113.336 34.4201 111.037 32.4985 106.516 32.4985Z" fill="#27292D"/>
<path d="M88.8275 32.5362C86.4349 32.5362 84.4568 33.3274 83.722 33.6665L83.5336 33.7607L83.3641 33.6288C82.3468 32.8941 80.8585 32.5173 78.7861 32.5173C76.9587 32.5173 75.2444 32.7811 73.3793 33.3274C71.7779 33.8172 71.1562 34.5896 71.1562 36.0403V49.4727H76.1675V37.0576L76.4124 36.9822C77.4297 36.6431 78.0326 36.5866 78.6166 36.5866C80.0672 36.5866 80.802 37.359 80.802 38.8662V49.4915H85.7378V38.6589C85.7378 38.0184 85.606 37.6416 85.5871 37.5663L85.4176 37.246L85.7567 37.0953C86.5102 36.7562 87.3392 36.5866 88.2058 36.5866C89.2043 36.5866 90.3911 36.9822 90.3911 38.8662V49.4915H95.3082V38.3763C95.3082 34.4389 93.1982 32.5362 88.8275 32.5362Z" fill="#27292D"/>
<path d="M141.577 13.7903C140.843 13.7903 139.618 13.715 138.657 13.5266L138.375 13.4701V6.21696C138.375 5.6141 138.262 5.23732 138.243 5.1808L138.092 4.87937L138.412 4.7475C138.488 4.70982 138.563 4.69098 138.657 4.6533L138.714 4.61562C138.827 4.57794 138.94 4.54027 139.053 4.50259C139.109 4.48375 139.147 4.46491 139.185 4.46491C140.296 4.16348 141.314 4.20116 141.766 4.16348H141.785C144.855 4.16348 145.213 6.89517 145.213 8.94865C145.194 12.9426 143.216 13.7903 141.577 13.7903ZM141.558 0C141.521 0 141.464 0 141.427 0C138.544 0 135.586 0.791254 134.531 2.33607C133.966 3.08964 133.646 4.03161 133.627 5.14312V12.6223C133.627 13.2628 133.495 13.5078 133.476 13.5643L133.307 13.8845H124.207V8.6849H124.189C124.076 3.20268 120.835 0.188393 116.144 0.188393H115.598H111.566C111.378 1.52598 111.227 2.46795 111.039 3.80553H115.598C117.991 3.80553 119.253 5.84017 119.253 8.96749V14.2048L118.932 14.0353C118.876 14.0164 118.48 13.8845 117.859 13.8845H109.984C109.833 14.883 109.645 16.1829 109.438 17.4828H133.646C134.475 17.3133 135.436 17.1626 136.265 17.0307C137.489 17.6336 139.769 17.9538 141.332 17.9538C146.589 17.9538 149.998 14.4309 149.998 9.00517C149.98 3.63598 146.683 0.113036 141.558 0Z" fill="#27292D"/>
<path d="M99.1137 19.6881H99.3398C104.596 19.6881 107.045 17.9548 107.045 13.6783C107.045 10.6075 104.803 8.15843 101.035 8.15843H96.1936C94.743 8.15843 93.8764 7.32949 93.8764 5.93539C93.8764 4.99342 94.2344 3.82539 96.6081 3.82539H107.196C107.422 2.45013 107.535 1.58352 107.742 0.208252H96.74C91.6157 0.208252 89.0347 2.35593 89.0347 5.93539C89.0347 9.47717 91.2766 11.3234 95.0444 11.3234H99.8861C101.337 11.3234 102.203 12.4726 102.203 13.6783C102.203 14.4696 101.845 16.1086 99.4905 16.1086H98.6804L83.1757 16.0709H80.3498C77.9572 16.0709 76.2805 14.7145 76.2805 11.5683V9.40182C76.2805 6.12379 77.5804 4.08914 80.3498 4.08914H84.9466C85.1538 2.69504 85.2857 1.80959 85.4741 0.490841H79.747H79.2006C74.5096 0.490841 71.2693 3.637 71.1562 9.11923V9.32646V11.5683C71.2693 17.0506 74.5096 19.6692 79.2006 19.6692H79.747H83.7786L92.1809 19.6881H97.1921H99.1137Z" fill="#27292D"/>
</svg>
