<svg width="51" height="51" viewBox="0 0 51 51" fill="none" xmlns="http://www.w3.org/2000/svg">
<path d="M2.25208 4.91858C-0.750693 7.92133 -0.750693 12.7898 2.25208 15.7925L6.48605 20.0265C6.51784 19.9898 6.55117 19.9539 6.58608 19.919L17.2527 9.25229C17.2876 9.21749 17.3233 9.18424 17.36 9.15253L13.126 4.91858C10.1233 1.91581 5.25483 1.91581 2.25208 4.91858Z" fill="#A71755"/>
<path d="M20.181 11.9736C20.1493 12.0103 20.1159 12.0461 20.081 12.0809L9.41443 22.7474C9.37952 22.7824 9.34366 22.8157 9.30688 22.8474L34.8738 48.4146C37.8767 51.4173 42.745 51.4173 45.7479 48.4146C48.7506 45.4117 48.7506 40.5434 45.7479 37.5405L20.181 11.9736Z" fill="#A71755"/>
<path d="M34.9334 0.81918C35.3628 -0.27306 36.9028 -0.27306 37.3318 0.81918L38.4796 3.73993C38.6108 4.07339 38.8737 4.33737 39.206 4.46889L42.1158 5.62081C43.2041 6.05158 43.2041 7.59734 42.1158 8.02811L39.206 9.18006C38.8737 9.31158 38.6108 9.57553 38.4796 9.90899L37.3321 12.8297C36.9028 13.922 35.3628 13.922 34.9334 12.8298L33.786 9.90899C33.6548 9.57553 33.3918 9.31158 33.0596 9.18006L30.1497 8.02811C29.0614 7.59734 29.0614 6.05158 30.1497 5.62081L33.0596 4.46889C33.3918 4.33737 33.6548 4.07339 33.786 3.73993L34.9334 0.81918Z" fill="#A71755"/>
<path d="M45.246 19.012C45.6751 17.9198 47.2153 17.9198 47.6444 19.012L48.0628 20.077C48.194 20.4104 48.4569 20.6744 48.7892 20.8059L49.85 21.2259C50.9383 21.6567 50.9383 23.2026 49.85 23.6332L48.7892 24.0532C48.4569 24.1847 48.194 24.4487 48.0628 24.782L47.6444 25.8471C47.2153 26.9394 45.6751 26.9394 45.246 25.8471L44.8276 24.782C44.6964 24.4487 44.4335 24.1847 44.1012 24.0532L43.0401 23.6332C41.9521 23.2026 41.9521 21.6567 43.0401 21.2259L44.1012 20.8059C44.4335 20.6744 44.6964 20.4104 44.8276 20.077L45.246 19.012Z" fill="#A71755"/>
<path d="M5.68862 35.4857C6.11779 34.3934 7.65787 34.3934 8.08704 35.4857L8.5055 36.5505C8.63654 36.8841 8.89952 37.1481 9.23176 37.2796L10.2927 37.6996C11.381 38.1302 11.381 39.6761 10.2927 40.1068L9.23176 40.5268C8.89952 40.6582 8.63654 40.9222 8.5055 41.2558L8.08704 42.3206C7.65787 43.4129 6.11779 43.4129 5.68862 42.3206L5.27016 41.2558C5.13912 40.9222 4.87614 40.6582 4.5439 40.5268L3.48291 40.1068C2.39469 39.6761 2.39469 38.1302 3.48291 37.6996L4.5439 37.2796C4.87614 37.1481 5.13912 36.8841 5.27016 36.5505L5.68862 35.4857Z" fill="#A71755"/>
</svg>
