<svg width="150" height="117" viewBox="0 0 150 117" fill="none" xmlns="http://www.w3.org/2000/svg">
<path d="M27.2159 115.957V108.236C27.2159 105.274 25.4137 103.345 22.4556 103.345C20.9019 103.345 19.2395 103.86 18.0805 105.52C17.1793 104.103 15.9053 103.345 13.9633 103.345C13.2412 103.313 12.5227 103.462 11.872 103.776C11.2212 104.091 10.6586 104.562 10.2345 105.147V103.593H7.78906V115.948H10.2345V108.879C10.2345 106.704 11.5209 105.663 13.3232 105.663C15.1254 105.663 16.1539 106.822 16.1539 108.879V115.957H18.5994V108.879C18.5994 106.704 19.8858 105.663 21.688 105.663C23.4903 105.663 24.5188 106.822 24.5188 108.879V115.957H27.2159ZM67.3686 103.73H62.863V100.001H60.4237V103.73H57.8509V105.905H60.4237V111.71C60.4237 114.54 61.4523 116.215 64.5409 116.215C65.7111 116.191 66.8576 115.882 67.8813 115.314L67.1076 113.139C66.4133 113.573 65.6081 113.796 64.7895 113.782C63.5031 113.782 62.8599 113.008 62.8599 111.722V105.806H67.3655V103.745L67.3686 103.73ZM90.2756 103.345C89.6096 103.33 88.951 103.488 88.3644 103.804C87.7778 104.12 87.2833 104.582 86.9291 105.147V103.593H84.4836V115.948H86.9291V109.009C86.9291 106.949 87.9576 105.663 89.6324 105.663C90.1976 105.686 90.7584 105.772 91.3042 105.921L92.0779 103.602C91.4878 103.454 90.8838 103.367 90.2756 103.345ZM55.6571 104.631C54.3707 103.73 52.5685 103.345 50.6388 103.345C47.5502 103.345 45.6205 104.761 45.6205 107.207C45.6205 109.267 47.0375 110.423 49.7377 110.812L51.0241 110.939C52.4411 111.197 53.3422 111.713 53.3422 112.356C53.3422 113.257 52.3137 113.91 50.3809 113.91C48.9051 113.94 47.4597 113.488 46.2637 112.623L44.9773 114.553C46.7796 115.839 48.9671 116.106 50.2597 116.106C53.8642 116.106 55.7938 114.435 55.7938 112.117C55.7938 109.941 54.2402 108.9 51.5462 108.512L50.2597 108.385C49.1007 108.257 48.0846 107.869 48.0846 107.098C48.0846 106.197 49.1131 105.545 50.5301 105.545C52.0837 105.545 53.6187 106.188 54.3925 106.573L55.6571 104.631ZM92.979 109.78C92.979 113.509 95.4244 116.215 99.4142 116.215C101.216 116.215 102.503 115.83 103.789 114.798L102.503 112.869C101.592 113.606 100.459 114.015 99.2868 114.028C97.1117 114.028 95.4244 112.356 95.4244 109.91C95.4244 107.465 97.09 105.806 99.2868 105.806C100.459 105.819 101.592 106.227 102.503 106.965L103.789 105.035C102.503 104.006 101.216 103.618 99.4142 103.618C95.5518 103.36 92.979 106.063 92.979 109.795V109.78ZM75.7334 103.345C72.129 103.345 69.6835 105.917 69.6835 109.78C69.6835 113.642 72.2564 116.215 75.9882 116.215C77.8038 116.254 79.5767 115.663 81.0065 114.543L79.7201 112.741C78.686 113.543 77.4234 113.993 76.1156 114.028C74.4439 114.028 72.6417 112.999 72.3869 110.812H81.5255V109.783C81.5255 105.921 79.2074 103.348 75.7334 103.348V103.345ZM75.606 105.663C77.4083 105.663 78.6947 106.822 78.8221 108.751H72.1321C72.5174 106.949 73.6857 105.663 75.606 105.663ZM42.274 109.78V103.602H39.8285V105.156C38.9274 103.997 37.6534 103.354 35.8387 103.354C32.3648 103.354 29.7888 106.057 29.7888 109.789C29.7888 113.521 32.3616 116.225 35.8387 116.225C37.641 116.225 38.9274 115.581 39.8285 114.422V115.976H42.274V109.78ZM32.3648 109.78C32.3648 107.462 33.7817 105.663 36.2271 105.663C38.5452 105.663 39.9559 107.465 39.9559 109.78C39.9559 112.225 38.4023 113.897 36.2271 113.897C33.7817 114.025 32.3648 112.095 32.3648 109.78ZM127.473 103.345C126.807 103.33 126.149 103.488 125.562 103.804C124.975 104.12 124.481 104.582 124.127 105.147V103.593H121.681V115.948H124.124V109.009C124.124 106.949 125.152 105.663 126.827 105.663C127.392 105.686 127.953 105.772 128.499 105.921L129.272 103.602C128.682 103.454 128.078 103.367 127.47 103.345H127.473ZM117.949 109.78V103.602H115.504V105.156C114.603 103.997 113.329 103.354 111.514 103.354C108.04 103.354 105.464 106.057 105.464 109.789C105.464 113.521 108.037 116.225 111.514 116.225C113.316 116.225 114.603 115.581 115.504 114.422V115.976H117.949V109.78ZM108.04 109.78C108.04 107.462 109.457 105.663 111.902 105.663C114.221 105.663 115.631 107.465 115.631 109.78C115.631 112.225 114.078 113.897 111.902 113.897C109.457 114.025 108.04 112.095 108.04 109.78ZM142.789 109.78V98.7114H140.344V105.147C139.443 103.988 138.169 103.345 136.354 103.345C132.88 103.345 130.304 106.048 130.304 109.78C130.304 113.512 132.877 116.215 136.354 116.215C138.156 116.215 139.443 115.572 140.344 114.413V115.967H142.789V109.78ZM132.88 109.78C132.88 107.462 134.297 105.663 136.742 105.663C139.06 105.663 140.471 107.465 140.471 109.78C140.471 112.225 138.917 113.897 136.742 113.897C134.294 114.028 132.877 112.098 132.877 109.78H132.88Z" fill="black"/>
<path d="M97.4902 9.91089H52.832V82.7539H97.4902V9.91089Z" fill="#FF5F00"/>
<path d="M57.3346 46.3309C57.3361 39.3234 58.923 32.407 61.9762 26.0996C65.0295 19.7923 69.4701 14.2574 74.9655 9.90943C68.1312 4.5359 59.9229 1.19378 51.2788 0.265105C42.6348 -0.663567 33.9039 0.858688 26.0842 4.65786C18.2645 8.45703 11.6714 14.3798 7.05878 21.7491C2.44613 29.1185 0 37.637 0 46.3309C0 55.0249 2.44613 63.5434 7.05878 70.9127C11.6714 78.2821 18.2645 84.2048 26.0842 88.004C33.9039 91.8032 42.6348 93.3254 51.2788 92.3968C59.9229 91.4681 68.1312 88.126 74.9655 82.7524C69.4701 78.4045 65.0295 72.8696 61.9762 66.5622C58.923 60.2549 57.3361 53.3385 57.3346 46.3309Z" fill="#EB001B"/>
<path d="M149.999 46.3315C150.006 55.0191 147.567 63.5331 142.962 70.8997C138.357 78.2664 131.771 84.1881 123.959 87.9878C116.146 91.7875 107.422 93.3116 98.7842 92.3858C90.1463 91.4601 81.9432 88.1219 75.1133 82.753C80.61 78.4062 85.0515 72.8716 88.105 66.564C91.1585 60.2563 92.7446 53.3394 92.7446 46.3315C92.7446 39.3237 91.1585 32.4067 88.105 26.0991C85.0515 19.7915 80.61 14.2569 75.1133 9.91003C81.9432 4.54115 90.1463 1.20294 98.7842 0.277214C107.422 -0.648515 116.146 0.87561 123.959 4.67527C131.771 8.47493 138.357 14.3967 142.962 21.7633C147.567 29.1299 150.006 37.6439 149.999 46.3315Z" fill="#F79E1B"/>
</svg>
