<svg width="17" height="14" viewBox="0 0 17 14" fill="none" xmlns="http://www.w3.org/2000/svg">
<path d="M0 9.86694V12.6451C0 13.2801 0.5112 13.7945 1.14228 13.7945H3.90276V9.86694H0Z" fill="#2167D1"/>
<path d="M3.90276 3.92749H0V9.86677H3.90276V3.92749Z" fill="#3D84F3"/>
<path d="M15.7244 1.66323L13.2305 3.72081V10.1698L15.7357 12.2371C16.1106 12.5322 16.6591 12.2631 16.6591 11.7832V2.10765C16.6591 1.62201 16.0984 1.35561 15.7244 1.66323Z" fill="#4CA853"/>
<path d="M9.42312 6.89746V9.8671H3.90234V13.7947H12.0884C12.7195 13.7947 13.2307 13.2803 13.2307 12.6452V10.1699L9.42312 6.89746Z" fill="#4CA853"/>
<path d="M13.2294 10.1697V3.72266L9.42188 6.89732L13.2294 10.1697Z" fill="#398039"/>
<path d="M0 3.9276H3.90276V0L0 3.9276Z" fill="#D74F3F"/>
<path d="M12.0884 0H3.90234V3.9276H9.42312V6.89724L13.2307 3.72258V3.7206V1.14948C13.2307 0.51444 12.7195 0 12.0884 0Z" fill="#F5BB41"/>
</svg>
