<svg width="21" height="24" viewBox="0 0 21 24" fill="none" xmlns="http://www.w3.org/2000/svg">
<path d="M7.58301 0C6.61651 0 5.83301 0.783498 5.83301 1.75V2.91667C5.83301 3.88317 6.61651 4.66667 7.58301 4.66667H13.4163C14.3828 4.66667 15.1663 3.88317 15.1663 2.91667V1.75C15.1663 0.783498 14.3828 0 13.4163 0H7.58301Z" fill="white"/>
<path fill-rule="evenodd" clip-rule="evenodd" d="M4.08333 2.37598C2.61577 2.45831 1.68931 2.69217 1.02513 3.35635C0 4.38148 0 6.03139 0 9.33122V16.3313C0 19.6311 0 21.281 1.02513 22.3061C2.05025 23.3313 3.70017 23.3313 7 23.3313H14C17.2998 23.3313 18.9497 23.3313 19.9748 22.3061C21 21.281 21 19.6311 21 16.3313V9.33122C21 6.03139 21 4.38148 19.9748 3.35635C19.3107 2.69217 18.3842 2.45831 16.9167 2.37598V2.91659C16.9167 4.84958 15.3497 6.41659 13.4167 6.41659H7.58333C5.65034 6.41659 4.08333 4.84958 4.08333 2.91659V2.37598ZM4.66667 13.7083C4.18342 13.7083 3.79167 14.1 3.79167 14.5833C3.79167 15.0665 4.18342 15.4583 4.66667 15.4583H14C14.4832 15.4583 14.875 15.0665 14.875 14.5833C14.875 14.1 14.4832 13.7083 14 13.7083H4.66667ZM4.66667 17.7916C4.18342 17.7916 3.79167 18.1834 3.79167 18.6666C3.79167 19.1498 4.18342 19.5416 4.66667 19.5416H11.0833C11.5666 19.5416 11.9583 19.1498 11.9583 18.6666C11.9583 18.1834 11.5666 17.7916 11.0833 17.7916H4.66667Z" fill="white"/>
</svg>
