<svg width="55" height="44" viewBox="0 0 55 44" fill="none" xmlns="http://www.w3.org/2000/svg">
<path d="M36.8332 10.0013C36.8332 15.156 32.6545 19.3346 27.4998 19.3346C22.3452 19.3346 18.1665 15.156 18.1665 10.0013C18.1665 4.84664 22.3452 0.667969 27.4998 0.667969C32.6545 0.667969 36.8332 4.84664 36.8332 10.0013Z" fill="#016AB5"/>
<path d="M43.5 34.0013C43.5 39.156 36.3365 43.3346 27.5 43.3346C18.6634 43.3346 11.5 39.156 11.5 34.0013C11.5 28.8466 18.6634 24.668 27.5 24.668C36.3365 24.668 43.5 28.8466 43.5 34.0013Z" fill="#016AB5"/>
<path d="M14.492 3.33594C14.9652 3.33594 15.4272 3.38236 15.8733 3.47076C14.7865 5.40116 14.1665 7.62948 14.1665 10.0026C14.1665 12.3179 14.7567 14.4955 15.7948 16.3929C15.3731 16.4715 14.9375 16.5126 14.492 16.5126C10.7202 16.5126 7.6626 13.5629 7.6626 9.92428C7.6626 6.28564 10.7202 3.33594 14.492 3.33594Z" fill="#016AB5"/>
<path d="M10.0262 40.6305C8.51171 38.8201 7.49992 36.5985 7.49992 34.0012C7.49992 31.4833 8.45077 29.3185 9.88867 27.5391C4.80952 27.9332 0.833252 30.7111 0.833252 34.0796C0.833252 37.4796 4.87939 40.278 10.0262 40.6305Z" fill="#016AB5"/>
<path d="M40.8329 10.0026C40.8329 12.3179 40.2428 14.4955 39.2046 16.3929C39.6265 16.4715 40.062 16.5126 40.5076 16.5126C44.2793 16.5126 47.3369 13.5629 47.3369 9.92428C47.3369 6.28564 44.2793 3.33594 40.5076 3.33594C40.0342 3.33594 39.5724 3.38236 39.1262 3.47076C40.2129 5.40116 40.8329 7.62948 40.8329 10.0026Z" fill="#016AB5"/>
<path d="M44.9736 40.6305C50.1203 40.278 54.1664 37.4796 54.1664 34.0796C54.1664 30.7111 50.1902 27.9332 45.111 27.5391C46.5488 29.3185 47.4998 31.4833 47.4998 34.0012C47.4998 36.5985 46.488 38.8201 44.9736 40.6305Z" fill="#016AB5"/>
</svg>
