<svg width="22" height="22" viewBox="0 0 22 22" fill="none" xmlns="http://www.w3.org/2000/svg">
<path d="M14.75 20.75V11.75C14.75 10.3358 14.75 9.6287 14.3107 9.1893C13.8713 8.75 13.1642 8.75 11.75 8.75H9.75C8.33579 8.75 7.62868 8.75 7.18934 9.1893C6.75 9.6287 6.75 10.3358 6.75 11.75V20.75" stroke="#383838" stroke-width="1.5" stroke-linecap="round"/>
<path d="M6.75 20.75C6.75 19.3358 6.75 18.6287 6.31066 18.1893C5.87132 17.75 5.16421 17.75 3.75 17.75C2.33579 17.75 1.62868 17.75 1.18934 18.1893C0.75 18.6287 0.75 19.3358 0.75 20.75" stroke="#383838" stroke-width="1.5" stroke-linecap="round"/>
<path d="M20.75 20.75V17.75C20.75 16.3358 20.75 15.6287 20.3107 15.1893C19.8713 14.75 19.1642 14.75 17.75 14.75C16.3358 14.75 15.6287 14.75 15.1893 15.1893C14.75 15.6287 14.75 16.3358 14.75 17.75V20.75" stroke="#383838" stroke-width="1.5" stroke-linecap="round"/>
<path d="M9.8959 1.77251C10.2759 1.09084 10.4659 0.75 10.75 0.75C11.0341 0.75 11.2241 1.09084 11.6041 1.77251L11.7024 1.94887C11.8103 2.14258 11.8643 2.23944 11.9485 2.30334C12.0327 2.36725 12.1375 2.39097 12.3472 2.43841L12.5381 2.48161C13.276 2.64857 13.645 2.73205 13.7328 3.01432C13.8206 3.29659 13.569 3.59072 13.066 4.17898L12.9358 4.33117C12.7929 4.49833 12.7214 4.58191 12.6892 4.68531C12.6571 4.78872 12.6679 4.90023 12.6895 5.12327L12.7092 5.32632C12.7852 6.11118 12.8233 6.50361 12.5935 6.67807C12.3636 6.85252 12.0182 6.69346 11.3273 6.37535L11.1486 6.29305C10.9522 6.20265 10.8541 6.15745 10.75 6.15745C10.6459 6.15745 10.5478 6.20265 10.3514 6.29305L10.1727 6.37535C9.4818 6.69346 9.1364 6.85252 8.9065 6.67807C8.67674 6.50361 8.71476 6.11118 8.7908 5.32632L8.8105 5.12327C8.8321 4.90023 8.8429 4.78872 8.8108 4.68531C8.7786 4.58191 8.70713 4.49833 8.56418 4.33117L8.43403 4.17898C7.93097 3.59072 7.67945 3.29659 7.76723 3.01432C7.85501 2.73205 8.22396 2.64857 8.9619 2.48161L9.1528 2.43841C9.3625 2.39097 9.4673 2.36725 9.5515 2.30334C9.6357 2.23944 9.6897 2.14258 9.7976 1.94887L9.8959 1.77251Z" stroke="#383838" stroke-width="1.5"/>
</svg>
