<svg width="15" height="15" viewBox="0 0 15 15" fill="none" xmlns="http://www.w3.org/2000/svg">
<path d="M2.59224 0.126708C2.86097 0.0428 3.13977 0 3.42047 0C4.76966 0 5.76924 1.18804 5.76923 2.53159V5.54534C5.76923 6.88892 4.76965 8.07692 3.42047 8.07692C3.13977 8.07692 2.86097 8.03417 2.59224 7.95025L2.38682 7.88608C2.31668 7.86417 2.24767 7.83992 2.17987 7.81333C3.25008 9.98675 5.01326 11.7499 7.18667 12.8202C7.16008 12.7523 7.13583 12.6833 7.11392 12.6132L7.04975 12.4078C6.96583 12.139 6.92308 11.8602 6.92308 11.5795C6.92308 10.2303 8.11108 9.23075 9.45467 9.23075H12.4684C13.8119 9.23075 15 10.2303 15 11.5795C15 11.8602 14.9572 12.139 14.8733 12.4078L14.8092 12.6132C14.4355 13.8098 13.3667 14.6763 12.0883 14.9017C11.344 15.0328 10.5791 15.0328 9.83475 14.9017C9.80542 14.8965 9.77625 14.891 9.74717 14.8852C4.86904 13.9466 1.05337 10.1309 0.11485 5.25274C0.109025 5.22369 0.103533 5.19453 0.098375 5.16526C-0.0327917 4.42092 -0.0327917 3.65601 0.098375 2.91167C0.323642 1.63324 1.19023 0.564492 2.38683 0.19085L2.59224 0.126708Z" fill="#016AB5"/>
<path d="M8.42754 1.32575C9.90571 0.904586 11.5153 1.25686 12.6292 2.37079C13.7432 3.48473 14.0955 5.09436 13.6743 6.57248C13.587 6.87898 13.7646 7.19814 14.071 7.28548C14.3775 7.37273 14.6966 7.19514 14.784 6.88873C15.3108 5.03961 14.8778 2.98759 13.4451 1.5549C12.0125 0.12222 9.96046 -0.31078 8.11138 0.21607C7.80488 0.303378 7.62729 0.62257 7.71463 0.929003C7.80188 1.23543 8.12113 1.41306 8.42754 1.32575Z" fill="#016AB5"/>
<path d="M9.87186 3.42156C10.2611 3.34403 10.7542 3.47476 11.1391 3.85967C11.524 4.24458 11.6548 4.73765 11.5773 5.12694C11.515 5.43942 11.7179 5.74319 12.0304 5.80544C12.3429 5.86768 12.6466 5.66481 12.7089 5.35233C12.868 4.55322 12.5888 3.67752 11.955 3.04378C11.3213 2.41004 10.4456 2.13079 9.64644 2.28994C9.33402 2.35219 9.1311 2.65596 9.19335 2.96845C9.2556 3.28094 9.55936 3.4838 9.87186 3.42156Z" fill="#016AB5"/>
</svg>
