<svg width="23" height="25" viewBox="0 0 23 25" fill="none" xmlns="http://www.w3.org/2000/svg">
<path d="M8.125 0C7.08946 0 6.25 0.839463 6.25 1.875V3.125C6.25 4.16054 7.08946 5 8.125 5H14.375C15.4105 5 16.25 4.16054 16.25 3.125V1.875C16.25 0.839463 15.4105 0 14.375 0H8.125Z" fill="#A71755"/>
<path fill-rule="evenodd" clip-rule="evenodd" d="M4.375 2.54565C2.80261 2.63387 1.80998 2.88443 1.09835 3.59605C0 4.6944 0 6.46217 0 9.9977V17.4978C0 21.0333 0 22.801 1.09835 23.8994C2.1967 24.9978 3.96446 24.9978 7.5 24.9978H15C18.5355 24.9978 20.3032 24.9978 21.4016 23.8994C22.5 22.801 22.5 21.0333 22.5 17.4978V9.9977C22.5 6.46217 22.5 4.6944 21.4016 3.59605C20.69 2.88443 19.6974 2.63387 18.125 2.54565V3.12488C18.125 5.19594 16.4461 6.87488 14.375 6.87488H8.125C6.05394 6.87488 4.375 5.19594 4.375 3.12488V2.54565ZM5 9.68738C4.48224 9.68738 4.0625 10.1071 4.0625 10.6249C4.0625 11.1426 4.48224 11.5624 5 11.5624H5.625C6.14276 11.5624 6.5625 11.1426 6.5625 10.6249C6.5625 10.1071 6.14276 9.68738 5.625 9.68738H5ZM9.375 9.68738C8.85725 9.68738 8.4375 10.1071 8.4375 10.6249C8.4375 11.1426 8.85725 11.5624 9.375 11.5624H17.5C18.0177 11.5624 18.4375 11.1426 18.4375 10.6249C18.4375 10.1071 18.0177 9.68738 17.5 9.68738H9.375ZM5 14.0624C4.48224 14.0624 4.0625 14.4821 4.0625 14.9999C4.0625 15.5176 4.48224 15.9374 5 15.9374H5.625C6.14276 15.9374 6.5625 15.5176 6.5625 14.9999C6.5625 14.4821 6.14276 14.0624 5.625 14.0624H5ZM9.375 14.0624C8.85725 14.0624 8.4375 14.4821 8.4375 14.9999C8.4375 15.5176 8.85725 15.9374 9.375 15.9374H17.5C18.0177 15.9374 18.4375 15.5176 18.4375 14.9999C18.4375 14.4821 18.0177 14.0624 17.5 14.0624H9.375ZM5 18.4374C4.48224 18.4374 4.0625 18.8571 4.0625 19.3749C4.0625 19.8926 4.48224 20.3124 5 20.3124H5.625C6.14276 20.3124 6.5625 19.8926 6.5625 19.3749C6.5625 18.8571 6.14276 18.4374 5.625 18.4374H5ZM9.375 18.4374C8.85725 18.4374 8.4375 18.8571 8.4375 19.3749C8.4375 19.8926 8.85725 20.3124 9.375 20.3124H17.5C18.0177 20.3124 18.4375 19.8926 18.4375 19.3749C18.4375 18.8571 18.0177 18.4374 17.5 18.4374H9.375Z" fill="#A71755"/>
</svg>
