<svg width="338" height="338" viewBox="0 0 338 338" fill="none" xmlns="http://www.w3.org/2000/svg">
<path d="M249.173 16.6976L229.4 26.6146C228.676 26.9224 228.059 27.4365 227.625 28.0928C227.191 28.7492 226.96 29.5187 226.96 30.3055V39.5532C226.942 47.9602 229.394 56.1873 234.011 63.2132C237.573 68.6212 242.299 75.5772 250.16 79.5454H253.703C262.457 76.8414 268.987 69.7636 272.975 63.6796C277.591 56.6534 280.043 48.4265 280.026 40.0196V30.3055C280.026 29.5197 279.796 28.7511 279.363 28.095C278.93 27.4389 278.315 26.9241 277.592 26.6146L255.068 17.0154C254.061 16.5895 250.174 16.2718 249.173 16.6976Z" fill="#E0E0E0"/>
<path d="M248.376 17.0151L225.852 26.6143C225.127 26.9222 224.51 27.4363 224.076 28.0926C223.642 28.749 223.411 29.5185 223.411 30.3053V39.553C223.412 48.1204 225.954 56.4952 230.715 63.6177C235.477 70.7401 242.244 76.2901 250.16 79.5654C258.908 76.8614 265.438 69.7837 269.433 63.6997C274.05 56.6663 276.502 48.4327 276.484 40.0194V30.3053C276.484 29.5185 276.253 28.749 275.819 28.0926C275.385 27.4363 274.768 26.9222 274.044 26.6143L251.519 17.0151C251.022 16.806 250.487 16.6982 249.948 16.6982C249.408 16.6982 248.873 16.806 248.376 17.0151Z" fill="#F5F5F5"/>
<path d="M276.409 37.5117C276.44 37.6515 276.454 37.7945 276.45 37.9376C276.45 38.2553 276.484 38.6609 276.504 39.1612C276.524 39.6614 276.558 40.3442 276.504 41.1013C276.45 41.8584 276.504 42.7237 276.382 43.6701C276.261 44.6165 276.227 45.6981 276.031 46.7729C275.943 47.3272 275.875 47.9018 275.76 48.49C275.646 49.0781 275.504 49.673 275.375 50.2881C274.752 52.9571 273.881 55.562 272.773 58.0689C271.634 60.5634 270.277 62.9523 268.717 65.2074C267.966 66.2214 267.27 67.2354 266.526 68.0399C266.161 68.4658 265.85 68.8984 265.479 69.277L264.451 70.3653C263.809 71.0413 263.153 71.6362 262.606 72.1635C262.058 72.6908 261.558 73.1031 261.145 73.4344L260.26 74.205C260.155 74.3012 260.039 74.3851 259.915 74.4551C260.005 74.3429 260.107 74.2409 260.219 74.1509L261.132 73.333C261.531 72.9882 262.017 72.5556 262.545 71.981C263.072 71.4064 263.721 70.8791 264.343 70.1625L265.35 69.0606C265.695 68.6821 266.026 68.2494 266.378 67.8236C267.108 66.9786 267.784 65.9984 268.521 64.9844C270.051 62.7395 271.386 60.367 272.509 57.8931C273.604 55.4046 274.475 52.8233 275.112 50.18L275.51 48.3953C275.632 47.814 275.706 47.2394 275.801 46.6918C276.004 45.5967 276.085 44.5624 276.186 43.616C276.288 42.6696 276.301 41.8178 276.355 41.0607C276.409 40.3036 276.403 39.6614 276.403 39.1274C276.403 38.5933 276.403 38.2215 276.403 37.9038C276.392 37.7732 276.394 37.6418 276.409 37.5117Z" fill="#E0E0E0"/>
<path d="M248.267 57.6156L235.349 47.3471L238.932 42.8382L247.598 49.7267L260.253 35.5645L264.546 39.4041L248.267 57.6156Z" fill="white"/>
<path d="M309.297 67.3033H306.85V53.9929C306.85 52.4869 306.252 51.0425 305.187 49.9776C304.122 48.9127 302.677 48.3145 301.171 48.3145C299.665 48.3145 298.221 48.9127 297.156 49.9776C296.091 51.0425 295.493 52.4869 295.493 53.9929V67.3033H293.046V53.9929C293.046 51.8414 293.901 49.7781 295.422 48.2568C296.943 46.7355 299.006 45.8809 301.158 45.8809C303.309 45.8809 305.373 46.7355 306.894 48.2568C308.415 49.7781 309.27 51.8414 309.27 53.9929L309.297 67.3033Z" fill="#EBEBEB"/>
<path d="M310.034 58.2715H292.302C291.152 58.2715 290.22 59.2037 290.22 60.3536V73.353C290.22 74.5029 291.152 75.4351 292.302 75.4351H310.034C311.184 75.4351 312.116 74.5029 312.116 73.353V60.3536C312.116 59.2037 311.184 58.2715 310.034 58.2715Z" fill="#EBEBEB"/>
<path d="M302.848 67.2966C303.065 67.0755 303.237 66.8136 303.353 66.5259C303.469 66.2382 303.527 65.9303 303.524 65.6201C303.527 65.1703 303.405 64.7286 303.17 64.3447C302.936 63.9609 302.599 63.6502 302.197 63.4477C301.795 63.2453 301.345 63.1591 300.897 63.1989C300.449 63.2388 300.021 63.403 299.661 63.6731C299.302 63.9433 299.025 64.3085 298.861 64.7277C298.698 65.1469 298.656 65.6034 298.738 66.0455C298.821 66.4877 299.025 66.898 299.329 67.2301C299.632 67.5623 300.022 67.8031 300.455 67.9253L299.941 70.2102H302.233L301.773 67.9253C302.173 67.811 302.537 67.5943 302.828 67.2966" fill="#FAFAFA"/>
<path d="M31.3865 261.572C28.7611 259.929 25.7942 258.91 22.7134 258.591C21.2938 258.442 19.7458 258.483 18.6101 259.341C18.4783 259.417 18.3691 259.526 18.2942 259.658C18.2193 259.79 18.1813 259.94 18.1842 260.092C18.2535 260.306 18.3974 260.488 18.5898 260.606C20.4314 261.92 22.5975 262.704 24.8533 262.875C27.1091 263.045 29.3685 262.595 31.3865 261.572Z" fill="#E0E0E0"/>
<path d="M31.1633 261.329C29.1552 259.852 27.2801 258.203 25.5593 256.401C23.8349 254.584 22.6241 252.342 22.0508 249.904C21.9366 249.543 21.9023 249.161 21.9502 248.785C21.998 248.41 22.1269 248.049 22.328 247.728C26.7896 251.216 30.298 255.731 31.1633 261.329Z" fill="#E0E0E0"/>
<path d="M31.3392 261.538C30.9277 259.098 30.9644 256.604 31.4473 254.177C31.9438 251.73 33.3406 249.559 35.3614 248.093C36.132 249.898 35.8008 251.98 35.26 253.859C34.4195 256.779 33.1064 259.543 31.373 262.039" fill="#E0E0E0"/>
<path d="M35.7194 269.387C33.0918 269.812 30.6611 271.042 28.7634 272.909C26.7673 274.722 25.3773 277.106 24.7817 279.736C27.3911 279.574 29.6016 277.708 31.2037 275.68C32.8059 273.652 33.9077 271.361 35.6856 269.434" fill="#E0E0E0"/>
<path d="M36.6729 270.637C35.6264 267.982 35.2595 265.107 35.6054 262.274C35.9512 259.441 36.999 256.739 38.6536 254.413C40.1679 259.821 39.6068 265.905 36.6729 270.637Z" fill="#E0E0E0"/>
<path d="M42.4524 277.526C40.023 277.378 37.6038 277.948 35.4948 279.162C33.3859 280.377 31.6799 282.185 30.5886 284.36C30.4466 284.651 30.3114 285.036 30.5142 285.286C30.6159 285.386 30.7407 285.459 30.8775 285.5C31.0143 285.54 31.1589 285.545 31.2984 285.516C33.6373 285.367 35.7059 283.961 37.4162 282.359C39.1265 280.757 40.6204 278.905 42.5065 277.519" fill="#E0E0E0"/>
<path d="M42.2701 277.16C41.0245 273.15 40.9471 268.869 42.047 264.817C42.4864 263.228 43.2165 261.558 44.6834 260.815C44.7422 260.775 44.8086 260.748 44.8784 260.735C44.9482 260.722 45.0199 260.724 45.089 260.74C45.2076 260.803 45.2973 260.91 45.3391 261.038C45.835 262.147 46.0486 263.361 45.961 264.573C45.8743 265.783 45.6889 266.983 45.4067 268.163C44.947 270.353 44.7307 272.705 43.4936 274.598C43.2112 275.054 42.9561 275.525 42.7297 276.011C42.5067 276.491 42.5067 276.687 42.2971 277.039" fill="#E0E0E0"/>
<path d="M57.5815 279.432C57.0668 277.179 57.05 274.84 57.5322 272.58C58.0144 270.32 58.984 268.192 60.3734 266.345C60.5694 266.081 60.8331 265.804 61.1643 265.831C61.6646 265.878 61.793 266.548 61.7727 267.048C61.5654 271.485 60.1129 275.775 57.5815 279.425" fill="#E0E0E0"/>
<path d="M58.9604 280.378C61.6393 281.01 64.4233 281.054 67.1205 280.505C69.8177 279.957 72.3637 278.829 74.5828 277.201C71.969 275.887 68.9796 275.521 66.126 276.167C63.3004 276.843 60.718 278.073 58.9604 280.378Z" fill="#E0E0E0"/>
<path d="M60.123 277.506C63.0636 272.719 68.6947 269.596 74.319 269.306C73.643 271.591 71.7976 273.362 69.6817 274.437C67.5127 275.41 65.2196 276.078 62.8676 276.424C61.9618 276.6 60.7179 276.796 60.1636 277.506" fill="#E0E0E0"/>
<path d="M57.872 263.56C58.7637 260.863 59.3709 258.081 59.6837 255.258C59.9979 252.418 59.4215 249.55 58.0343 247.052C55.2897 252.358 55.0126 258.544 57.7909 263.85" fill="#E0E0E0"/>
<path d="M67.1064 258.908C70.3174 253.081 76.8611 248.423 83.4792 247.768C80.9239 254.129 73.9611 259.043 67.1064 258.908Z" fill="#E0E0E0"/>
<path d="M65.0918 260.038C69.8711 260.768 73.9474 263.823 78.4158 265.675C79.3542 266.124 80.393 266.322 81.4307 266.25C81.9128 266.244 82.3815 266.09 82.7735 265.809C83.1656 265.529 83.4622 265.135 83.6235 264.68C83.7848 264.226 83.803 263.733 83.6756 263.268C83.5482 262.803 83.2815 262.388 82.9112 262.079C82.2787 261.487 81.5339 261.027 80.7209 260.727C75.8537 258.699 70.6282 258.652 65.5042 259.882" fill="#E0E0E0"/>
<path d="M62.3203 263.39C63.4019 263.701 63.7737 264.262 64.6322 264.992C67.565 267.484 71.0361 269.261 74.7722 270.184C75.1576 270.279 75.6646 270.319 75.8606 269.975C76.0566 269.63 75.8133 269.299 75.597 269.028C73.9789 267.124 71.877 265.693 69.513 264.884C67.1808 264.012 65.1595 262.964 62.3744 263.194" fill="#E0E0E0"/>
<path d="M59.1973 243.131C61.1592 244.939 63.4779 246.317 66.0042 247.177C68.5305 248.036 71.2086 248.357 73.8665 248.12C74.1134 248.127 74.3544 248.043 74.5425 247.883C74.9143 247.477 74.4681 246.855 74.0422 246.531C69.7293 243.151 64.5039 241.799 59.2108 243.151" fill="#E0E0E0"/>
<path d="M62.9014 241.772C65.4979 239.862 68.5092 238.594 71.6894 238.07C74.8697 237.546 78.1288 237.781 81.2007 238.757C78.8055 240.975 75.734 242.322 72.4803 242.583C69.2645 242.879 66.0217 242.604 62.9014 241.772Z" fill="#E0E0E0"/>
<path d="M61.4281 232.463C61.009 228.157 61.2794 224.764 60.982 220.437C60.982 220.093 60.8873 219.68 60.5628 219.552C60.1099 219.383 59.7381 219.93 59.5894 220.39C58.962 222.394 58.8009 224.516 59.1184 226.592C59.4359 228.668 60.2236 230.644 61.4214 232.369" fill="#E0E0E0"/>
<path d="M61.1172 232.937C63.9404 231.126 66.3742 228.771 68.276 226.008C69.6821 224.081 70.8719 221.776 70.5541 219.41C69.5624 219.436 68.5884 219.679 67.6999 220.12C66.8114 220.561 66.0298 221.191 65.4098 221.965C64.1821 223.524 63.2891 225.319 62.7869 227.238C62.2191 229.131 61.8202 231.078 61.1442 232.937" fill="#E0E0E0"/>
<path d="M68.1272 230.99C74.5557 228.618 80.5081 225.115 85.7032 220.647C83.6076 219.802 81.2078 220.309 79.1122 221.154C74.3548 222.956 70.4243 226.442 68.0664 230.949" fill="#E0E0E0"/>
<path d="M63.0908 235.296C66.3206 235.754 69.5979 235.77 72.832 235.343C75.9889 234.816 78.9768 233.558 81.9242 232.321C82.1821 232.244 82.4031 232.076 82.5461 231.848C82.5906 231.711 82.5931 231.564 82.5534 231.425C82.5136 231.287 82.4334 231.163 82.323 231.071C82.0948 230.892 81.829 230.767 81.5456 230.706C78.3346 229.813 74.8735 230.232 71.7166 231.294C68.7098 232.324 65.8188 233.665 63.0908 235.296Z" fill="#E0E0E0"/>
<path d="M44.6157 243.279C42.4052 238.818 42.5877 233.612 44.4603 229.016C45.8123 231.044 45.9677 233.666 45.7244 236.107C45.481 238.547 44.7374 241.048 44.6833 243.496" fill="#E0E0E0"/>
<path d="M35.7671 238.824C33.001 238.787 30.2577 239.329 27.713 240.413C25.1683 241.498 22.8783 243.103 20.9897 245.124C23.7834 245.46 26.6129 244.936 29.1017 243.624C31.5657 242.316 33.8896 240.759 36.0375 238.979" fill="#E0E0E0"/>
<path d="M29.8317 236.837C27.1277 236.621 24.5386 236.289 21.9427 237.08C20.633 237.449 19.4182 238.096 18.3811 238.976C17.344 239.857 16.5091 240.951 15.9331 242.184C18.4791 242.388 21.0331 241.905 23.3285 240.785C25.6103 239.667 27.7868 238.345 29.8317 236.837Z" fill="#E0E0E0"/>
<path d="M38.6197 236.932C36.1928 235.343 33.6984 233.721 30.8727 233.059C28.047 232.396 24.7887 232.89 22.8013 235.019C25.0861 236.371 27.8645 236.52 30.5212 236.52C33.1779 236.52 36.4227 236.486 38.9239 237.371" fill="#E0E0E0"/>
<path d="M38.6332 237.06C34.4826 233.004 32.9143 225.663 34.5772 220.093C37.8524 225.109 39.2859 231.106 38.6332 237.06Z" fill="#E0E0E0"/>
<path d="M50.0239 225.514C50.8081 223.689 51.3759 221.783 52.0519 219.93C52.6919 218.051 53.6753 216.307 54.952 214.786C56.2454 213.244 58.0931 212.273 60.0963 212.082C59.4565 214.89 58.2388 217.534 56.521 219.845C54.8031 222.157 52.6227 224.085 50.1186 225.507" fill="#E0E0E0"/>
<path d="M47.9956 227.92C46.7045 226.136 45.2037 223.716 43.4461 222.384C41.6885 221.052 39.3901 220.248 37.2607 220.755C38.3712 222.7 39.9193 224.361 41.7826 225.604C43.6458 226.848 45.7729 227.641 47.9956 227.92Z" fill="#E0E0E0"/>
<path d="M48.3945 225.663C47.4743 223.535 46.7941 221.31 46.3665 219.031C45.9417 216.725 46.3085 214.343 47.4075 212.271C49.6856 216.578 50.4225 221.201 48.5364 225.697" fill="#E0E0E0"/>
<path d="M50.0713 212.265C51.3624 207.999 55.2697 204.829 59.4947 203.409C60.0165 203.195 60.5827 203.111 61.1442 203.166C61.4248 203.195 61.6904 203.307 61.9071 203.487C62.1239 203.668 62.2819 203.909 62.361 204.18C62.5164 204.903 61.9148 205.532 61.347 206.039C58.0492 208.857 54.213 210.975 50.0713 212.265Z" fill="#E0E0E0"/>
<path d="M50.1184 208.797C50.2806 206.039 50.4496 203.247 51.3487 200.637C52.2478 198.028 53.9716 195.588 56.4795 194.445C56.9054 197.224 55.6819 199.989 54.2014 202.382C52.721 204.775 50.9363 207.032 50.0508 209.703" fill="#E0E0E0"/>
<path d="M50.0238 210.689C48.9557 207.58 48.8475 203.625 46.9818 200.914C45.6771 199.022 43.6018 197.73 42.4728 195.723C41.7949 197.648 41.8894 199.761 42.7365 201.617C43.584 203.454 44.7514 205.125 46.1841 206.552C47.5361 208.026 48.7394 209.135 50.0238 210.689Z" fill="#E0E0E0"/>
<path d="M50.0709 302.321C49.9898 302.321 49.9154 281.568 49.9087 255.967C49.9019 230.367 49.9695 209.607 50.0506 209.607C50.1317 209.607 50.2061 230.354 50.2129 255.967C50.2196 281.581 50.152 302.321 50.0709 302.321Z" fill="#E0E0E0"/>
<path d="M68.2082 240.143C67.9602 240.269 67.6996 240.368 67.4308 240.44L65.2811 241.163C63.4695 241.779 60.9818 242.671 58.2845 243.779C55.5873 244.888 53.0861 245.855 51.653 247.099C51.0722 247.575 50.6095 248.178 50.301 248.863C50.0914 249.35 50.0576 249.647 50.0306 249.647C50.0035 249.647 50.0306 249.566 50.0306 249.424C50.0649 249.219 50.1169 249.018 50.186 248.822C50.4568 248.098 50.9027 247.453 51.484 246.943C52.351 246.21 53.3214 245.609 54.3637 245.159C55.5129 244.618 56.7906 244.057 58.1426 243.502C60.8466 242.394 63.3545 241.528 65.1865 240.961C66.1059 240.677 66.8495 240.467 67.37 240.325C67.643 240.238 67.9237 240.177 68.2082 240.143Z" fill="#E0E0E0"/>
<path d="M74.1571 225.541C74.0936 225.627 74.0186 225.705 73.934 225.771L73.258 226.4L70.7704 228.657L62.4961 236.026C59.2648 238.906 56.4729 241.65 54.5396 243.719C53.5661 244.753 52.8023 245.611 52.2817 246.206L51.6801 246.882C51.6173 246.967 51.5421 247.043 51.457 247.105C51.5075 247.011 51.5687 246.922 51.6395 246.842C51.7612 246.673 51.9437 246.423 52.1939 246.118C52.6873 245.497 53.4309 244.618 54.3841 243.563C56.881 240.834 59.5211 238.239 62.2933 235.789C65.5381 232.923 68.4855 230.341 70.6284 228.488C71.683 227.583 72.5482 226.846 73.1769 226.298L73.8529 225.717C73.9458 225.645 74.0481 225.585 74.1571 225.541Z" fill="#E0E0E0"/>
<path d="M59.0214 238.953C58.9335 238.912 59.6095 237.357 60.2855 235.383C60.9615 233.409 61.2792 231.753 61.3671 231.767C61.297 233.038 61.0279 234.29 60.5694 235.478C60.2791 236.32 59.9429 237.146 59.5622 237.952C59.4264 238.308 59.2446 238.644 59.0214 238.953Z" fill="#E0E0E0"/>
<path d="M50.0916 251.513C49.9021 251.343 49.7342 251.15 49.5914 250.939L48.3137 249.303C47.2457 247.917 45.7652 246.004 44.1023 243.895C42.4393 241.786 40.9183 239.927 39.8097 238.568L38.532 236.973C38.361 236.783 38.2093 236.577 38.0791 236.357C38.2764 236.52 38.4576 236.701 38.6199 236.898C38.9511 237.256 39.4243 237.791 39.9719 238.453C41.1211 239.805 42.6759 241.63 44.3389 243.726C46.0018 245.821 47.4552 247.782 48.4827 249.174C49.0033 249.85 49.4089 250.466 49.686 250.871C49.8427 251.071 49.9786 251.286 50.0916 251.513Z" fill="#E0E0E0"/>
<path d="M46.1096 246.409C45.3081 245.522 44.737 244.452 44.4467 243.293C44.1304 242.274 44.0021 241.207 44.0681 240.142H44.2033C44.1848 240.271 44.1412 240.395 44.0749 240.507C44.0749 240.507 44.0749 240.365 44.0749 240.122H44.2101C44.2732 241.159 44.4501 242.186 44.7373 243.184C45.1165 244.291 45.5751 245.369 46.1096 246.409Z" fill="#E0E0E0"/>
<path d="M40.979 239.98C40.6194 239.71 40.2291 239.483 39.8163 239.304C38.7699 238.988 37.6681 238.901 36.585 239.047C35.4882 239.127 34.4003 239.301 33.3334 239.568C32.8901 239.704 32.4385 239.813 31.9814 239.892C32.3762 239.649 32.8076 239.471 33.2591 239.365C34.3294 239.034 35.4338 238.825 36.5512 238.743C37.6725 238.594 38.8132 238.717 39.8771 239.101C40.3351 239.258 40.7246 239.568 40.979 239.98Z" fill="#E0E0E0"/>
<path d="M39.762 238.385C39.762 238.432 39.086 238.115 37.9773 237.709C35.0883 236.726 31.9968 236.493 28.9933 237.033C27.8441 237.236 27.1546 237.452 27.1343 237.405C27.2796 237.311 27.4396 237.243 27.6075 237.202C28.0496 237.047 28.5012 236.921 28.9595 236.823C30.4701 236.492 32.0209 236.383 33.563 236.499C35.1024 236.619 36.6165 236.961 38.0584 237.513C38.4939 237.68 38.9183 237.874 39.3293 238.094C39.4876 238.168 39.6335 238.267 39.762 238.385Z" fill="#E0E0E0"/>
<path d="M50.0238 231.767C49.4946 230.291 49.061 228.783 48.7259 227.251C48.2892 225.745 47.9505 224.211 47.7119 222.661C48.2417 224.137 48.6775 225.646 49.0166 227.177C49.4493 228.684 49.7857 230.217 50.0238 231.767Z" fill="#E0E0E0"/>
<path d="M50.1319 231.767C49.7163 230.833 49.2351 229.93 48.692 229.063C48.0833 228.244 47.3696 227.507 46.5693 226.873C46.8711 226.95 47.151 227.096 47.3873 227.299C47.9898 227.737 48.5133 228.274 48.9353 228.888C49.5812 229.725 49.994 230.719 50.1319 231.767Z" fill="#E0E0E0"/>
<path d="M50.0709 291.255C50.0709 291.255 49.9763 290.755 49.7397 289.903C49.4083 288.662 48.9554 287.458 48.3877 286.306C46.389 282.552 43.9172 279.069 41.0328 275.943C39.3901 274.064 37.7948 272.293 36.4428 270.596C35.2258 269.107 34.1273 267.525 33.1574 265.864C32.5051 264.742 31.951 263.566 31.5012 262.349C31.3457 261.916 31.2376 261.578 31.1767 261.349C31.1372 261.232 31.1078 261.112 31.0889 260.99C31.0889 260.99 31.2646 261.463 31.6094 262.308C32.1006 263.499 32.679 264.651 33.3399 265.756C34.3305 267.391 35.4375 268.952 36.6523 270.427C38.0043 272.104 39.6132 273.861 41.2559 275.741C44.1613 278.886 46.6264 282.41 48.5837 286.219C49.1487 287.387 49.5862 288.613 49.8884 289.876C49.9685 290.219 50.0294 290.567 50.0709 290.917C50.0813 291.029 50.0813 291.142 50.0709 291.255Z" fill="#E0E0E0"/>
<path d="M66.4641 272.746C66.1863 272.921 65.8998 273.081 65.6055 273.226C64.8266 273.662 64.0809 274.154 63.3747 274.7C62.3285 275.509 61.3496 276.402 60.4477 277.37C59.4201 278.452 58.3656 279.709 57.284 281.061C55.1275 283.765 53.1063 286.172 51.876 288.085C51.2608 289.031 50.8147 289.829 50.524 290.39C50.385 290.688 50.227 290.977 50.0508 291.255C50.0508 291.255 50.0508 291.167 50.1319 291.012C50.213 290.856 50.2806 290.626 50.4158 290.336C50.7995 289.523 51.2329 288.735 51.7137 287.977C53.3558 285.511 55.1365 283.142 57.0474 280.879C58.129 279.527 59.2038 278.269 60.2516 277.181C61.1736 276.217 62.1754 275.333 63.2463 274.538C63.9767 273.991 64.7551 273.511 65.5717 273.105C65.791 272.992 66.0167 272.893 66.2477 272.807C66.3874 272.753 66.4596 272.733 66.4641 272.746Z" fill="#E0E0E0"/>
<path d="M66.7818 278.749C66.1828 278.88 65.575 278.969 64.9633 279.013C63.5046 279.162 62.063 279.447 60.6572 279.864C59.2668 280.316 57.9636 281.002 56.804 281.892C55.9185 282.568 55.4993 283.143 55.452 283.116C55.4047 283.089 55.5196 282.947 55.7157 282.697C55.998 282.344 56.3151 282.02 56.6621 281.73C57.8122 280.77 59.1364 280.04 60.5626 279.58C61.9859 279.156 63.4536 278.897 64.9363 278.81C65.5483 278.733 66.1661 278.713 66.7818 278.749Z" fill="#E0E0E0"/>
<path d="M55.986 282.447C55.8914 282.393 56.7094 281.142 57.338 279.459C57.9667 277.776 58.0749 276.275 58.1763 276.295C58.234 276.617 58.234 276.947 58.1763 277.269C58.0841 278.051 57.9073 278.822 57.649 279.567C57.371 280.302 57.0176 281.007 56.5944 281.669C56.4372 281.961 56.2315 282.224 55.986 282.447Z" fill="#E0E0E0"/>
<path d="M71.7709 256.617C71.6827 256.684 71.5846 256.736 71.4802 256.773L70.6284 257.158C70.2499 257.32 69.7969 257.523 69.2764 257.793C68.7559 258.064 68.161 258.334 67.5391 258.706L66.5521 259.267C66.2074 259.47 65.8761 259.7 65.5043 259.943C64.7743 260.383 64.0442 260.93 63.26 261.484C61.6031 262.742 60.0397 264.118 58.5821 265.601C57.1517 267.102 55.8344 268.706 54.641 270.401C54.107 271.205 53.5865 271.956 53.1673 272.699C52.9578 273.064 52.7347 273.416 52.5454 273.767L52.0519 274.781C51.7004 275.417 51.4503 276.025 51.2002 276.546C50.9501 277.066 50.7608 277.526 50.6121 277.898C50.4633 278.269 50.3484 278.533 50.2538 278.763C50.2167 278.867 50.1691 278.966 50.1118 279.06C50.1247 278.951 50.1543 278.843 50.1997 278.743L50.5039 277.857C50.6391 277.472 50.8081 276.999 51.0447 276.471C51.2813 275.944 51.5179 275.322 51.8627 274.68C52.0249 274.349 52.2007 274.004 52.3764 273.652C52.5522 273.301 52.7753 272.976 52.9916 272.571C53.4039 271.814 53.9177 271.057 54.445 270.245C56.8178 266.776 59.7591 263.732 63.1451 261.241C63.936 260.687 64.6796 260.146 65.4165 259.713C65.7883 259.49 66.133 259.254 66.4778 259.037L67.485 258.483C68.1205 258.125 68.7289 257.861 69.2494 257.611C69.6895 257.391 70.1407 257.195 70.6014 257.023L71.4802 256.685C71.5746 256.653 71.672 256.63 71.7709 256.617Z" fill="#E0E0E0"/>
<path d="M58.812 265.31C58.9191 264.893 59.1558 264.522 59.488 264.248C60.2877 263.553 61.3079 263.162 62.3678 263.147C63.4039 263.142 64.4308 263.342 65.3895 263.735C65.7943 263.865 66.1789 264.052 66.5319 264.289C66.1182 264.211 65.7129 264.094 65.3219 263.937C64.3738 263.61 63.3776 263.443 62.3745 263.444C61.38 263.465 60.4183 263.804 59.63 264.411C59.3339 264.688 59.0604 264.989 58.812 265.31Z" fill="#E0E0E0"/>
<path d="M56.8579 267.311C57.2427 266.464 57.5176 265.571 57.6759 264.654C57.7306 263.727 57.6693 262.795 57.4934 261.883C57.6673 262.111 57.7833 262.378 57.8314 262.66C58.181 263.997 58.0144 265.416 57.3649 266.635C57.108 267.095 56.885 267.331 56.8579 267.311Z" fill="#E0E0E0"/>
<path d="M35.7329 294.229C36.1791 302.166 38.5721 310.23 42.2495 318.39H58.2369C61.7454 310.312 63.9694 302.26 64.3615 294.229H35.7329Z" fill="#E0E0E0"/>
<path d="M61.7725 307.067C61.7725 307.148 56.5065 307.215 50.0169 307.215C43.5273 307.215 38.2612 307.148 38.2612 307.067C38.2612 306.985 43.5205 306.904 50.0236 306.904C56.5268 306.904 61.7725 306.985 61.7725 307.067Z" fill="#FAFAFA"/>
<path d="M61.4145 309.94C61.4145 310.021 56.4797 310.088 50.3957 310.088C44.3117 310.088 39.3701 310.021 39.3701 309.94C39.3701 309.859 44.3049 309.791 50.3957 309.791C56.4864 309.791 61.4145 309.859 61.4145 309.94Z" fill="#FAFAFA"/>
<path d="M42.5066 299.469C42.7049 301.919 42.7049 304.381 42.5066 306.83C42.3083 304.381 42.3083 301.919 42.5066 299.469Z" fill="#FAFAFA"/>
<path d="M51.0716 299.469C51.2699 302.007 51.2699 304.556 51.0716 307.094C50.8733 304.556 50.8733 302.007 51.0716 299.469Z" fill="#FAFAFA"/>
<path d="M59.116 299.374C59.3143 301.964 59.3143 304.565 59.116 307.155C58.9177 304.565 58.9177 301.964 59.116 299.374Z" fill="#FAFAFA"/>
<path d="M63.8547 299.468C63.8547 299.549 57.6828 299.617 50.0711 299.617C42.4593 299.617 36.2739 299.549 36.2739 299.468C36.2739 299.387 42.4526 299.319 50.0711 299.319C57.6896 299.319 63.8547 299.353 63.8547 299.468Z" fill="#FAFAFA"/>
<path d="M311.899 225.466C313.362 224.82 314.604 223.759 315.47 222.415C316.336 221.07 316.79 219.501 316.773 217.902C316.773 213.386 313.393 209.709 309.141 209.695C304.889 209.682 301.455 213.319 301.442 217.807C301.411 219.419 301.858 221.004 302.727 222.362C303.595 223.72 304.846 224.791 306.322 225.439C294.526 227.217 295.06 240.034 295.06 240.034L322.959 240.163C322.959 240.163 323.594 227.231 311.899 225.466Z" fill="#EBEBEB"/>
<path d="M186.488 39.0802C187.515 38.8784 188.462 38.3826 189.214 37.653C189.965 36.9234 190.488 35.9914 190.72 34.9701C190.912 34.3148 190.969 33.6271 190.887 32.9491C190.805 32.271 190.585 31.6168 190.242 31.0263C189.899 30.4358 189.439 29.9214 188.89 29.5145C188.342 29.1076 187.716 28.8166 187.051 28.6594C186.387 28.5022 185.697 28.4821 185.024 28.6001C184.352 28.7182 183.71 28.9721 183.139 29.3462C182.567 29.7204 182.078 30.207 181.701 30.7765C181.324 31.3459 181.066 31.9861 180.945 32.6582C180.685 33.6831 180.735 34.7622 181.088 35.7587C181.442 36.7551 182.084 37.6241 182.932 38.2555C175.138 37.6403 173.59 45.9011 173.59 45.9011L191.369 50.1125C191.369 50.1125 193.694 41.9127 186.488 39.0802Z" fill="#EBEBEB"/>
<path d="M312.663 107.897C313.516 107.364 314.193 106.592 314.611 105.678C315.029 104.763 315.17 103.746 315.016 102.753C314.965 102.095 314.78 101.455 314.472 100.871C314.164 100.288 313.739 99.7737 313.225 99.3607C312.711 98.9477 312.117 98.6445 311.481 98.4699C310.844 98.2953 310.179 98.253 309.526 98.3456C308.873 98.4382 308.246 98.6637 307.683 99.0082C307.12 99.3527 306.634 99.8089 306.255 100.349C305.875 100.888 305.611 101.5 305.477 102.146C305.343 102.792 305.343 103.459 305.477 104.105C305.602 105.111 306.022 106.057 306.686 106.824C307.349 107.59 308.225 108.143 309.202 108.411C302.03 110.581 303.51 118.503 303.51 118.503L320.87 116.077C320.87 116.077 320.092 107.944 312.663 107.897Z" fill="#F5F5F5"/>
<path d="M34.1242 110.351L24.748 102.894L27.3439 99.6224L33.6374 104.618L42.8175 94.3496L45.9339 97.1347L34.1242 110.351Z" fill="#F5F5F5"/>
<path d="M318.166 318.626C318.166 318.727 250.465 318.802 166.979 318.802C83.4927 318.802 15.7778 318.727 15.7778 318.626C15.7778 318.525 83.4589 318.45 166.979 318.45C250.499 318.45 318.166 318.531 318.166 318.626Z" fill="#263238"/>
<path d="M46.9142 121.146L26.1813 131.55C25.4292 131.878 24.7895 132.418 24.3414 133.106C23.8933 133.793 23.6563 134.596 23.6598 135.417V145.117C23.636 153.941 26.2053 162.578 31.0485 169.954C34.7868 175.645 39.7419 182.919 47.9823 187.077H51.7003C60.8804 184.278 67.7283 176.822 71.9127 170.44C76.7579 163.065 79.3296 154.429 79.3082 145.604V135.417C79.3071 134.593 79.0644 133.787 78.6103 133.1C78.1561 132.413 77.5103 131.874 76.7529 131.55L53.0996 121.484C52.0518 121.038 47.9958 120.7 46.9142 121.146Z" fill="#61A7C6"/>
<path opacity="0.3" d="M46.9142 121.146L26.1813 131.55C25.4292 131.878 24.7895 132.418 24.3414 133.106C23.8933 133.793 23.6563 134.596 23.6598 135.417V145.117C23.636 153.941 26.2053 162.578 31.0485 169.954C34.7868 175.645 39.7419 182.919 47.9823 187.077H51.7003C60.8804 184.278 67.7283 176.822 71.9127 170.44C76.7579 163.065 79.3296 154.429 79.3082 145.604V135.417C79.3071 134.593 79.0644 133.787 78.6103 133.1C78.1561 132.413 77.5103 131.874 76.7529 131.55L53.0996 121.484C52.0518 121.038 47.9958 120.7 46.9142 121.146Z" fill="black"/>
<path d="M46.0828 121.484L22.4566 131.55C21.6992 131.874 21.0534 132.413 20.5993 133.1C20.1451 133.787 19.9024 134.593 19.9014 135.416V145.117C19.9019 154.101 22.567 162.883 27.5595 170.352C32.552 177.82 39.6476 183.641 47.9486 187.076C57.1219 184.278 63.9698 176.821 68.161 170.44C73.0062 163.065 75.5778 154.428 75.5564 145.604V135.416C75.5559 134.593 75.3143 133.788 74.8614 133.101C74.4084 132.414 73.7641 131.875 73.0079 131.55L49.3479 121.484C48.831 121.267 48.276 121.155 47.7154 121.155C47.1548 121.155 46.5998 121.267 46.0828 121.484Z" fill="#61A7C6"/>
<path opacity="0.3" d="M53.3349 165.484C61.3094 162.391 65.2666 153.418 62.1735 145.444C59.0804 137.47 50.1083 133.512 42.1339 136.606C34.1594 139.699 30.2023 148.671 33.2954 156.645C36.3885 164.62 45.3605 168.577 53.3349 165.484Z" fill="black"/>
<path d="M47.7256 151.904C51.2761 151.904 54.1544 149.026 54.1544 145.476C54.1544 141.925 51.2761 139.047 47.7256 139.047C44.1751 139.047 41.2969 141.925 41.2969 145.476C41.2969 149.026 44.1751 151.904 47.7256 151.904Z" fill="white"/>
<path d="M35.9902 161.139C37.0241 158.976 38.6558 157.154 40.6923 155.889C42.7288 154.624 45.085 153.968 47.4822 154C49.9404 154.001 52.3529 154.664 54.4658 155.92C56.5786 157.176 58.3136 158.979 59.488 161.139C59.488 161.139 55.6956 166.749 47.32 166.547C45.1493 166.538 43.0075 166.048 41.0486 165.113C39.0896 164.178 37.3621 162.821 35.9902 161.139Z" fill="white"/>
<path d="M63.2125 151.045C63.2048 150.962 63.2048 150.879 63.2125 150.795C63.2125 150.613 63.2125 150.37 63.1517 150.065C63.1517 149.903 63.1517 149.721 63.1517 149.524C63.1517 149.328 63.0841 149.112 63.0503 148.849C62.9798 148.312 62.8714 147.781 62.7258 147.26C62.3583 145.816 61.7773 144.435 61.002 143.163C59.9852 141.475 58.6543 139.997 57.0812 138.81C55.1809 137.365 52.967 136.387 50.6187 135.957C47.9227 135.461 45.143 135.694 42.5675 136.633C41.8705 136.875 41.1926 137.169 40.5395 137.512C39.8864 137.87 39.2585 138.272 38.6602 138.715C38.0517 139.173 37.4715 139.667 36.9229 140.196C36.3852 140.753 35.8839 141.345 35.4222 141.967C34.4758 143.249 33.7388 144.672 33.2387 146.185C32.184 149.321 32.184 152.716 33.2387 155.852C33.7358 157.366 34.4731 158.79 35.4222 160.07C35.8838 160.694 36.3851 161.288 36.9229 161.848C37.4698 162.376 38.0501 162.868 38.6602 163.322C39.8339 164.217 41.141 164.922 42.5337 165.411C45.1092 166.349 47.8889 166.583 50.5849 166.087C52.726 165.683 54.7578 164.832 56.5472 163.589C58.3366 162.346 59.8431 160.739 60.9682 158.874C61.7349 157.61 62.3069 156.238 62.665 154.804C62.81 154.28 62.9184 153.747 62.9895 153.209C62.9895 152.979 63.0706 152.763 63.0909 152.533C63.1111 152.303 63.0909 152.154 63.0909 151.992L63.1517 151.255C63.1448 151.172 63.1448 151.088 63.1517 151.005C63.159 151.088 63.159 151.172 63.1517 151.255C63.1517 151.444 63.1517 151.688 63.1517 151.999C63.1517 152.161 63.1517 152.343 63.1517 152.539C63.1517 152.735 63.0976 152.959 63.0638 153.215C63.0098 153.761 62.9103 154.302 62.7664 154.831C62.4234 156.296 61.8556 157.698 61.0831 158.989C59.2461 162.125 56.3685 164.518 52.9501 165.753C49.5317 166.988 45.7887 166.986 42.3715 165.749C41.6756 165.498 40.998 165.2 40.3435 164.856C39.678 164.482 39.0409 164.059 38.4371 163.592C37.8084 163.131 37.2121 162.627 36.6525 162.085C36.1144 161.523 35.6131 160.926 35.1518 160.3C34.1787 158.991 33.421 157.535 32.9075 155.987C32.3941 154.389 32.1229 152.724 32.103 151.045C32.1218 149.367 32.3953 147.701 32.9142 146.104C33.4226 144.555 34.1782 143.099 35.1518 141.791C35.6271 141.155 36.1418 140.55 36.6931 139.979C37.2506 139.437 37.8446 138.933 38.4709 138.472C39.0703 138.015 39.7005 137.599 40.357 137.228C41.0114 136.882 41.689 136.581 42.385 136.329C45.0138 135.376 47.8492 135.143 50.5984 135.653C52.7791 136.072 54.845 136.953 56.6579 138.235C58.4708 139.517 59.9888 141.172 61.1102 143.089C61.8828 144.382 62.4506 145.787 62.7934 147.253C62.9373 147.78 63.0368 148.318 63.0909 148.862C63.0909 149.099 63.1652 149.315 63.1787 149.538V150.086C63.1787 150.397 63.1787 150.64 63.1787 150.822C63.1962 150.896 63.2075 150.97 63.2125 151.045Z" fill="#263238"/>
<path d="M75.4753 142.975C75.5068 143.124 75.5226 143.275 75.5226 143.428C75.5226 143.752 75.5226 144.178 75.5767 144.712C75.6307 145.246 75.6307 145.949 75.5767 146.74C75.5767 147.139 75.5767 147.558 75.5767 148.011C75.5767 148.464 75.5767 148.937 75.4888 149.43C75.3941 150.424 75.3265 151.519 75.117 152.682C75.0291 153.263 74.9547 153.865 74.8331 154.48C74.7114 155.095 74.5627 155.724 74.4275 156.373C73.7774 159.167 72.8723 161.896 71.7235 164.525C70.5363 167.141 69.1178 169.646 67.4849 172.009C66.7008 173.07 65.9775 174.098 65.1933 174.983C64.8147 175.429 64.4632 175.882 64.0914 176.281L63.0166 177.417C62.3406 178.167 61.6646 178.769 61.0832 179.303C60.5968 179.781 60.0845 180.233 59.5487 180.655L58.5482 181.466C58.4385 181.564 58.3183 181.651 58.1899 181.723C58.2861 181.61 58.3924 181.506 58.5077 181.412L59.4608 180.553C59.8867 180.188 60.3937 179.735 60.948 179.201C61.5023 178.667 62.1783 178.039 62.8341 177.288L63.8886 176.139C64.2537 175.74 64.5646 175.287 64.9702 174.841C65.7341 173.956 66.4439 172.928 67.2213 171.86C68.8259 169.507 70.2236 167.019 71.399 164.424C72.5414 161.806 73.4463 159.092 74.103 156.312L74.5221 154.433C74.6438 153.824 74.7249 153.223 74.8263 152.648C75.0426 151.499 75.1237 150.411 75.2319 149.424C75.2927 148.93 75.3333 148.457 75.3468 148.011L75.4077 146.747C75.4685 145.956 75.455 145.273 75.455 144.719C75.455 144.164 75.455 143.766 75.455 143.434C75.4502 143.281 75.457 143.127 75.4753 142.975Z" fill="#263238"/>
<path d="M239.852 318.626H80.0046C78.9573 318.608 77.9238 318.384 76.9631 317.967C76.0024 317.55 75.1334 316.947 74.4057 316.194C73.6781 315.441 73.1061 314.551 72.7224 313.576C72.3387 312.602 72.1509 311.561 72.1697 310.514V66.194C72.1509 65.1468 72.3387 64.1061 72.7224 63.1315C73.1061 62.1569 73.6781 61.2675 74.4057 60.5141C75.1334 59.7607 76.0024 59.1581 76.9631 58.7408C77.9238 58.3235 78.9573 58.0996 80.0046 58.082H239.852C240.898 58.0996 241.932 58.3235 242.892 58.7409C243.852 59.1583 244.721 59.761 245.448 60.5145C246.175 61.268 246.747 62.1574 247.129 63.132C247.512 64.1066 247.699 65.1471 247.68 66.194V310.527C247.698 311.573 247.509 312.612 247.125 313.585C246.742 314.558 246.17 315.446 245.443 316.198C244.716 316.95 243.848 317.552 242.889 317.968C241.929 318.385 240.897 318.608 239.852 318.626Z" fill="#263238"/>
<path d="M162.991 306.776C163.016 308.251 162.602 309.702 161.8 310.941C160.999 312.181 159.847 313.154 158.49 313.736C157.134 314.319 155.635 314.485 154.184 314.212C152.733 313.94 151.396 313.242 150.344 312.208C149.291 311.173 148.57 309.848 148.272 308.403C147.975 306.957 148.114 305.455 148.673 304.089C149.232 302.723 150.185 301.554 151.41 300.731C152.636 299.908 154.078 299.468 155.555 299.468C157.509 299.452 159.391 300.212 160.785 301.583C162.179 302.953 162.973 304.821 162.991 306.776Z" fill="#455A64"/>
<path d="M177.91 71.8589H142.082C141.748 71.8536 141.418 71.7826 141.112 71.65C140.806 71.5173 140.528 71.3256 140.296 71.0858C140.064 70.846 139.881 70.5628 139.758 70.2524C139.635 69.942 139.575 69.6104 139.58 69.2766C139.57 68.6018 139.827 67.9503 140.296 67.4649C140.765 66.9795 141.407 66.6999 142.082 66.6875H177.91C178.584 66.6999 179.227 66.9795 179.696 67.4649C180.164 67.9503 180.422 68.6018 180.411 69.2766C180.416 69.6104 180.356 69.942 180.233 70.2524C180.11 70.5628 179.927 70.846 179.695 71.0858C179.463 71.3256 179.186 71.5173 178.879 71.65C178.573 71.7826 178.243 71.8536 177.91 71.8589Z" fill="#455A64"/>
<path d="M242.001 76.6787H77.5576V294.256H242.001V76.6787Z" fill="white"/>
<path d="M242.001 76.6787H234.984V294.256H242.001V76.6787Z" fill="#F5F5F5"/>
<path d="M238.486 154.852C237.907 154.85 237.351 154.618 236.942 154.208C236.533 153.797 236.303 153.241 236.303 152.661V104.537C236.303 103.957 236.533 103.401 236.942 102.991C237.351 102.58 237.907 102.348 238.486 102.347C239.067 102.347 239.624 102.577 240.035 102.988C240.446 103.399 240.676 103.956 240.676 104.537V152.661C240.676 153.242 240.446 153.799 240.035 154.21C239.624 154.621 239.067 154.852 238.486 154.852Z" fill="#E0E0E0"/>
<path d="M220.552 126.196H99.3046C98.3794 126.196 97.4922 125.829 96.8381 125.174C96.1839 124.52 95.8164 123.633 95.8164 122.708C95.8164 121.783 96.1839 120.896 96.8381 120.241C97.4922 119.587 98.3794 119.22 99.3046 119.22H220.552C221.477 119.22 222.364 119.587 223.018 120.241C223.673 120.896 224.04 121.783 224.04 122.708C224.04 123.633 223.673 124.52 223.018 125.174C222.364 125.829 221.477 126.196 220.552 126.196Z" fill="#E0E0E0"/>
<path d="M201.901 100.724H125.628C124.703 100.724 123.815 100.357 123.161 99.7027C122.507 99.0486 122.14 98.1613 122.14 97.2362C122.14 96.3111 122.507 95.4239 123.161 94.7697C123.815 94.1156 124.703 93.748 125.628 93.748H201.901C202.826 93.748 203.713 94.1156 204.367 94.7697C205.022 95.4239 205.389 96.3111 205.389 97.2362C205.389 98.1613 205.022 99.0486 204.367 99.7027C203.713 100.357 202.826 100.724 201.901 100.724Z" fill="#61A7C6"/>
<path d="M203.334 140.236H116.522C115.597 140.236 114.71 139.869 114.056 139.214C113.402 138.56 113.034 137.673 113.034 136.748C113.034 135.823 113.402 134.936 114.056 134.281C114.71 133.627 115.597 133.26 116.522 133.26H203.334C203.792 133.26 204.246 133.35 204.669 133.525C205.092 133.701 205.477 133.958 205.801 134.281C206.125 134.605 206.382 134.99 206.557 135.413C206.732 135.836 206.822 136.29 206.822 136.748C206.822 137.206 206.732 137.66 206.557 138.083C206.382 138.506 206.125 138.891 205.801 139.214C205.477 139.538 205.092 139.795 204.669 139.971C204.246 140.146 203.792 140.236 203.334 140.236Z" fill="#E0E0E0"/>
<path d="M164.14 201.448H97.3441C96.419 201.448 95.5318 201.081 94.8776 200.426C94.2235 199.772 93.856 198.885 93.856 197.96C93.856 197.502 93.9462 197.048 94.1215 196.625C94.2968 196.202 94.5537 195.817 94.8776 195.493C95.2015 195.169 95.5861 194.913 96.0093 194.737C96.4325 194.562 96.886 194.472 97.3441 194.472H164.14C164.598 194.472 165.051 194.562 165.475 194.737C165.898 194.913 166.282 195.169 166.606 195.493C166.93 195.817 167.187 196.202 167.362 196.625C167.538 197.048 167.628 197.502 167.628 197.96C167.628 198.885 167.26 199.772 166.606 200.426C165.952 201.081 165.065 201.448 164.14 201.448Z" fill="#E0E0E0"/>
<path d="M218.591 186.826H97.3441C96.419 186.826 95.5318 186.459 94.8776 185.804C94.2235 185.15 93.856 184.263 93.856 183.338C93.856 182.88 93.9462 182.427 94.1216 182.004C94.297 181.581 94.554 181.197 94.878 180.874C95.202 180.55 95.5866 180.294 96.0098 180.12C96.4329 179.945 96.8864 179.856 97.3441 179.856H218.591C219.049 179.856 219.503 179.945 219.926 180.12C220.349 180.294 220.734 180.55 221.058 180.874C221.382 181.197 221.639 181.581 221.814 182.004C221.989 182.427 222.08 182.88 222.08 183.338C222.08 183.796 221.989 184.25 221.814 184.673C221.639 185.096 221.382 185.48 221.058 185.804C220.734 186.128 220.35 186.385 219.926 186.56C219.503 186.736 219.05 186.826 218.591 186.826Z" fill="#E0E0E0"/>
<path d="M218.591 226.899H112.466C110.54 226.899 108.978 228.461 108.978 230.388C108.978 232.314 110.54 233.876 112.466 233.876H218.591C220.518 233.876 222.08 232.314 222.08 230.388C222.08 228.461 220.518 226.899 218.591 226.899Z" fill="#E0E0E0"/>
<path d="M218.591 248.768H97.3441C96.419 248.768 95.5318 248.401 94.8776 247.747C94.2235 247.093 93.856 246.205 93.856 245.28C93.8595 244.358 94.2286 243.474 94.8824 242.823C95.5362 242.171 96.4213 241.806 97.3441 241.806H218.591C219.05 241.806 219.503 241.896 219.926 242.071C220.35 242.246 220.734 242.503 221.058 242.827C221.382 243.151 221.639 243.536 221.814 243.959C221.989 244.382 222.08 244.836 222.08 245.294C222.076 246.217 221.707 247.1 221.053 247.752C220.399 248.403 219.514 248.768 218.591 248.768Z" fill="#E0E0E0"/>
<path d="M218.591 263.924H97.3441C96.419 263.924 95.5318 263.556 94.8776 262.902C94.2235 262.248 93.856 261.361 93.856 260.435C93.856 259.51 94.2235 258.623 94.8776 257.969C95.5318 257.315 96.419 256.947 97.3441 256.947H218.591C219.05 256.947 219.503 257.037 219.926 257.213C220.35 257.388 220.734 257.645 221.058 257.969C221.382 258.293 221.639 258.677 221.814 259.101C221.989 259.524 222.08 259.977 222.08 260.435C222.08 261.361 221.712 262.248 221.058 262.902C220.404 263.556 219.517 263.924 218.591 263.924Z" fill="#E0E0E0"/>
<path d="M102.799 230.388C102.799 231.105 102.587 231.806 102.188 232.402C101.79 232.998 101.224 233.462 100.561 233.736C99.8987 234.01 99.1698 234.082 98.4667 233.941C97.7637 233.801 97.1181 233.455 96.6116 232.948C96.1051 232.44 95.7606 231.794 95.6215 231.091C95.4825 230.387 95.5552 229.659 95.8305 228.997C96.1058 228.335 96.5712 227.769 97.168 227.372C97.7647 226.975 98.4659 226.763 99.1829 226.765C100.143 226.766 101.063 227.149 101.741 227.828C102.419 228.508 102.799 229.428 102.799 230.388Z" fill="#61A7C6"/>
<path d="M218.591 173.205H112.459C111.534 173.205 110.647 172.837 109.993 172.183C109.339 171.529 108.971 170.642 108.971 169.717C108.971 168.792 109.339 167.904 109.993 167.25C110.647 166.596 111.534 166.229 112.459 166.229H218.591C219.049 166.229 219.503 166.319 219.926 166.494C220.349 166.669 220.734 166.926 221.058 167.25C221.382 167.574 221.639 167.959 221.814 168.382C221.989 168.805 222.08 169.259 222.08 169.717C222.08 170.175 221.989 170.628 221.814 171.052C221.639 171.475 221.382 171.859 221.058 172.183C220.734 172.507 220.349 172.764 219.926 172.939C219.503 173.115 219.049 173.205 218.591 173.205Z" fill="#E0E0E0"/>
<path d="M99.1829 173.34C101.184 173.34 102.806 171.718 102.806 169.717C102.806 167.716 101.184 166.094 99.1829 166.094C97.1818 166.094 95.5596 167.716 95.5596 169.717C95.5596 171.718 97.1818 173.34 99.1829 173.34Z" fill="#61A7C6"/>
<path d="M215.205 286.104H187.996C186.522 286.104 185.109 285.518 184.066 284.476C183.024 283.434 182.439 282.021 182.439 280.547C182.439 279.073 183.024 277.66 184.066 276.618C185.109 275.576 186.522 274.99 187.996 274.99H215.205C216.678 274.99 218.092 275.576 219.134 276.618C220.176 277.66 220.761 279.073 220.761 280.547C220.761 282.021 220.176 283.434 219.134 284.476C218.092 285.518 216.678 286.104 215.205 286.104Z" fill="#61A7C6"/>
<path d="M75.0359 23.8966L46.8332 38.0452C45.8012 38.484 44.9209 39.2165 44.3019 40.1516C43.683 41.0867 43.3525 42.1831 43.3518 43.3045V56.5C43.3184 68.5092 46.8164 80.2632 53.4107 90.3C58.4942 98.02 65.2272 107.917 76.442 113.568H81.4985C93.9774 109.762 103.293 99.6153 108.991 90.9422C115.586 80.9054 119.084 69.1514 119.05 57.1422V43.3045C119.052 42.1861 118.725 41.0919 118.111 40.1571C117.497 39.2223 116.623 38.4881 115.596 38.0452L83.4454 24.336C82.0122 23.7478 76.469 23.2882 75.0359 23.8966Z" fill="#61A7C6"/>
<path opacity="0.3" d="M75.0359 23.8966L46.8332 38.0452C45.8012 38.484 44.9209 39.2165 44.3019 40.1516C43.683 41.0867 43.3525 42.1831 43.3518 43.3045V56.5C43.3184 68.5092 46.8164 80.2632 53.4107 90.3C58.4942 98.02 65.2272 107.917 76.442 113.568H81.4985C93.9774 109.762 103.293 99.6153 108.991 90.9422C115.586 80.9054 119.084 69.1514 119.05 57.1422V43.3045C119.052 42.1861 118.725 41.0919 118.111 40.1571C117.497 39.2223 116.623 38.4881 115.596 38.0452L83.4454 24.336C82.0122 23.7478 76.469 23.2882 75.0359 23.8966Z" fill="black"/>
<path d="M73.9003 24.3364L41.7701 38.0457C40.7388 38.4848 39.8595 39.2175 39.2416 40.1527C38.6238 41.0879 38.2947 42.1841 38.2954 43.305V56.5005C38.297 68.7191 41.9222 80.6627 48.7123 90.8208C55.5024 100.979 65.1525 108.895 76.4421 113.568C88.9211 109.763 98.2363 99.6158 103.928 90.9427C110.525 80.9072 114.024 69.1523 113.987 57.1427V43.305C113.988 42.1841 113.659 41.0879 113.041 40.1527C112.423 39.2175 111.544 38.4848 110.512 38.0457L78.416 24.3364C77.7025 24.0307 76.9344 23.873 76.1582 23.873C75.3819 23.873 74.6138 24.0307 73.9003 24.3364Z" fill="#61A7C6"/>
<path d="M113.886 53.5869C113.894 53.6384 113.894 53.6909 113.886 53.7424C113.886 53.8641 113.886 54.0128 113.886 54.1953C113.886 54.628 113.919 55.2093 113.946 55.9462C113.973 56.683 114.014 57.6294 113.946 58.711C113.946 59.2518 113.946 59.8264 113.892 60.4348C113.892 60.7458 113.892 61.0567 113.892 61.3812C113.892 61.7057 113.832 62.0572 113.798 62.3749C113.663 63.7269 113.575 65.2141 113.291 66.7892C113.162 67.5734 113.061 68.3981 112.899 69.2296C112.736 70.061 112.534 70.9196 112.344 71.7984C111.451 75.5981 110.209 79.3071 108.633 82.878C107.023 86.4326 105.1 89.8372 102.887 93.0518C101.819 94.4984 100.859 95.8977 99.7775 97.1078C99.257 97.7162 98.7838 98.3313 98.2768 98.8722L96.8166 100.427C95.9108 101.441 94.9779 102.245 94.2005 102.996C93.8016 103.361 93.4434 103.712 93.0986 104.017L92.1522 104.78L90.8002 105.889L90.4419 106.173C90.3608 106.234 90.3135 106.261 90.3135 106.254C90.3135 106.247 90.3135 106.214 90.4149 106.139L90.7529 105.835L92.0575 104.679L93.0107 103.848C93.3555 103.543 93.6867 103.172 94.0923 102.806C94.8562 102.049 95.7688 101.238 96.6611 100.217L98.101 98.6491C98.6012 98.1083 99.0677 97.4931 99.5747 96.8847C100.622 95.6814 101.603 94.2821 102.644 92.8287C104.835 89.621 106.742 86.2281 108.342 82.6887C109.905 79.1358 111.147 75.4505 112.054 71.6767C112.25 70.8046 112.432 69.9529 112.621 69.1282C112.811 68.3034 112.892 67.4787 113.027 66.6946C113.325 65.1262 113.426 63.6458 113.575 62.3006C113.615 61.9693 113.649 61.6246 113.683 61.3204C113.717 61.0162 113.683 60.6849 113.723 60.3807C113.75 59.7723 113.777 59.1977 113.804 58.6569C113.879 57.5821 113.859 56.6289 113.859 55.8988V54.2021V53.7424C113.857 53.6893 113.866 53.6365 113.886 53.5869Z" fill="#263238"/>
<path d="M88.8667 71.3177H85.4394V52.6668C85.379 50.5959 84.514 48.63 83.0278 47.1865C81.5416 45.743 79.5513 44.9356 77.4795 44.9356C75.4077 44.9356 73.4174 45.743 71.9312 47.1865C70.4451 48.63 69.58 50.5959 69.5196 52.6668V71.3177H66.0923V52.6668C66.1647 49.6948 67.3962 46.8688 69.5238 44.7924C71.6515 42.716 74.5066 41.5537 77.4795 41.5537C80.4524 41.5537 83.3075 42.716 85.4352 44.7924C87.5628 46.8688 88.7943 49.6948 88.8667 52.6668V71.3177Z" fill="#F5F5F5"/>
<path d="M88.9005 58.6631H66.0653C63.8961 58.6631 62.1377 60.4215 62.1377 62.5906V78.7876C62.1377 80.9567 63.8961 82.7152 66.0653 82.7152H88.9005C91.0697 82.7152 92.8281 80.9567 92.8281 78.7876V62.5906C92.8281 60.4215 91.0697 58.6631 88.9005 58.6631Z" fill="white"/>
<path d="M88.9005 82.7154C89.2443 82.679 89.5852 82.6203 89.9213 82.5396C90.7403 82.3033 91.4593 81.8052 91.9683 81.1216C92.4774 80.4379 92.7485 79.6063 92.7402 78.754C92.7402 77.9631 92.7402 77.1046 92.7402 76.1784C92.7402 74.333 92.7402 72.2306 92.7402 69.9052C92.7402 67.5797 92.7402 65.0447 92.7402 62.3137C92.6894 61.633 92.4551 60.9788 92.0624 60.4206C91.6696 59.8624 91.1329 59.421 90.5094 59.1432C89.8444 58.8695 89.1237 58.7582 88.4071 58.8188H86.1357L66.0653 58.812C65.2216 58.8117 64.4025 59.0957 63.7402 59.6182C63.0779 60.1408 62.611 60.8712 62.4149 61.6918C62.3272 62.1003 62.2908 62.5181 62.3067 62.9356V66.7415C62.3067 70.1215 62.3067 73.3122 62.3067 76.388C62.3675 77.9158 62.0498 79.4908 62.834 80.6941C63.1812 81.2852 63.6818 81.7713 64.2828 82.101C64.8838 82.4306 65.5628 82.5915 66.2478 82.5666H73.8528L84.8648 82.6275H87.8528H88.6301C88.7201 82.619 88.8106 82.619 88.9005 82.6275C88.8107 82.6376 88.72 82.6376 88.6301 82.6275H87.8528H84.8648L73.8528 82.6816H66.2478C65.6892 82.7066 65.1315 82.6169 64.609 82.4179C64.0865 82.2189 63.6103 81.9149 63.2099 81.5246C62.8095 81.1344 62.4934 80.6662 62.2811 80.1489C62.0687 79.6317 61.9647 79.0764 61.9755 78.5174V76.388C61.9755 73.3122 61.9755 70.0877 61.9755 66.7415V62.9626C61.9552 62.5089 61.9938 62.0544 62.0904 61.6106C62.31 60.7247 62.8221 59.9387 63.5438 59.3798C64.2714 58.8043 65.1714 58.49 66.0991 58.4875H86.0951H88.3665C89.1286 58.4293 89.8935 58.5545 90.5973 58.8526C91.2697 59.1528 91.8478 59.6304 92.2693 60.2342C92.6909 60.838 92.9402 61.5452 92.9903 62.2799C92.9903 65.038 92.9903 67.5662 92.9903 69.8916C92.9903 72.2171 92.9903 74.3194 92.9903 76.1649C92.9903 77.091 92.9903 77.9496 92.9903 78.7405C92.9911 79.4808 92.785 80.2066 92.3955 80.8361C91.8654 81.7103 91.0134 82.3414 90.0227 82.5937C89.6595 82.7039 89.2789 82.7452 88.9005 82.7154Z" fill="#263238"/>
<path d="M79.8358 71.3114C80.1452 71.0028 80.3905 70.6361 80.5576 70.2324C80.7246 69.8286 80.8102 69.3958 80.8093 68.9589C80.8132 68.3291 80.6411 67.7107 80.3124 67.1735C79.9837 66.6363 79.5115 66.2016 78.9489 65.9185C78.3863 65.6353 77.7558 65.515 77.1285 65.571C76.5012 65.6271 75.9021 65.8573 75.3986 66.2357C74.8951 66.614 74.5074 67.1256 74.2791 67.7126C74.0509 68.2995 73.9911 68.9386 74.1067 69.5577C74.2222 70.1768 74.5085 70.7513 74.9331 71.2165C75.3577 71.6816 75.9038 72.0188 76.5099 72.1902L75.7866 75.3944H78.9976L78.3216 72.1902C78.8826 72.0299 79.3927 71.7272 79.802 71.3114" fill="#61A7C6"/>
<path d="M289.206 95.431V122.822C289.267 127.554 289.963 134.99 282.446 134.747C275.963 134.071 274.239 127.899 274.192 123.478C274.192 121.383 274.145 119.632 274.124 119.422C274.124 119.422 267.026 118.841 266.425 111.824C266.134 108.444 266.107 101.407 266.154 95.0457C266.183 91.7511 267.451 88.5881 269.705 86.1858C271.96 83.7834 275.036 82.3176 278.322 82.08L278.998 82.0327C286.346 81.9245 289.328 88.0964 289.206 95.431Z" fill="#FFBF9D"/>
<path d="M274.145 119.422C277.388 119.173 280.491 118 283.088 116.042C283.088 116.042 281.236 121.335 274.186 121.213L274.145 119.422Z" fill="#FF9A6C"/>
<path d="M278.167 97.9251C278.309 98.0671 279.12 97.4114 280.29 97.3843C281.459 97.3573 282.318 97.9251 282.466 97.7764C282.615 97.6277 282.385 97.4452 282 97.1815C281.485 96.8359 280.875 96.6609 280.256 96.6813C279.641 96.7007 279.049 96.9162 278.566 97.2964C278.214 97.5939 278.099 97.8575 278.167 97.9251Z" fill="#263238"/>
<path d="M278.147 101.244C278.161 101.493 278.272 101.726 278.457 101.893C278.642 102.06 278.885 102.147 279.134 102.136C279.255 102.137 279.375 102.114 279.487 102.067C279.599 102.021 279.701 101.953 279.786 101.866C279.871 101.78 279.938 101.677 279.983 101.565C280.028 101.452 280.049 101.331 280.047 101.21C280.031 100.963 279.92 100.732 279.737 100.566C279.554 100.399 279.314 100.31 279.066 100.318C278.945 100.318 278.825 100.342 278.713 100.388C278.601 100.435 278.499 100.503 278.414 100.589C278.328 100.676 278.261 100.778 278.215 100.89C278.169 101.002 278.146 101.123 278.147 101.244Z" fill="#263238"/>
<path d="M275.226 106.131C274.644 105.996 274.047 105.932 273.449 105.942C273.171 105.942 272.908 105.895 272.847 105.712C272.802 105.429 272.844 105.139 272.969 104.881C273.185 104.205 273.401 103.481 273.645 102.724C274.557 99.6553 275.199 97.1406 275.078 97.1068C274.956 97.073 274.111 99.5269 273.198 102.596C272.982 103.353 272.773 104.076 272.57 104.766C272.423 105.11 272.401 105.495 272.509 105.854C272.554 105.949 272.621 106.032 272.705 106.097C272.788 106.162 272.885 106.206 272.989 106.226C273.146 106.244 273.305 106.244 273.462 106.226C274.052 106.265 274.644 106.233 275.226 106.131Z" fill="#263238"/>
<path d="M278.667 92.9227C278.782 93.1863 279.722 92.9903 280.851 93.0444C281.98 93.0984 282.879 93.3486 283.034 93.0984C283.088 92.9835 282.913 92.7402 282.534 92.5103C282.029 92.2273 281.465 92.0675 280.887 92.044C280.309 92.0205 279.734 92.134 279.208 92.3751C278.809 92.5712 278.62 92.801 278.667 92.9227Z" fill="#263238"/>
<path d="M267.506 94.6799C267.635 94.8962 268.547 94.6799 269.663 94.6258C270.778 94.5718 271.691 94.734 271.813 94.5109C271.86 94.4028 271.677 94.2135 271.292 94.0445C270.771 93.8364 270.21 93.7441 269.649 93.7741C269.081 93.7897 268.523 93.9281 268.013 94.1797C267.635 94.3757 267.452 94.5785 267.506 94.6799Z" fill="#263238"/>
<path d="M256.88 88.7518C256.919 88.6092 256.987 88.4759 257.079 88.3598C257.17 88.2437 257.284 88.1471 257.414 88.0758C257.974 87.8206 258.593 87.7203 259.205 87.7851C261.078 87.7505 262.903 87.1958 264.478 86.183C265.214 85.1263 266.034 84.1315 266.932 83.2086C269.061 81.0183 270.805 79.5244 272.617 78.7943C274.956 77.8547 278.87 77.4423 281.311 78.1183C283.751 78.7943 285.941 80.7412 286.286 83.2356C287.638 82.0797 289.706 82.0932 291.376 82.7624H291.417C293.269 83.4384 294.324 85.3853 294.871 87.2781C295.419 89.1709 295.655 91.1989 296.656 92.8957C296.865 93.2472 297.115 93.6731 296.933 94.0449C296.848 94.1795 296.725 94.2852 296.579 94.348C296.433 94.4108 296.271 94.4276 296.115 94.3964C295.802 94.3293 295.507 94.1956 295.25 94.0043C295.459 94.5045 295.662 94.998 295.872 95.4915C295.195 95.6093 294.5 95.5653 293.844 95.3631C293.503 97.0506 293.063 98.7164 292.525 100.352C291.833 100.27 291.135 100.441 290.558 100.832C289.882 101.42 289.619 102.522 288.53 102.103C287.983 101.886 287.482 100.751 287.293 100.176C286.07 96.4323 285.667 92.4692 286.11 88.5558C285.341 87.7369 284.423 87.0717 283.406 86.5954L283.487 86.6697C281.527 85.9937 279.31 85.3177 277.451 86.2371C276.011 86.9536 275.166 88.4476 274.071 89.6171C273.079 90.7287 271.872 91.6273 270.523 92.2583C269.174 92.8893 267.711 93.2396 266.222 93.2878C266.121 95.2617 266.283 98.0536 266.182 100.048L264.519 96.8841C264.388 96.6649 264.268 96.4392 264.16 96.2081V96.1405C263.994 95.7543 263.807 95.3775 263.599 95.0116C263.369 95.1965 263.08 95.2931 262.785 95.2837C262.49 95.2743 262.208 95.1596 261.99 94.9604C261.772 94.7612 261.632 94.4906 261.597 94.1974C261.561 93.9043 261.631 93.608 261.794 93.3621C261.961 93.1325 262.162 92.9296 262.389 92.7605C262.148 92.9954 261.85 93.1633 261.524 93.2475C261.198 93.3317 260.855 93.3293 260.53 93.2404C260.208 93.1424 259.928 92.9408 259.732 92.667C259.537 92.3932 259.437 92.0625 259.449 91.7262C259.477 91.5001 259.563 91.2852 259.699 91.1026C259.836 90.9201 260.017 90.7762 260.226 90.6851C259.356 90.755 258.484 90.5619 257.725 90.1308C257.184 89.8402 256.697 89.3737 256.88 88.7518Z" fill="#263238"/>
<path d="M284.062 84.0537C284.307 84.259 284.533 84.4852 284.738 84.7297C285.293 85.3976 285.664 86.1994 285.813 87.0552C285.936 87.6421 285.997 88.2402 285.995 88.8398C285.995 89.5158 285.948 90.1918 285.894 90.9084C285.83 91.6727 285.814 92.4404 285.847 93.2068C285.866 93.6159 285.918 94.0228 286.002 94.4235C286.065 94.8509 286.235 95.2554 286.496 95.5998C286.618 95.7362 286.775 95.8385 286.949 95.8965C287.123 95.9546 287.309 95.9665 287.489 95.931C287.832 95.8683 288.144 95.6921 288.375 95.4308C288.757 94.9078 288.991 94.2911 289.051 93.6462H288.909C289.118 94.1769 289.405 94.6736 289.761 95.1198C290.101 95.5301 290.584 95.7959 291.113 95.8634C291.361 95.8882 291.611 95.8437 291.836 95.735C292.045 95.6257 292.217 95.4561 292.329 95.2483C292.431 95.0569 292.482 94.8429 292.478 94.6264C292.468 94.4247 292.386 94.2332 292.248 94.0855L292.174 94.1532C292.592 94.6306 293.106 95.0152 293.681 95.2821C293.884 95.3722 294.04 95.433 294.148 95.4646L294.317 95.5052L294.161 95.4375C294.053 95.3902 293.898 95.3294 293.709 95.2348C293.151 94.952 292.654 94.5614 292.248 94.0855L292.174 94.1532C292.289 94.3003 292.355 94.4796 292.364 94.6661C292.372 94.8527 292.323 95.0373 292.221 95.1942C292.122 95.3775 291.968 95.526 291.782 95.6201C291.572 95.7212 291.337 95.7588 291.106 95.7282C290.612 95.6716 290.158 95.43 289.835 95.0522C289.495 94.6137 289.22 94.1288 289.017 93.6124L288.916 93.3893L288.868 93.6326C288.796 94.2499 288.563 94.8373 288.192 95.3362C287.98 95.5657 287.701 95.7219 287.395 95.7823C287.242 95.8133 287.084 95.8041 286.936 95.7555C286.787 95.7069 286.654 95.6207 286.55 95.5052C286.306 95.183 286.15 94.8034 286.097 94.4033C286.013 94.0112 285.959 93.6136 285.935 93.2135C285.902 92.4516 285.918 91.6885 285.982 90.9286C286.022 90.1985 286.07 89.509 286.063 88.8533C286.059 88.2462 285.991 87.6413 285.86 87.0484C285.696 86.1765 285.301 85.3644 284.718 84.6959C284.537 84.446 284.316 84.2288 284.062 84.0537Z" fill="#455A64"/>
<path d="M262.355 90.8747L262.416 90.922C262.472 90.9691 262.53 91.012 262.592 91.0505C262.684 91.1258 262.784 91.1915 262.89 91.2465C263.028 91.3279 263.17 91.4024 263.315 91.4696C264.256 91.8959 265.287 92.0818 266.317 92.0104C267.849 91.907 269.319 91.3623 270.549 90.4421C272.036 89.3101 273.274 87.8833 274.185 86.2509C274.699 85.4059 275.112 84.5338 275.537 83.7294C275.974 82.9439 276.52 82.2246 277.16 81.5932C277.722 81.0199 278.42 80.5969 279.188 80.3629C279.535 80.2666 279.896 80.2256 280.256 80.2412C280.583 80.2661 280.906 80.3343 281.216 80.444C281.762 80.6294 282.262 80.929 282.683 81.3228C283.001 81.62 283.268 81.9671 283.474 82.3504C283.637 82.6853 283.758 83.0396 283.832 83.4049C283.832 83.4049 283.832 83.4049 283.832 83.3306C283.832 83.2562 283.832 83.2021 283.798 83.1142C283.742 82.8402 283.651 82.5744 283.528 82.3233C283.055 81.3933 282.241 80.6815 281.256 80.3359C280.931 80.2227 280.593 80.1522 280.249 80.1263C279.876 80.1106 279.502 80.1516 279.141 80.248C278.35 80.4815 277.631 80.9117 277.052 81.4986C276.414 82.137 275.874 82.8659 275.45 83.6618C274.983 84.473 274.564 85.3383 274.064 86.1833C273.159 87.7943 271.938 89.206 270.474 90.3339C269.27 91.2461 267.83 91.7929 266.324 91.909C265.31 91.989 264.291 91.822 263.356 91.4223C263.011 91.2608 262.677 91.0779 262.355 90.8747Z" fill="#455A64"/>
<path d="M261.72 87.7923C261.72 87.7923 261.801 87.8666 261.97 87.968C262.209 88.1124 262.457 88.2389 262.714 88.3466C263.096 88.5091 263.492 88.638 263.897 88.7319C264.392 88.8484 264.897 88.9163 265.404 88.9347C265.913 88.9473 266.423 88.9133 266.925 88.8333C267.333 88.7647 267.733 88.6606 268.122 88.5223C268.387 88.4318 268.645 88.321 268.893 88.1911C268.986 88.1491 269.074 88.097 269.156 88.0356C269.156 88.0356 268.757 88.2046 268.088 88.4142C267.698 88.5304 267.3 88.6207 266.898 88.6846C266.406 88.7531 265.908 88.7825 265.411 88.7725C264.914 88.7504 264.419 88.6894 263.931 88.59C263.533 88.5023 263.142 88.3848 262.761 88.2384C262.112 87.9883 261.734 87.7652 261.72 87.7923Z" fill="#455A64"/>
<path d="M267.459 97.9251C267.594 98.067 268.405 97.4113 269.582 97.3843C270.758 97.3572 271.61 97.9251 271.758 97.7763C271.907 97.6276 271.671 97.4451 271.292 97.1815C270.775 96.8362 270.163 96.6613 269.541 96.6812C268.929 96.7001 268.338 96.9158 267.858 97.2964C267.5 97.5938 267.385 97.8575 267.459 97.9251Z" fill="#263238"/>
<path d="M268.656 101.244C268.672 101.491 268.783 101.722 268.965 101.888C269.148 102.055 269.389 102.144 269.636 102.136C269.758 102.137 269.878 102.114 269.991 102.068C270.103 102.021 270.205 101.953 270.291 101.867C270.376 101.78 270.444 101.678 270.489 101.565C270.535 101.452 270.557 101.332 270.555 101.21C270.538 100.963 270.426 100.732 270.242 100.565C270.058 100.399 269.816 100.31 269.568 100.318C269.447 100.318 269.328 100.342 269.216 100.389C269.104 100.435 269.003 100.504 268.918 100.59C268.833 100.676 268.766 100.778 268.721 100.891C268.676 101.003 268.654 101.123 268.656 101.244Z" fill="#263238"/>
<path d="M289.023 100.669C289.138 100.609 293.755 98.8915 293.938 103.698C294.12 108.504 289.267 107.707 289.253 107.571C289.24 107.436 289.023 100.669 289.023 100.669Z" fill="#FFBF9D"/>
<path d="M290.68 105.693C290.68 105.693 290.768 105.747 290.909 105.808C291.112 105.886 291.336 105.886 291.538 105.808C291.84 105.598 292.081 105.311 292.236 104.977C292.39 104.643 292.453 104.274 292.417 103.908C292.417 103.496 292.322 103.089 292.14 102.718C292.087 102.568 291.998 102.433 291.88 102.325C291.762 102.218 291.619 102.141 291.464 102.103C291.367 102.084 291.267 102.098 291.18 102.144C291.093 102.189 291.023 102.263 290.984 102.353C290.923 102.489 290.984 102.583 290.93 102.597C290.876 102.61 290.828 102.522 290.855 102.32C290.88 102.2 290.942 102.092 291.031 102.009C291.162 101.906 291.325 101.856 291.491 101.867C291.69 101.899 291.877 101.981 292.035 102.105C292.194 102.229 292.318 102.391 292.397 102.576C292.623 102.991 292.742 103.456 292.741 103.928C292.741 104.895 292.295 105.821 291.606 106.051C291.478 106.094 291.343 106.108 291.21 106.091C291.076 106.075 290.948 106.029 290.835 105.956C290.68 105.808 290.632 105.7 290.68 105.693Z" fill="#FF9A6C"/>
<path d="M278.647 107.091C278.688 107.091 278.688 107.375 278.525 107.767C278.29 108.295 277.904 108.742 277.417 109.052C276.943 109.371 276.379 109.532 275.808 109.511C275.368 109.471 275.132 109.322 275.132 109.288C275.132 109.255 275.402 109.288 275.808 109.288C276.323 109.25 276.821 109.083 277.254 108.802C277.692 108.521 278.059 108.144 278.329 107.7C278.512 107.328 278.593 107.078 278.647 107.091Z" fill="#263238"/>
<path d="M302.848 297.163L304.281 313.387L309.364 325.934C309.448 326.152 309.484 326.386 309.47 326.62C309.456 326.853 309.392 327.081 309.284 327.288C309.175 327.495 309.024 327.677 308.839 327.821C308.655 327.965 308.442 328.068 308.215 328.124C307.946 328.204 307.663 328.221 307.386 328.174C307.109 328.127 306.847 328.018 306.62 327.853C303.72 325.744 293.262 317.984 293.147 316.977C292.998 315.665 290.328 299.691 290.328 299.691L302.848 297.163Z" fill="#455A64"/>
<path d="M308.256 328.144L292.897 315.145L293.052 316.348C293.154 317.024 293.167 317.362 293.627 317.774C297.709 321.471 301.997 324.933 306.471 328.144C306.746 328.273 307.046 328.339 307.35 328.339C307.654 328.339 307.954 328.273 308.229 328.144H308.256Z" fill="#263238"/>
<path d="M295.885 310.074C296.11 310.191 296.282 310.389 296.365 310.628C296.448 310.867 296.436 311.128 296.331 311.359C296.196 311.582 295.984 311.748 295.736 311.826C295.487 311.905 295.218 311.89 294.979 311.785C294.745 311.66 294.567 311.451 294.481 311.2C294.396 310.949 294.41 310.674 294.52 310.433C294.683 310.213 294.922 310.062 295.191 310.009C295.459 309.955 295.738 310.003 295.973 310.142" fill="white"/>
<path d="M303.483 321.451C303.584 321.491 303.875 320.599 304.835 320.045C305.445 319.747 306.101 319.557 306.775 319.484C306.775 319.443 306.552 319.342 306.146 319.328C305.611 319.324 305.085 319.466 304.625 319.741C304.177 320 303.815 320.386 303.584 320.849C303.436 321.201 303.436 321.444 303.483 321.451Z" fill="#263238"/>
<path d="M304.957 323.5C305.045 323.568 305.538 322.98 306.404 322.655C306.95 322.497 307.505 322.373 308.067 322.283C307.782 322.153 307.472 322.089 307.159 322.096C306.847 322.103 306.54 322.181 306.262 322.324C305.275 322.702 304.876 323.466 304.957 323.5Z" fill="#263238"/>
<path d="M300.88 318.902C301.557 318.365 302.274 317.879 303.023 317.449C303.834 317.117 304.668 316.844 305.518 316.631C304.597 316.492 303.656 316.669 302.848 317.131C301.455 317.8 300.82 318.862 300.88 318.902Z" fill="#263238"/>
<path d="M300.009 313.995C300.063 314.09 300.975 313.616 302.206 313.454C303.436 313.292 304.457 313.454 304.484 313.366C303.759 313.018 302.938 312.923 302.152 313.096C301.356 313.143 300.6 313.46 300.009 313.995Z" fill="#263238"/>
<path d="M299.468 309.236C300.179 308.879 300.954 308.668 301.748 308.614C302.542 308.561 303.339 308.667 304.092 308.925C304.092 308.885 303.909 308.702 303.483 308.526C302.923 308.306 302.32 308.214 301.719 308.256C301.119 308.29 300.536 308.464 300.015 308.763C299.61 308.993 299.427 309.202 299.468 309.236Z" fill="#263238"/>
<path d="M301.597 307.708C301.597 307.708 301.638 307.485 301.557 307.093C301.438 306.534 301.208 306.006 300.881 305.538C300.658 305.168 300.321 304.881 299.921 304.72C299.782 304.678 299.634 304.678 299.495 304.719C299.356 304.76 299.231 304.84 299.137 304.95C299.056 305.058 298.998 305.182 298.966 305.313C298.933 305.444 298.927 305.58 298.947 305.714C299.065 306.27 299.371 306.769 299.815 307.126C300.259 307.482 300.812 307.673 301.381 307.667C301.949 307.676 302.508 307.519 302.988 307.215C303.468 306.912 303.85 306.474 304.085 305.957C304.139 305.831 304.163 305.694 304.156 305.557C304.149 305.42 304.111 305.286 304.044 305.166C303.958 305.049 303.838 304.96 303.701 304.911C303.564 304.861 303.415 304.854 303.274 304.889C302.865 305.021 302.495 305.253 302.199 305.565C301.778 305.952 301.428 306.41 301.165 306.917C301.056 307.096 300.986 307.297 300.962 307.505C301.348 306.846 301.828 306.247 302.388 305.727C302.654 305.465 302.978 305.27 303.335 305.159C303.411 305.138 303.493 305.141 303.568 305.167C303.643 305.194 303.708 305.243 303.754 305.308C303.791 305.39 303.81 305.479 303.81 305.568C303.81 305.658 303.791 305.747 303.754 305.829C303.539 306.267 303.205 306.637 302.79 306.895C302.375 307.153 301.897 307.289 301.408 307.289C300.926 307.291 300.457 307.13 300.077 306.834C299.697 306.537 299.428 306.121 299.312 305.653C299.28 305.468 299.318 305.277 299.421 305.119C299.471 305.056 299.54 305.01 299.617 304.987C299.694 304.965 299.777 304.966 299.853 304.99C300.192 305.127 300.482 305.362 300.685 305.666C301.112 306.285 301.422 306.977 301.597 307.708Z" fill="#263238"/>
<path d="M261.923 298L262.558 311.757C262.558 311.757 247.896 316.989 247.754 319.544L276.18 319.335L276.119 297.858L261.923 298Z" fill="#455A64"/>
<path d="M271.339 310.533C271.607 310.6 271.84 310.765 271.99 310.996C272.141 311.226 272.198 311.506 272.151 311.777C272.069 312.044 271.89 312.27 271.65 312.411C271.41 312.553 271.125 312.599 270.853 312.541C270.571 312.472 270.325 312.298 270.167 312.054C270.009 311.81 269.95 311.516 270.001 311.23C270.113 310.956 270.324 310.734 270.592 310.609C270.86 310.483 271.166 310.464 271.448 310.554" fill="#E0E0E0"/>
<path d="M276.18 319.335L276.085 317.172L248.863 318.179C248.863 318.179 247.605 318.706 247.754 319.531L276.18 319.335Z" fill="#263238"/>
<path d="M262.099 311.636C262.099 311.765 262.775 311.819 263.451 312.231C264.127 312.643 264.505 313.191 264.634 313.137C264.762 313.083 264.546 312.333 263.708 311.846C262.869 311.359 262.065 311.508 262.099 311.636Z" fill="#263238"/>
<path d="M259.124 312.805C259.124 312.934 259.699 313.15 260.172 313.698C260.645 314.245 260.794 314.833 260.929 314.827C261.064 314.82 261.152 314.076 260.544 313.407C259.935 312.738 259.131 312.684 259.124 312.805Z" fill="#263238"/>
<path d="M257.461 316.171C257.59 316.171 257.772 315.55 257.414 314.819C257.056 314.089 256.4 313.833 256.339 313.941C256.278 314.049 256.691 314.427 256.974 315.016C257.258 315.604 257.326 316.165 257.461 316.171Z" fill="#263238"/>
<path d="M262.322 308.472C262.382 308.594 262.998 308.412 263.802 308.472C264.607 308.533 265.201 308.743 265.269 308.635C265.337 308.527 264.755 308.06 263.829 308.02C262.903 307.979 262.288 308.371 262.322 308.472Z" fill="#263238"/>
<path d="M256.975 199.203C256.975 199.994 260.273 309.966 260.273 309.966H277.849L281.412 215.893C281.412 215.893 285.569 265.079 285.569 266.141C285.569 267.202 289.233 310.493 289.233 310.493L305.525 309.242L304.45 210.235L302.463 195.715L256.975 199.203Z" fill="#263238"/>
<path d="M283.244 212.412C283.021 212.538 282.782 212.634 282.534 212.696C282.068 212.858 281.385 213.081 280.547 213.372L280.391 213.419V213.264C280.296 211.946 280.182 210.175 280.08 208.234C279.965 206.132 279.884 204.233 279.844 202.826C279.844 202.15 279.81 201.576 279.81 201.19C279.79 200.989 279.803 200.786 279.85 200.589C279.907 200.782 279.938 200.982 279.945 201.184C279.992 201.569 280.04 202.13 280.087 202.813C280.195 204.165 280.317 206.091 280.425 208.221C280.533 210.161 280.607 211.932 280.648 213.257L280.479 213.149C281.331 212.912 282.02 212.723 282.507 212.601C282.746 212.514 282.993 212.451 283.244 212.412Z" fill="#455A64"/>
<path d="M281.892 200.981C281.892 200.981 281.946 200.893 282.128 200.832C282.385 200.765 282.658 200.789 282.899 200.9C283.081 200.967 283.236 201.09 283.342 201.252C283.448 201.414 283.499 201.606 283.487 201.799C283.464 202.044 283.362 202.274 283.196 202.454C283.03 202.635 282.809 202.756 282.568 202.8C282.322 202.836 282.071 202.805 281.842 202.708C281.613 202.612 281.415 202.454 281.27 202.252C281.168 202.096 281.114 201.914 281.114 201.728C281.114 201.542 281.168 201.36 281.27 201.204C281.41 200.995 281.614 200.836 281.851 200.751C282.027 200.691 282.128 200.704 282.135 200.718C282.142 200.731 281.736 200.846 281.493 201.306C281.421 201.428 281.387 201.569 281.394 201.711C281.402 201.852 281.45 201.989 281.533 202.103C281.643 202.248 281.789 202.361 281.957 202.43C282.124 202.499 282.307 202.521 282.487 202.495C282.654 202.463 282.808 202.382 282.928 202.261C283.049 202.141 283.131 201.987 283.163 201.819C283.176 201.681 283.146 201.541 283.077 201.42C283.008 201.299 282.903 201.203 282.777 201.143C282.507 200.997 282.197 200.94 281.892 200.981Z" fill="#455A64"/>
<path d="M289.963 202.124C289.869 202.124 289.733 201.651 289.666 201.056C289.598 200.461 289.618 199.968 289.713 199.961C289.808 199.954 289.943 200.427 290.011 201.022C290.078 201.617 290.058 202.124 289.963 202.124Z" fill="#455A64"/>
<path d="M291.18 201.995C291.086 201.995 291.004 201.488 291.004 200.859C291.004 200.231 291.072 199.724 291.173 199.724C291.275 199.724 291.349 200.231 291.349 200.859C291.349 201.488 291.282 201.995 291.18 201.995Z" fill="#455A64"/>
<path d="M270.001 202.752C269.906 202.752 269.758 202.191 269.67 201.481C269.582 200.772 269.589 200.177 269.67 200.17C269.751 200.163 269.913 200.731 270.001 201.448C270.089 202.164 270.096 202.746 270.001 202.752Z" fill="#455A64"/>
<path d="M271.481 202.86C271.169 202.482 271.014 201.998 271.049 201.508C270.975 201.035 271.084 200.552 271.353 200.156C271.454 200.156 271.353 200.778 271.4 201.508C271.447 202.238 271.576 202.833 271.481 202.86Z" fill="#455A64"/>
<path d="M265.925 201.394C265.932 201.556 265.911 201.718 265.864 201.874C265.779 202.312 265.661 202.744 265.512 203.165C265.011 204.584 264.275 205.91 263.335 207.086C262.36 208.298 261.201 209.352 259.901 210.209C259.502 210.473 259.086 210.712 258.658 210.925C258.501 211.013 258.336 211.083 258.164 211.135C258.164 211.094 258.799 210.743 259.766 210.047C261.01 209.164 262.124 208.113 263.079 206.923C264 205.764 264.749 204.477 265.303 203.104C265.715 202.056 265.87 201.38 265.925 201.394Z" fill="#455A64"/>
<path d="M303.916 208.803C303.742 208.854 303.563 208.882 303.382 208.884C302.891 208.923 302.399 208.923 301.908 208.884C300.303 208.73 298.759 208.192 297.406 207.316C296.124 206.476 295.09 205.309 294.411 203.936C294.214 203.536 294.06 203.117 293.952 202.685C293.897 202.534 293.872 202.373 293.877 202.212C293.931 202.212 294.08 202.888 294.614 203.855C295.327 205.162 296.351 206.274 297.595 207.093C298.906 207.939 300.388 208.484 301.935 208.688C303.145 208.823 303.909 208.749 303.916 208.803Z" fill="#455A64"/>
<path d="M275.287 264.492C275.287 264.566 272.353 263.931 268.784 263.086C265.215 262.241 262.335 261.484 262.362 261.409C262.389 261.335 265.296 261.964 268.865 262.815C272.434 263.667 275.307 264.417 275.287 264.492Z" fill="#455A64"/>
<path d="M303.598 260.49C303.639 260.558 301.104 261.876 297.94 263.444C294.776 265.012 292.167 266.222 292.126 266.148C292.086 266.074 294.621 264.756 297.785 263.194C300.948 261.632 303.558 260.422 303.598 260.49Z" fill="#455A64"/>
<path d="M248.443 161.962L250.843 164.97V159.799H258.414C258.414 159.799 259.252 171.636 259.09 174.157C258.911 175.472 258.6 176.765 258.164 178.017C257.938 178.746 257.528 179.405 256.973 179.929C256.418 180.453 255.738 180.826 254.997 181.011C254.257 181.195 253.481 181.186 252.745 180.984C252.009 180.782 251.338 180.393 250.796 179.856C249.948 179.032 249.158 178.151 248.43 177.22C245.05 172.893 239.479 162.348 239.479 162.348L245.32 158.859L248.443 161.962Z" fill="#FFBF9D"/>
<path d="M247.963 161.408C248.249 161.888 248.58 162.341 248.95 162.76C249.626 163.551 250.478 164.639 251.485 165.815C252.493 166.992 253.452 168.033 254.189 168.742C254.563 169.152 254.996 169.503 255.474 169.783C255.131 169.354 254.76 168.948 254.365 168.567C253.689 167.823 252.756 166.762 251.749 165.585C249.755 163.192 248.051 161.327 247.963 161.408Z" fill="#FF9A6C"/>
<path d="M265.708 125.601L273.692 122.464L288.395 121.633L295.304 124.262L285.833 129.522L277.667 129.224L265.708 125.601Z" fill="#FFBF9D"/>
<path d="M256.292 200.704C257.015 200.826 305.187 202.874 305.187 202.874L303.524 159.536L303.382 151.032L300.678 125.269C300.678 125.269 293.472 122.788 289.801 121.605C289.801 121.605 285.934 125.661 278.579 125.526C271.394 125.425 269.893 123.802 269.893 123.802L259.847 127.656C259.847 127.656 252.702 130.218 251.472 133.381C250.241 136.545 248.092 154.033 248.092 154.033H258.509L258.232 185.109L256.292 200.704Z" fill="#455A64"/>
<g opacity="0.2">
<path d="M286.583 142.892L288.077 153.817L295.304 157.041L300.644 152.492V142.352L286.583 142.892Z" fill="black"/>
</g>
<path d="M300.455 146.016C300.455 146.104 297.453 146.178 293.749 146.178C290.044 146.178 287.036 146.104 287.036 146.016C289.269 145.846 291.51 145.79 293.749 145.847C295.986 145.79 298.224 145.846 300.455 146.016Z" fill="#263238"/>
<path d="M253.047 137.903C253.081 137.998 253.108 138.095 253.128 138.194C253.175 138.41 253.236 138.681 253.317 139.025C253.577 140.069 253.897 141.096 254.277 142.101C254.757 143.392 255.433 144.913 256.265 146.617C257.096 148.32 257.759 150.355 258.495 152.518C258.495 155.114 258.495 157.926 258.441 160.921C258.374 167.546 258.306 173.542 258.266 177.916C258.225 180.065 258.198 181.816 258.171 183.067C258.171 183.648 258.157 184.115 258.13 184.466C258.134 184.629 258.122 184.792 258.097 184.953C258.085 184.789 258.085 184.624 258.097 184.459C258.097 184.117 258.097 183.65 258.097 183.06C258.097 181.816 258.097 180.059 258.097 177.909C258.097 173.535 258.151 167.539 258.184 160.921C258.184 157.953 258.239 155.114 258.259 152.518V152.566C257.536 150.403 256.839 148.395 256.082 146.671C255.359 145.187 254.714 143.666 254.149 142.115C253.783 141.1 253.488 140.061 253.263 139.005C253.196 138.633 253.142 138.329 253.114 138.153C253.084 138.072 253.062 137.989 253.047 137.903Z" fill="#263238"/>
<path d="M304.119 132.848C304.142 133.156 304.142 133.466 304.119 133.774C304.119 134.45 304.065 135.274 304.024 136.288C303.936 138.465 303.822 141.372 303.693 144.583C303.565 147.794 303.416 150.708 303.321 152.884C303.26 153.898 303.213 154.743 303.173 155.399C303.171 155.708 303.139 156.016 303.078 156.318C303.053 156.01 303.053 155.7 303.078 155.392C303.078 154.716 303.078 153.892 303.125 152.878C303.179 150.748 303.274 147.814 303.409 144.576C303.544 141.338 303.693 138.398 303.828 136.282C303.896 135.22 303.963 134.362 304.024 133.767C304.029 133.458 304.06 133.151 304.119 132.848Z" fill="#263238"/>
<g opacity="0.3">
<path d="M253.074 139.492C252.891 144.249 254.591 148.886 257.806 152.397C256.826 147.929 254.379 143.771 253.074 139.492Z" fill="black"/>
</g>
<g opacity="0.3">
<path d="M274.233 182.371C276.498 182.069 278.563 180.919 280.013 179.153C281.538 177.45 282.843 175.563 283.9 173.535C285.263 170.778 286.036 167.766 286.171 164.693C283.366 172.217 279.256 178.166 274.233 182.371Z" fill="black"/>
</g>
<path d="M287.063 161.415C287.059 161.509 287.045 161.602 287.023 161.693C286.976 161.909 286.915 162.166 286.847 162.477C286.779 162.788 286.671 163.227 286.523 163.7C286.374 164.174 286.232 164.714 286.016 165.302C285.542 166.686 284.987 168.041 284.353 169.358C282.802 172.585 280.811 175.581 278.438 178.261C277.469 179.355 276.43 180.385 275.328 181.344C274.875 181.77 274.422 182.108 274.037 182.419C273.652 182.73 273.314 182.98 273.023 183.176L272.347 183.629C272.191 183.723 272.11 183.778 272.104 183.764C272.163 183.693 272.231 183.629 272.306 183.575L272.935 183.075C273.212 182.872 273.543 182.608 273.915 182.284C274.287 181.959 274.726 181.608 275.173 181.182C276.24 180.201 277.253 179.163 278.208 178.072C279.364 176.725 280.44 175.312 281.432 173.84C282.402 172.357 283.287 170.82 284.082 169.237C284.722 167.936 285.293 166.602 285.793 165.242C286.022 164.667 286.185 164.126 286.34 163.66C286.496 163.193 286.624 162.788 286.719 162.457C286.813 162.125 286.881 161.902 286.948 161.693C287.016 161.483 287.05 161.409 287.063 161.415Z" fill="#263238"/>
<path d="M285.671 147.854C285.66 148.004 285.64 148.153 285.61 148.301C285.556 148.618 285.482 149.037 285.394 149.558C285.306 150.079 285.171 150.768 284.975 151.532C284.779 152.296 284.603 153.181 284.299 154.128C284.163 154.601 284.015 155.101 283.859 155.622C283.704 156.142 283.501 156.67 283.312 157.217C282.953 158.332 282.467 159.482 281.96 160.698C279.739 165.951 276.755 170.846 273.104 175.226C272.246 176.213 271.441 177.173 270.616 177.997C270.211 178.416 269.832 178.836 269.44 179.207C269.048 179.579 268.676 179.944 268.311 180.282C267.635 180.958 266.905 181.546 266.283 182.06C265.661 182.574 265.161 183 264.715 183.331L263.694 184.102C263.583 184.199 263.46 184.283 263.329 184.352C263.428 184.243 263.536 184.143 263.654 184.054L264.634 183.236C265.066 182.892 265.594 182.466 266.168 181.932C266.743 181.398 267.439 180.83 268.135 180.12L269.244 179.038C269.629 178.66 270.001 178.241 270.4 177.822C271.218 176.99 272.009 176.03 272.861 175.036C276.48 170.664 279.457 165.797 281.703 160.584C282.203 159.374 282.69 158.238 283.055 157.136C283.251 156.582 283.454 156.061 283.616 155.547C283.778 155.034 283.927 154.54 284.076 154.067C284.387 153.127 284.583 152.255 284.792 151.491C285.002 150.727 285.15 150.072 285.259 149.531C285.367 148.99 285.468 148.605 285.536 148.287C285.565 148.138 285.61 147.993 285.671 147.854Z" fill="#263238"/>
<path d="M247.605 134.382L266.155 162.584C266.243 162.718 266.291 162.873 266.294 163.033C266.296 163.193 266.252 163.351 266.167 163.486C266.082 163.622 265.96 163.73 265.815 163.798C265.67 163.866 265.509 163.89 265.35 163.869L243.989 161.165C243.876 161.149 243.768 161.111 243.67 161.053C243.573 160.995 243.488 160.918 243.421 160.827L223.019 132.962C222.918 132.833 222.857 132.677 222.843 132.514C222.83 132.351 222.864 132.187 222.943 132.044C223.021 131.9 223.14 131.782 223.284 131.705C223.429 131.628 223.593 131.595 223.756 131.61L245.733 133.232C246.112 133.267 246.479 133.388 246.803 133.588C247.128 133.787 247.403 134.059 247.605 134.382Z" fill="#E0E0E0"/>
<path d="M247.605 134.382C247.559 134.29 247.502 134.204 247.436 134.125C247.248 133.892 247.019 133.695 246.76 133.544C246.32 133.314 245.83 133.196 245.334 133.199L243.36 133.037L230.692 132.043L226.494 131.719L224.263 131.55C224.067 131.55 223.898 131.55 223.675 131.55C223.446 131.557 223.228 131.646 223.06 131.8C222.888 131.956 222.778 132.169 222.748 132.399C222.718 132.629 222.771 132.862 222.897 133.057L228.833 141.203C233.024 146.929 237.621 153.222 242.454 159.834C242.765 160.246 243.042 160.645 243.38 161.077C243.484 161.192 243.614 161.28 243.759 161.334C243.892 161.381 244.03 161.408 244.171 161.415L244.928 161.51L247.916 161.889L253.757 162.619L264.803 163.971C265.032 163.971 265.222 164.032 265.479 164.045C265.61 164.046 265.741 164.021 265.863 163.971C265.984 163.921 266.095 163.848 266.188 163.754C266.365 163.573 266.469 163.332 266.479 163.078C266.469 162.831 266.379 162.594 266.222 162.402L264.789 160.212L262.085 156.156L257.245 148.835C254.284 144.38 251.891 140.764 250.221 138.256L248.295 135.383C248.078 135.072 247.909 134.822 247.781 134.646C247.727 134.558 247.665 134.474 247.598 134.396C247.645 134.489 247.697 134.579 247.754 134.666L248.234 135.423C248.666 136.099 249.295 137.079 250.1 138.33L257.035 148.977L261.842 156.318L264.546 160.408L265.952 162.551C266.073 162.693 266.144 162.871 266.155 163.058C266.148 163.236 266.076 163.404 265.952 163.531C265.826 163.656 265.656 163.727 265.479 163.727C265.296 163.727 265.046 163.673 264.836 163.653L253.77 162.24L247.93 161.503L244.942 161.125L244.191 161.03C244.079 161.021 243.968 161 243.86 160.969C243.765 160.933 243.68 160.875 243.61 160.8C243.313 160.395 243.015 159.996 242.718 159.584C237.877 152.986 233.254 146.699 229.076 140.973C226.974 138.121 224.986 135.403 223.12 132.861C223.051 132.761 223.01 132.643 223.001 132.522C222.993 132.4 223.018 132.278 223.073 132.169C223.129 132.06 223.213 131.968 223.316 131.903C223.42 131.838 223.539 131.803 223.661 131.8C223.817 131.8 224.033 131.8 224.216 131.834L226.446 131.996L230.651 132.293L243.36 133.172L245.347 133.307C245.832 133.291 246.313 133.396 246.747 133.612C247.085 133.804 247.378 134.067 247.605 134.382Z" fill="#263238"/>
<path d="M223.019 132.982C223.165 133.02 223.315 133.042 223.465 133.05L224.763 133.185L229.59 133.611L246.003 134.963L245.875 134.888C246.902 136.416 247.963 137.998 249.025 139.62C253.358 146.279 257.137 152.404 259.996 156.757C261.416 158.94 262.599 160.685 263.424 161.888L264.383 163.24C264.487 163.405 264.607 163.559 264.742 163.7C264.653 163.527 264.553 163.36 264.444 163.199L263.538 161.786L260.206 156.602C257.407 152.214 253.655 146.076 249.322 139.411C248.261 137.768 247.193 136.186 246.159 134.679L246.111 134.611H246.064L229.644 133.394L224.81 133.07L223.506 132.996C223.344 132.979 223.181 132.974 223.019 132.982Z" fill="#263238"/>
<path d="M235.735 137.289C235.747 137.233 235.771 137.18 235.805 137.133C235.838 137.086 235.881 137.047 235.93 137.017C235.98 136.987 236.034 136.968 236.091 136.96C236.148 136.952 236.206 136.956 236.262 136.971C236.48 137.021 236.679 137.131 236.837 137.289C236.937 137.38 237.002 137.504 237.02 137.639C237.039 137.773 237.01 137.91 236.938 138.026C236.728 138.289 236.262 138.188 236.032 137.971C235.928 137.892 235.847 137.788 235.795 137.669C235.742 137.549 235.722 137.418 235.735 137.289Z" fill="white"/>
<path d="M245.713 153.094C245.713 153.094 246.551 151.066 244.415 150.822C241.832 150.688 239.244 150.688 236.661 150.822C236.661 150.822 233.585 151.147 234.234 153.351C234.234 153.351 232.422 154.973 233.396 156.731C234.369 158.488 234.748 157.961 234.748 157.961C234.748 157.961 234.491 160.104 236.1 160.422C236.1 160.422 237.857 162.497 239.48 162.368C241.102 162.24 247.964 158.934 248.417 158.312C248.869 157.69 249.518 157.298 249.133 156.575C249.133 156.575 249.971 154.676 248.16 154.385C248.173 154.351 248.045 152.776 245.713 153.094Z" fill="#FFBF9D"/>
<path d="M235.964 153.816C236.44 153.916 236.926 153.952 237.411 153.925C238.303 153.925 239.534 153.925 240.892 153.925C242.063 153.959 243.235 153.891 244.394 153.722C245.313 153.505 245.678 152.965 245.638 152.951C245.241 153.203 244.801 153.379 244.34 153.472C243.495 153.614 242.244 153.526 240.886 153.573C239.527 153.62 238.297 153.634 237.404 153.674C236.92 153.664 236.437 153.712 235.964 153.816Z" fill="#FF9A6C"/>
<path d="M237.492 157.062C237.635 157.145 237.794 157.198 237.959 157.217C238.403 157.308 238.858 157.337 239.311 157.305C239.97 157.255 240.623 157.135 241.258 156.947C241.974 156.751 242.738 156.474 243.542 156.23C244.29 155.983 245.063 155.822 245.848 155.75C246.525 155.813 247.207 155.677 247.808 155.358C248.043 155.199 248.209 154.958 248.274 154.682C248.318 154.476 248.289 154.261 248.193 154.074C248.024 153.77 247.794 153.749 247.801 153.763C247.808 153.776 247.963 153.857 248.065 154.135C248.13 154.322 248.125 154.527 248.052 154.712C247.979 154.897 247.842 155.049 247.666 155.142C247.089 155.396 246.454 155.492 245.827 155.419C245.015 155.47 244.213 155.624 243.441 155.879L241.17 156.629C240.556 156.82 239.927 156.96 239.29 157.048C238.692 157.089 238.091 157.093 237.492 157.062Z" fill="#FF9A6C"/>
<path d="M239.791 159.799C240.283 159.771 240.77 159.678 241.237 159.522C242.116 159.299 243.319 158.954 244.617 158.528C245.915 158.102 247.105 157.663 247.943 157.318C248.42 157.169 248.874 156.957 249.295 156.69C249.255 156.595 247.146 157.366 244.563 158.184C241.981 159.001 239.764 159.705 239.791 159.799Z" fill="#FF9A6C"/>
<path d="M239.243 162.341C239.647 162.377 240.054 162.331 240.44 162.206C241.383 161.977 242.3 161.653 243.178 161.239C244.205 160.773 245.104 160.293 245.753 159.948C246.124 159.791 246.47 159.582 246.781 159.326C245.486 159.745 244.23 160.276 243.029 160.915C241.008 161.888 239.23 162.24 239.243 162.341Z" fill="#FF9A6C"/>
<path d="M307.532 143.014C307.532 143.014 303.165 160.509 297.71 166.971C292.424 173.231 284.143 170.351 281.277 162.239C278.41 154.127 273.3 135.666 273.3 135.666L279.573 130.866L290.389 151.883L295.277 137.559L307.532 143.014Z" fill="#FFBF9D"/>
<path d="M273.59 136.166L268.987 129.494C268.317 129.349 267.661 129.146 267.026 128.886C266.506 128.581 265.992 125.932 266.006 125.418C266.019 124.904 265.113 123.694 265.478 123.349C265.843 123.004 267.074 122.984 267.006 122.491C267.006 122.383 266.094 121.274 266.81 120.463C267.205 120.202 267.645 120.016 268.108 119.915L268.034 117.367C268.034 117.367 269.386 114.365 270.812 115.454C270.812 115.454 276.105 119.51 276.639 120.186C277.173 120.862 279.215 129.305 279.573 130.893" fill="#FFBF9D"/>
<path d="M279.573 130.881C279.566 130.73 279.543 130.58 279.505 130.434C279.431 130.11 279.343 129.691 279.228 129.164C278.985 128.055 278.613 126.46 278.113 124.492C277.856 123.505 277.579 122.464 277.221 121.281C277.133 120.997 277.038 120.707 276.916 120.409C276.777 120.106 276.563 119.844 276.294 119.645C275.808 119.22 275.301 118.8 274.78 118.375C273.732 117.53 272.617 116.651 271.461 115.752C271.169 115.492 270.841 115.276 270.488 115.109C270.281 115.06 270.065 115.06 269.859 115.109C269.652 115.159 269.46 115.256 269.298 115.393C268.694 115.919 268.212 116.569 267.885 117.3V117.34C267.885 117.59 267.885 117.854 267.885 118.118C267.885 118.713 267.885 119.307 267.939 119.889L268.061 119.727C267.742 119.804 267.429 119.908 267.128 120.038C266.96 120.107 266.806 120.208 266.675 120.335C266.558 120.471 266.471 120.63 266.418 120.801C266.332 121.139 266.36 121.496 266.499 121.815C266.555 121.968 266.625 122.115 266.709 122.255L266.824 122.451V122.498C266.827 122.514 266.827 122.53 266.824 122.545C266.824 122.6 266.688 122.681 266.56 122.728C266.432 122.775 266.29 122.823 266.148 122.87C266.001 122.909 265.856 122.957 265.715 123.012C265.538 123.063 265.383 123.173 265.276 123.323C265.205 123.496 265.205 123.69 265.276 123.864C265.316 124.009 265.368 124.152 265.431 124.29C265.546 124.56 265.674 124.817 265.769 125.067C265.817 125.181 265.844 125.302 265.85 125.425C265.853 125.57 265.867 125.715 265.891 125.858C265.931 126.135 265.979 126.405 266.039 126.676C266.145 127.197 266.287 127.71 266.465 128.21C266.551 128.472 266.689 128.714 266.871 128.92C267.092 129.063 267.334 129.17 267.588 129.238C268.054 129.38 268.514 129.495 268.94 129.596L268.865 129.549L272.245 134.389L273.192 135.7C273.296 135.859 273.414 136.008 273.543 136.147C273.456 135.978 273.359 135.816 273.252 135.66L272.36 134.308C271.556 133.111 270.427 131.442 269.041 129.4V129.36H269.048C268.615 129.251 268.162 129.13 267.696 128.988C267.479 128.926 267.272 128.835 267.081 128.717C266.935 128.539 266.825 128.335 266.756 128.116C266.584 127.626 266.448 127.125 266.35 126.615C266.296 126.351 266.249 126.088 266.208 125.817C266.208 125.689 266.208 125.547 266.208 125.425C266.203 125.268 266.171 125.113 266.114 124.966C266.012 124.688 265.884 124.432 265.776 124.168C265.717 124.044 265.669 123.915 265.634 123.783C265.597 123.682 265.597 123.572 265.634 123.472C265.712 123.391 265.81 123.332 265.918 123.303C266.052 123.249 266.19 123.204 266.33 123.167C266.472 123.12 266.621 123.08 266.77 123.019C266.955 122.961 267.111 122.832 267.202 122.66C267.227 122.605 267.238 122.545 267.236 122.485C267.234 122.442 267.223 122.4 267.202 122.363V122.309L267.087 122.113C267.015 121.985 266.951 121.851 266.898 121.714C266.789 121.46 266.765 121.178 266.83 120.91C266.866 120.78 266.931 120.659 267.02 120.558C267.122 120.469 267.238 120.398 267.364 120.348C267.649 120.226 267.943 120.127 268.243 120.051L268.365 120.017V119.889C268.365 119.307 268.331 118.719 268.311 118.124C268.311 117.861 268.311 117.59 268.311 117.347V117.421C268.611 116.739 269.057 116.13 269.616 115.637C269.735 115.526 269.881 115.446 270.039 115.405C270.197 115.364 270.363 115.362 270.521 115.4C270.836 115.555 271.13 115.75 271.393 115.982C272.556 116.881 273.672 117.753 274.719 118.591C275.247 119.01 275.754 119.422 276.234 119.835C276.477 120.007 276.67 120.24 276.795 120.511C276.91 120.788 277.004 121.079 277.099 121.356C277.457 122.491 277.775 123.566 278.018 124.54C278.525 126.48 278.944 128.055 279.235 129.184C279.377 129.704 279.485 130.123 279.566 130.441C279.553 130.587 279.556 130.735 279.573 130.881Z" fill="#FF9A6C"/>
<path d="M268.108 119.915C268.108 119.97 268.642 119.915 269.46 120.01C269.95 120.086 270.433 120.196 270.907 120.341C271.528 120.429 272.158 120.429 272.78 120.341C273.313 120.266 273.856 120.314 274.367 120.48C274.879 120.647 275.347 120.927 275.734 121.301C276.033 121.634 276.273 122.016 276.443 122.43C276.447 122.189 276.4 121.951 276.307 121.728C276.214 121.506 276.076 121.306 275.903 121.139C275.551 120.752 275.117 120.449 274.632 120.253C274.036 120.022 273.393 119.941 272.759 120.017C272.164 120.091 271.563 120.091 270.968 120.017C270.48 119.881 269.979 119.793 269.474 119.753C269.013 119.717 268.548 119.772 268.108 119.915Z" fill="#FF9A6C"/>
<path d="M269.981 119.774C270.055 119.814 270.271 119.503 270.244 119.064C270.217 118.624 269.967 118.347 269.9 118.388C269.832 118.428 269.9 118.726 269.9 119.064C269.9 119.402 269.893 119.74 269.981 119.774Z" fill="#FF9A6C"/>
<path d="M266.844 122.586C268.182 122.714 269.531 122.608 270.833 122.275C271.305 122.12 271.803 122.056 272.3 122.086C272.684 122.17 273.023 122.394 273.253 122.714C273.452 123.033 273.628 123.365 273.78 123.708C273.803 123.298 273.687 122.893 273.449 122.559C273.206 122.165 272.817 121.884 272.367 121.775C271.83 121.712 271.286 121.765 270.772 121.93C268.629 122.417 266.844 122.491 266.844 122.586Z" fill="#FF9A6C"/>
<path d="M266.141 124.993C266.464 125.068 266.799 125.068 267.121 124.993C267.723 124.925 268.534 124.715 269.413 124.54C269.819 124.449 270.234 124.408 270.65 124.418C270.973 124.424 271.285 124.538 271.536 124.743C271.76 124.949 271.913 125.221 271.975 125.52C271.975 125.52 272.036 125.432 272.029 125.25C272.001 124.992 271.884 124.753 271.698 124.574C271.424 124.303 271.061 124.142 270.677 124.121C270.224 124.089 269.769 124.123 269.325 124.222C268.419 124.398 267.635 124.641 267.054 124.763C266.742 124.808 266.437 124.885 266.141 124.993Z" fill="#FF9A6C"/>
<path d="M267.696 126.898C267.642 126.939 268.095 127.412 268.919 127.412L268.757 127.27C268.757 127.412 268.757 127.554 268.804 127.696C268.826 128.276 268.955 128.846 269.183 129.379C269.273 128.809 269.254 128.226 269.129 127.662L269.068 127.236V127.088H268.926C268.51 127.071 268.098 127.007 267.696 126.898Z" fill="#FF9A6C"/>
<path d="M300.624 125.296C300.624 125.296 309.567 127.459 309.547 139.323C309.527 151.187 306.843 157.041 306.843 157.041L290.355 148.043L294.06 138.829L300.624 125.296Z" fill="#455A64"/>
<path d="M306.843 157.041C306.724 157.007 306.611 156.957 306.505 156.893L305.545 156.406L302.03 154.554L290.274 148.22L290.139 148.152L290.193 148.01L291.079 145.698C292.133 142.96 293.107 140.351 294.053 137.978C294.513 136.795 294.946 135.666 295.358 134.598C295.718 133.606 296.154 132.643 296.663 131.718C297.342 130.335 298.366 129.15 299.637 128.278C299.994 128.054 300.387 127.896 300.8 127.811C300.904 127.789 301.011 127.775 301.117 127.771H301.232C300.692 127.883 300.176 128.094 299.711 128.392C298.492 129.285 297.517 130.47 296.879 131.84C296.393 132.762 295.975 133.717 295.628 134.7C295.229 135.761 294.804 136.89 294.351 138.08L291.403 145.813L290.518 148.125L290.437 147.909L302.172 154.351L305.633 156.298L306.559 156.839C306.661 156.896 306.756 156.964 306.843 157.041Z" fill="#263238"/>
</svg>
