<svg width="43" height="53" viewBox="0 0 43 53" fill="none" xmlns="http://www.w3.org/2000/svg">
<path fill-rule="evenodd" clip-rule="evenodd" d="M16 10.6665H26.6667C34.2091 10.6665 37.9803 10.6665 40.3235 13.0097C42.6667 15.3528 42.6667 19.124 42.6667 26.6665V29.4817C42.6667 35.8969 42.6667 39.1044 41.0736 41.682C39.4805 44.2596 36.6117 45.694 30.8739 48.5628C26.1923 50.9038 23.8515 52.0742 21.3333 52.0742C18.8152 52.0742 16.4744 50.9038 11.7928 48.5628C6.05501 45.694 3.18611 44.2596 1.59307 41.682C4.76837e-07 39.1044 0 35.8969 0 29.4817V26.6665C0 19.124 6.35783e-07 15.3528 2.34315 13.0097C4.68629 10.6665 8.45752 10.6665 16 10.6665ZM21.3333 21.3332C20.5757 21.3332 20.0691 22.242 19.0557 24.0598L18.7936 24.5302C18.5059 25.0468 18.3619 25.3049 18.1373 25.4753C17.9128 25.6457 17.6333 25.7092 17.0741 25.8356L16.5651 25.9508C14.5972 26.3961 13.6134 26.6185 13.3793 27.3713C13.1452 28.1241 13.8159 28.9084 15.1574 30.4772L15.5045 30.883C15.8857 31.3286 16.0763 31.5516 16.1621 31.8273C16.2477 32.103 16.2189 32.4004 16.1613 32.9953L16.1088 33.5366C15.906 35.6297 15.8046 36.6761 16.4173 37.1414C17.0304 37.6065 17.9515 37.1825 19.7939 36.3342L20.2704 36.1148C20.7941 35.8737 21.0557 35.7532 21.3333 35.7532C21.6109 35.7532 21.8725 35.8737 22.3963 36.1148L22.8728 36.3342C24.7152 37.1825 25.6363 37.6065 26.2493 37.1414C26.8621 36.6761 26.7605 35.6297 26.5579 33.5366L26.5053 32.9953C26.4477 32.4004 26.4189 32.103 26.5045 31.8273C26.5904 31.5516 26.7811 31.3286 27.1621 30.883L27.5093 30.4772C28.8507 28.9084 29.5216 28.1241 29.2875 27.3713C29.0533 26.6185 28.0693 26.3961 26.1016 25.9508L25.5925 25.8356C25.0333 25.7092 24.7539 25.6457 24.5293 25.4753C24.3048 25.3049 24.1608 25.0468 23.8731 24.5302L23.6109 24.0598C22.5976 22.242 22.0909 21.3332 21.3333 21.3332Z" fill="#A71755"/>
<path d="M18.6661 0H23.9995C29.028 0 31.5421 -1.58946e-07 33.1043 1.56211C34.208 2.66581 34.5317 4.24483 34.6267 6.85011C32.4379 6.66637 29.8501 6.66651 26.9296 6.66667H15.7363C12.8157 6.66651 10.228 6.66637 8.03906 6.85011C8.1341 4.24483 8.45797 2.66581 9.56168 1.56211C11.1238 -1.58946e-07 13.6379 0 18.6661 0Z" fill="#A71755"/>
</svg>
