<svg width="25" height="25" viewBox="0 0 25 25" fill="none" xmlns="http://www.w3.org/2000/svg">
<path d="M18.3921 0.158203C17.348 -0.37921 15.9898 0.487953 13.2734 2.22229L12.5706 2.67099C11.7986 3.16383 11.4126 3.41025 10.9795 3.48098C10.5464 3.55169 10.115 3.43872 9.25239 3.21274L8.46701 3.007C5.43133 2.2118 3.91349 1.8142 3.04439 2.664C2.1753 3.51379 2.53053 5.04819 3.24099 8.117L3.42479 8.91094C3.62669 9.78299 3.72763 10.219 3.64566 10.652C3.5637 11.085 3.3081 11.4659 2.79693 12.2276L2.33151 12.9211C0.532613 15.6019 -0.366837 16.9423 0.140226 18.0049C0.647276 19.0675 2.22503 19.1486 5.38053 19.3109L6.19691 19.3529C7.09359 19.399 7.54195 19.4221 7.92445 19.619C8.30696 19.8158 8.58031 20.1643 9.12704 20.861L9.62476 21.4954C11.5486 23.9473 12.5106 25.1733 13.6931 24.9803C14.8756 24.7871 15.4955 23.3029 16.7353 20.3344L17.056 19.5664C17.4083 18.7229 17.5844 18.3011 17.9028 17.9898C18.2211 17.6785 18.6456 17.513 19.4948 17.1818L20.2677 16.8804C23.2557 15.715 24.7496 15.1324 24.9734 13.9504C25.1971 12.7685 24.0025 11.77 21.6133 9.77308L20.9951 9.25645C20.3161 8.689 19.9766 8.40525 19.7909 8.016C19.6051 7.62674 19.5941 7.17603 19.5723 6.27459L19.5523 5.4539C19.475 2.28172 19.4364 0.695628 18.3921 0.158203Z" fill="#2DB08A"/>
<path d="M21.9128 20.5871C21.5467 20.221 20.9532 20.221 20.5871 20.5871C20.221 20.9532 20.221 21.5467 20.5871 21.9128L23.0871 24.4128C23.4532 24.779 24.0467 24.779 24.4128 24.4128C24.779 24.0467 24.779 23.4532 24.4128 23.0871L21.9128 20.5871Z" fill="#2DB08A"/>
</svg>
