<svg width="22" height="22" viewBox="0 0 22 22" fill="none" xmlns="http://www.w3.org/2000/svg">
<path d="M18.3117 5.75C18.5404 4.44523 17.5363 3.25 16.2117 3.25H5.28788C3.96323 3.25 2.95922 4.44523 3.18784 5.75" stroke="#383838" stroke-width="1.5"/>
<path d="M16.2499 3.25C16.2783 2.99092 16.2925 2.86135 16.2927 2.75435C16.295 1.73072 15.5239 0.87064 14.5061 0.76142C14.3997 0.75 14.2694 0.75 14.0088 0.75H7.49099C7.23035 0.75 7.10002 0.75 6.99362 0.76142C5.97584 0.87064 5.20481 1.73072 5.20704 2.75434C5.20727 2.86135 5.22146 2.9909 5.24983 3.25" stroke="#383838" stroke-width="1.5"/>
<path d="M13.75 16.75H7.75" stroke="#383838" stroke-width="1.5" stroke-linecap="round"/>
<path d="M1.13351 12.543C0.68748 9.3794 0.46447 7.79765 1.41232 6.77383C2.36017 5.75 4.04758 5.75 7.42239 5.75H14.0776C17.4524 5.75 19.1398 5.75 20.0877 6.77383C21.0355 7.79765 20.8125 9.3794 20.3665 12.543L19.9435 15.543C19.5937 18.0239 19.4189 19.2643 18.5217 20.0072C17.6245 20.75 16.3012 20.75 13.6546 20.75H7.84536C5.19881 20.75 3.87553 20.75 2.97834 20.0072C2.08115 19.2643 1.90626 18.0239 1.55648 15.543L1.13351 12.543Z" stroke="#383838" stroke-width="1.5"/>
</svg>
