<svg width="20" height="28" viewBox="0 0 20 28" fill="none" xmlns="http://www.w3.org/2000/svg">
<path d="M17.6793 15.8996C16.1612 13.4526 13.9911 12.2826 12.2474 11.3424C11.6903 11.0421 11.1934 10.7739 10.7924 10.5033C10.8969 10.3277 10.9576 10.1248 10.9576 9.90806C10.9576 9.62895 10.8552 9.35886 10.6719 9.14497C11.2803 8.8145 11.6648 8.18888 11.6648 7.50754C11.6648 6.8262 11.2802 6.20049 10.672 5.8697C10.8553 5.65597 10.9576 5.38572 10.9576 5.10604C10.9576 4.67536 10.7224 4.28426 10.3393 4.07037L9.83981 0.105776C9.83215 0.0453903 9.78072 0 9.71977 0C9.65882 0 9.60738 0.0453903 9.5998 0.105857L9.10019 4.07045C8.71723 4.28434 8.48197 4.67544 8.48197 5.10612C8.48197 5.38596 8.58436 5.65621 8.7673 5.86978C8.159 6.20049 7.7746 6.82628 7.7746 7.50762C7.7746 8.18904 8.15908 8.81458 8.76738 9.14505C8.58428 9.35878 8.48197 9.62879 8.48197 9.90814C8.48197 10.1249 8.54268 10.3278 8.64717 10.5034C8.24623 10.7739 7.74928 11.0422 7.19226 11.3425C5.44848 12.2827 3.27838 13.4527 1.76034 15.8997C-0.0373706 18.7974 -0.452978 22.7446 0.489656 27.9669L0.495622 28.0001H18.9439L18.9499 27.9669C19.8926 22.7446 19.477 18.7973 17.6793 15.8996ZM6.50592 16.1255C6.91847 15.7129 7.38648 15.3903 7.88593 15.1566C7.04319 16.9597 7.36616 19.1726 8.85485 20.6612C10.3435 22.1501 12.5564 22.4729 14.3595 21.6301C14.126 22.1296 13.8034 22.5977 13.3906 23.0103C11.4895 24.9115 8.407 24.9115 6.50584 23.0103C4.60469 21.1091 4.60469 18.0267 6.50592 16.1255ZM9.86738 17.4214C10.61 18.1637 11.3524 18.1637 12.0949 17.4214C11.3524 18.1637 11.3524 18.9063 12.0949 19.6488C11.3524 18.9063 10.61 18.9063 9.86738 19.6488C10.6099 18.9063 10.6099 18.1637 9.86738 17.4214Z" fill="white"/>
</svg>
