<svg width="124" height="40" viewBox="0 0 124 40" fill="none" xmlns="http://www.w3.org/2000/svg">
<path d="M49.4123 34.3017C50.1308 34.0752 50.8344 33.7374 51.5649 33.6397C58.0242 32.8022 64.5173 32.1913 70.9439 31.1443C75.978 30.3229 80.9533 29.0648 85.9233 27.8459C91.6264 26.4471 97.3719 25.1622 102.953 23.3135C108.042 21.6251 113.188 19.8986 117.713 16.6482C118.271 16.2461 118.821 15.8316 119.354 15.3923C122.251 12.9911 121.319 10.3166 118.975 8.42164C115.949 5.97797 112.354 5.12876 108.748 4.41408C101.892 3.05297 94.9767 2.56339 88.0335 2.43396C76.2302 2.21692 64.483 2.82966 52.7619 4.23088C42.5183 5.45292 32.4325 7.50267 22.4799 10.2996C17.3015 11.7561 12.1892 13.515 7.54384 16.4708C6.00301 17.4527 4.58944 18.7763 3.34182 20.1845C1.79808 21.9308 2.04727 24.0264 3.68723 25.7454C6.42617 28.6173 9.89564 29.958 13.3174 31.3492C19.6862 33.9368 26.2808 35.5648 32.9637 36.6648C36.7919 37.2921 40.6612 37.5758 44.5068 38.0423C45.4425 38.1562 46.3689 38.37 47.3717 38.5531C42.9475 40.7265 38.4082 39.6948 33.9451 39.1893C27.6547 38.4749 21.4534 37.1201 15.4376 34.8514C10.8827 33.1341 6.3973 31.2139 2.5566 27.8932C-1.15164 24.6851 -0.512768 20.1978 2.47244 17.26C6.82276 12.9757 12.2641 10.9025 17.8111 9.20265C20.8018 8.28511 23.7972 7.38023 26.8199 6.59884C29.8351 5.82223 32.8781 5.17772 35.9225 4.55472C36.6651 4.40013 37.462 4.54868 37.8893 4.55206C38.816 4.27365 39.4623 4.08194 40.104 3.88188C41.0804 3.58307 42.198 3.53446 43.0948 3.46517C44.4203 3.36031 45.6974 2.17047 47.2202 3.08512C47.7942 3.42901 48.8333 2.75495 49.6714 2.62459C51.813 2.28713 53.9604 1.97952 56.1086 1.68483C58.4124 1.37172 60.7168 1.00676 63.0323 0.818126C64.424 0.704799 65.8394 0.969928 67.239 0.920864C68.2907 0.885019 69.3261 0.526387 70.377 0.47764C72.0919 0.395816 73.8146 0.499159 75.53 0.425937C76.6241 0.378794 77.7722 -0.181212 78.7866 0.0616142C81.4475 0.693212 84.0498 0.080709 86.6723 0.10162C89.8749 0.124952 93.0868 0.23405 96.2847 0.495141C103.448 1.07703 110.646 1.57906 117.425 4.65043C118.736 5.24595 120.024 6.10195 121.088 7.13179C124.493 10.4367 124.104 15.1587 120.396 17.9433C115.412 21.6846 109.842 23.9644 104.061 25.6185C96.6446 27.7424 89.1548 29.5772 81.7175 31.6246C74.7541 33.543 67.684 34.6995 60.5115 35.0983C57.2004 35.2804 53.8683 35.0666 50.5418 35.0036C50.1847 34.9958 49.8314 34.7978 49.4757 34.6863C49.4559 34.558 49.4361 34.4297 49.4163 34.3014L49.4123 34.3017Z" fill="#A71755"/>
</svg>
