<svg width="24" height="24" viewBox="0 0 24 24" fill="none" xmlns="http://www.w3.org/2000/svg">
<path fill-rule="evenodd" clipRule="evenodd" d="M13.1173 9.22029C16.9452 7.50101 21.4959 9.09583 23.2814 12.7825C25.0669 16.4683 23.4106 20.8507 19.582 22.5692C15.7541 24.2884 0.000610352 23.2353 0.000610352 23.2353C0.000610352 23.2353 9.28946 10.9388 13.1173 9.21949V9.22029Z" fill="#6D7172"/>
<path fill-rule="evenodd" clipRule="evenodd" d="M10.8827 14.7796C7.05479 16.4989 2.5041 14.9041 0.718615 11.2174C-1.06687 7.53153 0.58937 3.14918 4.41804 1.43071C8.24591 -0.288562 23.9994 0.764541 23.9994 0.764541C23.9994 0.764541 14.7105 13.0611 10.8827 14.7804V14.7796Z" fill="url(#paint0_linear_186_742)"/>
<path fill-rule="evenodd" clipRule="evenodd" d="M13.1173 9.22029C16.9452 7.50101 21.4959 9.09583 23.2814 12.7825C25.0669 16.4683 23.4106 20.8507 19.582 22.5692C15.7541 24.2884 0.000610352 23.2353 0.000610352 23.2353C0.000610352 23.2353 9.28946 10.9388 13.1173 9.21949V9.22029Z" fill="url(#paint1_linear_186_742)"/>
<defs>
<linearGradient id="paint0_linear_186_742" x1="-0.000208164" y1="7.95836" x2="23.9994" y2="7.95836" gradientUnits="userSpaceOnUse">
<stop stop-color="#016AB5"/>
<stop offset="0.27" stop-color="#016AB5"/>
<stop offset="0.65" stop-color="#174474"/>
<stop offset="1" stop-color="#174474"/>
</linearGradient>
<linearGradient id="paint1_linear_186_742" x1="-0.000187454" y1="16.0415" x2="23.9994" y2="16.0415" gradientUnits="userSpaceOnUse">
<stop stop-color="#A71755"/>
<stop offset="0.35" stop-color="#A71755"/>
<stop offset="0.61" stop-color="#6F0635"/>
<stop offset="1" stop-color="#0D1214"/>
</linearGradient>
</defs>
</svg>
