<svg width="116" height="39" viewBox="0 0 116 39" fill="none" xmlns="http://www.w3.org/2000/svg">
<path fillRule="evenodd" clipRule="evenodd" d="M22.137 14.8084C28.597 11.9069 36.2769 14.5984 39.2901 20.82C42.3033 27.0404 39.5082 34.4361 33.0469 37.3363C26.5869 40.2377 0.000976562 38.4605 0.000976562 38.4605C0.000976562 38.4605 15.677 17.7085 22.137 14.8071V14.8084Z" fill="white"/>
<path fillRule="evenodd" clipRule="evenodd" d="M18.3658 24.1908C11.9058 27.0923 4.22598 24.4009 1.21275 18.1792C-1.80048 11.9588 0.994633 4.56311 7.45598 1.66298C13.916 -1.2385 40.5019 0.538736 40.5019 0.538736C40.5019 0.538736 24.8258 21.2907 18.3658 24.1922V24.1908Z" fill="white"/>
<path fillRule="evenodd" clipRule="evenodd" d="M22.137 14.8084C28.597 11.9069 36.2769 14.5984 39.2901 20.82C42.3033 27.0404 39.5082 34.4361 33.0469 37.3363C26.5869 40.2377 0.000976562 38.4605 0.000976562 38.4605C0.000976562 38.4605 15.677 17.7085 22.137 14.8071V14.8084Z" fill="white"/>
<path d="M58.3345 21.1139C58.9148 21.332 59.5301 21.5165 60.1804 21.6673C60.8321 21.8194 61.4999 21.942 62.1825 22.0362C62.8651 22.1304 63.537 22.1776 64.1994 22.1776C64.9642 22.1776 65.6737 22.121 66.3254 22.0079C66.977 21.8948 67.5412 21.7158 68.0164 21.4694C68.4917 21.2243 68.8687 20.9066 69.1488 20.5202C69.4275 20.1324 69.5675 19.6733 69.5675 19.1442C69.5675 18.6716 69.4544 18.265 69.2255 17.9243C68.998 17.5837 68.6775 17.2902 68.2642 17.0451C67.8508 16.7987 67.3486 16.59 66.7589 16.4204C66.1705 16.2507 65.5122 16.0798 64.7891 15.9101L62.709 15.4281C60.4134 14.9165 58.6859 14.075 57.528 12.9023C56.3701 11.7309 55.7898 10.2835 55.7898 8.5615C55.7898 7.63518 56.0066 6.78426 56.4415 6.00739C56.875 5.23186 57.4957 4.5654 58.3036 4.00664C59.11 3.44924 60.0727 3.01839 61.1889 2.7168C62.305 2.41386 63.5478 2.26172 64.9117 2.26172C65.698 2.26172 66.5004 2.31423 67.3177 2.4179C68.1349 2.52157 68.9253 2.66833 69.6914 2.85817C70.4561 3.04667 71.1859 3.26478 71.8792 3.50982C72.5726 3.75621 73.1879 4.03088 73.7252 4.33247L71.956 7.93542C71.0256 7.38744 69.9189 6.95256 68.6358 6.63077C67.3527 6.30898 66.1019 6.14876 64.8807 6.14876C64.2802 6.14876 63.712 6.20127 63.1735 6.30494C62.6349 6.40861 62.1596 6.56479 61.7463 6.77214C61.3329 6.97948 61.0071 7.24068 60.7688 7.55304C60.5305 7.86541 60.412 8.23028 60.412 8.64497C60.412 9.40164 60.7271 10.0062 61.3585 10.4613C61.9886 10.915 63.0079 11.3028 64.4148 11.6245L66.5246 12.1065C67.5789 12.3516 68.5779 12.664 69.519 13.0423C70.4601 13.4206 71.2828 13.8932 71.9856 14.46C72.6884 15.0282 73.2472 15.6987 73.6605 16.4742C74.0739 17.2498 74.2812 18.1478 74.2812 19.1697C74.2812 20.2859 74.0281 21.2688 73.5205 22.121C73.0143 22.9719 72.3209 23.6855 71.4417 24.2631C70.5625 24.8394 69.5123 25.2797 68.2925 25.5826C67.0713 25.8855 65.7478 26.0363 64.3206 26.0363C63.4508 26.0363 62.577 25.9838 61.6992 25.8802C60.82 25.7765 59.9758 25.6351 59.1706 25.4547C58.3641 25.2756 57.6088 25.0629 56.906 24.8165C56.2018 24.5715 55.5812 24.2954 55.0439 23.9939L56.8131 20.3909C57.248 20.6562 57.7542 20.8972 58.3332 21.1139H58.3345Z" fill="white"/>
<path d="M88.3254 22.0366C88.8317 21.9612 89.3177 21.8616 89.7836 21.739C90.2494 21.6152 90.6776 21.4684 91.0721 21.2988C91.4639 21.1291 91.7749 20.9406 92.0024 20.7306L93.9264 24.277C92.9961 24.7496 91.9203 25.1616 90.6991 25.5103C89.478 25.859 88.0104 26.0354 86.2937 26.0354C84.9083 26.0354 83.6306 25.8227 82.4619 25.3972C81.2932 24.9717 80.2794 24.3807 79.4217 23.6226C78.5627 22.866 77.8949 21.9733 77.4196 20.942C76.9444 19.912 76.7061 18.7999 76.7061 17.6096C76.7061 16.4194 76.9484 15.2454 77.4358 14.2046C77.9219 13.1639 78.5829 12.2712 79.4217 11.524C80.2592 10.7767 81.2421 10.1951 82.369 9.77903C83.4959 9.36164 84.7009 9.1543 85.9827 9.1543C87.3278 9.1543 88.5637 9.37241 89.692 9.8073C90.819 10.2408 91.7857 10.8804 92.5935 11.7219C93.4 12.5634 94.0207 13.5893 94.4556 14.7997C94.8891 16.0101 95.0763 17.3821 95.0143 18.913H81.1747C81.4642 20.0103 82.0687 20.8235 82.991 21.3526C83.9106 21.8831 85.0537 22.147 86.4203 22.147H86.8861C87.3412 22.147 87.8219 22.108 88.3295 22.0326L88.3254 22.0366ZM82.9426 13.5112C82.1361 14.07 81.5975 14.7741 81.3282 15.6251H90.4514C90.2225 14.6422 89.7068 13.9044 88.899 13.4129C88.0925 12.9202 87.1002 12.6751 85.9208 12.6751C84.7413 12.6751 83.749 12.9538 82.9412 13.5112H82.9426Z" fill="white"/>
<path d="M102.88 25.7526C101.877 25.5628 100.996 25.2599 100.242 24.8452C99.4871 24.4278 98.8826 23.8852 98.4275 23.2133C97.9724 22.5415 97.7449 21.7148 97.7449 20.7306C97.7449 19.842 97.9468 19.057 98.3494 18.3757C98.7533 17.6945 99.3121 17.1276 100.026 16.6739C100.739 16.2188 101.598 15.8795 102.601 15.652C103.604 15.4258 104.695 15.3114 105.874 15.3114C106.35 15.3114 106.873 15.3262 107.442 15.3544C108.011 15.3827 108.626 15.4446 109.288 15.5389V15.3114C109.288 14.4039 108.916 13.7886 108.171 13.4668C107.427 13.1464 106.455 12.9848 105.254 12.9848C104.799 12.9848 104.302 13.0225 103.765 13.0979C103.226 13.1746 102.683 13.2783 102.135 13.4102C101.587 13.5422 101.054 13.693 100.537 13.864C100.02 14.0336 99.545 14.214 99.1115 14.4025L99.6702 10.3459C100.373 10.0241 101.272 9.74402 102.37 9.5084C103.466 9.27143 104.625 9.1543 105.845 9.1543C106.961 9.1543 107.996 9.26739 108.947 9.49493C109.899 9.72247 110.721 10.082 111.413 10.5734C112.107 11.0662 112.649 11.7178 113.043 12.531C113.436 13.3456 113.632 14.3285 113.632 15.4823V24.7886C112.515 25.1858 111.295 25.4928 109.97 25.7109C108.647 25.9277 107.333 26.0367 106.031 26.0367C104.935 26.0367 103.883 25.9425 102.881 25.754L102.88 25.7526ZM107.86 18.5319C107.323 18.466 106.816 18.4336 106.34 18.4336C105.782 18.4336 105.259 18.466 104.773 18.5319C104.287 18.5979 103.858 18.7123 103.485 18.8739C103.113 19.0341 102.818 19.2469 102.601 19.5121C102.383 19.7773 102.275 20.0991 102.275 20.4775C102.275 21.2153 102.642 21.731 103.377 22.0231C104.112 22.3166 105.017 22.4634 106.093 22.4634C106.63 22.4634 107.178 22.4257 107.736 22.349C108.295 22.2736 108.811 22.1605 109.288 22.0083V18.7743C108.874 18.68 108.398 18.5992 107.86 18.5333V18.5319Z" fill="white"/>
<path d="M56.7216 33.185V36.6789H56.2072V33.185H55.0439V32.7676H57.8862V33.185H56.7229H56.7216Z" fill="white"/>
<path d="M64.9373 35.2017C64.9373 34.3238 65.3923 33.7031 66.2661 33.7031C67.14 33.7031 67.595 34.3252 67.595 35.2017C67.595 36.0782 67.14 36.7002 66.2661 36.7002C65.3923 36.7002 64.9373 36.0741 64.9373 35.2017ZM65.3816 35.2017C65.3816 35.8277 65.6468 36.3596 66.2675 36.3596C66.8882 36.3596 67.1413 35.8291 67.1413 35.2017C67.1413 34.5742 66.8882 34.0438 66.2675 34.0438C65.6468 34.0438 65.3816 34.5689 65.3816 35.2017Z" fill="white"/>
<path d="M77.2136 33.793V36.6769H76.741V36.335C76.3869 36.6096 76.0557 36.7348 75.672 36.7348C75.0755 36.7348 74.7739 36.4104 74.7739 35.8058V33.793H75.2465V35.6631C75.2465 36.0738 75.4417 36.2892 75.8605 36.2892C76.2267 36.2892 76.5633 36.067 76.741 35.9243V33.793H77.2136Z" fill="white"/>
<path d="M84.4856 36.6617V33.7939H84.9582V34.3015C85.2584 33.9258 85.6664 33.7656 86.0622 33.7656V34.1359C85.6071 34.1076 85.1103 34.4267 84.9582 34.661V36.6617H84.4856Z" fill="white"/>
<path d="M92.98 33.2025C92.98 33.0651 93.1039 32.9453 93.252 32.9453C93.4001 32.9453 93.5239 33.0651 93.5239 33.2025C93.5239 33.3398 93.4001 33.4637 93.252 33.4637C93.1039 33.4637 92.98 33.3438 92.98 33.2025ZM93.4943 36.6614H93.0217V33.8353H93.4943V36.6614Z" fill="white"/>
<path d="M100.794 36.5424V36.1883C101.19 36.3311 101.604 36.3822 101.828 36.3822C102.442 36.3822 102.56 36.0739 102.56 35.9096C102.56 35.6013 102.205 35.4923 101.816 35.367C101.373 35.2243 100.859 35.0547 100.859 34.5067C100.859 33.9587 101.302 33.6504 102.069 33.6504C102.448 33.6504 102.725 33.7191 103.044 33.8389V34.193C102.648 34.0395 102.389 34.0045 102.181 34.0045C101.579 34.0045 101.396 34.2792 101.396 34.4717C101.396 34.7854 101.769 34.8931 102.17 35.0251C102.612 35.1732 103.104 35.3495 103.104 35.8679C103.104 36.3863 102.619 36.7404 101.916 36.7404C101.538 36.7404 101.185 36.6838 100.794 36.5411V36.5424Z" fill="white"/>
<path d="M114.618 34.6666V36.6619H114.145V34.8093C114.145 34.3986 113.95 34.1832 113.537 34.1832C113.183 34.1832 112.881 34.3946 112.675 34.5656C112.686 34.6383 112.693 34.7191 112.693 34.8106V36.6633H112.215V34.8106C112.215 34.4 112.019 34.1845 111.606 34.1845C111.24 34.1845 110.944 34.4121 110.762 34.5548V36.6646H110.289V33.7968H110.762V34.1967C111.051 33.9287 111.364 33.7402 111.789 33.7402C112.215 33.7402 112.492 33.9005 112.617 34.2371C112.989 33.9005 113.315 33.7402 113.721 33.7402C114.323 33.7402 114.619 34.0607 114.619 34.6692L114.618 34.6666Z" fill="white"/>
</svg>
