<svg width="150" height="75" viewBox="0 0 150 75" fill="none" xmlns="http://www.w3.org/2000/svg">
<path d="M57.4318 0V15.771H72.8399V0H57.4318ZM72.8399 15.771V30.7245H88.2483V15.771H72.8399ZM72.8399 30.7245H57.4318V57.2428C57.4318 62.6165 59.0663 66.9398 61.9837 69.9766C65.2525 73.2481 70.0388 74.9999 75.992 74.9999C82.0624 74.9999 86.3807 73.131 88.2483 71.4953V58.8785C86.8482 59.9303 84.0468 61.2141 80.4275 61.2141C77.8594 61.2141 75.9918 60.6303 74.5904 59.3453C73.4235 58.1775 72.8399 56.1923 72.8399 53.5049V30.7245ZM24.1629 14.0191C17.0428 14.0191 11.0895 16.3548 7.004 20.0929C3.50194 23.3643 1.51729 27.8036 1.51729 32.7109C1.51729 37.0328 2.91865 40.6547 5.72021 43.4582C8.52158 46.262 12.6071 48.3642 17.9766 49.6494L26.8482 51.753C31.2842 52.8035 33.2689 54.4392 33.2689 57.3601C33.2689 60.9809 30.0002 63.0833 24.6305 63.0833C20.778 63.0833 17.6263 61.7994 15.6416 59.6957C14.2414 58.2946 13.4235 56.4255 13.3075 54.322L0 57.2428C0.350455 61.2142 2.21787 64.7202 5.01943 67.5225C9.45522 72.1964 16.5754 74.9999 24.6305 74.9999C32.4511 74.9999 38.8716 72.5471 43.0731 68.4584C46.2262 65.3031 48.0938 61.0981 48.0938 56.1923C48.0938 51.7529 46.4594 47.7803 43.4235 44.7433C40.3892 41.7052 36.0691 39.4858 30.5836 38.4352L21.5947 36.6822C17.8597 35.981 15.7588 34.112 15.7588 31.5416C15.7588 28.1542 19.0262 25.8185 24.2801 25.8185C27.5477 25.8185 30.3504 26.869 32.2181 28.7381C33.385 30.0231 34.2014 31.6589 34.4358 33.528L47.393 30.6072C47.0427 26.869 45.2912 23.5989 42.607 20.9113C38.4043 16.7052 31.8675 14.0191 24.1629 14.0191ZM122.684 14.0191C114.397 14.0191 106.926 17.1731 101.556 22.547C96.1862 28.0382 92.9186 35.6301 92.9186 44.5088C92.9186 53.3874 96.3036 60.981 101.791 66.472C107.159 71.8459 114.747 74.9999 123.152 74.9999C131.79 74.9999 138.444 71.8459 142.996 67.4067C146.615 63.9019 148.833 59.8131 150 55.6071L136.342 51.0517C135.759 53.154 134.592 55.3738 132.723 57.1255C130.505 59.2293 127.47 60.7477 123.152 60.7477C119.183 60.7477 115.447 59.2292 112.763 56.5418C110.077 53.7381 108.444 49.6492 108.444 44.5088C108.444 39.2522 110.077 35.2798 112.763 32.4775C115.447 29.7899 119.066 28.3886 123.035 28.3886C127.237 28.3886 130.156 29.7898 132.257 31.8923C134.008 33.6453 135.058 35.865 135.759 38.0846L149.65 33.4107C148.599 29.3221 146.381 25.2331 143.113 21.8457C138.444 17.2904 131.673 14.0191 122.684 14.0191Z" fill="#4F008C"/>
</svg>
