<svg width="357" height="357" viewBox="0 0 357 357" fill="none" xmlns="http://www.w3.org/2000/svg">
<path d="M47.6025 133.139C47.6025 133.139 36.1428 182.106 68.0658 224.767C99.9887 267.429 155.652 284.015 200.349 298.63C245.045 313.246 286.964 296.374 302.679 258.789C318.394 221.204 286.65 200.955 279.653 151.868C272.655 102.78 278.225 88.6359 245.595 51.258C212.965 13.8801 145.956 14.7726 100.653 53.1501C55.3494 91.5276 47.6025 133.139 47.6025 133.139Z" fill="#61A7C6"/>
<path opacity="0.7" d="M47.6025 133.139C47.6025 133.139 36.1428 182.106 68.0658 224.767C99.9887 267.429 155.652 284.015 200.349 298.63C245.045 313.246 286.964 296.374 302.679 258.789C318.394 221.204 286.65 200.955 279.653 151.868C272.655 102.78 278.225 88.6359 245.595 51.258C212.965 13.8801 145.956 14.7726 100.653 53.1501C55.3494 91.5276 47.6025 133.139 47.6025 133.139Z" fill="white"/>
<path d="M285.143 321.515C285.143 323.614 234.899 325.306 172.916 325.306C110.934 325.306 60.6899 323.614 60.6899 321.515C60.6899 319.416 110.934 317.73 172.916 317.73C234.899 317.73 285.143 319.423 285.143 321.515Z" fill="#61A7C6"/>
<path opacity="0.6" d="M285.143 321.515C285.143 323.614 234.899 325.306 172.916 325.306C110.934 325.306 60.6899 323.614 60.6899 321.515C60.6899 319.416 110.934 317.73 172.916 317.73C234.899 317.73 285.143 319.423 285.143 321.515Z" fill="white"/>
<path d="M93.2627 203.333C93.2199 203.333 93.7554 200.67 93.8125 200.477C94.4265 198.578 96.7399 195.265 98.9747 195.265C99.3466 195.276 99.7119 195.366 100.047 195.528C100.382 195.689 100.679 195.92 100.92 196.204C101.16 196.488 101.338 196.819 101.442 197.177C101.546 197.534 101.574 197.909 101.524 198.278C101.359 199.849 99.9457 201.191 98.6677 201.962C97.1754 202.897 93.2627 203.333 93.2627 203.333Z" fill="#61A7C6"/>
<path d="M88.9285 185.398C91.0705 186.154 92.0843 190.053 92.0129 192.052C92.0129 192.223 91.6131 194.908 91.5774 194.908H91.5346C91.6988 195.522 91.8773 196.179 92.0558 196.907C92.3699 198.25 92.7127 199.763 92.9768 201.448C93.2831 203.253 93.4834 205.075 93.5766 206.903C93.6905 208.952 93.6212 211.007 93.3695 213.044C93.3668 213.067 93.3668 213.091 93.3695 213.115C93.648 212.522 94.4762 210.887 94.5476 210.766C95.6472 209.095 98.746 206.482 100.909 207.103C101.265 207.211 101.593 207.393 101.873 207.637C102.153 207.881 102.379 208.181 102.535 208.518C102.691 208.855 102.775 209.221 102.78 209.592C102.786 209.964 102.712 210.332 102.566 210.673C101.995 212.151 100.281 213.065 98.8459 213.479C97.2251 213.936 93.6123 213.393 93.3267 213.351C93.0206 215.415 92.5769 217.457 91.9987 219.462C91.6607 220.633 91.2989 221.802 90.9134 222.968C91.1633 222.461 91.3989 222.011 91.4346 221.954C92.5342 220.284 95.6401 217.67 97.7963 218.292C98.1516 218.4 98.4799 218.582 98.7601 218.826C99.0402 219.069 99.2658 219.37 99.4221 219.706C99.5784 220.043 99.6619 220.409 99.6672 220.781C99.6725 221.152 99.5994 221.52 99.4528 221.862C98.8816 223.332 97.168 224.253 95.7329 224.66C94.2977 225.067 91.1847 224.66 90.3707 224.56L89.9209 225.896C89.2069 228.038 88.4287 230.18 87.7789 232.279C87.5433 232.993 87.3362 233.764 87.1292 234.506C87.3577 234.057 87.5504 233.678 87.5861 233.628C88.6786 231.95 91.7845 229.344 93.9407 229.965C94.2959 230.074 94.6243 230.256 94.9046 230.5C95.1849 230.743 95.4109 231.043 95.5677 231.38C95.7246 231.716 95.8089 232.082 95.8153 232.454C95.8216 232.825 95.7497 233.194 95.6044 233.535C95.0332 235.006 93.3124 235.927 91.8773 236.334C90.4421 236.741 87.6361 236.384 86.6651 236.249C86.4723 237.013 86.2867 237.784 86.1367 238.533C86.0439 239.047 85.9225 239.533 85.8583 240.061L85.6441 241.589C85.5441 242.568 85.4299 243.574 85.3585 244.531C85.3013 245.202 85.2585 245.838 85.2157 246.473C85.4441 245.759 85.9297 244.281 85.9297 244.167C86.7225 242.597 87.9019 241.256 89.3569 240.268C89.4377 240.088 89.5357 239.916 89.6496 239.754C89.8517 239.442 90.1174 239.177 90.4293 238.974C90.7412 238.772 91.0923 238.638 91.4595 238.581C91.8268 238.523 92.202 238.544 92.5607 238.642C92.9193 238.74 93.2534 238.912 93.5409 239.147C95.2402 240.611 94.8118 244.624 94.0336 246.466C93.9907 246.573 93.3196 247.701 92.9483 248.401C93.2553 248.022 93.5409 247.687 93.8622 247.273C94.4834 246.509 95.126 245.766 95.8114 244.967C96.1637 244.595 96.5135 244.217 96.861 243.831C97.2037 243.446 97.6178 243.082 97.9963 242.696C98.8888 241.832 99.8384 240.997 100.852 240.183C100.188 239.633 97.8463 237.662 97.1752 236.32C96.504 234.978 96.0256 233.1 96.7253 231.679C96.879 231.34 97.1024 231.037 97.381 230.79C97.6596 230.543 97.9871 230.358 98.3421 230.246C98.6971 230.134 99.0717 230.099 99.4415 230.141C99.8113 230.184 100.168 230.304 100.488 230.494C102.38 231.679 102.573 235.713 102.08 237.634C102.08 237.755 101.538 239.112 101.245 239.847C101.838 239.355 102.423 238.869 103.037 238.419C104.808 237.055 106.607 235.727 108.463 234.392L110.127 233.157C109.891 232.964 107.064 230.679 106.307 229.173C105.643 227.838 105.158 225.953 105.857 224.539C106.01 224.199 106.233 223.896 106.512 223.648C106.79 223.401 107.117 223.214 107.472 223.102C107.827 222.989 108.202 222.953 108.572 222.995C108.942 223.037 109.299 223.157 109.62 223.347C111.519 224.539 111.705 228.566 111.212 230.487C111.177 230.629 110.441 232.572 110.234 233.057C111.448 232.15 112.655 231.236 113.804 230.287C115.367 229.007 116.845 227.629 118.231 226.16C118.124 226.074 115.161 223.696 114.39 222.161C113.719 220.826 113.24 218.941 113.94 217.52C114.093 217.182 114.316 216.879 114.593 216.632C114.871 216.385 115.198 216.2 115.552 216.087C115.906 215.975 116.28 215.938 116.649 215.979C117.019 216.021 117.375 216.14 117.696 216.328C119.595 217.52 119.788 221.554 119.295 223.468C119.259 223.597 118.702 225.082 118.424 225.774C118.457 225.802 118.493 225.826 118.531 225.846C119.885 224.329 121.101 222.695 122.165 220.962C122.758 220.019 123.279 219.077 123.765 218.156C123.165 217.77 120.459 215.978 119.609 214.672C118.759 213.365 118.117 211.594 118.652 210.109C118.767 209.76 118.954 209.438 119.201 209.165C119.448 208.892 119.749 208.673 120.085 208.524C120.421 208.374 120.785 208.296 121.153 208.294C121.521 208.293 121.885 208.369 122.222 208.517C124.243 209.488 124.871 213.479 124.593 215.457C124.593 215.564 124.307 216.642 124.1 217.42C124.307 217.006 124.536 216.571 124.728 216.164C125.442 214.643 126.049 213.201 126.549 211.923C126.835 211.209 127.07 210.495 127.263 209.895C126.87 209.217 125.342 206.439 125.193 204.897C125.043 203.355 125.285 201.477 126.449 200.406C126.714 200.145 127.031 199.943 127.379 199.813C127.728 199.682 128.099 199.627 128.47 199.65C128.841 199.673 129.204 199.774 129.533 199.946C129.863 200.118 130.152 200.357 130.383 200.649C131.726 202.441 130.448 206.275 129.291 207.903C129.191 208.046 127.37 210.045 127.349 210.045V210.002C127.149 210.609 126.935 211.251 126.678 211.958C126.206 213.251 125.657 214.707 124.95 216.242C124.203 217.917 123.361 219.547 122.429 221.126C121.39 222.894 120.195 224.567 118.859 226.124L118.809 226.174C119.366 225.831 120.951 224.925 121.087 224.867C122.929 224.075 126.942 223.632 128.413 225.317C128.649 225.604 128.823 225.937 128.922 226.296C129.022 226.654 129.045 227.029 128.989 227.397C128.934 227.765 128.802 228.117 128.602 228.43C128.402 228.743 128.138 229.011 127.827 229.216C126.535 230.13 124.6 229.93 123.172 229.501C121.565 228.994 118.888 226.545 118.645 226.353C117.249 227.904 115.751 229.362 114.161 230.715C113.24 231.508 112.283 232.279 111.305 233.043C111.798 232.764 112.241 232.514 112.305 232.486C114.14 231.693 118.152 231.251 119.623 232.936C119.861 233.222 120.036 233.555 120.136 233.914C120.236 234.272 120.259 234.648 120.204 235.016C120.148 235.384 120.016 235.736 119.815 236.05C119.614 236.363 119.349 236.63 119.038 236.834C117.753 237.748 115.811 237.548 114.39 237.12C112.969 236.691 110.591 234.621 109.977 234.071C109.599 234.364 109.263 234.656 108.856 234.942C107.064 236.32 105.286 237.684 103.537 239.076C102.93 239.569 102.352 240.069 101.766 240.575L102.637 240.09C104.472 239.305 108.485 238.855 109.956 240.547C110.194 240.833 110.368 241.167 110.468 241.525C110.568 241.884 110.591 242.259 110.536 242.627C110.481 242.995 110.348 243.348 110.147 243.661C109.947 243.974 109.682 244.241 109.37 244.445C108.078 245.359 106.143 245.159 104.722 244.724C103.301 244.288 101.152 242.425 100.438 241.782C99.8598 242.31 99.2743 242.846 98.7388 243.389C98.3747 243.767 98.0248 244.103 97.6678 244.51L96.6397 245.673C96.0185 246.43 95.3687 247.209 94.7761 247.965C94.362 248.494 93.9764 249.001 93.5909 249.508C94.1835 249.015 95.383 248.08 95.4901 248.001C97.1823 246.937 101.088 245.895 102.794 247.337C103.071 247.585 103.292 247.889 103.443 248.229C103.595 248.568 103.673 248.936 103.673 249.308C103.673 249.679 103.595 250.047 103.443 250.387C103.292 250.726 103.071 251.03 102.794 251.278C101.652 252.378 99.7099 252.492 98.239 252.264C96.6111 252.014 93.6694 250.122 93.3053 249.857C92.6627 250.7 92.0486 251.528 91.4774 252.314C89.4997 255.048 87.9574 257.404 86.9007 259.061L86.7936 259.232L85.4227 258.568L85.6369 258.24C86.7436 256.59 88.3573 254.249 90.4136 251.528C91.0633 250.664 91.7702 249.765 92.5056 248.836C91.7402 248.004 91.0249 247.126 90.3636 246.209C88.7857 246.823 85.5155 246.844 85.0871 246.844C85.0229 247.908 84.9658 248.936 84.9229 249.907C84.7801 253.285 84.7944 256.098 84.8301 258.061V258.29L83.3236 257.576C83.3236 255.619 83.4021 252.978 83.602 249.85C83.6663 248.779 83.7591 247.63 83.8662 246.452C83.4449 246.352 80.0392 245.473 78.754 244.445C77.5901 243.517 76.3621 242.003 76.4049 240.426C76.4009 240.053 76.4756 239.685 76.6241 239.343C76.7726 239.002 76.9916 238.696 77.2666 238.445C77.5417 238.194 77.8666 238.004 78.2201 237.888C78.5736 237.772 78.9478 237.731 79.318 237.769C81.5386 238.055 83.4021 241.632 83.7662 243.603C83.7662 243.717 83.8805 245.031 83.9233 245.809C83.9733 245.331 84.009 244.867 84.0661 244.381C84.1589 243.403 84.2875 242.432 84.4231 241.382C84.5017 240.882 84.5873 240.368 84.6659 239.854C84.7444 239.34 84.8801 238.812 84.9872 238.291C85.2585 237.07 85.5869 235.849 85.9511 234.628C85.0943 234.542 82.0598 234.185 80.7532 233.435C79.4465 232.686 78.0185 231.386 77.8258 229.815C77.766 229.448 77.7844 229.073 77.8798 228.713C77.9752 228.354 78.1454 228.019 78.3792 227.73C78.6131 227.44 78.9054 227.204 79.237 227.036C79.5685 226.867 79.9319 226.771 80.3033 226.752C82.5382 226.695 84.9229 229.951 85.5798 231.843C85.6226 231.957 85.9439 233.364 86.1082 234.142C86.3295 233.428 86.5437 232.679 86.8222 231.943C87.5362 229.801 88.343 227.709 89.1284 225.589C89.3711 224.939 89.5996 224.289 89.8424 223.639C89.5354 223.639 85.9154 223.268 84.4588 222.426C83.1665 221.712 81.7242 220.376 81.5243 218.806C81.4657 218.439 81.4849 218.064 81.5808 217.705C81.6766 217.346 81.8469 217.011 82.0805 216.722C82.3142 216.433 82.606 216.197 82.937 216.028C83.268 215.859 83.6308 215.762 84.0019 215.743C86.2438 215.685 88.6286 218.948 89.2855 220.833C89.3354 220.976 89.7924 222.975 89.8852 223.525C90.3993 222.097 90.9062 220.669 91.3132 219.241C91.9163 217.313 92.3933 215.348 92.7412 213.358C92.5984 213.358 88.8214 213.001 87.3291 212.144C86.0296 211.43 84.5873 210.088 84.3946 208.517C84.3348 208.15 84.3532 207.774 84.4486 207.415C84.544 207.055 84.7142 206.72 84.948 206.431C85.1819 206.142 85.4742 205.905 85.8058 205.737C86.1373 205.569 86.5007 205.472 86.8721 205.454C89.107 205.397 91.4917 208.66 92.1486 210.545C92.1914 210.666 92.5484 212.215 92.6984 212.951H92.8198C93.1147 210.94 93.2294 208.906 93.1625 206.875C93.1625 205.761 93.0554 204.69 92.9483 203.655C92.2343 203.655 88.9927 203.655 87.5647 203.04C86.1367 202.426 84.6159 201.298 84.2446 199.763C84.1456 199.404 84.1236 199.027 84.1801 198.658C84.2366 198.29 84.3704 197.937 84.5726 197.624C84.7748 197.31 85.0409 197.043 85.3535 196.84C85.6661 196.636 86.0182 196.501 86.3866 196.443C88.6072 196.143 91.3346 199.121 92.1986 200.92C92.2414 201.02 92.6127 202.069 92.8626 202.841C92.8126 202.369 92.7626 201.891 92.6984 201.413C92.477 199.735 92.1629 198.214 91.8773 196.864C91.7059 196.1 91.5417 195.436 91.3775 194.772C90.6635 194.415 87.8646 192.952 86.9078 191.759C85.9511 190.567 85.0943 188.86 85.4798 187.325C85.561 186.961 85.7181 186.619 85.9409 186.319C86.1637 186.02 86.4472 185.772 86.7727 185.59C87.0983 185.408 87.4586 185.297 87.8301 185.263C88.2016 185.23 88.5759 185.276 88.9285 185.398Z" fill="#61A7C6"/>
<path d="M129.398 219.913C127.649 219.841 124.15 218.042 124.15 218.042C124.15 218.042 126.028 216.1 126.164 215.986C127.728 214.743 131.483 213.251 133.347 214.493C133.651 214.707 133.907 214.982 134.098 215.301C134.289 215.621 134.411 215.977 134.454 216.346C134.498 216.715 134.463 217.09 134.353 217.445C134.242 217.8 134.057 218.127 133.811 218.406C132.804 219.627 130.891 219.97 129.398 219.913Z" fill="#61A7C6"/>
<g opacity="0.5">
<path d="M93.2622 203.333C93.2194 203.333 93.7549 200.67 93.812 200.477C94.426 198.578 96.7394 195.265 98.9742 195.265C99.3461 195.276 99.7114 195.366 100.046 195.528C100.382 195.689 100.679 195.92 100.919 196.204C101.159 196.488 101.337 196.819 101.441 197.177C101.546 197.534 101.573 197.909 101.523 198.278C101.359 199.849 99.9452 201.191 98.6672 201.962C97.1749 202.897 93.2622 203.333 93.2622 203.333Z" fill="white"/>
<path d="M88.9285 185.398C91.0705 186.154 92.0843 190.053 92.0129 192.052C92.0129 192.223 91.6131 194.908 91.5774 194.908H91.5346C91.6988 195.522 91.8773 196.179 92.0558 196.907C92.3699 198.25 92.7127 199.763 92.9768 201.448C93.2831 203.253 93.4834 205.075 93.5766 206.903C93.6905 208.952 93.6212 211.007 93.3695 213.044C93.3668 213.067 93.3668 213.091 93.3695 213.115C93.648 212.522 94.4762 210.887 94.5476 210.766C95.6472 209.095 98.746 206.482 100.909 207.103C101.265 207.211 101.593 207.393 101.873 207.637C102.153 207.881 102.379 208.181 102.535 208.518C102.691 208.855 102.775 209.221 102.78 209.592C102.786 209.964 102.712 210.332 102.566 210.673C101.995 212.151 100.281 213.065 98.8459 213.479C97.2251 213.936 93.6123 213.393 93.3267 213.351C93.0206 215.415 92.5769 217.457 91.9987 219.462C91.6607 220.633 91.2989 221.802 90.9134 222.968C91.1633 222.461 91.3989 222.011 91.4346 221.954C92.5342 220.284 95.6401 217.67 97.7963 218.292C98.1516 218.4 98.4799 218.582 98.7601 218.826C99.0402 219.069 99.2658 219.37 99.4221 219.706C99.5784 220.043 99.6619 220.409 99.6672 220.781C99.6725 221.152 99.5994 221.52 99.4528 221.862C98.8816 223.332 97.168 224.253 95.7329 224.66C94.2977 225.067 91.1847 224.66 90.3707 224.56L89.9209 225.896C89.2069 228.038 88.4287 230.18 87.7789 232.279C87.5433 232.993 87.3362 233.764 87.1292 234.506C87.3577 234.057 87.5504 233.678 87.5861 233.628C88.6786 231.95 91.7845 229.344 93.9407 229.965C94.2959 230.074 94.6243 230.256 94.9046 230.5C95.1849 230.743 95.4109 231.043 95.5677 231.38C95.7246 231.716 95.8089 232.082 95.8153 232.454C95.8216 232.825 95.7497 233.194 95.6044 233.535C95.0332 235.006 93.3124 235.927 91.8773 236.334C90.4421 236.741 87.6361 236.384 86.6651 236.249C86.4723 237.013 86.2867 237.784 86.1367 238.533C86.0439 239.047 85.9225 239.533 85.8583 240.061L85.6441 241.589C85.5441 242.568 85.4299 243.574 85.3585 244.531C85.3013 245.202 85.2585 245.838 85.2157 246.473C85.4441 245.759 85.9297 244.281 85.9297 244.167C86.7225 242.597 87.9019 241.256 89.3569 240.268C89.4377 240.088 89.5357 239.916 89.6496 239.754C89.8517 239.442 90.1174 239.177 90.4293 238.974C90.7412 238.772 91.0923 238.638 91.4595 238.581C91.8268 238.523 92.202 238.544 92.5607 238.642C92.9193 238.74 93.2534 238.912 93.5409 239.147C95.2402 240.611 94.8118 244.624 94.0336 246.466C93.9907 246.573 93.3196 247.701 92.9483 248.401C93.2553 248.022 93.5409 247.687 93.8622 247.273C94.4834 246.509 95.126 245.766 95.8114 244.967C96.1637 244.595 96.5135 244.217 96.861 243.831C97.2037 243.446 97.6178 243.082 97.9963 242.696C98.8888 241.832 99.8384 240.997 100.852 240.183C100.188 239.633 97.8463 237.662 97.1752 236.32C96.504 234.978 96.0256 233.1 96.7253 231.679C96.879 231.34 97.1024 231.037 97.381 230.79C97.6596 230.543 97.9871 230.358 98.3421 230.246C98.6971 230.134 99.0717 230.099 99.4415 230.141C99.8113 230.184 100.168 230.304 100.488 230.494C102.38 231.679 102.573 235.713 102.08 237.634C102.08 237.755 101.538 239.112 101.245 239.847C101.838 239.355 102.423 238.869 103.037 238.419C104.808 237.055 106.607 235.727 108.463 234.392L110.127 233.157C109.891 232.964 107.064 230.679 106.307 229.173C105.643 227.838 105.158 225.953 105.857 224.539C106.01 224.199 106.233 223.896 106.512 223.648C106.79 223.401 107.117 223.214 107.472 223.102C107.827 222.989 108.202 222.953 108.572 222.995C108.942 223.037 109.299 223.157 109.62 223.347C111.519 224.539 111.705 228.566 111.212 230.487C111.177 230.629 110.441 232.572 110.234 233.057C111.448 232.15 112.655 231.236 113.804 230.287C115.367 229.007 116.845 227.629 118.231 226.16C118.124 226.074 115.161 223.696 114.39 222.161C113.719 220.826 113.24 218.941 113.94 217.52C114.093 217.182 114.316 216.879 114.593 216.632C114.871 216.385 115.198 216.2 115.552 216.087C115.906 215.975 116.28 215.938 116.649 215.979C117.019 216.021 117.375 216.14 117.696 216.328C119.595 217.52 119.788 221.554 119.295 223.468C119.259 223.597 118.702 225.082 118.424 225.774C118.457 225.802 118.493 225.826 118.531 225.846C119.885 224.329 121.101 222.695 122.165 220.962C122.758 220.019 123.279 219.077 123.765 218.156C123.165 217.77 120.459 215.978 119.609 214.672C118.759 213.365 118.117 211.594 118.652 210.109C118.767 209.76 118.954 209.438 119.201 209.165C119.448 208.892 119.749 208.673 120.085 208.524C120.421 208.374 120.785 208.296 121.153 208.294C121.521 208.293 121.885 208.369 122.222 208.517C124.243 209.488 124.871 213.479 124.593 215.457C124.593 215.564 124.307 216.642 124.1 217.42C124.307 217.006 124.536 216.571 124.728 216.164C125.442 214.643 126.049 213.201 126.549 211.923C126.835 211.209 127.07 210.495 127.263 209.895C126.87 209.217 125.342 206.439 125.193 204.897C125.043 203.355 125.285 201.477 126.449 200.406C126.714 200.145 127.031 199.943 127.379 199.813C127.728 199.682 128.099 199.627 128.47 199.65C128.841 199.673 129.204 199.774 129.533 199.946C129.863 200.118 130.152 200.357 130.383 200.649C131.726 202.441 130.448 206.275 129.291 207.903C129.191 208.046 127.37 210.045 127.349 210.045V210.002C127.149 210.609 126.935 211.251 126.678 211.958C126.206 213.251 125.657 214.707 124.95 216.242C124.203 217.917 123.361 219.547 122.429 221.126C121.39 222.894 120.195 224.567 118.859 226.124L118.809 226.174C119.366 225.831 120.951 224.925 121.087 224.867C122.929 224.075 126.942 223.632 128.413 225.317C128.649 225.604 128.823 225.937 128.922 226.296C129.022 226.654 129.045 227.029 128.989 227.397C128.934 227.765 128.802 228.117 128.602 228.43C128.402 228.743 128.138 229.011 127.827 229.216C126.535 230.13 124.6 229.93 123.172 229.501C121.565 228.994 118.888 226.545 118.645 226.353C117.249 227.904 115.751 229.362 114.161 230.715C113.24 231.508 112.283 232.279 111.305 233.043C111.798 232.764 112.241 232.514 112.305 232.486C114.14 231.693 118.152 231.251 119.623 232.936C119.861 233.222 120.036 233.555 120.136 233.914C120.236 234.272 120.259 234.648 120.204 235.016C120.148 235.384 120.016 235.736 119.815 236.05C119.614 236.363 119.349 236.63 119.038 236.834C117.753 237.748 115.811 237.548 114.39 237.12C112.969 236.691 110.591 234.621 109.977 234.071C109.599 234.364 109.263 234.656 108.856 234.942C107.064 236.32 105.286 237.684 103.537 239.076C102.93 239.569 102.352 240.069 101.766 240.575L102.637 240.09C104.472 239.305 108.485 238.855 109.956 240.547C110.194 240.833 110.368 241.167 110.468 241.525C110.568 241.884 110.591 242.259 110.536 242.627C110.481 242.995 110.348 243.348 110.147 243.661C109.947 243.974 109.682 244.241 109.37 244.445C108.078 245.359 106.143 245.159 104.722 244.724C103.301 244.288 101.152 242.425 100.438 241.782C99.8598 242.31 99.2743 242.846 98.7388 243.389C98.3747 243.767 98.0248 244.103 97.6678 244.51L96.6397 245.673C96.0185 246.43 95.3687 247.209 94.7761 247.965C94.362 248.494 93.9764 249.001 93.5909 249.508C94.1835 249.015 95.383 248.08 95.4901 248.001C97.1823 246.937 101.088 245.895 102.794 247.337C103.071 247.585 103.292 247.889 103.443 248.229C103.595 248.568 103.673 248.936 103.673 249.308C103.673 249.679 103.595 250.047 103.443 250.387C103.292 250.726 103.071 251.03 102.794 251.278C101.652 252.378 99.7099 252.492 98.239 252.264C96.6111 252.014 93.6694 250.122 93.3053 249.857C92.6627 250.7 92.0486 251.528 91.4774 252.314C89.4997 255.048 87.9574 257.404 86.9007 259.061L86.7936 259.232L85.4227 258.568L85.6369 258.24C86.7436 256.59 88.3573 254.249 90.4136 251.528C91.0633 250.664 91.7702 249.765 92.5056 248.836C91.7402 248.004 91.0249 247.126 90.3636 246.209C88.7857 246.823 85.5155 246.844 85.0871 246.844C85.0229 247.908 84.9658 248.936 84.9229 249.907C84.7801 253.285 84.7944 256.098 84.8301 258.061V258.29L83.3236 257.576C83.3236 255.619 83.4021 252.978 83.602 249.85C83.6663 248.779 83.7591 247.63 83.8662 246.452C83.4449 246.352 80.0392 245.473 78.754 244.445C77.5901 243.517 76.3621 242.003 76.4049 240.426C76.4009 240.053 76.4756 239.685 76.6241 239.343C76.7726 239.002 76.9916 238.696 77.2666 238.445C77.5417 238.194 77.8666 238.004 78.2201 237.888C78.5736 237.772 78.9478 237.731 79.318 237.769C81.5386 238.055 83.4021 241.632 83.7662 243.603C83.7662 243.717 83.8805 245.031 83.9233 245.809C83.9733 245.331 84.009 244.867 84.0661 244.381C84.1589 243.403 84.2875 242.432 84.4231 241.382C84.5017 240.882 84.5873 240.368 84.6659 239.854C84.7444 239.34 84.8801 238.812 84.9872 238.291C85.2585 237.07 85.5869 235.849 85.9511 234.628C85.0943 234.542 82.0598 234.185 80.7532 233.435C79.4465 232.686 78.0185 231.386 77.8258 229.815C77.766 229.448 77.7844 229.073 77.8798 228.713C77.9752 228.354 78.1454 228.019 78.3792 227.73C78.6131 227.44 78.9054 227.204 79.237 227.036C79.5685 226.867 79.9319 226.771 80.3033 226.752C82.5382 226.695 84.9229 229.951 85.5798 231.843C85.6226 231.957 85.9439 233.364 86.1082 234.142C86.3295 233.428 86.5437 232.679 86.8222 231.943C87.5362 229.801 88.343 227.709 89.1284 225.589C89.3711 224.939 89.5996 224.289 89.8424 223.639C89.5354 223.639 85.9154 223.268 84.4588 222.426C83.1665 221.712 81.7242 220.376 81.5243 218.806C81.4657 218.439 81.4849 218.064 81.5808 217.705C81.6766 217.346 81.8469 217.011 82.0805 216.722C82.3142 216.433 82.606 216.197 82.937 216.028C83.268 215.859 83.6308 215.762 84.0019 215.743C86.2438 215.685 88.6286 218.948 89.2855 220.833C89.3354 220.976 89.7924 222.975 89.8852 223.525C90.3993 222.097 90.9062 220.669 91.3132 219.241C91.9163 217.313 92.3933 215.348 92.7412 213.358C92.5984 213.358 88.8214 213.001 87.3291 212.144C86.0296 211.43 84.5873 210.088 84.3946 208.517C84.3348 208.15 84.3532 207.774 84.4486 207.415C84.544 207.055 84.7142 206.72 84.948 206.431C85.1819 206.142 85.4742 205.905 85.8058 205.737C86.1373 205.569 86.5007 205.472 86.8721 205.454C89.107 205.397 91.4917 208.66 92.1486 210.545C92.1914 210.666 92.5484 212.215 92.6984 212.951H92.8198C93.1147 210.94 93.2294 208.906 93.1625 206.875C93.1625 205.761 93.0554 204.69 92.9483 203.655C92.2343 203.655 88.9927 203.655 87.5647 203.04C86.1367 202.426 84.6159 201.298 84.2446 199.763C84.1456 199.404 84.1236 199.027 84.1801 198.658C84.2366 198.29 84.3704 197.937 84.5726 197.624C84.7748 197.31 85.0409 197.043 85.3535 196.84C85.6661 196.636 86.0182 196.501 86.3866 196.443C88.6072 196.143 91.3346 199.121 92.1986 200.92C92.2414 201.02 92.6127 202.069 92.8626 202.841C92.8126 202.369 92.7626 201.891 92.6984 201.413C92.477 199.735 92.1629 198.214 91.8773 196.864C91.7059 196.1 91.5417 195.436 91.3775 194.772C90.6635 194.415 87.8646 192.952 86.9078 191.759C85.9511 190.567 85.0943 188.86 85.4798 187.325C85.561 186.961 85.7181 186.619 85.9409 186.319C86.1637 186.02 86.4472 185.772 86.7727 185.59C87.0983 185.408 87.4586 185.297 87.8301 185.263C88.2016 185.23 88.5759 185.276 88.9285 185.398Z" fill="white"/>
<path d="M129.398 219.913C127.648 219.841 124.15 218.042 124.15 218.042C124.15 218.042 126.028 216.1 126.163 215.986C127.727 214.743 131.483 213.251 133.346 214.493C133.651 214.707 133.907 214.982 134.098 215.301C134.289 215.621 134.41 215.977 134.454 216.346C134.498 216.715 134.463 217.09 134.352 217.445C134.241 217.8 134.057 218.127 133.81 218.406C132.804 219.627 130.89 219.97 129.398 219.913Z" fill="white"/>
</g>
<path d="M108.971 263.716C108.971 263.716 98.3535 238.127 92.413 239.24C86.4725 240.354 102.602 280.038 102.602 280.038C102.602 280.038 83.9235 244.802 71.1858 244.802C58.448 244.802 75.8553 283.744 91.9917 296.725C91.9917 296.725 66.5162 269.278 51.6579 275.219C36.7995 281.159 81.396 308.97 81.396 308.97C81.396 308.97 55.4992 300.809 58.4694 307.113C61.4397 313.418 69.5079 314.532 69.5079 314.532L40.2339 316.017H142.086L119.159 313.789C119.159 313.789 142.936 301.922 136.567 297.096C130.198 292.269 116.189 302.658 116.189 302.658C116.189 302.658 140.387 275.954 135.717 265.944C131.048 255.934 110.242 284.115 110.242 284.115C110.242 284.115 127.228 248.144 123.808 241.832C120.388 235.52 108.971 263.716 108.971 263.716Z" fill="#61A7C6"/>
<path opacity="0.4" d="M108.971 263.716C108.971 263.716 98.3535 238.127 92.413 239.24C86.4725 240.354 102.602 280.038 102.602 280.038C102.602 280.038 83.9235 244.802 71.1858 244.802C58.448 244.802 75.8553 283.744 91.9917 296.725C91.9917 296.725 66.5162 269.278 51.6579 275.219C36.7995 281.159 81.396 308.97 81.396 308.97C81.396 308.97 55.4992 300.809 58.4694 307.113C61.4397 313.418 69.5079 314.532 69.5079 314.532L40.2339 316.017H142.086L119.159 313.789C119.159 313.789 142.936 301.922 136.567 297.096C130.198 292.269 116.189 302.658 116.189 302.658C116.189 302.658 140.387 275.954 135.717 265.944C131.048 255.934 110.242 284.115 110.242 284.115C110.242 284.115 127.228 248.144 123.808 241.832C120.388 235.52 108.971 263.716 108.971 263.716Z" fill="white"/>
<path d="M112.369 265.065C103.03 292.662 103.03 312.189 103.03 312.189C103.03 312.189 114.069 312.618 125.528 304.128" stroke="#263238" strokeLinecap="round" strokeLinejoin="round"/>
<path d="M107.7 279.924C105.773 271.675 103.216 263.585 100.053 255.727" stroke="#263238" strokeLinecap="round" strokeLinejoin="round"/>
<path d="M80.1035 263.795L103.873 299.031C103.873 299.031 120.009 285.465 125.528 277.804" stroke="#263238" strokeLinecap="round" strokeLinejoin="round"/>
<path d="M103.451 307.52C103.451 307.52 78.4041 295.632 68.2153 288.842" stroke="#263238" strokeLinecap="round" strokeLinejoin="round"/>
<path d="M121.994 44.9822L116.175 35.7002H64.9385V44.9822V48.3237V202.776H275.826V44.9822H121.994Z" fill="#263238"/>
<path d="M274.433 49.2373H66.502V199.406H274.433V49.2373Z" fill="white"/>
<mask id="mask0_414_793" style="mask-type:luminance" maskUnits="userSpaceOnUse" x="66" y="49" width="209" height="151">
<path d="M274.433 49.2373H66.502V199.406H274.433V49.2373Z" fill="white"/>
</mask>
<g mask="url(#mask0_414_793)">
<path opacity="0.17" d="M275.454 47.9521H270.627V200.548H275.454V47.9521Z" fill="black"/>
<path opacity="0.17" d="M275.454 140.216H270.627V199.314H275.454V140.216Z" fill="black"/>
<path d="M274.711 47.21H65.6807V55.3781H274.711V47.21Z" fill="#61A7C6" stroke="#263238" stroke-miterlimit="10"/>
</g>
<path d="M274.433 49.2373H66.502V199.406H274.433V49.2373Z" stroke="#263238" strokeLinecap="round" strokeLinejoin="round"/>
<g opacity="0.17">
<path d="M174.837 63.253H160.293C159.953 63.2511 159.627 63.1151 159.386 62.8745C159.146 62.6339 159.01 62.3081 159.008 61.9678C159.01 61.6275 159.146 61.3017 159.386 61.0611C159.627 60.8205 159.953 60.6845 160.293 60.6826H174.837C175.178 60.6826 175.505 60.818 175.746 61.059C175.987 61.3001 176.122 61.627 176.122 61.9678C176.122 62.3087 175.987 62.6356 175.746 62.8766C175.505 63.1176 175.178 63.253 174.837 63.253Z" fill="black"/>
<path d="M203.933 63.253H189.389C189.048 63.253 188.721 63.1176 188.48 62.8766C188.239 62.6356 188.104 62.3087 188.104 61.9678C188.104 61.627 188.239 61.3001 188.48 61.059C188.721 60.818 189.048 60.6826 189.389 60.6826H203.933C204.273 60.6845 204.599 60.8205 204.84 61.0611C205.08 61.3017 205.216 61.6275 205.218 61.9678C205.216 62.3081 205.08 62.6339 204.84 62.8745C204.599 63.1151 204.273 63.2511 203.933 63.253Z" fill="black"/>
<path d="M233.028 63.2527H218.484C218.145 63.2508 217.819 63.1146 217.58 62.8738C217.34 62.633 217.206 62.3071 217.206 61.9675C217.208 61.6291 217.343 61.3051 217.582 61.0659C217.822 60.8266 218.146 60.6913 218.484 60.6895H233.035C233.376 60.6913 233.702 60.8273 233.942 61.0679C234.183 61.3086 234.319 61.6344 234.321 61.9747C234.317 62.3149 234.179 62.64 233.937 62.8793C233.695 63.1185 233.369 63.2527 233.028 63.2527Z" fill="black"/>
<path d="M262.116 63.253H247.572C247.232 63.2511 246.906 63.1151 246.666 62.8745C246.425 62.6339 246.289 62.3081 246.287 61.9678C246.289 61.6275 246.425 61.3017 246.666 61.0611C246.906 60.8205 247.232 60.6845 247.572 60.6826H262.116C262.457 60.6826 262.784 60.818 263.025 61.059C263.266 61.3001 263.402 61.627 263.402 61.9678C263.402 62.3087 263.266 62.6356 263.025 62.8766C262.784 63.1176 262.457 63.253 262.116 63.253Z" fill="black"/>
</g>
<path d="M156.68 118.874H165.212" stroke="#263238" strokeLinecap="round" strokeLinejoin="round"/>
<path d="M107.821 118.874H151.54" stroke="#263238" strokeLinecap="round" strokeLinejoin="round"/>
<path d="M74.0776 118.874H103.195" stroke="#263238" strokeLinecap="round" strokeLinejoin="round"/>
<path d="M129.42 124.179H165.213" stroke="#263238" strokeLinecap="round" strokeLinejoin="round"/>
<path d="M109.877 124.179H123.765" stroke="#263238" strokeLinecap="round" strokeLinejoin="round"/>
<path d="M74.0776 124.179H103.709" stroke="#263238" strokeLinecap="round" strokeLinejoin="round"/>
<path d="M93.4199 129.491H165.213" stroke="#263238" strokeLinecap="round" strokeLinejoin="round"/>
<path d="M74.0776 129.491H86.7369" stroke="#263238" strokeLinecap="round" strokeLinejoin="round"/>
<path d="M147.427 134.804H165.213" stroke="#263238" strokeLinecap="round" strokeLinejoin="round"/>
<path d="M113.476 134.804H141.251" stroke="#263238" strokeLinecap="round" strokeLinejoin="round"/>
<path d="M74.0776 134.804H107.821" stroke="#263238" strokeLinecap="round" strokeLinejoin="round"/>
<path d="M103.708 140.108H165.212" stroke="#263238" strokeLinecap="round" strokeLinejoin="round"/>
<path d="M74.0776 140.108H98.0538" stroke="#263238" strokeLinecap="round" strokeLinejoin="round"/>
<path d="M258.583 118.874H267.286" stroke="#263238" strokeLinecap="round" strokeLinejoin="round"/>
<path d="M208.738 118.874H253.335" stroke="#263238" strokeLinecap="round" strokeLinejoin="round"/>
<path d="M174.309 118.874H204.011" stroke="#263238" strokeLinecap="round" strokeLinejoin="round"/>
<path d="M230.772 124.179H267.286" stroke="#263238" strokeLinecap="round" strokeLinejoin="round"/>
<path d="M210.837 124.179H225.003" stroke="#263238" strokeLinecap="round" strokeLinejoin="round"/>
<path d="M174.309 124.179H204.54" stroke="#263238" strokeLinecap="round" strokeLinejoin="round"/>
<path d="M194.044 129.491H267.286" stroke="#263238" strokeLinecap="round" strokeLinejoin="round"/>
<path d="M174.309 129.491H187.225" stroke="#263238" strokeLinecap="round" strokeLinejoin="round"/>
<path d="M249.136 134.804H267.286" stroke="#263238" strokeLinecap="round" strokeLinejoin="round"/>
<path d="M214.507 134.804H242.839" stroke="#263238" strokeLinecap="round" strokeLinejoin="round"/>
<path d="M174.309 134.804H208.738" stroke="#263238" strokeLinecap="round" strokeLinejoin="round"/>
<path d="M204.54 140.108H267.286" stroke="#263238" strokeLinecap="round" strokeLinejoin="round"/>
<path d="M174.309 140.108H198.764" stroke="#263238" strokeLinecap="round" strokeLinejoin="round"/>
<path d="M156.68 145.192H165.212" stroke="#263238" strokeLinecap="round" strokeLinejoin="round"/>
<path d="M107.821 145.192H151.54" stroke="#263238" strokeLinecap="round" strokeLinejoin="round"/>
<path d="M74.0776 145.192H103.195" stroke="#263238" strokeLinecap="round" strokeLinejoin="round"/>
<path d="M129.42 150.504H165.213" stroke="#263238" strokeLinecap="round" strokeLinejoin="round"/>
<path d="M109.877 150.504H123.765" stroke="#263238" strokeLinecap="round" strokeLinejoin="round"/>
<path d="M74.0776 150.504H103.709" stroke="#263238" strokeLinecap="round" strokeLinejoin="round"/>
<path d="M93.4199 155.81H165.213" stroke="#263238" strokeLinecap="round" strokeLinejoin="round"/>
<path d="M74.0776 155.81H86.7369" stroke="#263238" strokeLinecap="round" strokeLinejoin="round"/>
<path d="M147.427 161.121H165.213" stroke="#263238" strokeLinecap="round" strokeLinejoin="round"/>
<path d="M113.476 161.121H141.251" stroke="#263238" strokeLinecap="round" strokeLinejoin="round"/>
<path d="M74.0776 161.121H107.821" stroke="#263238" strokeLinecap="round" strokeLinejoin="round"/>
<path d="M103.708 166.434H165.212" stroke="#263238" strokeLinecap="round" strokeLinejoin="round"/>
<path d="M74.0776 166.434H98.0538" stroke="#263238" strokeLinecap="round" strokeLinejoin="round"/>
<path d="M258.583 145.192H267.286" stroke="#263238" strokeLinecap="round" strokeLinejoin="round"/>
<path d="M208.738 145.192H253.335" stroke="#263238" strokeLinecap="round" strokeLinejoin="round"/>
<path d="M174.309 145.192H204.011" stroke="#263238" strokeLinecap="round" strokeLinejoin="round"/>
<path d="M230.772 150.504H267.286" stroke="#263238" strokeLinecap="round" strokeLinejoin="round"/>
<path d="M210.837 150.504H225.003" stroke="#263238" strokeLinecap="round" strokeLinejoin="round"/>
<path d="M174.309 150.504H204.54" stroke="#263238" strokeLinecap="round" strokeLinejoin="round"/>
<path d="M194.044 155.81H267.286" stroke="#263238" strokeLinecap="round" strokeLinejoin="round"/>
<path d="M174.309 155.81H187.225" stroke="#263238" strokeLinecap="round" strokeLinejoin="round"/>
<path d="M249.136 161.121H267.286" stroke="#263238" strokeLinecap="round" strokeLinejoin="round"/>
<path d="M214.507 161.121H242.839" stroke="#263238" strokeLinecap="round" strokeLinejoin="round"/>
<path d="M174.309 161.121H208.738" stroke="#263238" strokeLinecap="round" strokeLinejoin="round"/>
<path d="M204.54 166.434H267.286" stroke="#263238" strokeLinecap="round" strokeLinejoin="round"/>
<path d="M174.309 166.434H198.764" stroke="#263238" strokeLinecap="round" strokeLinejoin="round"/>
<path d="M267.286 113.526H73.6562V73.542H267.286V113.526Z" fill="#61A7C6"/>
<path opacity="0.7" d="M267.286 113.526H73.6562V73.542H267.286V113.526Z" fill="white"/>
<path d="M165.534 113.526H73.6562V73.542H157.944L165.534 79.4611V113.526Z" fill="#263238"/>
<path d="M157.944 73.5703V79.4894H165.534L157.944 73.5703Z" fill="white"/>
<path d="M146.763 85.1514H153.024" stroke="white" strokeLinecap="round" strokeLinejoin="round"/>
<path d="M110.92 85.1514H142.993" stroke="white" strokeLinecap="round" strokeLinejoin="round"/>
<path d="M86.1655 85.1514H107.528" stroke="white" strokeLinecap="round" strokeLinejoin="round"/>
<path d="M126.771 88.5723H153.025" stroke="white" strokeLinecap="round" strokeLinejoin="round"/>
<path d="M112.434 88.5723H122.622" stroke="white" strokeLinecap="round" strokeLinejoin="round"/>
<path d="M86.1655 88.5723H107.907" stroke="white" strokeLinecap="round" strokeLinejoin="round"/>
<path d="M100.36 91.9922H153.025" stroke="white" strokeLinecap="round" strokeLinejoin="round"/>
<path d="M86.1655 91.9922H95.4547" stroke="white" strokeLinecap="round" strokeLinejoin="round"/>
<path d="M139.973 95.4189H153.025" stroke="white" strokeLinecap="round" strokeLinejoin="round"/>
<path d="M115.076 95.4189H135.446" stroke="white" strokeLinecap="round" strokeLinejoin="round"/>
<path d="M86.1655 95.4189H110.92" stroke="white" strokeLinecap="round" strokeLinejoin="round"/>
<path d="M107.907 98.8389H153.025" stroke="white" strokeLinecap="round" strokeLinejoin="round"/>
<path d="M86.1655 98.8389H103.751" stroke="white" strokeLinecap="round" strokeLinejoin="round"/>
<path d="M172.488 189.503H130.662C130.187 189.503 129.731 189.314 129.395 188.978C129.059 188.642 128.87 188.186 128.87 187.711V174.073C128.87 173.598 129.059 173.142 129.395 172.806C129.731 172.47 130.187 172.281 130.662 172.281H172.496C172.971 172.281 173.427 172.47 173.763 172.806C174.099 173.142 174.288 173.598 174.288 174.073V187.711C174.286 188.187 174.095 188.643 173.758 188.978C173.421 189.314 172.964 189.503 172.488 189.503Z" fill="#61A7C6"/>
<path d="M142.9 181.834H140.458L140.116 182.748C140.086 182.858 140.02 182.954 139.93 183.023C139.84 183.091 139.729 183.128 139.616 183.127C139.481 183.126 139.351 183.075 139.252 182.984C139.2 182.943 139.158 182.891 139.129 182.832C139.101 182.772 139.087 182.707 139.087 182.641C139.089 182.572 139.103 182.505 139.13 182.441L140.808 178.243C140.872 178.021 140.998 177.823 141.172 177.672C141.322 177.572 141.499 177.522 141.679 177.529C141.857 177.522 142.032 177.572 142.179 177.672C142.358 177.82 142.488 178.019 142.55 178.243L144.228 182.441C144.253 182.505 144.265 182.573 144.264 182.641C144.266 182.707 144.253 182.772 144.226 182.831C144.199 182.891 144.158 182.943 144.107 182.984C144.005 183.076 143.873 183.127 143.736 183.127C143.631 183.126 143.529 183.093 143.443 183.034C143.346 182.964 143.276 182.863 143.243 182.748L142.9 181.834ZM141.679 178.571L140.737 181.092H142.622L141.679 178.571Z" fill="#263238"/>
<path d="M146.028 182.07C146.118 182.184 146.234 182.276 146.367 182.337C146.5 182.398 146.646 182.426 146.791 182.42C147.061 182.433 147.328 182.364 147.555 182.22C147.614 182.179 147.684 182.157 147.755 182.155C147.795 182.155 147.834 182.162 147.869 182.178C147.905 182.195 147.937 182.218 147.962 182.248C148.018 182.308 148.049 182.388 148.048 182.47C148.047 182.529 148.032 182.588 148.005 182.641C147.978 182.694 147.939 182.741 147.891 182.777C147.756 182.89 147.597 182.973 147.427 183.019C147.195 183.088 146.955 183.121 146.713 183.119C146.457 183.129 146.202 183.084 145.965 182.988C145.727 182.892 145.513 182.747 145.335 182.562C145.154 182.373 145.013 182.149 144.921 181.903C144.829 181.658 144.787 181.396 144.799 181.134C144.796 180.792 144.877 180.453 145.035 180.149C145.199 179.847 145.447 179.599 145.749 179.435C146.053 179.255 146.402 179.163 146.756 179.171C147.141 179.153 147.522 179.261 147.841 179.478C147.892 179.508 147.935 179.551 147.965 179.602C147.995 179.653 148.011 179.711 148.012 179.771C148.013 179.853 147.983 179.932 147.927 179.992C147.898 180.022 147.864 180.046 147.826 180.062C147.788 180.078 147.747 180.085 147.705 180.085C147.643 180.083 147.582 180.066 147.527 180.035C147.32 179.926 147.09 179.868 146.856 179.863C146.708 179.856 146.561 179.883 146.426 179.942C146.291 180.002 146.171 180.092 146.077 180.206C145.874 180.469 145.773 180.796 145.792 181.127C145.758 181.459 145.841 181.793 146.028 182.07Z" fill="#263238"/>
<path d="M149.776 182.071C149.867 182.185 149.983 182.277 150.116 182.338C150.249 182.398 150.394 182.427 150.54 182.42C150.811 182.433 151.08 182.364 151.311 182.22C151.367 182.18 151.435 182.158 151.504 182.156C151.543 182.155 151.582 182.162 151.618 182.179C151.654 182.195 151.686 182.219 151.711 182.249C151.767 182.309 151.797 182.388 151.797 182.47C151.797 182.53 151.782 182.589 151.755 182.643C151.728 182.696 151.688 182.742 151.64 182.777C151.505 182.892 151.346 182.975 151.175 183.02C150.944 183.089 150.703 183.123 150.461 183.12C150.206 183.129 149.951 183.085 149.713 182.989C149.476 182.893 149.261 182.748 149.083 182.563C148.902 182.374 148.761 182.15 148.669 181.904C148.577 181.659 148.536 181.397 148.548 181.135C148.543 180.791 148.627 180.452 148.791 180.15C148.947 179.854 149.181 179.607 149.469 179.436C149.774 179.256 150.122 179.165 150.476 179.172C150.863 179.155 151.246 179.262 151.568 179.479C151.619 179.509 151.662 179.552 151.692 179.603C151.722 179.654 151.738 179.712 151.74 179.771C151.738 179.854 151.704 179.933 151.647 179.993C151.619 180.023 151.585 180.048 151.546 180.064C151.508 180.08 151.467 180.087 151.425 180.086C151.363 180.082 151.302 180.065 151.247 180.036C151.04 179.926 150.81 179.868 150.576 179.864C150.428 179.856 150.281 179.883 150.146 179.943C150.011 180.002 149.891 180.093 149.797 180.207C149.601 180.473 149.502 180.798 149.519 181.128C149.491 181.463 149.582 181.796 149.776 182.071Z" fill="#263238"/>
<path d="M152.503 180.185C152.651 179.89 152.879 179.643 153.16 179.471C153.466 179.287 153.818 179.193 154.174 179.2C154.444 179.195 154.711 179.246 154.96 179.349C155.173 179.439 155.362 179.578 155.509 179.756C155.65 179.93 155.756 180.129 155.824 180.342C155.901 180.572 155.939 180.813 155.938 181.056C155.944 181.143 155.918 181.229 155.866 181.299C155.843 181.331 155.812 181.356 155.775 181.373C155.739 181.389 155.699 181.395 155.659 181.392H153.246C153.234 181.539 153.254 181.687 153.305 181.825C153.357 181.964 153.439 182.089 153.545 182.192C153.65 182.295 153.778 182.374 153.917 182.422C154.057 182.47 154.206 182.486 154.353 182.47C154.722 182.449 155.077 182.314 155.367 182.084C155.408 182.048 155.461 182.027 155.517 182.027C155.557 182.028 155.596 182.039 155.632 182.057C155.668 182.076 155.699 182.102 155.724 182.134C155.78 182.203 155.812 182.288 155.816 182.377C155.817 182.427 155.806 182.477 155.785 182.522C155.764 182.568 155.733 182.609 155.695 182.641C155.297 182.978 154.789 183.159 154.267 183.148C153.74 183.167 153.227 182.977 152.839 182.62C152.65 182.426 152.504 182.195 152.41 181.942C152.315 181.689 152.274 181.419 152.289 181.149C152.285 180.815 152.358 180.485 152.503 180.185ZM155.117 180.856C155.107 180.598 155.019 180.35 154.867 180.142C154.781 180.051 154.677 179.979 154.562 179.93C154.448 179.881 154.324 179.856 154.199 179.856C154.074 179.856 153.951 179.881 153.836 179.93C153.721 179.979 153.618 180.051 153.532 180.142C153.365 180.344 153.267 180.594 153.253 180.856H155.117Z" fill="#263238"/>
<path d="M156.823 184.412C156.776 184.361 156.74 184.302 156.717 184.237C156.693 184.172 156.683 184.103 156.687 184.034V179.814C156.682 179.667 156.733 179.524 156.83 179.414C156.873 179.366 156.926 179.328 156.985 179.302C157.044 179.276 157.108 179.263 157.173 179.264C157.298 179.26 157.421 179.303 157.516 179.386C157.56 179.433 157.595 179.489 157.617 179.551C157.639 179.612 157.648 179.677 157.644 179.743V179.878C157.77 179.659 157.956 179.481 158.18 179.363C158.404 179.246 158.656 179.194 158.908 179.214C159.226 179.206 159.538 179.299 159.8 179.478C160.054 179.658 160.252 179.906 160.372 180.192C160.505 180.514 160.57 180.859 160.564 181.206C160.593 181.724 160.428 182.233 160.1 182.634C159.943 182.808 159.75 182.944 159.534 183.034C159.318 183.124 159.085 183.166 158.851 183.156C158.613 183.172 158.375 183.124 158.162 183.016C157.95 182.908 157.771 182.744 157.644 182.542V184.041C157.649 184.11 157.64 184.179 157.617 184.245C157.593 184.31 157.556 184.369 157.508 184.419C157.463 184.465 157.408 184.501 157.348 184.525C157.288 184.548 157.223 184.558 157.159 184.555C157.096 184.557 157.033 184.545 156.975 184.52C156.917 184.496 156.865 184.459 156.823 184.412ZM159.029 182.42C159.137 182.377 159.233 182.308 159.308 182.22C159.383 182.133 159.443 182.034 159.486 181.927C159.53 181.814 159.564 181.697 159.586 181.578C159.621 181.341 159.621 181.1 159.586 180.864C159.569 180.744 159.538 180.626 159.493 180.514C159.452 180.401 159.395 180.295 159.322 180.2C159.247 180.105 159.152 180.03 159.044 179.978C158.926 179.919 158.796 179.89 158.665 179.893C158.517 179.878 158.367 179.902 158.23 179.96C158.092 180.019 157.972 180.111 157.88 180.228C157.708 180.529 157.629 180.875 157.651 181.221C157.646 181.441 157.678 181.66 157.744 181.87C157.808 182.056 157.925 182.22 158.08 182.342C158.243 182.466 158.445 182.529 158.651 182.52C158.783 182.514 158.912 182.48 159.029 182.42Z" fill="#263238"/>
<path d="M161.964 182.82C161.755 182.563 161.65 182.237 161.671 181.906V179.928H161.3C161.207 179.933 161.115 179.902 161.043 179.842C160.985 179.775 160.954 179.689 160.957 179.6C160.955 179.519 160.983 179.44 161.036 179.378C161.069 179.347 161.108 179.323 161.151 179.307C161.194 179.291 161.24 179.284 161.286 179.286H161.693L161.807 178.343C161.814 178.216 161.864 178.095 161.95 178C161.992 177.956 162.043 177.922 162.1 177.9C162.157 177.878 162.217 177.868 162.278 177.872C162.327 177.869 162.377 177.877 162.422 177.896C162.468 177.914 162.509 177.943 162.542 177.979C162.609 178.078 162.641 178.196 162.635 178.315V179.286H163.249C163.294 179.284 163.338 179.291 163.38 179.307C163.422 179.323 163.46 179.347 163.492 179.378C163.522 179.411 163.544 179.45 163.559 179.491C163.574 179.533 163.58 179.577 163.578 179.621C163.579 179.663 163.573 179.705 163.558 179.744C163.543 179.783 163.521 179.819 163.492 179.85C163.459 179.879 163.42 179.9 163.379 179.914C163.337 179.928 163.293 179.932 163.249 179.928H162.635V181.67C162.624 181.858 162.655 182.046 162.728 182.22C162.757 182.279 162.803 182.328 162.861 182.36C162.918 182.392 162.984 182.405 163.049 182.399H163.092H163.363C163.41 182.397 163.457 182.405 163.501 182.424C163.544 182.442 163.582 182.47 163.613 182.506C163.662 182.562 163.693 182.631 163.703 182.704C163.713 182.778 163.702 182.853 163.67 182.92C163.65 182.963 163.618 183 163.578 183.027L163.442 183.098C163.381 183.116 163.319 183.128 163.256 183.134H163.049H162.792C162.64 183.145 162.487 183.122 162.344 183.068C162.201 183.014 162.071 182.929 161.964 182.82Z" fill="#263238"/>
<path opacity="0.25" d="M117.532 189.503H75.6842C75.4489 189.503 75.2158 189.457 74.9984 189.367C74.781 189.276 74.5834 189.144 74.417 188.978C74.2506 188.812 74.1186 188.614 74.0285 188.397C73.9384 188.179 73.8921 187.946 73.8921 187.711V174.073C73.8921 173.838 73.9384 173.605 74.0285 173.388C74.1186 173.17 74.2506 172.973 74.417 172.806C74.5834 172.64 74.781 172.508 74.9984 172.418C75.2158 172.328 75.4489 172.281 75.6842 172.281H117.51C117.986 172.281 118.442 172.47 118.778 172.806C119.114 173.142 119.302 173.598 119.302 174.073V187.711C119.303 188.182 119.117 188.635 118.785 188.971C118.454 189.306 118.003 189.497 117.532 189.503Z" fill="black"/>
<path d="M78.2833 182.97C78.2338 182.927 78.1947 182.873 78.1688 182.812C78.1428 182.752 78.1307 182.686 78.1333 182.62V178.251C78.1285 178.162 78.1412 178.074 78.1706 177.991C78.2 177.908 78.2456 177.831 78.3047 177.765C78.3548 177.707 78.4174 177.661 78.4879 177.63C78.5583 177.599 78.6348 177.584 78.7117 177.587C78.838 177.59 78.9612 177.627 79.0687 177.694C79.1945 177.757 79.3007 177.853 79.3757 177.972L81.889 181.457V178.072C81.8864 178.006 81.8985 177.941 81.9244 177.88C81.9503 177.82 81.9895 177.766 82.0389 177.722C82.1347 177.63 82.2627 177.578 82.3959 177.578C82.5291 177.578 82.6571 177.63 82.7529 177.722C82.8025 177.767 82.8416 177.822 82.8675 177.884C82.8935 177.946 82.9055 178.012 82.9028 178.079V182.363C82.9108 182.555 82.8528 182.744 82.7386 182.899C82.6912 182.966 82.6278 183.02 82.5542 183.056C82.4807 183.092 82.3993 183.109 82.3174 183.106C82.1924 183.101 82.0712 183.062 81.9675 182.992C81.8428 182.915 81.7337 182.816 81.6462 182.699L79.1472 179.236V182.627C79.1502 182.693 79.139 182.758 79.1143 182.818C79.0897 182.879 79.0522 182.933 79.0044 182.977C78.9073 183.061 78.7829 183.107 78.6545 183.106C78.5868 183.109 78.5191 183.098 78.4553 183.075C78.3916 183.052 78.3331 183.016 78.2833 182.97Z" fill="white"/>
<path d="M84.9163 182.984C84.6746 182.889 84.4592 182.737 84.288 182.542C84.1322 182.355 84.0112 182.142 83.931 181.913C83.8518 181.683 83.8108 181.442 83.8096 181.199C83.8106 180.999 83.837 180.8 83.8881 180.607C83.9397 180.417 84.0191 180.237 84.1237 180.071C84.2288 179.907 84.3589 179.76 84.5093 179.636C84.6784 179.499 84.8724 179.398 85.0805 179.336C85.3117 179.264 85.5524 179.228 85.7945 179.229C86.0366 179.227 86.2776 179.263 86.5085 179.336C86.7129 179.394 86.9043 179.491 87.0726 179.621C87.229 179.741 87.3642 179.885 87.4724 180.05C87.5806 180.217 87.6625 180.4 87.7152 180.592C87.7672 180.79 87.7936 180.994 87.7937 181.199C87.7931 181.397 87.7667 181.594 87.7152 181.785C87.6706 181.973 87.5932 182.152 87.4867 182.313C87.3813 182.481 87.2486 182.631 87.094 182.756C86.9253 182.887 86.7342 182.986 86.5299 183.048C86.2996 183.125 86.0585 183.163 85.8159 183.163C85.5073 183.162 85.2017 183.102 84.9163 182.984ZM86.587 182.149C86.7883 181.869 86.8867 181.529 86.8655 181.185C86.8855 180.839 86.7873 180.497 86.587 180.214C86.4947 180.099 86.3769 180.008 86.243 179.947C86.1091 179.887 85.9628 179.858 85.8159 179.864C85.6688 179.857 85.5222 179.885 85.3881 179.946C85.254 180.007 85.1364 180.099 85.0448 180.214C84.846 180.497 84.7503 180.84 84.7735 181.185C84.7502 181.528 84.846 181.868 85.0448 182.149C85.1419 182.257 85.2608 182.344 85.3936 182.403C85.5265 182.463 85.6704 182.493 85.8159 182.493C85.9614 182.493 86.1053 182.463 86.2382 182.403C86.3711 182.344 86.4899 182.257 86.587 182.149Z" fill="white"/>
<path d="M94.3483 181.834H91.9136L91.5637 182.748C91.5308 182.863 91.4604 182.964 91.3638 183.034C91.2775 183.093 91.1757 183.126 91.071 183.127C90.9338 183.127 90.8014 183.076 90.6998 182.984C90.6488 182.943 90.608 182.891 90.5807 182.831C90.5535 182.772 90.5404 182.707 90.5427 182.641C90.5333 182.575 90.5333 182.508 90.5427 182.441L92.2206 178.243C92.2834 178.019 92.4129 177.82 92.5919 177.672C92.7388 177.572 92.9141 177.522 93.0917 177.529C93.2715 177.522 93.449 177.572 93.5986 177.672C93.7749 177.821 93.9019 178.02 93.9627 178.243L95.6478 182.441C95.6691 182.506 95.6812 182.573 95.6835 182.641C95.6843 182.707 95.6699 182.772 95.6415 182.832C95.613 182.891 95.5712 182.943 95.5193 182.984C95.4198 183.075 95.29 183.126 95.1551 183.127C95.0485 183.124 94.9446 183.092 94.8552 183.034C94.7627 182.96 94.6933 182.861 94.6553 182.748L94.3483 181.834ZM93.1274 178.571L92.1849 181.092H94.077L93.1274 178.571Z" fill="white"/>
<path d="M97.4827 182.07C97.572 182.186 97.6882 182.279 97.8214 182.34C97.9545 182.401 98.1005 182.428 98.2467 182.42C98.5157 182.432 98.782 182.362 99.0107 182.22C99.067 182.179 99.1342 182.157 99.2035 182.156C99.2428 182.154 99.2819 182.162 99.3178 182.178C99.3537 182.194 99.3854 182.218 99.4105 182.248C99.4663 182.309 99.4969 182.388 99.4962 182.47C99.4965 182.529 99.4831 182.588 99.4571 182.641C99.4311 182.694 99.3932 182.741 99.3463 182.777C99.209 182.891 99.0481 182.974 98.875 183.02C98.6435 183.089 98.4027 183.123 98.161 183.12C97.9041 183.129 97.6481 183.084 97.4095 182.988C97.1709 182.892 96.9551 182.747 96.7759 182.563C96.5945 182.373 96.4535 182.149 96.3615 181.904C96.2694 181.658 96.2282 181.397 96.2404 181.135C96.2358 180.791 96.3194 180.452 96.4831 180.149C96.639 179.853 96.8738 179.606 97.1614 179.435C97.4664 179.257 97.8147 179.165 98.1682 179.171C98.556 179.152 98.9395 179.26 99.2606 179.478C99.3116 179.508 99.3541 179.551 99.3841 179.602C99.4141 179.654 99.4305 179.712 99.4319 179.771C99.4325 179.812 99.4246 179.853 99.4086 179.891C99.3927 179.929 99.369 179.964 99.3391 179.992C99.3126 180.023 99.2796 180.047 99.2425 180.063C99.2055 180.079 99.1653 180.086 99.1249 180.085C99.0602 180.082 98.9968 180.065 98.9393 180.035C98.7322 179.926 98.5022 179.867 98.2681 179.864C98.1207 179.856 97.9736 179.884 97.8385 179.943C97.7034 180.003 97.584 180.093 97.4899 180.206C97.2933 180.472 97.1949 180.797 97.2114 181.127C97.1877 181.464 97.2838 181.798 97.4827 182.07Z" fill="white"/>
<path d="M101.231 182.07C101.321 182.185 101.438 182.277 101.571 182.338C101.703 182.399 101.849 182.427 101.995 182.42C102.264 182.433 102.531 182.364 102.759 182.22C102.818 182.178 102.887 182.156 102.959 182.155C102.998 182.155 103.037 182.162 103.073 182.178C103.109 182.195 103.141 182.218 103.166 182.248C103.222 182.308 103.252 182.388 103.252 182.47C103.251 182.529 103.236 182.588 103.209 182.641C103.181 182.694 103.142 182.741 103.095 182.777C102.959 182.89 102.801 182.973 102.631 183.019C102.399 183.088 102.158 183.121 101.917 183.119C101.661 183.129 101.406 183.084 101.168 182.988C100.931 182.892 100.716 182.747 100.539 182.562C100.357 182.373 100.216 182.149 100.124 181.903C100.032 181.658 99.9909 181.396 100.003 181.134C99.9997 180.792 100.081 180.453 100.239 180.149C100.403 179.847 100.651 179.599 100.953 179.435C101.257 179.255 101.606 179.163 101.959 179.171C102.345 179.153 102.726 179.261 103.045 179.478C103.096 179.508 103.138 179.551 103.168 179.602C103.198 179.653 103.215 179.711 103.216 179.771C103.217 179.853 103.186 179.932 103.13 179.992C103.102 180.022 103.067 180.046 103.029 180.062C102.991 180.078 102.95 180.085 102.909 180.085C102.846 180.083 102.785 180.066 102.731 180.035C102.521 179.926 102.289 179.867 102.052 179.863C101.906 179.856 101.76 179.883 101.626 179.943C101.492 180.002 101.374 180.093 101.281 180.206C101.078 180.469 100.977 180.796 100.996 181.127C100.961 181.459 101.045 181.793 101.231 182.07Z" fill="white"/>
<path d="M103.959 180.185C104.104 179.889 104.332 179.641 104.616 179.471C104.921 179.286 105.273 179.192 105.629 179.2C105.899 179.195 106.166 179.246 106.415 179.35C106.628 179.439 106.817 179.578 106.965 179.757C107.102 179.932 107.209 180.13 107.279 180.342C107.353 180.573 107.389 180.814 107.386 181.056C107.391 181.142 107.368 181.227 107.322 181.299C107.297 181.33 107.266 181.355 107.23 181.371C107.193 181.387 107.154 181.394 107.115 181.392H104.694C104.682 181.539 104.702 181.687 104.753 181.825C104.805 181.964 104.887 182.089 104.993 182.192C105.098 182.295 105.226 182.374 105.366 182.422C105.505 182.47 105.654 182.486 105.801 182.47C106.171 182.451 106.526 182.316 106.815 182.084C106.841 182.062 106.871 182.046 106.904 182.037C106.936 182.028 106.971 182.025 107.004 182.03C107.038 182.035 107.07 182.046 107.099 182.064C107.128 182.082 107.153 182.106 107.172 182.134C107.231 182.201 107.264 182.287 107.264 182.377C107.266 182.427 107.256 182.478 107.235 182.524C107.214 182.569 107.183 182.61 107.143 182.641C106.745 182.978 106.237 183.159 105.715 183.148C105.188 183.166 104.676 182.976 104.287 182.62C104.099 182.426 103.954 182.195 103.861 181.941C103.767 181.688 103.728 181.418 103.744 181.149C103.737 180.815 103.811 180.484 103.959 180.185ZM106.572 180.856C106.56 180.598 106.47 180.349 106.315 180.142C106.234 180.047 106.131 179.972 106.016 179.924C105.901 179.876 105.776 179.855 105.651 179.864C105.524 179.857 105.397 179.879 105.28 179.93C105.164 179.981 105.061 180.059 104.98 180.156C104.818 180.361 104.723 180.61 104.708 180.87L106.572 180.856Z" fill="white"/>
<path d="M108.271 184.412C108.179 184.308 108.131 184.172 108.136 184.033V179.814C108.13 179.667 108.181 179.524 108.278 179.414C108.323 179.366 108.378 179.328 108.438 179.303C108.498 179.277 108.563 179.264 108.628 179.264C108.754 179.259 108.876 179.303 108.971 179.385C109.016 179.433 109.05 179.489 109.072 179.551C109.094 179.612 109.104 179.677 109.1 179.742V179.878C109.224 179.658 109.41 179.478 109.634 179.361C109.858 179.243 110.111 179.192 110.363 179.214C110.679 179.206 110.989 179.299 111.249 179.478C111.504 179.658 111.704 179.905 111.827 180.192C111.96 180.513 112.026 180.858 112.02 181.206C112.05 181.725 111.882 182.235 111.549 182.634C111.393 182.808 111.201 182.945 110.986 183.035C110.771 183.126 110.539 183.166 110.306 183.155C110.068 183.173 109.83 183.125 109.617 183.017C109.404 182.908 109.225 182.744 109.1 182.541V184.041C109.105 184.11 109.095 184.179 109.072 184.244C109.049 184.31 109.012 184.369 108.964 184.419C108.918 184.464 108.863 184.5 108.803 184.523C108.743 184.547 108.679 184.557 108.614 184.555C108.55 184.556 108.487 184.544 108.428 184.519C108.369 184.495 108.316 184.458 108.271 184.412ZM110.485 182.42C110.59 182.376 110.683 182.307 110.756 182.22C110.833 182.134 110.894 182.035 110.935 181.927C110.985 181.816 111.019 181.698 111.034 181.577C111.058 181.453 111.07 181.326 111.07 181.199C111.077 181.078 111.077 180.956 111.07 180.835C111.053 180.715 111.022 180.598 110.977 180.485C110.934 180.372 110.874 180.266 110.799 180.171C110.727 180.077 110.634 180.001 110.528 179.949C110.408 179.891 110.275 179.862 110.142 179.864C109.995 179.85 109.846 179.874 109.71 179.932C109.574 179.991 109.455 180.083 109.364 180.199C109.186 180.499 109.104 180.845 109.128 181.192C109.125 181.412 109.159 181.632 109.228 181.842C109.29 182.027 109.404 182.191 109.557 182.313C109.723 182.436 109.927 182.499 110.135 182.491C110.255 182.49 110.374 182.466 110.485 182.42Z" fill="white"/>
<path d="M113.412 182.82C113.203 182.563 113.098 182.237 113.119 181.906V179.928H112.748C112.703 179.931 112.657 179.925 112.614 179.91C112.571 179.896 112.532 179.873 112.498 179.843C112.467 179.811 112.442 179.773 112.426 179.731C112.41 179.689 112.403 179.644 112.405 179.6C112.403 179.559 112.41 179.518 112.425 179.48C112.439 179.442 112.462 179.407 112.491 179.378C112.524 179.347 112.563 179.322 112.606 179.306C112.649 179.29 112.695 179.283 112.741 179.286H113.141L113.255 178.343C113.265 178.217 113.315 178.097 113.398 178C113.441 177.956 113.494 177.922 113.552 177.9C113.609 177.878 113.671 177.868 113.733 177.872C113.781 177.87 113.829 177.878 113.874 177.897C113.918 177.915 113.958 177.943 113.99 177.979C114.06 178.076 114.093 178.195 114.083 178.315V179.286H114.704C114.749 179.284 114.793 179.291 114.835 179.307C114.877 179.323 114.915 179.347 114.947 179.378C114.977 179.411 114.999 179.45 115.014 179.491C115.029 179.533 115.035 179.577 115.033 179.621C115.034 179.663 115.028 179.705 115.013 179.744C114.998 179.783 114.976 179.819 114.947 179.85C114.877 179.908 114.788 179.936 114.697 179.928H114.083V181.67C114.075 181.858 114.107 182.045 114.176 182.22C114.207 182.279 114.255 182.328 114.313 182.359C114.371 182.391 114.438 182.405 114.504 182.399H114.547H114.819C114.866 182.396 114.913 182.404 114.956 182.423C114.999 182.442 115.038 182.47 115.068 182.506C115.13 182.574 115.163 182.664 115.161 182.756C115.173 182.81 115.173 182.866 115.161 182.92C115.138 182.964 115.103 183.001 115.061 183.027L114.926 183.098C114.865 183.117 114.803 183.129 114.74 183.134H114.54H114.24C114.088 183.143 113.935 183.12 113.792 183.066C113.65 183.012 113.52 182.928 113.412 182.82Z" fill="white"/>
<path d="M182.906 96.7185C182.276 96.3936 181.764 95.8791 181.442 95.2477C181.075 94.5102 180.896 93.6935 180.921 92.8701C180.913 92.2952 181.003 91.7231 181.185 91.1779C181.353 90.6713 181.62 90.2029 181.97 89.7999C182.337 89.3862 182.797 89.0656 183.313 88.8645C183.912 88.6268 184.553 88.5103 185.198 88.5218C186.051 88.5036 186.898 88.6768 187.675 89.0288C187.788 89.0844 187.882 89.1711 187.947 89.2787C188.005 89.3732 188.037 89.4817 188.039 89.5928C188.04 89.7596 187.982 89.9213 187.875 90.0498C187.827 90.1147 187.765 90.1673 187.693 90.2033C187.621 90.2393 187.541 90.2577 187.461 90.2568C187.394 90.2578 187.328 90.2431 187.268 90.214C186.619 89.9918 185.94 89.8667 185.255 89.8427C184.849 89.834 184.446 89.9068 184.069 90.0569C183.747 90.1868 183.466 90.4014 183.256 90.6781C183.048 90.9641 182.896 91.2861 182.806 91.6277C182.706 92.0318 182.658 92.4468 182.663 92.8629C182.663 94.8764 183.513 95.8831 185.198 95.8831C185.703 95.8828 186.206 95.8229 186.697 95.7046V93.7411H185.49C185.415 93.7441 185.339 93.731 185.269 93.7026C185.199 93.6743 185.136 93.6315 185.083 93.5769C184.983 93.46 184.929 93.3098 184.933 93.1557C184.933 93.0076 184.983 92.8638 185.076 92.7487C185.122 92.6885 185.182 92.6402 185.25 92.6079C185.318 92.5756 185.393 92.5602 185.469 92.5631H187.697C188.118 92.5631 188.325 92.8201 188.325 93.3413V95.7546C188.347 96.0239 188.284 96.2934 188.146 96.5258C187.986 96.7054 187.77 96.8261 187.532 96.8685C186.742 97.0632 185.933 97.1756 185.119 97.2041C184.353 97.2258 183.593 97.0591 182.906 96.7185Z" fill="#263238"/>
<path d="M189.717 92.6702C189.937 92.2301 190.279 91.863 190.703 91.6135C191.162 91.3405 191.689 91.202 192.223 91.2137C192.63 91.2044 193.033 91.2798 193.409 91.435C193.733 91.5646 194.019 91.7762 194.237 92.049C194.446 92.3105 194.606 92.6082 194.708 92.9272C194.818 93.2689 194.876 93.6251 194.879 93.984C194.886 94.1139 194.848 94.2422 194.772 94.3481C194.737 94.3946 194.69 94.4315 194.636 94.4552C194.583 94.4789 194.524 94.4887 194.465 94.4838H190.824C190.806 94.7049 190.837 94.9274 190.915 95.1352C190.992 95.343 191.115 95.531 191.274 95.6858C191.433 95.8407 191.624 95.9585 191.834 96.0309C192.044 96.1033 192.267 96.1284 192.488 96.1046C193.045 96.0757 193.579 95.8735 194.016 95.5262C194.079 95.4772 194.157 95.4497 194.237 95.4477C194.299 95.4482 194.36 95.4626 194.415 95.4897C194.471 95.5169 194.52 95.5562 194.558 95.6047C194.647 95.7049 194.696 95.8348 194.694 95.9689C194.694 96.044 194.677 96.1182 194.645 96.1861C194.613 96.2541 194.566 96.314 194.508 96.3616C193.911 96.8689 193.149 97.1406 192.366 97.1256C191.968 97.1443 191.569 97.0839 191.194 96.9479C190.819 96.8118 190.475 96.6029 190.181 96.333C189.898 96.0413 189.679 95.6938 189.538 95.3128C189.396 94.9317 189.336 94.5254 189.36 94.1196C189.362 93.6149 189.484 93.1179 189.717 92.6702ZM193.644 93.6769C193.632 93.2828 193.5 92.9018 193.266 92.5845C193.137 92.4477 192.982 92.3387 192.809 92.2642C192.636 92.1897 192.451 92.1513 192.263 92.1513C192.075 92.1513 191.889 92.1897 191.716 92.2642C191.544 92.3387 191.388 92.4477 191.259 92.5845C191.008 92.8871 190.86 93.2626 190.838 93.6555L193.644 93.6769Z" fill="#263238"/>
<path d="M196.208 96.8472C196.137 96.7676 196.084 96.6748 196.049 96.5744C196.015 96.4739 196.001 96.3677 196.008 96.2617V92.0134C196 91.9144 196.015 91.815 196.051 91.7224C196.087 91.6298 196.143 91.5463 196.215 91.4779C196.284 91.4126 196.366 91.3618 196.456 91.3287C196.545 91.2956 196.641 91.2808 196.736 91.2851C196.83 91.2808 196.923 91.295 197.011 91.3268C197.1 91.3587 197.181 91.4076 197.25 91.4708C197.318 91.5406 197.37 91.6235 197.404 91.7143C197.439 91.8052 197.454 91.9021 197.45 91.9991V92.1991C197.612 91.8955 197.86 91.647 198.164 91.4851C198.524 91.3109 198.921 91.2252 199.321 91.2352C199.586 91.2317 199.85 91.2777 200.099 91.3708C200.34 91.4612 200.562 91.5942 200.756 91.7635C200.96 91.963 201.114 92.2076 201.206 92.4775C201.324 92.7897 201.383 93.1217 201.377 93.4557V96.3117C201.388 96.5265 201.314 96.7371 201.17 96.8972C201.1 96.9669 201.016 97.0213 200.924 97.0569C200.832 97.0925 200.733 97.1087 200.634 97.1042C200.541 97.1081 200.448 97.0916 200.362 97.0559C200.275 97.0201 200.198 96.966 200.135 96.8972C199.991 96.7371 199.916 96.5265 199.928 96.3117V93.4557C199.94 93.2917 199.919 93.1268 199.867 92.971C199.814 92.8151 199.73 92.6716 199.62 92.5489C199.519 92.4442 199.397 92.3621 199.261 92.308C199.126 92.2538 198.981 92.2289 198.835 92.2347C198.647 92.2344 198.461 92.2743 198.29 92.3519C198.119 92.4295 197.966 92.543 197.843 92.6846C197.555 93.0108 197.404 93.4353 197.421 93.8698V96.3046C197.432 96.5194 197.358 96.7299 197.214 96.89C197.075 97.0232 196.889 97.0974 196.697 97.0974C196.504 97.0974 196.318 97.0232 196.179 96.89L196.208 96.8472Z" fill="#263238"/>
<path d="M202.905 92.6701C203.129 92.2311 203.473 91.8647 203.897 91.6134C204.357 91.3404 204.884 91.2019 205.418 91.2136C205.824 91.2049 206.228 91.2803 206.603 91.4349C206.927 91.5665 207.212 91.7777 207.432 92.0489C207.641 92.3104 207.801 92.6081 207.903 92.9272C208.013 93.2688 208.071 93.625 208.074 93.9839C208.081 94.1139 208.043 94.2422 207.967 94.348C207.931 94.3941 207.884 94.4305 207.831 94.4542C207.777 94.4778 207.719 94.488 207.66 94.4837H204.019C203.999 94.7051 204.029 94.9281 204.107 95.1366C204.184 95.345 204.307 95.5336 204.466 95.6887C204.625 95.8438 204.817 95.9616 205.027 96.0335C205.238 96.1054 205.461 96.1297 205.682 96.1045C206.239 96.0756 206.774 95.8734 207.21 95.5261C207.273 95.4762 207.351 95.4486 207.432 95.4476C207.493 95.447 207.553 95.461 207.608 95.4883C207.662 95.5156 207.71 95.5555 207.746 95.6047C207.837 95.7041 207.888 95.8339 207.889 95.9688C207.889 96.0439 207.872 96.1181 207.84 96.1861C207.808 96.254 207.761 96.3139 207.703 96.3615C207.106 96.8688 206.344 97.1405 205.561 97.1255C205.162 97.1454 204.764 97.0856 204.389 96.9495C204.013 96.8134 203.669 96.6038 203.376 96.3329C203.093 96.0412 202.874 95.6938 202.733 95.3127C202.591 94.9316 202.531 94.5253 202.555 94.1196C202.554 93.6154 202.674 93.1184 202.905 92.6701ZM206.839 93.6769C206.827 93.2828 206.695 92.9017 206.461 92.5844C206.331 92.4484 206.174 92.3401 206.001 92.2661C205.828 92.1921 205.642 92.1539 205.454 92.1539C205.266 92.1539 205.079 92.1921 204.906 92.2661C204.733 92.3401 204.577 92.4484 204.447 92.5844C204.201 92.8895 204.056 93.264 204.033 93.6554L206.839 93.6769Z" fill="#263238"/>
<path d="M209.409 96.8545C209.337 96.7759 209.282 96.6835 209.246 96.5829C209.21 96.4823 209.196 96.3756 209.202 96.2691V91.9851C209.196 91.8891 209.213 91.793 209.252 91.7049C209.29 91.6168 209.349 91.539 209.424 91.4781C209.567 91.3555 209.749 91.2895 209.938 91.2925C210.123 91.288 210.303 91.3515 210.445 91.471C210.516 91.5278 210.571 91.6011 210.608 91.6845C210.644 91.7678 210.659 91.8588 210.652 91.9494V92.542C210.755 92.1936 210.962 91.8848 211.244 91.6566C211.51 91.4152 211.856 91.2827 212.215 91.2853C212.293 91.2799 212.37 91.2934 212.441 91.3245C212.512 91.3556 212.574 91.4034 212.622 91.4638C212.724 91.583 212.777 91.7357 212.772 91.8922C212.774 92.0459 212.727 92.1962 212.637 92.3206C212.597 92.3781 212.543 92.4245 212.481 92.4557C212.419 92.4869 212.349 92.5019 212.28 92.4991C212.078 92.4977 211.877 92.5168 211.68 92.5563C211.502 92.5927 211.33 92.6578 211.173 92.749C211.009 92.8481 210.879 92.9952 210.802 93.1703C210.703 93.3951 210.657 93.6391 210.666 93.8843V96.3119C210.673 96.4157 210.659 96.5199 210.625 96.6181C210.591 96.7164 210.536 96.8065 210.466 96.8831C210.396 96.9506 210.313 97.0032 210.222 97.0375C210.132 97.0719 210.035 97.0874 209.938 97.083C209.839 97.0837 209.74 97.0637 209.649 97.0244C209.558 96.9851 209.477 96.9272 209.409 96.8545Z" fill="#263238"/>
<path d="M213.865 96.683C213.68 96.5429 213.531 96.3598 213.433 96.1495C213.335 95.9393 213.289 95.7082 213.3 95.4764C213.296 95.2718 213.32 95.0675 213.372 94.8695C213.412 94.7091 213.48 94.5569 213.572 94.4197C213.669 94.2839 213.796 94.1716 213.943 94.0912C214.102 94.0041 214.27 93.9324 214.443 93.877C214.662 93.8111 214.886 93.768 215.114 93.7485C215.378 93.7485 215.657 93.6985 215.928 93.6914C216.199 93.6842 216.542 93.6914 216.935 93.6914V93.2487C216.948 93.1061 216.932 92.9623 216.888 92.826C216.843 92.6898 216.772 92.564 216.678 92.4562C216.573 92.3657 216.452 92.297 216.321 92.254C216.19 92.2111 216.051 92.1949 215.914 92.2063H215.692H215.464L215.264 92.242C215.193 92.2508 215.124 92.2676 215.057 92.2919L214.871 92.3419L214.686 92.399L214.529 92.4562L214.379 92.5133L214.25 92.5633C214.196 92.576 214.14 92.576 214.086 92.5633C214.021 92.5625 213.958 92.5474 213.9 92.519C213.842 92.4906 213.791 92.4496 213.75 92.399C213.656 92.2931 213.605 92.1554 213.608 92.0135C213.604 91.9293 213.625 91.846 213.67 91.7745C213.715 91.7031 213.78 91.647 213.857 91.6136C214.529 91.3048 215.261 91.151 215.999 91.1638C216.32 91.1578 216.64 91.1987 216.949 91.2852C217.209 91.3604 217.452 91.4866 217.663 91.6565C217.893 91.8431 218.066 92.0905 218.163 92.3705C218.29 92.6955 218.351 93.0427 218.341 93.3915V96.3118C218.347 96.41 218.332 96.5082 218.297 96.6004C218.263 96.6925 218.21 96.7766 218.141 96.8473C218.009 96.968 217.835 97.0342 217.656 97.0329C217.567 97.0362 217.478 97.0215 217.394 96.9896C217.311 96.9577 217.235 96.9093 217.17 96.8473C217.101 96.7772 217.046 96.6934 217.011 96.6013C216.975 96.5091 216.959 96.4105 216.963 96.3118V96.119C216.841 96.4103 216.634 96.6588 216.371 96.833C216.045 97.0254 215.671 97.1196 215.293 97.1043C214.783 97.1301 214.279 96.9815 213.865 96.683ZM216.485 95.762C216.632 95.6096 216.746 95.4294 216.822 95.232C216.899 95.0345 216.934 94.8239 216.928 94.6124V94.4482C216.542 94.4482 216.214 94.4482 216.014 94.4482C215.814 94.4482 215.578 94.4482 215.378 94.5125C215.218 94.5309 215.065 94.5845 214.928 94.6696C214.832 94.7422 214.756 94.838 214.707 94.948C214.645 95.0846 214.616 95.2337 214.621 95.3836C214.614 95.4958 214.631 95.6085 214.671 95.7134C214.712 95.8183 214.775 95.9129 214.857 95.9905C215.029 96.1389 215.251 96.2156 215.478 96.2047C215.667 96.2044 215.855 96.1649 216.028 96.0887C216.201 96.0125 216.357 95.9013 216.485 95.762Z" fill="#263238"/>
<path d="M220.091 96.8474C219.953 96.6817 219.884 96.4697 219.898 96.2547V89.5717C219.884 89.3556 219.956 89.1429 220.098 88.9791C220.165 88.9108 220.245 88.8566 220.333 88.8198C220.421 88.783 220.516 88.7643 220.612 88.7649C220.71 88.7624 220.807 88.7801 220.898 88.817C220.989 88.8538 221.071 88.909 221.14 88.9791C221.284 89.1418 221.359 89.3546 221.347 89.5717V96.2547C221.353 96.3628 221.337 96.471 221.3 96.5728C221.263 96.6746 221.207 96.768 221.133 96.8474C221.064 96.9162 220.981 96.97 220.89 97.0056C220.799 97.0413 220.702 97.0578 220.605 97.0544C220.509 97.0585 220.414 97.0421 220.325 97.0064C220.237 96.9707 220.157 96.9165 220.091 96.8474Z" fill="#263238"/>
<path d="M228.295 96.8256C228.211 96.7441 228.146 96.6461 228.103 96.5379C228.06 96.4297 228.04 96.3137 228.045 96.1973V90.064H226.174C226.086 90.0679 225.999 90.0527 225.917 90.0195C225.836 89.9862 225.763 89.9356 225.703 89.8713C225.59 89.7462 225.528 89.5828 225.531 89.4143C225.533 89.2432 225.597 89.0785 225.71 88.9502C225.768 88.886 225.84 88.8355 225.92 88.8022C226.001 88.7689 226.087 88.7536 226.174 88.7574H231.572C231.657 88.7551 231.742 88.7711 231.821 88.8044C231.9 88.8376 231.971 88.8873 232.029 88.9502C232.139 89.0795 232.2 89.2441 232.2 89.4143C232.202 89.5827 232.141 89.7458 232.029 89.8713C231.971 89.9349 231.901 89.9851 231.822 90.0184C231.743 90.0517 231.657 90.0673 231.572 90.064H229.701V96.1973C229.706 96.3137 229.686 96.4297 229.643 96.5379C229.6 96.6461 229.534 96.7441 229.451 96.8256C229.376 96.9017 229.285 96.9617 229.186 97.0022C229.087 97.0427 228.98 97.0628 228.873 97.0612C228.765 97.0636 228.659 97.0439 228.559 97.0034C228.46 96.9628 228.37 96.9024 228.295 96.8256Z" fill="#263238"/>
<path d="M233.121 92.6702C233.345 92.2333 233.686 91.8673 234.107 91.6135C234.566 91.3405 235.093 91.202 235.627 91.2137C236.034 91.2044 236.437 91.2798 236.813 91.435C237.137 91.5646 237.423 91.7762 237.641 92.049C237.85 92.3119 238.012 92.6091 238.119 92.9272C238.227 93.2692 238.282 93.6255 238.284 93.984C238.29 94.1139 238.252 94.2422 238.176 94.3481C238.141 94.3946 238.094 94.4315 238.04 94.4552C237.987 94.4789 237.928 94.4887 237.869 94.4838H234.235C234.216 94.7052 234.246 94.9282 234.323 95.1366C234.401 95.3451 234.523 95.5337 234.683 95.6888C234.842 95.8439 235.033 95.9617 235.244 96.0336C235.454 96.1055 235.678 96.1298 235.899 96.1046C236.453 96.0742 236.985 95.8721 237.42 95.5262C237.483 95.4772 237.561 95.4497 237.641 95.4477C237.703 95.4482 237.764 95.4626 237.819 95.4897C237.875 95.5169 237.924 95.5562 237.962 95.6047C238.051 95.7049 238.1 95.8348 238.098 95.9689C238.1 96.0443 238.084 96.119 238.051 96.1872C238.019 96.2553 237.972 96.315 237.912 96.3616C237.315 96.8689 236.554 97.1406 235.77 97.1256C235.372 97.1443 234.974 97.0839 234.599 96.9479C234.224 96.8118 233.879 96.6029 233.585 96.333C233.304 96.0403 233.086 95.6927 232.944 95.3119C232.803 94.931 232.742 94.5252 232.764 94.1196C232.766 93.6149 232.888 93.1179 233.121 92.6702ZM237.048 93.6769C237.036 93.2828 236.904 92.9018 236.67 92.5845C236.541 92.4477 236.386 92.3387 236.213 92.2642C236.041 92.1897 235.855 92.1513 235.667 92.1513C235.479 92.1513 235.293 92.1897 235.12 92.2642C234.948 92.3387 234.792 92.4477 234.664 92.5845C234.415 92.8889 234.268 93.2633 234.242 93.6555L237.048 93.6769Z" fill="#263238"/>
<path d="M239.619 96.8539C239.547 96.775 239.493 96.6824 239.459 96.5817C239.424 96.4811 239.411 96.3745 239.419 96.2685V91.9845C239.413 91.8892 239.43 91.7939 239.467 91.706C239.504 91.6181 239.561 91.5399 239.633 91.4775C239.776 91.3549 239.959 91.2889 240.147 91.2919C240.332 91.2874 240.513 91.3509 240.654 91.4704C240.726 91.5268 240.783 91.5999 240.82 91.6832C240.857 91.7665 240.874 91.8576 240.868 91.9488V92.5414C240.974 92.1943 241.18 91.8863 241.461 91.656C241.728 91.413 242.078 91.2803 242.439 91.2847C242.516 91.2811 242.593 91.2953 242.663 91.3263C242.734 91.3572 242.796 91.4041 242.846 91.4632C242.943 91.5847 242.993 91.7365 242.989 91.8916C242.991 92.0453 242.943 92.1956 242.853 92.32C242.813 92.3775 242.76 92.4239 242.698 92.4551C242.635 92.4863 242.566 92.5013 242.496 92.4985C242.295 92.4978 242.094 92.5169 241.896 92.5557C241.72 92.5923 241.552 92.6574 241.397 92.7484C241.23 92.8471 241.098 92.9941 241.018 93.1697C240.923 93.3951 240.879 93.6391 240.89 93.8837V96.3113C240.896 96.4156 240.881 96.5201 240.845 96.6184C240.81 96.7166 240.754 96.8065 240.683 96.8825C240.613 96.95 240.53 97.0026 240.439 97.0369C240.348 97.0713 240.251 97.0868 240.154 97.0824C240.054 97.0841 239.954 97.0646 239.862 97.0252C239.77 96.9859 239.687 96.9275 239.619 96.8539Z" fill="#263238"/>
<path d="M244.074 96.8468C243.933 96.6852 243.862 96.4751 243.874 96.2613V92.0559C243.864 91.8467 243.936 91.6419 244.074 91.4847C244.144 91.4172 244.227 91.3646 244.317 91.3302C244.408 91.2959 244.505 91.2804 244.602 91.2848C244.79 91.2818 244.973 91.3478 245.116 91.4704C245.185 91.5333 245.24 91.6108 245.276 91.6972C245.311 91.7835 245.328 91.8768 245.323 91.9702V92.2558C245.493 91.9183 245.76 91.639 246.089 91.4534C246.419 91.2677 246.796 91.1842 247.173 91.2134C247.6 91.1956 248.022 91.313 248.379 91.5489C248.704 91.7674 248.942 92.0935 249.05 92.47C249.21 92.0718 249.493 91.7351 249.858 91.509C250.223 91.283 250.65 91.1794 251.078 91.2134C251.355 91.1999 251.633 91.2415 251.894 91.3359C252.155 91.4303 252.394 91.5755 252.599 91.7631C252.803 91.9809 252.959 92.2388 253.057 92.5204C253.156 92.8019 253.194 93.1009 253.17 93.3982V96.2542C253.178 96.3602 253.165 96.4668 253.13 96.5674C253.096 96.6681 253.041 96.7607 252.97 96.8397C252.901 96.9085 252.818 96.9623 252.728 96.9979C252.637 97.0336 252.539 97.0502 252.442 97.0467C252.346 97.0508 252.251 97.0344 252.162 96.9987C252.074 96.963 251.994 96.9088 251.928 96.8397C251.787 96.678 251.716 96.468 251.728 96.2542V93.3982C251.752 93.0683 251.65 92.7415 251.442 92.4843C251.34 92.3796 251.216 92.298 251.079 92.245C250.943 92.1921 250.796 92.169 250.65 92.1773C250.458 92.1712 250.267 92.2086 250.091 92.2864C249.916 92.3643 249.76 92.4807 249.636 92.6271C249.355 92.9751 249.215 93.4159 249.243 93.8623V96.2471C249.253 96.4605 249.182 96.6698 249.043 96.8325C248.974 96.9013 248.891 96.9552 248.801 96.9908C248.71 97.0264 248.612 97.043 248.515 97.0396C248.419 97.0437 248.324 97.0273 248.235 96.9916C248.147 96.9559 248.067 96.9017 248.001 96.8325C247.931 96.7529 247.877 96.6602 247.843 96.5597C247.808 96.4592 247.794 96.353 247.801 96.2471V93.4268C247.827 93.0902 247.725 92.7562 247.515 92.4914C247.412 92.3848 247.288 92.3017 247.15 92.2475C247.012 92.1933 246.864 92.1693 246.716 92.1773C246.527 92.1688 246.338 92.2015 246.163 92.273C245.988 92.3445 245.831 92.4531 245.702 92.5914C245.436 92.9051 245.3 93.3089 245.323 93.7195V96.2471C245.33 96.3536 245.315 96.4603 245.28 96.5609C245.244 96.6615 245.188 96.7539 245.116 96.8325C245.046 96.9022 244.962 96.9566 244.87 96.9923C244.778 97.0279 244.679 97.044 244.581 97.0396C244.487 97.0445 244.394 97.0299 244.307 96.9967C244.22 96.9635 244.14 96.9124 244.074 96.8468Z" fill="#263238"/>
<path d="M254.47 96.0905C254.469 95.9665 254.515 95.8466 254.598 95.7549C254.64 95.7089 254.69 95.6722 254.747 95.6476C254.804 95.6229 254.865 95.6108 254.927 95.6122C255.033 95.6138 255.136 95.6433 255.227 95.6978L255.634 95.9192C255.793 95.9902 255.958 96.0476 256.126 96.0905C256.544 96.1945 256.98 96.1945 257.397 96.0905C257.566 96.0506 257.721 95.9669 257.847 95.8478C257.908 95.7905 257.957 95.7207 257.989 95.6431C258.021 95.5654 258.036 95.4819 258.033 95.3979C258.033 95.0695 257.769 94.841 257.233 94.6839L256.341 94.4483C256.069 94.3769 255.848 94.3127 255.677 94.2555C255.499 94.197 255.327 94.1229 255.162 94.0342C255.015 93.9587 254.882 93.8571 254.77 93.7343C254.668 93.6144 254.591 93.4763 254.541 93.3274C254.481 93.143 254.452 92.95 254.456 92.7562C254.446 92.516 254.5 92.2776 254.612 92.0647C254.723 91.8518 254.888 91.6717 255.091 91.5424C255.592 91.2417 256.171 91.0952 256.755 91.1211C257.407 91.1184 258.052 91.2649 258.64 91.5495C258.732 91.586 258.811 91.6502 258.866 91.7332C258.921 91.8162 258.949 91.9141 258.947 92.0136C258.95 92.1291 258.909 92.2416 258.832 92.3277C258.792 92.3705 258.744 92.4041 258.689 92.4263C258.635 92.4485 258.577 92.4587 258.518 92.4563C258.442 92.4554 258.366 92.4384 258.297 92.4063L258.168 92.3634L257.997 92.2992L257.819 92.2421C257.744 92.2163 257.668 92.1971 257.59 92.1849L257.362 92.135L257.097 92.0993H256.84C256.58 92.0913 256.321 92.1426 256.084 92.2492C255.993 92.2841 255.915 92.3458 255.86 92.4262C255.805 92.5065 255.776 92.6017 255.776 92.699C255.771 92.7738 255.783 92.8489 255.812 92.9182C255.84 92.9876 255.884 93.0494 255.941 93.0989C256.141 93.2166 256.361 93.2965 256.59 93.3345L257.476 93.563C257.973 93.6563 258.44 93.8722 258.832 94.1913C258.978 94.3335 259.092 94.5051 259.166 94.6947C259.239 94.8844 259.272 95.0876 259.261 95.2909C259.275 95.5513 259.223 95.811 259.109 96.0458C258.995 96.2805 258.824 96.4826 258.611 96.6332C258.117 96.9662 257.529 97.1314 256.933 97.1044C256.128 97.1303 255.337 96.8948 254.677 96.4332C254.618 96.3964 254.568 96.3462 254.532 96.2866C254.496 96.2271 254.475 96.1599 254.47 96.0905Z" fill="#263238"/>
</svg>
