<svg width="50" height="56" viewBox="0 0 50 56" fill="none" xmlns="http://www.w3.org/2000/svg">
<path d="M48.0532 38.04L49.9345 27.1605C50.4044 24.4432 48.3148 21.9579 45.5601 21.9579H31.7438C30.3745 21.9579 29.3318 20.7288 29.5534 19.376L31.3206 8.59046C31.6076 6.83827 31.5257 5.04534 31.0798 3.32673C30.7105 1.90305 29.6121 0.759872 28.1676 0.295819L27.7809 0.171605C26.9078 -0.108848 25.955 -0.0435942 25.1318 0.353046C24.226 0.789632 23.563 1.58595 23.3174 2.53305L22.0489 7.42331C21.6452 8.97929 21.0574 10.4812 20.2992 11.9003C19.1916 13.9738 17.4792 15.6332 15.699 17.1672L11.8624 20.4733C10.7807 21.4056 10.2126 22.8016 10.3357 24.2251L12.5014 49.2723C12.7001 51.5696 14.6209 53.3333 16.9243 53.3333H29.3206C38.6041 53.3333 46.5268 46.8651 48.0532 38.04Z" fill="#A71755"/>
<path fill-rule="evenodd" clip-rule="evenodd" d="M1.91379 19.9604C2.98381 19.9142 3.90029 20.7192 3.99256 21.7863L6.58349 51.7503C6.74992 53.6751 5.23381 55.334 3.29789 55.334C1.47437 55.334 0 53.8546 0 52.0346V21.9586C0 20.8875 0.843733 20.0066 1.91379 19.9604Z" fill="#A71755"/>
</svg>
