<svg width="74" height="88" viewBox="0 0 74 88" fill="none" xmlns="http://www.w3.org/2000/svg">
<path d="M9.96875 55.7515L10.1825 56.3549C10.1551 56.2858 10.0769 56.0747 9.96875 55.7515ZM18.426 42.0778C18.8013 38.8357 20.0758 37.0204 22.4774 35.1595C25.9138 32.6393 30.2063 34.0649 30.2063 34.0649V25.6076C31.2498 25.5798 32.2938 25.6444 33.326 25.8005V36.6842C33.326 36.6842 29.0348 35.2586 25.5984 37.7801C23.1981 39.6397 21.921 41.4562 21.547 44.6984C21.5353 46.4589 21.8519 48.7603 23.3101 50.7501C22.9496 50.5573 22.5821 50.3375 22.2077 50.0907C18.9955 47.8403 18.4104 44.4639 18.426 42.0778ZM51.0498 9.97015C48.6859 7.26747 47.7919 4.53872 47.4688 2.62183H50.4425C50.4425 2.62183 49.8496 7.64798 54.1707 12.5907L54.2307 12.6572C53.0661 11.8928 51.998 10.9906 51.0498 9.97015ZM65.375 17.6325V28.2973C65.375 28.2973 61.5803 28.1422 58.7721 27.3968C54.851 26.3543 52.3307 24.7554 52.3307 24.7554C52.3307 24.7554 50.5898 23.6152 50.449 23.5357V45.5585C50.449 46.7847 50.1271 49.8471 49.1459 52.4012C47.8649 55.7424 45.8881 57.9356 45.5245 58.3838C45.5245 58.3838 43.1202 61.3484 38.8786 63.3448C35.0552 65.1457 31.6984 65.1001 30.6949 65.1457C30.6949 65.1457 24.8921 65.3855 19.6705 61.8449C18.5414 61.0645 17.4874 60.1807 16.5222 59.2048L16.5482 59.2243C21.7712 62.7649 27.5727 62.5252 27.5727 62.5252C28.5774 62.4795 31.9342 62.5252 35.7563 60.7242C39.994 58.7279 42.4022 55.7632 42.4022 55.7632C42.7619 55.315 44.7478 53.1218 46.0236 49.7793C47.0022 47.2265 47.3267 44.1628 47.3267 42.9366V20.9164C47.4675 20.9972 49.2071 22.1374 49.2071 22.1374C49.2071 22.1374 51.7287 23.7377 55.6498 24.7789C58.4593 25.5242 62.2527 25.6793 62.2527 25.6793V17.3224C63.5506 17.626 64.657 17.7081 65.375 17.6325Z" fill="#EE1D52"/>
<path d="M62.2552 17.3224V25.6767C62.2552 25.6767 58.4618 25.5216 55.6523 24.7762C51.7312 23.7337 49.2096 22.1348 49.2096 22.1348C49.2096 22.1348 47.47 20.9946 47.3292 20.9138V42.9392C47.3292 44.1654 47.0074 47.2291 46.0261 49.7819C44.7451 53.1244 42.7683 55.3176 42.4047 55.7659C42.4047 55.7659 39.9991 58.7305 35.7588 60.7268C31.9367 62.5278 28.5799 62.4822 27.5752 62.5278C27.5752 62.5278 21.7737 62.7675 16.5507 59.227L16.5247 59.2074C15.9732 58.6503 15.4542 58.0621 14.97 57.4456C13.3033 55.3254 12.2817 52.8182 12.025 52.1028C12.0245 52.0997 12.0245 52.0967 12.025 52.0937C11.6119 50.8505 10.744 47.865 10.8626 44.9734C11.0724 39.8716 12.7925 36.7402 13.2473 35.9558C14.4518 33.8165 16.0184 31.9025 17.8773 30.2989C19.5177 28.9151 21.3771 27.8141 23.3791 27.0411C25.5434 26.1334 27.8609 25.6469 30.2075 25.6076V34.0649C30.2075 34.0649 25.915 32.6445 22.4799 35.1595C20.0783 37.0204 18.8038 38.8357 18.4285 42.0778C18.4129 44.4639 18.998 47.8403 22.2076 50.0921C22.582 50.3396 22.9495 50.5594 23.31 50.7514C23.8708 51.5119 24.5532 52.1746 25.3299 52.7126C28.4652 54.7833 31.0923 54.9279 34.4517 53.5831C36.6918 52.684 38.3781 50.6576 39.1599 48.4123C39.6512 47.0102 39.6447 45.5989 39.6447 44.1394V2.62183H47.4634C47.7866 4.53872 48.6806 7.26747 51.0444 9.97015C51.9927 10.9906 53.0607 11.8928 54.2254 12.6572C54.5694 13.0286 56.3286 14.8647 58.5869 15.9919C59.7546 16.5745 60.9855 17.021 62.2552 17.3224Z" fill="black"/>
<path d="M8.91016 49.5054V49.5119L9.10302 50.0605C9.08087 49.9966 9.00919 49.8025 8.91016 49.5054Z" fill="#69C9D0"/>
<path d="M23.3755 27.0414C21.3735 27.8144 19.5141 28.9154 17.8737 30.2992C16.0142 31.9064 14.448 33.8244 13.245 35.9678C12.7902 36.7496 11.0701 39.8836 10.8603 44.9854C10.7417 47.877 11.6096 50.8625 12.0227 52.1056C12.0222 52.1087 12.0222 52.1117 12.0227 52.1148C12.2833 52.8237 13.3011 55.3309 14.9678 57.4576C15.4519 58.0741 15.971 58.6623 16.5224 59.2194C14.7556 57.9975 13.1799 56.5202 11.8468 54.8357C10.1944 52.7338 9.17536 50.2526 8.90953 49.5202C8.90921 49.515 8.90921 49.5098 8.90953 49.5046V49.4955C8.49513 48.2536 7.62465 45.2669 7.74584 42.3713C7.95564 37.2696 9.67576 34.1382 10.1306 33.3537C11.3332 31.2101 12.8994 29.292 14.7593 27.6851C16.3993 26.3009 18.2588 25.1998 20.261 24.4273C21.51 23.9091 22.811 23.5268 24.1418 23.287C26.1472 22.937 28.1955 22.9066 30.2104 23.1971V25.6079C27.8616 25.6463 25.5418 26.1329 23.3755 27.0414Z" fill="#69C9D0"/>
<path d="M47.4711 2.62189H39.6524V44.1407C39.6524 45.6002 39.6524 47.0076 39.1676 48.4137C38.3779 50.6577 36.6982 52.684 34.4594 53.5832C31.0987 54.9332 28.4716 54.7834 25.3376 52.7127C24.5596 52.177 23.8753 51.5166 23.3125 50.758C25.9826 52.1823 28.3725 52.1576 31.3332 50.9691C33.5707 50.07 35.253 48.0436 36.0401 45.7983C36.5327 44.3962 36.5262 42.9849 36.5262 41.5267V0H47.3226C47.3226 0 47.2014 1.03208 47.4711 2.62189ZM62.2564 15.012V17.3224C60.9889 17.0205 59.7602 16.5741 58.5946 15.9919C56.3363 14.8647 54.5771 13.0286 54.233 12.6572C54.6322 12.9193 55.0465 13.1578 55.4736 13.3714C58.2193 14.7422 60.9233 15.1514 62.2564 15.012Z" fill="#69C9D0"/>
<path d="M47.7379 81.353C47.7371 81.6502 47.7811 81.9458 47.8682 82.23C47.8725 82.2501 47.8786 82.2697 47.8865 82.2886C48.0947 82.9608 48.5127 83.5487 49.0792 83.9661C49.6458 84.3835 50.3311 84.6085 51.0348 84.6082V87.9429C49.4111 87.9429 48.2487 88.0002 46.4739 86.9538C44.4618 85.7602 43.3281 83.5774 43.3281 81.3113C43.3281 78.9735 44.5974 76.6318 46.7488 75.5033C48.3126 74.6849 49.4971 74.6797 51.0387 74.6797V78.0131C50.164 78.0131 49.3251 78.3606 48.7065 78.9791C48.088 79.5976 47.7405 80.4366 47.7405 81.3113L47.7379 81.353Z" fill="#69C9D0"/>
<path d="M54.3594 81.353C54.3596 81.6502 54.3156 81.9457 54.2291 82.23C54.2291 82.2495 54.2174 82.2691 54.2108 82.2886C54.0023 82.9606 53.5842 83.5482 53.0177 83.9656C52.4512 84.3829 51.7661 84.6081 51.0625 84.6082V87.9429C52.6849 87.9429 53.8486 88.0002 55.6169 86.9538C57.6355 85.7602 58.7718 83.5774 58.7718 81.3113C58.7718 78.9735 57.5025 76.6318 55.3511 75.5033C53.7873 74.6849 52.6028 74.6797 51.0625 74.6797V78.0131C51.937 78.0134 52.7756 78.3611 53.3938 78.9796C54.0121 79.5981 54.3594 80.4368 54.3594 81.3113V81.353Z" fill="#EE1D52"/>
<path d="M0 71.6549H12.2116L11.0831 75.0144H7.8826V87.8723H3.95629V75.0144H0V71.6549ZM32.3631 71.6549V75.0144H36.3194V87.8723H40.2509V75.0144H43.4462L44.5747 71.6549H32.3631ZM14.8687 75.4835C15.2449 75.4832 15.6127 75.3714 15.9254 75.1621C16.2382 74.9529 16.4818 74.6556 16.6256 74.3078C16.7693 73.9601 16.8068 73.5775 16.7331 73.2085C16.6594 72.8395 16.478 72.5006 16.2117 72.2347C15.9455 71.9688 15.6064 71.7878 15.2372 71.7147C14.8681 71.6415 14.4856 71.6795 14.1381 71.8237C13.7905 71.9679 13.4935 72.212 13.2847 72.525C13.0759 72.838 12.9645 73.2059 12.9648 73.5822C12.9648 73.8321 13.014 74.0796 13.1098 74.3104C13.2055 74.5413 13.3457 74.751 13.5226 74.9275C13.6994 75.1041 13.9093 75.2441 14.1403 75.3395C14.3712 75.4349 14.6188 75.4838 14.8687 75.4835ZM12.9648 87.8723H16.8194V76.8283H12.9648V87.8723ZM30.6873 75.3871H26.1785L22.2925 79.273V71.6679H18.4627L18.4509 87.8723H22.3173V83.6502L23.5201 82.5542L27.2731 87.8671H31.4066L25.97 80.0979L30.6873 75.3871ZM67.666 80.1005L72.3794 75.3871H67.8719L63.9847 79.273V71.6679H60.1561L60.1379 87.8723H64.0056V83.6502L65.2201 82.5542L68.9731 87.8671H73.1079L67.666 80.1005ZM57.7545 81.3085C57.7545 84.9702 54.7456 87.9401 51.0343 87.9401C47.323 87.9401 44.3141 84.9702 44.3141 81.3085C44.3141 77.6467 47.323 74.6769 51.0343 74.6769C54.7456 74.6769 57.7545 77.648 57.7545 81.3111V81.3085ZM54.3312 81.3085C54.3312 80.6564 54.1378 80.019 53.7755 79.4768C53.4133 78.9346 52.8984 78.512 52.2959 78.2625C51.6935 78.013 51.0306 77.9477 50.3911 78.0749C49.7515 78.2021 49.1641 78.5161 48.703 78.9772C48.2419 79.4383 47.9279 80.0257 47.8007 80.6653C47.6735 81.3048 47.7388 81.9677 47.9883 82.5701C48.2379 83.1726 48.6604 83.6875 49.2026 84.0497C49.7448 84.412 50.3822 84.6054 51.0343 84.6054C51.9082 84.6054 52.7464 84.2584 53.3646 83.6406C53.9828 83.0229 54.3305 82.185 54.3312 81.3111V81.3085Z" fill="black"/>
</svg>
