<svg width="19" height="23" viewBox="0 0 19 23" fill="none" xmlns="http://www.w3.org/2000/svg">
<path fill-rule="evenodd" clip-rule="evenodd" d="M7 4.66675H11.6667C14.9665 4.66675 16.6164 4.66675 17.6415 5.69188C18.6667 6.717 18.6667 8.36691 18.6667 11.6667V12.8984C18.6667 15.705 18.6667 17.1083 17.9697 18.236C17.2727 19.3637 16.0176 19.9913 13.5073 21.2464C11.4591 22.2706 10.435 22.7826 9.33333 22.7826C8.23165 22.7826 7.20755 22.2706 5.15934 21.2464C2.64907 19.9913 1.39392 19.3637 0.696967 18.236C2.08616e-07 17.1083 0 15.705 0 12.8984V11.6667C0 8.36691 2.78155e-07 6.717 1.02513 5.69188C2.05025 4.66675 3.70017 4.66675 7 4.66675ZM9.33333 9.33342C9.00188 9.33342 8.78022 9.73102 8.33688 10.5263L8.2222 10.7321C8.09632 10.9581 8.03332 11.071 7.93508 11.1456C7.83685 11.2201 7.71458 11.2479 7.46993 11.3032L7.24722 11.3536C6.38629 11.5484 5.95585 11.6457 5.85344 11.9751C5.75103 12.3044 6.04447 12.6476 6.63137 13.3339L6.78321 13.5115C6.94999 13.7064 7.03337 13.804 7.07093 13.9246C7.10838 14.0452 7.09578 14.1753 7.07058 14.4356L7.0476 14.6724C6.95889 15.5881 6.91453 16.0459 7.18258 16.2495C7.4508 16.453 7.85377 16.2675 8.65982 15.8964L8.8683 15.8004C9.09743 15.6949 9.21188 15.6422 9.33333 15.6422C9.45478 15.6422 9.56923 15.6949 9.79837 15.8004L10.0069 15.8964C10.8129 16.2675 11.2159 16.453 11.4841 16.2495C11.7522 16.0459 11.7077 15.5881 11.6191 14.6724L11.5961 14.4356C11.5709 14.1753 11.5583 14.0452 11.5957 13.9246C11.6333 13.804 11.7167 13.7064 11.8834 13.5115L12.0353 13.3339C12.6222 12.6476 12.9157 12.3044 12.8133 11.9751C12.7108 11.6457 12.2803 11.5484 11.4195 11.3536L11.1967 11.3032C10.9521 11.2479 10.8298 11.2201 10.7316 11.1456C10.6334 11.071 10.5704 10.9581 10.4445 10.7321L10.3298 10.5263C9.88645 9.73102 9.66478 9.33342 9.33333 9.33342Z" fill="white"/>
<path d="M8.16692 0H10.5003C12.7002 0 13.8002 -6.95388e-08 14.4836 0.683422C14.9665 1.16629 15.1081 1.85711 15.1497 2.99692C14.1921 2.91654 13.0599 2.9166 11.7822 2.91667H6.88511C5.60736 2.9166 4.47524 2.91654 3.51758 2.99692C3.55916 1.85711 3.70085 1.16629 4.18372 0.683422C4.86714 -6.95388e-08 5.96709 0 8.16692 0Z" fill="white"/>
</svg>
