<svg width="26" height="23" viewBox="0 0 26 23" fill="none" xmlns="http://www.w3.org/2000/svg">
<path d="M20.8429 3.55854C20.6801 3.35961 20.4755 3.19899 20.2436 3.08809C20.0118 2.97719 19.7583 2.91873 19.5013 2.91687H18.8013L18.9763 1.9252C19.0091 1.68954 18.995 1.44972 18.935 1.21949C18.8749 0.989263 18.77 0.77315 18.6263 0.583538C18.2912 0.228832 17.8305 0.0194398 17.3429 0.000204755H3.45959C3.17136 -0.00506382 2.8905 0.091489 2.66644 0.272875C2.44237 0.454261 2.28946 0.708859 2.23459 0.991871C2.20921 1.15908 2.22049 1.32981 2.26764 1.49223C2.3148 1.65464 2.3967 1.80487 2.50768 1.93249C2.61865 2.06011 2.75605 2.16208 2.91034 2.23133C3.06464 2.30058 3.23215 2.33545 3.40126 2.33354H7.65959C7.91122 2.3384 8.15884 2.39748 8.38556 2.50674C8.61227 2.61601 8.81276 2.77289 8.97333 2.96668C9.1339 3.16047 9.25078 3.38662 9.31601 3.6297C9.38123 3.87278 9.39325 4.12706 9.35126 4.37521L7.95126 12.4252C7.88337 12.8273 7.67719 13.1931 7.36833 13.4593C7.05946 13.7256 6.66731 13.8756 6.25959 13.8835H1.65126C1.37832 13.878 1.1121 13.9684 0.898926 14.139C0.685754 14.3095 0.539136 14.5494 0.484593 14.8169L0.0179264 17.3252C-0.0179155 17.5651 0.000134879 17.81 0.0707662 18.0421C0.141397 18.2742 0.262836 18.4876 0.42626 18.6669C0.576718 18.8462 0.763969 18.9911 0.975323 19.0918C1.18668 19.1924 1.4172 19.2464 1.65126 19.2502H3.10959C3.36344 20.0891 3.88051 20.8241 4.58434 21.3465C5.28818 21.8689 6.14142 22.1509 7.01793 22.1509C7.89443 22.1509 8.74768 21.8689 9.45151 21.3465C10.1553 20.8241 10.6724 20.0891 10.9263 19.2502H13.6096C13.8634 20.0891 14.3805 20.8241 15.0843 21.3465C15.7882 21.8689 16.6414 22.1509 17.5179 22.1509C18.3944 22.1509 19.2477 21.8689 19.9515 21.3465C20.6553 20.8241 21.1724 20.0891 21.4263 19.2502H22.5929C23.0313 19.2419 23.4528 19.0795 23.7835 18.7915C24.1141 18.5035 24.3328 18.1083 24.4013 17.6752L25.6846 10.2085L20.8429 3.55854ZM7.01793 19.8335C6.5538 19.8335 6.10868 19.6492 5.78049 19.321C5.4523 18.9928 5.26793 18.5477 5.26793 18.0835C5.26793 17.6194 5.4523 17.1743 5.78049 16.8461C6.10868 16.5179 6.5538 16.3335 7.01793 16.3335C7.48206 16.3335 7.92717 16.5179 8.25536 16.8461C8.58355 17.1743 8.76793 17.6194 8.76793 18.0835C8.76793 18.5477 8.58355 18.9928 8.25536 19.321C7.92717 19.6492 7.48206 19.8335 7.01793 19.8335ZM17.5179 19.8335C17.0538 19.8335 16.6087 19.6492 16.2805 19.321C15.9523 18.9928 15.7679 18.5477 15.7679 18.0835C15.7679 17.6194 15.9523 17.1743 16.2805 16.8461C16.6087 16.5179 17.0538 16.3335 17.5179 16.3335C17.9821 16.3335 18.4272 16.5179 18.7554 16.8461C19.0836 17.1743 19.2679 17.6194 19.2679 18.0835C19.2679 18.5477 19.0836 18.9928 18.7554 19.321C18.4272 19.6492 17.9821 19.8335 17.5179 19.8335ZM17.5763 9.91687L18.3929 5.25021H19.1513L22.5929 9.91687H17.5763Z" fill="white"/>
<path d="M1.18424 5.83358H7.01758C7.327 5.83358 7.62374 5.71066 7.84254 5.49187C8.06133 5.27308 8.18425 4.97633 8.18425 4.66691C8.18425 4.35749 8.06133 4.06075 7.84254 3.84195C7.62374 3.62316 7.327 3.50024 7.01758 3.50024H1.18424C0.874826 3.50024 0.578079 3.62316 0.359287 3.84195C0.140494 4.06075 0.0175781 4.35749 0.0175781 4.66691C0.0175781 4.97633 0.140494 5.27308 0.359287 5.49187C0.578079 5.71066 0.874826 5.83358 1.18424 5.83358Z" fill="white"/>
<path d="M7.60156 8.16691C7.60156 7.85749 7.47865 7.56075 7.25985 7.34195C7.04106 7.12316 6.74431 7.00024 6.4349 7.00024H1.76823C1.45881 7.00024 1.16206 7.12316 0.943271 7.34195C0.724479 7.56075 0.601563 7.85749 0.601562 8.16691C0.601563 8.47633 0.724479 8.77308 0.943271 8.99187C1.16206 9.21066 1.45881 9.33358 1.76823 9.33358H6.4349C6.74431 9.33358 7.04106 9.21066 7.25985 8.99187C7.47865 8.77308 7.60156 8.47633 7.60156 8.16691Z" fill="white"/>
<path d="M2.35124 10.5002C2.04182 10.5002 1.74507 10.6232 1.52628 10.842C1.30749 11.0607 1.18457 11.3575 1.18457 11.6669C1.18457 11.9763 1.30749 12.2731 1.52628 12.4919C1.74507 12.7107 2.04182 12.8336 2.35124 12.8336H5.85124C6.16066 12.8336 6.4574 12.7107 6.6762 12.4919C6.89499 12.2731 7.0179 11.9763 7.0179 11.6669C7.0179 11.3575 6.89499 11.0607 6.6762 10.842C6.4574 10.6232 6.16066 10.5002 5.85124 10.5002H2.35124Z" fill="white"/>
</svg>
