<svg width="21" height="21" viewBox="0 0 21 21" fill="none" xmlns="http://www.w3.org/2000/svg">
<path d="M7.75 8.75C9.95914 8.75 11.75 6.95914 11.75 4.75C11.75 2.54086 9.95914 0.75 7.75 0.75C5.54086 0.75 3.75 2.54086 3.75 4.75C3.75 6.95914 5.54086 8.75 7.75 8.75Z" stroke="#383838" stroke-width="1.5"/>
<path d="M13.75 7.75C15.4069 7.75 16.75 6.40685 16.75 4.75C16.75 3.09315 15.4069 1.75 13.75 1.75" stroke="#383838" stroke-width="1.5" stroke-linecap="round"/>
<path d="M7.75 19.75C11.616 19.75 14.75 17.9591 14.75 15.75C14.75 13.5409 11.616 11.75 7.75 11.75C3.88401 11.75 0.75 13.5409 0.75 15.75C0.75 17.9591 3.88401 19.75 7.75 19.75Z" stroke="#383838" stroke-width="1.5"/>
<path d="M16.75 12.75C18.5042 13.1347 19.75 14.1089 19.75 15.25C19.75 16.2793 18.7363 17.1729 17.25 17.6204" stroke="#383838" stroke-width="1.5" stroke-linecap="round"/>
</svg>
