<svg width="34" height="34" viewBox="0 0 34 34" fill="none" xmlns="http://www.w3.org/2000/svg">
<path fill-rule="evenodd" clip-rule="evenodd" d="M0.865333 9.70457C9.93411e-08 11.2855 0 13.1925 0 17.0065V19.5417C0 26.043 1.98682e-07 29.2938 1.95262 31.3135C3.90525 33.3333 7.04793 33.3333 13.3333 33.3333H20C26.2853 33.3333 29.4282 33.3333 31.3807 31.3135C33.3333 29.2938 33.3333 26.043 33.3333 19.5417V17.0065C33.3333 13.1925 33.3333 11.2855 32.468 9.70457C31.6027 8.12368 30.0218 7.14252 26.86 5.1802L23.5267 3.11145C20.1843 1.03715 18.5132 0 16.6667 0C14.8202 0 13.149 1.03715 9.80672 3.11145L6.47338 5.18022C3.31158 7.14252 1.73067 8.12368 0.865333 9.70457ZM11.6667 25.4167C10.9763 25.4167 10.4167 25.9763 10.4167 26.6667C10.4167 27.357 10.9763 27.9167 11.6667 27.9167H21.6667C22.357 27.9167 22.9167 27.357 22.9167 26.6667C22.9167 25.9763 22.357 25.4167 21.6667 25.4167H11.6667Z" fill="#0D1214"/>
<path fill-rule="evenodd" clip-rule="evenodd" d="M0.865333 9.70457C9.93411e-08 11.2855 0 13.1925 0 17.0065V19.5417C0 26.043 1.98682e-07 29.2938 1.95262 31.3135C3.90525 33.3333 7.04793 33.3333 13.3333 33.3333H20C26.2853 33.3333 29.4282 33.3333 31.3807 31.3135C33.3333 29.2938 33.3333 26.043 33.3333 19.5417V17.0065C33.3333 13.1925 33.3333 11.2855 32.468 9.70457C31.6027 8.12368 30.0218 7.14252 26.86 5.1802L23.5267 3.11145C20.1843 1.03715 18.5132 0 16.6667 0C14.8202 0 13.149 1.03715 9.80672 3.11145L6.47338 5.18022C3.31158 7.14252 1.73067 8.12368 0.865333 9.70457ZM11.6667 25.4167C10.9763 25.4167 10.4167 25.9763 10.4167 26.6667C10.4167 27.357 10.9763 27.9167 11.6667 27.9167H21.6667C22.357 27.9167 22.9167 27.357 22.9167 26.6667C22.9167 25.9763 22.357 25.4167 21.6667 25.4167H11.6667Z" fill="black" fill-opacity="0.2"/>
</svg>
