<svg width="24" height="24" viewBox="0 0 24 24" fill="none" xmlns="http://www.w3.org/2000/svg">
<path fill-rule="evenodd" clip-rule="evenodd" d="M23.1446 10.6474L22.8772 13.4885C22.4365 18.1699 22.2162 20.5106 20.8365 21.9219C19.4568 23.3333 17.3889 23.3333 13.2532 23.3333H10.0801C5.94436 23.3333 3.87649 23.3333 2.49677 21.9219C1.11706 20.5106 0.896756 18.1699 0.456164 13.4885L0.188776 10.6474C-0.0212361 8.41598 -0.126236 7.30029 0.255486 6.83908C0.461974 6.5896 0.742767 6.43673 1.04299 6.41037C1.59796 6.36162 2.29492 7.15505 3.68885 8.74191C4.40973 9.56258 4.77017 9.9729 5.17226 10.0365C5.39506 10.0716 5.62207 10.0354 5.8278 9.93195C6.19909 9.74505 6.44665 9.23781 6.94175 8.22327L9.55138 2.87567C10.4869 0.958557 10.9548 0 11.6667 0C12.3786 0 12.8464 0.958557 13.7819 2.87566L16.3915 8.22326C16.8867 9.23781 17.1342 9.74505 17.5055 9.93195C17.7113 10.0354 17.9383 10.0716 18.161 10.0365C18.5632 9.9729 18.9236 9.56258 19.6444 8.74191C21.0384 7.15505 21.7353 6.36162 22.2903 6.41037C22.5905 6.43673 22.8713 6.5896 23.0778 6.83908C23.4596 7.30029 23.3546 8.41598 23.1446 10.6474ZM12.7778 12.4822L12.6631 12.2765C12.2198 11.4812 11.9981 11.0836 11.6667 11.0836C11.3352 11.0836 11.1135 11.4812 10.6702 12.2765L10.5555 12.4822C10.4296 12.7082 10.3666 12.8212 10.2684 12.8958C10.1702 12.9703 10.0479 12.998 9.80326 13.0534L9.58055 13.1038C8.71962 13.2985 8.28918 13.3959 8.18677 13.7253C8.08436 14.0546 8.3778 14.3977 8.9647 15.084L9.11654 15.2615C9.28332 15.4566 9.3667 15.5541 9.40426 15.6748C9.44171 15.7954 9.42912 15.9255 9.40392 16.1856L9.38093 16.4226C9.29222 17.3382 9.24786 17.7961 9.51591 17.9996C9.78413 18.2032 10.1871 18.0175 10.9931 17.6464L11.2016 17.5504C11.4308 17.4449 11.5452 17.3922 11.6667 17.3922C11.7881 17.3922 11.9026 17.4449 12.1317 17.5504L12.3402 17.6464C13.1462 18.0175 13.5492 18.2032 13.8174 17.9996C14.0855 17.7961 14.0411 17.3382 13.9524 16.4226L13.9294 16.1856C13.9042 15.9255 13.8916 15.7954 13.9291 15.6748C13.9666 15.5541 14.05 15.4566 14.2168 15.2615L14.3687 15.084C14.9555 14.3977 15.249 14.0546 15.1466 13.7253C15.0442 13.3959 14.6137 13.2985 13.7528 13.1038L13.5301 13.0534C13.2854 12.998 13.1631 12.9703 13.0649 12.8958C12.9667 12.8212 12.9037 12.7082 12.7778 12.4822Z" fill="white"/>
</svg>
