<svg width="150" height="95" viewBox="0 0 150 95" fill="none" xmlns="http://www.w3.org/2000/svg">
<path d="M142 0.000244141H8C3.58172 0.000244141 0 3.58197 0 8.00024V86.2002C0 90.6185 3.58172 94.2002 8 94.2002H142C146.418 94.2002 150 90.6185 150 86.2002V8.00024C150 3.58197 146.418 0.000244141 142 0.000244141Z" fill="#0E4595"/>
<path d="M55.6406 66.8472L62.3128 27.6948H72.9846L66.3078 66.8472H55.6406Z" fill="white"/>
<path d="M104.862 28.538C102.747 27.7448 99.4346 26.8936 95.2972 26.8936C84.7524 26.8936 77.3244 32.2038 77.2612 39.8144C77.2018 45.4402 82.564 48.5786 86.612 50.4514C90.7658 52.3704 92.1624 53.5944 92.1426 55.308C92.1162 57.9324 88.8254 59.1314 85.758 59.1314C81.4866 59.1314 79.2174 58.538 75.7128 57.0762L74.3376 56.4538L72.8398 65.2186C75.3324 66.3114 79.9416 67.2583 84.7274 67.3073C95.9452 67.3073 103.228 62.0579 103.31 53.931C103.351 49.4772 100.507 46.0876 94.3506 43.2934C90.6204 41.4822 88.336 40.2736 88.3602 38.4396C88.3602 36.8122 90.2938 35.072 94.4716 35.072C97.9614 35.0178 100.489 35.7788 102.459 36.572L103.415 37.0238L104.862 28.538Z" fill="white"/>
<path d="M132.328 27.6948H124.082C121.527 27.6948 119.616 28.392 118.494 30.9416L102.645 66.8222H113.851C113.851 66.8222 115.683 61.9978 116.098 60.9386C117.322 60.9386 128.208 60.9554 129.765 60.9554C130.084 62.326 131.063 66.8222 131.063 66.8222H140.966L132.328 27.6948ZM119.245 52.9762C120.127 50.7204 123.496 42.0316 123.496 42.0316C123.433 42.1358 124.372 39.7648 124.911 38.2948L125.633 41.6704C125.633 41.6704 127.676 51.0162 128.103 52.976H119.245V52.9762Z" fill="white"/>
<path d="M9.17148 27.6948L9.03516 28.5097C13.2534 29.5308 17.021 31.0084 20.3195 32.8468L29.7887 66.7851L41.0797 66.7718L57.8805 27.6948H46.5762L36.1281 54.394L35.0148 48.9683C34.9634 48.8027 34.9076 48.6365 34.8504 48.4702L31.2172 31.0003C30.5712 28.5211 28.6975 27.7812 26.3797 27.6948H9.17148Z" fill="white"/>
</svg>
