<svg width="24" height="19" viewBox="0 0 24 19" fill="none" xmlns="http://www.w3.org/2000/svg">
<path d="M14.0003 0H9.3336C4.93382 0 2.73394 -1.39077e-07 1.3671 1.36683C0.382969 2.35096 0.107425 3.76696 0.0302734 6.125H23.3036C23.2265 3.76696 22.9509 2.35096 21.9667 1.36683C20.6 -1.39077e-07 18.4 0 14.0003 0Z" fill="white"/>
<path d="M9.33333 18.6667H14C18.3997 18.6667 20.5997 18.6667 21.9665 17.2998C23.3333 15.9331 23.3333 13.7331 23.3333 9.33333C23.3333 8.81778 23.3333 8.33233 23.3311 7.875H0.00220493C-6.51926e-08 8.33233 0 8.81778 0 9.33333C0 13.7331 1.39078e-07 15.9331 1.36683 17.2998C2.73368 18.6667 4.93355 18.6667 9.33333 18.6667Z" fill="white"/>
<path fill-rule="evenodd" clip-rule="evenodd" d="M3.79199 14C3.79199 13.5168 4.18375 13.125 4.66699 13.125H9.33366C9.81689 13.125 10.2087 13.5168 10.2087 14C10.2087 14.4832 9.81689 14.875 9.33366 14.875H4.66699C4.18375 14.875 3.79199 14.4832 3.79199 14Z" fill="white"/>
<path fill-rule="evenodd" clip-rule="evenodd" d="M11.375 14C11.375 13.5168 11.7668 13.125 12.25 13.125H14C14.4832 13.125 14.875 13.5168 14.875 14C14.875 14.4832 14.4832 14.875 14 14.875H12.25C11.7668 14.875 11.375 14.4832 11.375 14Z" fill="white"/>
</svg>
