<svg width="15" height="15" viewBox="0 0 15 15" fill="none" xmlns="http://www.w3.org/2000/svg">
<path fill-rule="evenodd" clip-rule="evenodd" d="M7.5 0C3.35786 0 0 3.35786 0 7.5C0 8.9172 0.393788 10.2446 1.07817 11.3762L0.409358 13.6502C0.240173 14.2254 0.77463 14.7599 1.34981 14.5907L3.62378 13.9218C4.75544 14.6063 6.0828 15 7.5 15C11.6421 15 15 11.6421 15 7.5C15 3.35786 11.6421 0 7.5 0ZM5.80366 9.19703C7.32053 10.7139 8.769 10.9139 9.28043 10.9327C10.0583 10.9613 10.8158 10.3673 11.111 9.67815C11.1834 9.5094 11.1653 9.30638 11.0441 9.15105C10.6337 8.62538 10.078 8.24873 9.53505 7.8738C9.30045 7.7115 8.97788 7.76175 8.80508 7.99163L8.35455 8.67795C8.30453 8.75408 8.20515 8.78025 8.1261 8.73503C7.82123 8.56073 7.3767 8.2635 7.0569 7.9437C6.73748 7.62428 6.45833 7.19985 6.30165 6.91463C6.26048 6.83963 6.28328 6.747 6.3519 6.696L7.04453 6.18165C7.25108 6.00285 7.28738 5.69915 7.13535 5.47671C6.79875 4.98427 6.40665 4.3584 5.83913 3.94445C5.68412 3.83138 5.48805 3.81869 5.32616 3.88806C4.63628 4.18373 4.03931 4.94092 4.06799 5.72021C4.08681 6.23168 4.28679 7.68015 5.80366 9.19703Z" fill="#4D4D4D"/>
</svg>
