<svg width="20" height="26" viewBox="0 0 20 26" fill="none" xmlns="http://www.w3.org/2000/svg">
<path fill-rule="evenodd" clip-rule="evenodd" d="M0.770304 19.3773C1.18776 19.1339 1.72352 19.275 1.96695 19.6924C2.93162 21.3467 4.40641 22.5976 6.22509 23.4094C6.66638 23.6063 6.86446 24.1238 6.6675 24.5651C6.47054 25.0063 5.95315 25.2044 5.51186 25.0075C3.39843 24.0643 1.62532 22.5805 0.455211 20.5739C0.211774 20.1565 0.352847 19.6208 0.770304 19.3773Z" fill="white"/>
<path fill-rule="evenodd" clip-rule="evenodd" d="M17.678 3.11727C16.4952 1.90921 14.8082 1.46361 13.1566 1.93352C12.6918 2.06577 12.2079 1.79619 12.0756 1.33139C11.9434 0.866591 12.2129 0.382576 12.6777 0.250322C14.9389 -0.39308 17.2915 0.221191 18.9284 1.89292C19.2665 2.23821 19.2606 2.7922 18.9154 3.13029C18.5701 3.46839 18.0161 3.46255 17.678 3.11727Z" fill="white"/>
<path fill-rule="evenodd" clip-rule="evenodd" d="M8.67613 2.4014C8.42646 1.97314 7.6987 1.71342 6.95936 2.13593C6.22277 2.5569 6.09322 3.29895 6.33861 3.71974L9.28525 8.77271C9.52861 9.19017 9.38756 9.72593 8.97013 9.96937C8.5527 10.2128 8.01696 10.0717 7.77348 9.65427L3.84467 2.91698C3.59493 2.48872 2.86716 2.22901 2.12787 2.65152C1.39129 3.07249 1.26174 3.81453 1.50714 4.23533L5.92703 11.8148C6.17047 12.2322 6.02939 12.7681 5.61194 13.0114C5.19448 13.2549 4.65872 13.1139 4.41529 12.6963L2.45089 9.3277C2.20115 8.89944 1.47337 8.63973 0.734093 9.06223C-0.00249401 9.4832 -0.132041 10.2252 0.113356 10.646L4.53325 18.2255C6.41035 21.4444 11.0425 22.4891 14.9705 20.2441C18.896 18.0007 20.2913 13.5189 18.4186 10.3074L15.4721 5.25446C15.2223 4.8262 14.4945 4.56648 13.7552 4.98899C13.0187 5.40996 12.8891 6.15201 13.1345 6.57281L15.0989 9.94146C15.2165 10.1431 15.2487 10.3833 15.1882 10.6087C15.1278 10.8342 14.9799 11.0261 14.7772 11.142C12.9776 12.1704 12.4261 14.159 13.214 15.51C13.4575 15.9275 13.3164 16.4632 12.8989 16.7066C12.4814 16.9501 11.9457 16.809 11.7022 16.3916C10.6374 14.5655 11.0677 12.3667 12.4431 10.8127C12.8276 10.3783 12.9592 9.74623 12.6669 9.24505L8.67613 2.4014Z" fill="white"/>
</svg>
