<svg width="34" height="34" viewBox="0 0 34 34" fill="none" xmlns="http://www.w3.org/2000/svg">
<path fill-rule="evenodd" clip-rule="evenodd" d="M20 33.3333H13.3333C7.04793 33.3333 3.90525 33.3333 1.95262 31.3135C1.98682e-07 29.2938 0 26.043 0 19.5417V17.0065C0 13.1925 9.93411e-08 11.2855 0.865333 9.70457C1.73067 8.12368 3.31158 7.14252 6.47338 5.18022L9.80672 3.11145C13.149 1.03715 14.8202 0 16.6667 0C18.5132 0 20.1843 1.03715 23.5267 3.11145L26.86 5.1802C30.0218 7.14252 31.6027 8.12368 32.468 9.70457C33.3333 11.2855 33.3333 13.1925 33.3333 17.0065V19.5417C33.3333 26.043 33.3333 29.2938 31.3807 31.3135C29.4282 33.3333 26.2853 33.3333 20 33.3333ZM25.7497 16.9867C20.7215 11.5595 12.6118 11.5595 7.58362 16.9867C7.11443 17.4932 6.32355 17.5233 5.81713 17.0542C5.31072 16.585 5.28053 15.794 5.74972 15.2877C11.7673 8.79253 21.566 8.79253 27.5837 15.2877C28.0528 15.794 28.0227 16.585 27.5162 17.0542C27.0098 17.5233 26.2188 17.4932 25.7497 16.9867ZM22.4163 20.5842C19.2292 17.144 14.1042 17.144 10.917 20.5842C10.4478 21.0907 9.65692 21.1208 9.1505 20.6517C8.64408 20.1825 8.6139 19.3915 9.08308 18.8852C13.2597 14.377 20.0737 14.377 24.2503 18.8852C24.7195 19.3915 24.6893 20.1825 24.1828 20.6517C23.6765 21.1208 22.8857 21.0907 22.4163 20.5842ZM19.0832 24.1825C17.7368 22.7295 15.5967 22.7295 14.2503 24.1825C13.7812 24.689 12.9903 24.7192 12.4839 24.25C11.9774 23.7807 11.9473 22.9898 12.4164 22.4835C14.7522 19.9625 18.5813 19.9625 20.917 22.4835C21.3862 22.9898 21.356 23.7807 20.8497 24.25C20.3432 24.7192 19.5523 24.689 19.0832 24.1825Z" fill="#0D1214"/>
<path fill-rule="evenodd" clip-rule="evenodd" d="M20 33.3333H13.3333C7.04793 33.3333 3.90525 33.3333 1.95262 31.3135C1.98682e-07 29.2938 0 26.043 0 19.5417V17.0065C0 13.1925 9.93411e-08 11.2855 0.865333 9.70457C1.73067 8.12368 3.31158 7.14252 6.47338 5.18022L9.80672 3.11145C13.149 1.03715 14.8202 0 16.6667 0C18.5132 0 20.1843 1.03715 23.5267 3.11145L26.86 5.1802C30.0218 7.14252 31.6027 8.12368 32.468 9.70457C33.3333 11.2855 33.3333 13.1925 33.3333 17.0065V19.5417C33.3333 26.043 33.3333 29.2938 31.3807 31.3135C29.4282 33.3333 26.2853 33.3333 20 33.3333ZM25.7497 16.9867C20.7215 11.5595 12.6118 11.5595 7.58362 16.9867C7.11443 17.4932 6.32355 17.5233 5.81713 17.0542C5.31072 16.585 5.28053 15.794 5.74972 15.2877C11.7673 8.79253 21.566 8.79253 27.5837 15.2877C28.0528 15.794 28.0227 16.585 27.5162 17.0542C27.0098 17.5233 26.2188 17.4932 25.7497 16.9867ZM22.4163 20.5842C19.2292 17.144 14.1042 17.144 10.917 20.5842C10.4478 21.0907 9.65692 21.1208 9.1505 20.6517C8.64408 20.1825 8.6139 19.3915 9.08308 18.8852C13.2597 14.377 20.0737 14.377 24.2503 18.8852C24.7195 19.3915 24.6893 20.1825 24.1828 20.6517C23.6765 21.1208 22.8857 21.0907 22.4163 20.5842ZM19.0832 24.1825C17.7368 22.7295 15.5967 22.7295 14.2503 24.1825C13.7812 24.689 12.9903 24.7192 12.4839 24.25C11.9774 23.7807 11.9473 22.9898 12.4164 22.4835C14.7522 19.9625 18.5813 19.9625 20.917 22.4835C21.3862 22.9898 21.356 23.7807 20.8497 24.25C20.3432 24.7192 19.5523 24.689 19.0832 24.1825Z" fill="black" fill-opacity="0.2"/>
</svg>
