<svg width="21" height="21" viewBox="0 0 21 21" fill="none" xmlns="http://www.w3.org/2000/svg">
<path d="M8.25 8.78C8.25 9.32 8.4 9.4 8.74 9.52L9.25 9.7V8H8.95C8.57 8 8.25 8.35 8.25 8.78Z" fill="white"/>
<path d="M10.75 13.5008H11.05C11.44 13.5008 11.75 13.1508 11.75 12.7208C11.75 12.1808 11.6 12.1008 11.26 11.9808L10.75 11.8008V13.5008Z" fill="white"/>
<path d="M17.58 4.23L15.53 6.28C15.38 6.43 15.19 6.5 15 6.5C14.81 6.5 14.62 6.43 14.47 6.28C14.18 5.99 14.18 5.51 14.47 5.22L16.52 3.17C14.76 1.67 12.49 0.75 10 0.75C4.48 0.75 0 5.23 0 10.75C0 16.27 4.48 20.75 10 20.75C15.52 20.75 20 16.27 20 10.75C20 8.26 19.08 5.99 17.58 4.23ZM11.75 10.57C12.39 10.8 13.25 11.26 13.25 12.73C13.25 13.98 12.26 15.01 11.05 15.01H10.75V15.26C10.75 15.67 10.41 16.01 10 16.01C9.59 16.01 9.25 15.67 9.25 15.26V15.01H9.17C7.84 15.01 6.75 13.89 6.75 12.51C6.75 12.09 7.09 11.75 7.5 11.75C7.91 11.75 8.25 12.09 8.25 12.5C8.25 13.05 8.66 13.5 9.17 13.5H9.25V11.28L8.25 10.93C7.61 10.7 6.75 10.24 6.75 8.77C6.75 7.52 7.74 6.49 8.95 6.49H9.25V6.25C9.25 5.84 9.59 5.5 10 5.5C10.41 5.5 10.75 5.84 10.75 6.25V6.5H10.83C12.16 6.5 13.25 7.62 13.25 9C13.25 9.41 12.91 9.75 12.5 9.75C12.09 9.75 11.75 9.41 11.75 9C11.75 8.45 11.34 8 10.83 8H10.75V10.22L11.75 10.57Z" fill="white"/>
<path d="M20.69 0.46C20.61 0.28 20.47 0.13 20.28 0.05C20.19 0.02 20.1 0 20 0H16C15.59 0 15.25 0.34 15.25 0.75C15.25 1.16 15.59 1.5 16 1.5H18.19L16.52 3.17C16.9 3.5 17.25 3.85 17.58 4.23L19.25 2.56V4.75C19.25 5.16 19.59 5.5 20 5.5C20.41 5.5 20.75 5.16 20.75 4.75V0.75C20.75 0.65 20.73 0.56 20.69 0.46Z" fill="white"/>
</svg>
