<svg width="24" height="24" viewBox="0 0 24 24" fill="none" xmlns="http://www.w3.org/2000/svg">
<path fill-rule="evenodd" clip-rule="evenodd" d="M9.55928 3.69769C10.7557 2.02265 13.2452 2.02265 14.4417 3.69769L14.6322 3.96436C14.8427 4.25916 15.1963 4.41701 15.5563 4.37701L16.4053 4.28267C18.3161 4.07037 19.9306 5.68488 19.7183 7.59562L19.624 8.44464C19.584 8.80469 19.7418 9.15823 20.0366 9.3688L20.3033 9.55928C21.9783 10.7557 21.9783 13.2452 20.3033 14.4417L20.0366 14.6322C19.7418 14.8427 19.584 15.1963 19.624 15.5563L19.7183 16.4053C19.9306 18.3161 18.3161 19.9306 16.4053 19.7183L15.5563 19.624C15.1963 19.584 14.8427 19.7418 14.6322 20.0366L14.4417 20.3033C13.2452 21.9783 10.7558 21.9783 9.55928 20.3033L9.3688 20.0366C9.15823 19.7418 8.80469 19.584 8.44463 19.624L7.59562 19.7183C5.68488 19.9306 4.07037 18.3161 4.28267 16.4053L4.37701 15.5563C4.41701 15.1963 4.25916 14.8427 3.96436 14.6322L3.69769 14.4417C2.02265 13.2452 2.02265 10.7558 3.69769 9.55928L3.96436 9.3688C4.25916 9.15823 4.41701 8.80469 4.37701 8.44463L4.28267 7.59562C4.07037 5.68488 5.68488 4.07037 7.59562 4.28267L8.44464 4.37701C8.80469 4.41701 9.15823 4.25916 9.3688 3.96436L9.55928 3.69769ZM15.7076 9.29338C16.0981 9.68391 16.0981 10.3171 15.7076 10.7076L11.8887 14.5265C11.3982 15.0171 10.6028 15.0171 10.1123 14.5265L8.29338 12.7076C7.90286 12.3171 7.90286 11.6839 8.29338 11.2934C8.68391 10.9029 9.31707 10.9029 9.7076 11.2934L11.0005 12.5863L14.2934 9.29338C14.6839 8.90286 15.3171 8.90286 15.7076 9.29338Z" fill="white"/>
</svg>
