<?xml version="1.0" encoding="iso-8859-1"?>
<!-- Generator: Adobe Illustrator 29.8.3, SVG Export Plug-In . SVG Version: 9.03 Build 0)  -->
<svg version="1.1" id="Layer_1" xmlns="http://www.w3.org/2000/svg" xmlns:xlink="http://www.w3.org/1999/xlink" x="0px" y="0px"
	 viewBox="0 0 407.314 417.171" style="enable-background:new 0 0 407.314 417.171;" xml:space="preserve">
<g>
	<linearGradient id="SVGID_1_" gradientUnits="userSpaceOnUse" x1="203.6572" y1="429.8273" x2="203.6572" y2="-309.5023">
		<stop  offset="5.327789e-09" style="stop-color:#070B0B"/>
		<stop  offset="1" style="stop-color:#097766"/>
	</linearGradient>
	<path style="fill:url(#SVGID_1_);" d="M288.365,62.875H118.95c-33.09,0-59.915,26.825-59.915,59.915v171.59
		c0,33.09,26.825,59.915,59.915,59.915h169.415c33.09,0,59.915-26.825,59.915-59.915V122.79
		C348.28,89.7,321.455,62.875,288.365,62.875z"/>
	<path style="fill:#03DAB8;" d="M307.978,134.67c-0.09-0.163-0.163-0.345-0.253-0.508c-5.858-11.952-20.821-16.051-32.047-8.887
		c-34.296,21.945-60.703,52.36-77.77,87.073c-16.558-26.171-38.902-49.077-66.271-66.579c-11.208-7.164-26.189-3.065-32.047,8.887
		c-0.09,0.163-0.163,0.326-0.254,0.508c-5.042,10.265-1.324,22.507,8.307,28.692c35.348,22.707,60.068,56.767,71.712,94.926
		c0.163,0.599,0.344,1.197,0.545,1.777c3.01,8.542,11.208,14.872,21.038,14.872h0.545c10.827,0,19.895-7.834,21.909-18.481
		c0.29-1.524,0.599-3.047,0.925-4.571c9.431-43.781,35.711-83.555,75.357-109.018C309.302,157.177,313.021,144.935,307.978,134.67z"
		/>
</g>
</svg>
