<svg width="185" height="60" viewBox="0 0 185 60" fill="none" xmlns="http://www.w3.org/2000/svg">
<rect width="185" height="60" rx="30" fill="#091B3C"/>
<path fill-rule="evenodd" clip-rule="evenodd" d="M49.1851 21.8314C50.06 20.8175 50.6497 19.4052 50.4883 18C49.2276 18.048 47.7023 18.8054 46.7983 19.8182C45.9865 20.717 45.2779 22.1531 45.4684 23.5307C46.8747 23.6351 48.3102 22.8466 49.1851 21.8314ZM52.3388 30.75C52.374 34.3824 55.6636 35.5907 55.7 35.6063C55.6734 35.6915 55.1746 37.3279 53.9673 39.0199C52.9225 40.4815 51.8389 41.9372 50.1316 41.9684C48.4546 41.9984 47.9146 41.0156 45.9962 41.0156C44.079 41.0156 43.4795 41.937 41.8924 41.9982C40.2445 42.057 38.9886 40.4169 37.9366 38.9602C35.7839 35.9806 34.1397 30.5401 36.3482 26.8682C37.4451 25.0454 39.4048 23.8893 41.5332 23.8605C43.1507 23.8305 44.6784 24.9035 45.6674 24.9035C46.6563 24.9035 48.5129 23.6135 50.4641 23.8031C51.2807 23.8355 53.5741 24.1186 55.046 26.1838C54.9271 26.2546 52.3097 27.714 52.3388 30.75Z" fill="white"/>
<path d="M70.516 17.4C71.076 17.4 71.5773 17.52 72.02 17.76C72.4627 17.9947 72.8093 18.3253 73.06 18.752C73.3107 19.1787 73.436 19.6613 73.436 20.2C73.436 20.7387 73.308 21.2213 73.052 21.648C72.8013 22.0693 72.452 22.4 72.004 22.64C71.556 22.88 71.0467 23 70.476 23H68.188V17.4H70.516ZM70.54 22.056C70.8813 22.056 71.188 21.9787 71.46 21.824C71.7373 21.664 71.9533 21.4453 72.108 21.168C72.2627 20.8853 72.34 20.5653 72.34 20.208C72.34 19.8507 72.26 19.5307 72.1 19.248C71.94 18.96 71.7187 18.7387 71.436 18.584C71.1587 18.424 70.8467 18.344 70.5 18.344H69.26V22.056H70.54ZM76.2075 18.688C76.6502 18.688 77.0395 18.7787 77.3755 18.96C77.7168 19.1413 77.9808 19.3973 78.1675 19.728C78.3595 20.0533 78.4555 20.4293 78.4555 20.856C78.4555 21.288 78.3595 21.6693 78.1675 22C77.9808 22.3307 77.7168 22.5867 77.3755 22.768C77.0395 22.9493 76.6502 23.04 76.2075 23.04C75.7595 23.04 75.3648 22.9493 75.0235 22.768C74.6822 22.5867 74.4155 22.3307 74.2235 22C74.0368 21.6693 73.9435 21.288 73.9435 20.856C73.9435 20.4293 74.0368 20.0533 74.2235 19.728C74.4155 19.3973 74.6822 19.1413 75.0235 18.96C75.3648 18.7787 75.7595 18.688 76.2075 18.688ZM76.2075 19.576C75.8448 19.576 75.5515 19.696 75.3275 19.936C75.1035 20.176 74.9915 20.488 74.9915 20.872C74.9915 21.256 75.1035 21.568 75.3275 21.808C75.5515 22.048 75.8448 22.168 76.2075 22.168C76.5595 22.168 76.8475 22.048 77.0715 21.808C77.2955 21.568 77.4075 21.256 77.4075 20.872C77.4075 20.488 77.2955 20.176 77.0715 19.936C76.8475 19.696 76.5595 19.576 76.2075 19.576ZM79.6265 18.72L80.6745 21.952L81.6905 18.72H82.7385L83.7705 21.952L84.7945 18.72H85.8425L84.2905 23H83.2265L82.2025 19.984L81.1865 23H80.1225L78.5545 18.728L79.6265 18.72ZM89.0678 18.68C89.5584 18.68 89.9451 18.8293 90.2278 19.128C90.5104 19.4213 90.6518 19.8213 90.6518 20.328V23H89.6038V20.632C89.6038 20.3333 89.5184 20.0987 89.3478 19.928C89.1771 19.752 88.9451 19.664 88.6518 19.664C88.3051 19.6693 88.0304 19.7867 87.8278 20.016C87.6304 20.2453 87.5318 20.5387 87.5318 20.896V23H86.4918V18.72H87.5318V19.52C87.8251 18.9707 88.3371 18.6907 89.0678 18.68ZM92.8999 17.064V23H91.8599V17.064H92.8999ZM96.1059 18.688C96.5486 18.688 96.9379 18.7787 97.2739 18.96C97.6153 19.1413 97.8793 19.3973 98.0659 19.728C98.2579 20.0533 98.3539 20.4293 98.3539 20.856C98.3539 21.288 98.2579 21.6693 98.0659 22C97.8793 22.3307 97.6153 22.5867 97.2739 22.768C96.9379 22.9493 96.5486 23.04 96.1059 23.04C95.6579 23.04 95.2633 22.9493 94.9219 22.768C94.5806 22.5867 94.3139 22.3307 94.1219 22C93.9353 21.6693 93.8419 21.288 93.8419 20.856C93.8419 20.4293 93.9353 20.0533 94.1219 19.728C94.3139 19.3973 94.5806 19.1413 94.9219 18.96C95.2633 18.7787 95.6579 18.688 96.1059 18.688ZM96.1059 19.576C95.7433 19.576 95.4499 19.696 95.2259 19.936C95.0019 20.176 94.8899 20.488 94.8899 20.872C94.8899 21.256 95.0019 21.568 95.2259 21.808C95.4499 22.048 95.7433 22.168 96.1059 22.168C96.4579 22.168 96.7459 22.048 96.9699 21.808C97.1939 21.568 97.3059 21.256 97.3059 20.872C97.3059 20.488 97.1939 20.176 96.9699 19.936C96.7459 19.696 96.4579 19.576 96.1059 19.576ZM101.785 23V22.48C101.636 22.6667 101.444 22.808 101.209 22.904C100.975 23 100.705 23.048 100.401 23.048C100.103 23.048 99.8387 22.992 99.6094 22.88C99.3854 22.7627 99.212 22.6027 99.0894 22.4C98.9667 22.1973 98.9054 21.9707 98.9054 21.72C98.9054 21.32 99.0467 21.008 99.3294 20.784C99.612 20.5547 100.012 20.4373 100.529 20.432H101.777V20.32C101.777 20.0693 101.695 19.8747 101.529 19.736C101.364 19.5973 101.124 19.528 100.809 19.528C100.404 19.528 99.98 19.6613 99.5374 19.928L99.1614 19.208C99.4974 19.0213 99.8014 18.888 100.073 18.808C100.351 18.7227 100.673 18.68 101.041 18.68C101.596 18.68 102.025 18.8133 102.329 19.08C102.639 19.3467 102.796 19.72 102.801 20.2L102.809 23H101.785ZM100.649 22.248C100.948 22.248 101.204 22.1787 101.417 22.04C101.631 21.896 101.751 21.72 101.777 21.512V21.128H100.697C100.42 21.128 100.215 21.1707 100.081 21.256C99.9534 21.336 99.8894 21.4693 99.8894 21.656C99.8894 21.8373 99.956 21.9813 100.089 22.088C100.228 22.1947 100.415 22.248 100.649 22.248ZM108.104 17.064V23H107.064V22.312C106.909 22.552 106.709 22.736 106.464 22.864C106.224 22.9867 105.944 23.048 105.624 23.048C105.219 23.048 104.861 22.9573 104.552 22.776C104.248 22.5893 104.011 22.3307 103.84 22C103.669 21.664 103.584 21.28 103.584 20.848C103.584 20.4213 103.667 20.0453 103.832 19.72C104.003 19.3893 104.24 19.1333 104.544 18.952C104.853 18.7707 105.205 18.68 105.6 18.68C105.925 18.68 106.211 18.744 106.456 18.872C106.701 19 106.904 19.184 107.064 19.424V17.064H108.104ZM105.848 22.176C106.205 22.176 106.496 22.056 106.72 21.816C106.949 21.5707 107.064 21.256 107.064 20.872C107.064 20.488 106.949 20.176 106.72 19.936C106.496 19.6907 106.205 19.568 105.848 19.568C105.491 19.568 105.2 19.6907 104.976 19.936C104.752 20.176 104.637 20.488 104.632 20.872C104.637 21.256 104.752 21.5707 104.976 21.816C105.2 22.056 105.491 22.176 105.848 22.176ZM114.177 17.328C114.732 17.328 115.236 17.4533 115.689 17.704C116.148 17.9547 116.508 18.2987 116.769 18.736C117.031 19.1733 117.161 19.6587 117.161 20.192C117.161 20.7253 117.031 21.2133 116.769 21.656C116.508 22.0933 116.148 22.44 115.689 22.696C115.236 22.952 114.732 23.08 114.177 23.08C113.623 23.08 113.116 22.952 112.657 22.696C112.204 22.44 111.847 22.0933 111.585 21.656C111.324 21.2133 111.193 20.7253 111.193 20.192C111.193 19.6587 111.324 19.1733 111.585 18.736C111.847 18.2987 112.204 17.9547 112.657 17.704C113.116 17.4533 113.623 17.328 114.177 17.328ZM114.193 18.288C113.852 18.288 113.535 18.3733 113.241 18.544C112.948 18.7093 112.716 18.9387 112.545 19.232C112.375 19.52 112.289 19.84 112.289 20.192C112.289 20.544 112.375 20.8667 112.545 21.16C112.721 21.4533 112.953 21.6853 113.241 21.856C113.535 22.0267 113.852 22.112 114.193 22.112C114.529 22.112 114.841 22.0267 115.129 21.856C115.417 21.6853 115.644 21.4533 115.809 21.16C115.98 20.8667 116.065 20.544 116.065 20.192C116.065 19.84 115.98 19.52 115.809 19.232C115.644 18.9387 115.417 18.7093 115.129 18.544C114.841 18.3733 114.529 18.288 114.193 18.288ZM120.638 18.68C121.129 18.68 121.515 18.8293 121.798 19.128C122.081 19.4213 122.222 19.8213 122.222 20.328V23H121.174V20.632C121.174 20.3333 121.089 20.0987 120.918 19.928C120.747 19.752 120.515 19.664 120.222 19.664C119.875 19.6693 119.601 19.7867 119.398 20.016C119.201 20.2453 119.102 20.5387 119.102 20.896V23H118.062V18.72H119.102V19.52C119.395 18.9707 119.907 18.6907 120.638 18.68ZM129.53 17.4V18.352H127.786V23H126.706V18.352H124.962V17.4H129.53ZM132.475 18.68C132.966 18.68 133.352 18.8293 133.635 19.128C133.918 19.4213 134.059 19.8213 134.059 20.328V23H133.011V20.632C133.011 20.3333 132.926 20.0987 132.755 19.928C132.584 19.752 132.352 19.664 132.059 19.664C131.712 19.6693 131.438 19.7867 131.235 20.016C131.032 20.2453 130.931 20.5387 130.931 20.896V23H129.891V17.064H130.931V19.536C131.224 18.976 131.739 18.6907 132.475 18.68ZM137.01 18.688C137.693 18.688 138.205 18.8827 138.546 19.272C138.893 19.6613 139.066 20.208 139.066 20.912C139.066 21.0507 139.063 21.1547 139.058 21.224H135.898C135.967 21.528 136.109 21.768 136.322 21.944C136.541 22.1147 136.807 22.2 137.122 22.2C137.341 22.2 137.549 22.16 137.746 22.08C137.949 21.9947 138.125 21.8747 138.274 21.72L138.834 22.304C138.621 22.5387 138.359 22.72 138.05 22.848C137.746 22.976 137.407 23.04 137.034 23.04C136.597 23.04 136.21 22.9493 135.874 22.768C135.543 22.5867 135.287 22.3333 135.106 22.008C134.925 21.6773 134.834 21.2987 134.834 20.872C134.834 20.4453 134.925 20.0667 135.106 19.736C135.293 19.4053 135.551 19.1493 135.882 18.968C136.213 18.7813 136.589 18.688 137.01 18.688ZM138.114 20.528C138.103 20.2133 137.999 19.9627 137.802 19.776C137.605 19.5893 137.343 19.496 137.018 19.496C136.714 19.496 136.458 19.5893 136.25 19.776C136.047 19.9573 135.922 20.208 135.874 20.528H138.114Z" fill="white"/>
<path d="M76.0314 39.928H71.2434L70.3754 42H68.4294L72.7274 32.2H74.6734L78.9154 42H76.8994L76.0314 39.928ZM75.3594 38.318L73.6514 34.202L71.9154 38.318H75.3594ZM84.4463 34.454C85.1463 34.454 85.7623 34.6173 86.2943 34.944C86.8357 35.2613 87.251 35.7093 87.5403 36.288C87.839 36.8667 87.9883 37.534 87.9883 38.29C87.9883 39.0367 87.8437 39.6947 87.5543 40.264C87.265 40.8333 86.8543 41.2767 86.3223 41.594C85.7903 41.9113 85.1743 42.07 84.4743 42.07C83.9143 42.07 83.4197 41.9627 82.9903 41.748C82.561 41.524 82.2063 41.202 81.9263 40.782V44.716H80.1063V34.51H81.9263V35.742C82.197 35.322 82.5423 35.0047 82.9623 34.79C83.3917 34.566 83.8863 34.454 84.4463 34.454ZM84.0403 40.502C84.6563 40.502 85.1603 40.292 85.5523 39.872C85.9443 39.4427 86.1403 38.8967 86.1403 38.234C86.1403 37.5713 85.9443 37.03 85.5523 36.61C85.1603 36.19 84.6563 35.98 84.0403 35.98C83.415 35.98 82.9063 36.19 82.5143 36.61C82.1223 37.03 81.9263 37.5713 81.9263 38.234C81.9263 38.906 82.1223 39.452 82.5143 39.872C82.9063 40.292 83.415 40.502 84.0403 40.502ZM93.9756 34.454C94.6756 34.454 95.2916 34.6173 95.8236 34.944C96.365 35.2613 96.7803 35.7093 97.0696 36.288C97.3683 36.8667 97.5176 37.534 97.5176 38.29C97.5176 39.0367 97.373 39.6947 97.0836 40.264C96.7943 40.8333 96.3836 41.2767 95.8516 41.594C95.3196 41.9113 94.7036 42.07 94.0036 42.07C93.4436 42.07 92.949 41.9627 92.5196 41.748C92.0903 41.524 91.7356 41.202 91.4556 40.782V44.716H89.6356V34.51H91.4556V35.742C91.7263 35.322 92.0716 35.0047 92.4916 34.79C92.921 34.566 93.4156 34.454 93.9756 34.454ZM93.5696 40.502C94.1856 40.502 94.6896 40.292 95.0816 39.872C95.4736 39.4427 95.6696 38.8967 95.6696 38.234C95.6696 37.5713 95.4736 37.03 95.0816 36.61C94.6896 36.19 94.1856 35.98 93.5696 35.98C92.9443 35.98 92.4356 36.19 92.0436 36.61C91.6516 37.03 91.4556 37.5713 91.4556 38.234C91.4556 38.906 91.6516 39.452 92.0436 39.872C92.4356 40.292 92.9443 40.502 93.5696 40.502ZM100.985 31.612V42H99.1649V31.612H100.985ZM106.442 34.454C107.636 34.454 108.532 34.7947 109.13 35.476C109.736 36.1573 110.04 37.114 110.04 38.346C110.04 38.5887 110.035 38.7707 110.026 38.892H104.496C104.617 39.424 104.864 39.844 105.238 40.152C105.62 40.4507 106.087 40.6 106.638 40.6C107.02 40.6 107.384 40.53 107.73 40.39C108.084 40.2407 108.392 40.0307 108.654 39.76L109.634 40.782C109.26 41.1927 108.803 41.51 108.262 41.734C107.73 41.958 107.137 42.07 106.484 42.07C105.718 42.07 105.042 41.9113 104.454 41.594C103.875 41.2767 103.427 40.8333 103.11 40.264C102.792 39.6853 102.634 39.0227 102.634 38.276C102.634 37.5293 102.792 36.8667 103.11 36.288C103.436 35.7093 103.889 35.2613 104.468 34.944C105.046 34.6173 105.704 34.454 106.442 34.454ZM108.374 37.674C108.355 37.1233 108.173 36.6847 107.828 36.358C107.482 36.0313 107.025 35.868 106.456 35.868C105.924 35.868 105.476 36.0313 105.112 36.358C104.757 36.6753 104.538 37.114 104.454 37.674H108.374ZM121.608 34.72C121.104 34.412 120.586 34.174 120.054 34.006C119.531 33.838 119.069 33.754 118.668 33.754C118.22 33.754 117.865 33.838 117.604 34.006C117.343 34.174 117.212 34.4073 117.212 34.706C117.212 34.9767 117.301 35.2053 117.478 35.392C117.665 35.5693 117.893 35.7187 118.164 35.84C118.444 35.952 118.822 36.078 119.298 36.218C119.961 36.414 120.502 36.61 120.922 36.806C121.351 37.002 121.715 37.2913 122.014 37.674C122.313 38.0567 122.462 38.5607 122.462 39.186C122.462 39.7833 122.299 40.306 121.972 40.754C121.655 41.1927 121.211 41.5287 120.642 41.762C120.082 41.9953 119.438 42.112 118.71 42.112C117.945 42.112 117.198 41.972 116.47 41.692C115.742 41.4027 115.107 41.02 114.566 40.544L115.35 38.948C115.845 39.4053 116.4 39.7647 117.016 40.026C117.632 40.2873 118.206 40.418 118.738 40.418C119.261 40.418 119.671 40.32 119.97 40.124C120.269 39.9187 120.418 39.6433 120.418 39.298C120.418 39.018 120.325 38.7893 120.138 38.612C119.961 38.4253 119.732 38.276 119.452 38.164C119.172 38.052 118.789 37.926 118.304 37.786C117.641 37.59 117.1 37.3987 116.68 37.212C116.26 37.0253 115.901 36.7453 115.602 36.372C115.303 35.9893 115.154 35.49 115.154 34.874C115.154 34.3047 115.303 33.81 115.602 33.39C115.91 32.9607 116.339 32.6293 116.89 32.396C117.45 32.1627 118.094 32.046 118.822 32.046C119.457 32.046 120.082 32.1393 120.698 32.326C121.323 32.5127 121.879 32.7647 122.364 33.082L121.608 34.72ZM128.551 41.538C127.954 41.902 127.328 42.084 126.675 42.084C126.031 42.084 125.504 41.8973 125.093 41.524C124.682 41.1413 124.477 40.5813 124.477 39.844V36.148H123.427L123.413 34.818H124.477V32.76H126.283V34.818H128.425V36.148H126.283V39.522C126.283 39.8673 126.348 40.1147 126.479 40.264C126.61 40.404 126.806 40.474 127.067 40.474C127.347 40.474 127.702 40.3713 128.131 40.166L128.551 41.538ZM133.187 34.454C133.962 34.454 134.643 34.6127 135.231 34.93C135.829 35.2473 136.291 35.6953 136.617 36.274C136.953 36.8433 137.121 37.5013 137.121 38.248C137.121 39.004 136.953 39.6713 136.617 40.25C136.291 40.8287 135.829 41.2767 135.231 41.594C134.643 41.9113 133.962 42.07 133.187 42.07C132.403 42.07 131.713 41.9113 131.115 41.594C130.518 41.2767 130.051 40.8287 129.715 40.25C129.389 39.6713 129.225 39.004 129.225 38.248C129.225 37.5013 129.389 36.8433 129.715 36.274C130.051 35.6953 130.518 35.2473 131.115 34.93C131.713 34.6127 132.403 34.454 133.187 34.454ZM133.187 36.008C132.553 36.008 132.039 36.218 131.647 36.638C131.255 37.058 131.059 37.604 131.059 38.276C131.059 38.948 131.255 39.494 131.647 39.914C132.039 40.334 132.553 40.544 133.187 40.544C133.803 40.544 134.307 40.334 134.699 39.914C135.091 39.494 135.287 38.948 135.287 38.276C135.287 37.604 135.091 37.058 134.699 36.638C134.307 36.218 133.803 36.008 133.187 36.008ZM140.522 35.952C140.774 35.4667 141.115 35.098 141.544 34.846C141.983 34.5847 142.492 34.4493 143.07 34.44V36.204C142.296 36.1573 141.675 36.3393 141.208 36.75C140.751 37.1513 140.522 37.6973 140.522 38.388V42H138.702V34.51H140.522V35.952ZM147.471 34.454C148.666 34.454 149.562 34.7947 150.159 35.476C150.766 36.1573 151.069 37.114 151.069 38.346C151.069 38.5887 151.064 38.7707 151.055 38.892H145.525C145.646 39.424 145.894 39.844 146.267 40.152C146.65 40.4507 147.116 40.6 147.667 40.6C148.05 40.6 148.414 40.53 148.759 40.39C149.114 40.2407 149.422 40.0307 149.683 39.76L150.663 40.782C150.29 41.1927 149.832 41.51 149.291 41.734C148.759 41.958 148.166 42.07 147.513 42.07C146.748 42.07 146.071 41.9113 145.483 41.594C144.904 41.2767 144.456 40.8333 144.139 40.264C143.822 39.6853 143.663 39.0227 143.663 38.276C143.663 37.5293 143.822 36.8667 144.139 36.288C144.466 35.7093 144.918 35.2613 145.497 34.944C146.076 34.6173 146.734 34.454 147.471 34.454ZM149.403 37.674C149.384 37.1233 149.202 36.6847 148.857 36.358C148.512 36.0313 148.054 35.868 147.485 35.868C146.953 35.868 146.505 36.0313 146.141 36.358C145.786 36.6753 145.567 37.114 145.483 37.674H149.403Z" fill="white"/>
</svg>
