<svg width="185" height="60" viewBox="0 0 185 60" fill="none" xmlns="http://www.w3.org/2000/svg">
<rect width="185" height="60" rx="30" fill="#016AB5"/>
<path d="M38.251 18.61L51.375 26.156L48.562 28.969L38.251 18.61ZM35.532 18L47.579 30L35.533 42C34.92 41.729 34.5 41.126 34.5 40.425C34.5 40.402 34.5 40.379 34.501 40.357V40.36V19.641C34.5 19.622 34.5 19.599 34.5 19.576C34.5 18.875 34.92 18.272 35.522 18.005L35.533 18.001L35.532 18ZM55.454 28.594C55.868 28.901 56.133 29.389 56.133 29.938C56.133 29.96 56.133 29.981 56.132 30.003V30C56.136 30.043 56.139 30.094 56.139 30.145C56.139 30.661 55.889 31.119 55.503 31.403L55.499 31.406L52.686 32.999L49.64 30L52.687 26.953L55.454 28.594ZM38.251 41.39L48.563 31.031L51.376 33.844L38.251 41.39Z" fill="white"/>
<path d="M70.516 17.4C71.076 17.4 71.5773 17.52 72.02 17.76C72.4627 17.9947 72.8093 18.3253 73.06 18.752C73.3107 19.1787 73.436 19.6613 73.436 20.2C73.436 20.7387 73.308 21.2213 73.052 21.648C72.8013 22.0693 72.452 22.4 72.004 22.64C71.556 22.88 71.0467 23 70.476 23H68.188V17.4H70.516ZM70.54 22.056C70.8813 22.056 71.188 21.9787 71.46 21.824C71.7373 21.664 71.9533 21.4453 72.108 21.168C72.2627 20.8853 72.34 20.5653 72.34 20.208C72.34 19.8507 72.26 19.5307 72.1 19.248C71.94 18.96 71.7187 18.7387 71.436 18.584C71.1587 18.424 70.8467 18.344 70.5 18.344H69.26V22.056H70.54ZM76.2075 18.688C76.6502 18.688 77.0395 18.7787 77.3755 18.96C77.7168 19.1413 77.9808 19.3973 78.1675 19.728C78.3595 20.0533 78.4555 20.4293 78.4555 20.856C78.4555 21.288 78.3595 21.6693 78.1675 22C77.9808 22.3307 77.7168 22.5867 77.3755 22.768C77.0395 22.9493 76.6502 23.04 76.2075 23.04C75.7595 23.04 75.3648 22.9493 75.0235 22.768C74.6822 22.5867 74.4155 22.3307 74.2235 22C74.0368 21.6693 73.9435 21.288 73.9435 20.856C73.9435 20.4293 74.0368 20.0533 74.2235 19.728C74.4155 19.3973 74.6822 19.1413 75.0235 18.96C75.3648 18.7787 75.7595 18.688 76.2075 18.688ZM76.2075 19.576C75.8448 19.576 75.5515 19.696 75.3275 19.936C75.1035 20.176 74.9915 20.488 74.9915 20.872C74.9915 21.256 75.1035 21.568 75.3275 21.808C75.5515 22.048 75.8448 22.168 76.2075 22.168C76.5595 22.168 76.8475 22.048 77.0715 21.808C77.2955 21.568 77.4075 21.256 77.4075 20.872C77.4075 20.488 77.2955 20.176 77.0715 19.936C76.8475 19.696 76.5595 19.576 76.2075 19.576ZM79.6265 18.72L80.6745 21.952L81.6905 18.72H82.7385L83.7705 21.952L84.7945 18.72H85.8425L84.2905 23H83.2265L82.2025 19.984L81.1865 23H80.1225L78.5545 18.728L79.6265 18.72ZM89.0678 18.68C89.5584 18.68 89.9451 18.8293 90.2278 19.128C90.5104 19.4213 90.6518 19.8213 90.6518 20.328V23H89.6038V20.632C89.6038 20.3333 89.5184 20.0987 89.3478 19.928C89.1771 19.752 88.9451 19.664 88.6518 19.664C88.3051 19.6693 88.0304 19.7867 87.8278 20.016C87.6304 20.2453 87.5318 20.5387 87.5318 20.896V23H86.4918V18.72H87.5318V19.52C87.8251 18.9707 88.3371 18.6907 89.0678 18.68ZM92.8999 17.064V23H91.8599V17.064H92.8999ZM96.1059 18.688C96.5486 18.688 96.9379 18.7787 97.2739 18.96C97.6153 19.1413 97.8793 19.3973 98.0659 19.728C98.2579 20.0533 98.3539 20.4293 98.3539 20.856C98.3539 21.288 98.2579 21.6693 98.0659 22C97.8793 22.3307 97.6153 22.5867 97.2739 22.768C96.9379 22.9493 96.5486 23.04 96.1059 23.04C95.6579 23.04 95.2633 22.9493 94.9219 22.768C94.5806 22.5867 94.3139 22.3307 94.1219 22C93.9353 21.6693 93.8419 21.288 93.8419 20.856C93.8419 20.4293 93.9353 20.0533 94.1219 19.728C94.3139 19.3973 94.5806 19.1413 94.9219 18.96C95.2633 18.7787 95.6579 18.688 96.1059 18.688ZM96.1059 19.576C95.7433 19.576 95.4499 19.696 95.2259 19.936C95.0019 20.176 94.8899 20.488 94.8899 20.872C94.8899 21.256 95.0019 21.568 95.2259 21.808C95.4499 22.048 95.7433 22.168 96.1059 22.168C96.4579 22.168 96.7459 22.048 96.9699 21.808C97.1939 21.568 97.3059 21.256 97.3059 20.872C97.3059 20.488 97.1939 20.176 96.9699 19.936C96.7459 19.696 96.4579 19.576 96.1059 19.576ZM101.785 23V22.48C101.636 22.6667 101.444 22.808 101.209 22.904C100.975 23 100.705 23.048 100.401 23.048C100.103 23.048 99.8387 22.992 99.6094 22.88C99.3854 22.7627 99.212 22.6027 99.0894 22.4C98.9667 22.1973 98.9054 21.9707 98.9054 21.72C98.9054 21.32 99.0467 21.008 99.3294 20.784C99.612 20.5547 100.012 20.4373 100.529 20.432H101.777V20.32C101.777 20.0693 101.695 19.8747 101.529 19.736C101.364 19.5973 101.124 19.528 100.809 19.528C100.404 19.528 99.98 19.6613 99.5374 19.928L99.1614 19.208C99.4974 19.0213 99.8014 18.888 100.073 18.808C100.351 18.7227 100.673 18.68 101.041 18.68C101.596 18.68 102.025 18.8133 102.329 19.08C102.639 19.3467 102.796 19.72 102.801 20.2L102.809 23H101.785ZM100.649 22.248C100.948 22.248 101.204 22.1787 101.417 22.04C101.631 21.896 101.751 21.72 101.777 21.512V21.128H100.697C100.42 21.128 100.215 21.1707 100.081 21.256C99.9534 21.336 99.8894 21.4693 99.8894 21.656C99.8894 21.8373 99.956 21.9813 100.089 22.088C100.228 22.1947 100.415 22.248 100.649 22.248ZM108.104 17.064V23H107.064V22.312C106.909 22.552 106.709 22.736 106.464 22.864C106.224 22.9867 105.944 23.048 105.624 23.048C105.219 23.048 104.861 22.9573 104.552 22.776C104.248 22.5893 104.011 22.3307 103.84 22C103.669 21.664 103.584 21.28 103.584 20.848C103.584 20.4213 103.667 20.0453 103.832 19.72C104.003 19.3893 104.24 19.1333 104.544 18.952C104.853 18.7707 105.205 18.68 105.6 18.68C105.925 18.68 106.211 18.744 106.456 18.872C106.701 19 106.904 19.184 107.064 19.424V17.064H108.104ZM105.848 22.176C106.205 22.176 106.496 22.056 106.72 21.816C106.949 21.5707 107.064 21.256 107.064 20.872C107.064 20.488 106.949 20.176 106.72 19.936C106.496 19.6907 106.205 19.568 105.848 19.568C105.491 19.568 105.2 19.6907 104.976 19.936C104.752 20.176 104.637 20.488 104.632 20.872C104.637 21.256 104.752 21.5707 104.976 21.816C105.2 22.056 105.491 22.176 105.848 22.176ZM114.177 17.328C114.732 17.328 115.236 17.4533 115.689 17.704C116.148 17.9547 116.508 18.2987 116.769 18.736C117.031 19.1733 117.161 19.6587 117.161 20.192C117.161 20.7253 117.031 21.2133 116.769 21.656C116.508 22.0933 116.148 22.44 115.689 22.696C115.236 22.952 114.732 23.08 114.177 23.08C113.623 23.08 113.116 22.952 112.657 22.696C112.204 22.44 111.847 22.0933 111.585 21.656C111.324 21.2133 111.193 20.7253 111.193 20.192C111.193 19.6587 111.324 19.1733 111.585 18.736C111.847 18.2987 112.204 17.9547 112.657 17.704C113.116 17.4533 113.623 17.328 114.177 17.328ZM114.193 18.288C113.852 18.288 113.535 18.3733 113.241 18.544C112.948 18.7093 112.716 18.9387 112.545 19.232C112.375 19.52 112.289 19.84 112.289 20.192C112.289 20.544 112.375 20.8667 112.545 21.16C112.721 21.4533 112.953 21.6853 113.241 21.856C113.535 22.0267 113.852 22.112 114.193 22.112C114.529 22.112 114.841 22.0267 115.129 21.856C115.417 21.6853 115.644 21.4533 115.809 21.16C115.98 20.8667 116.065 20.544 116.065 20.192C116.065 19.84 115.98 19.52 115.809 19.232C115.644 18.9387 115.417 18.7093 115.129 18.544C114.841 18.3733 114.529 18.288 114.193 18.288ZM120.638 18.68C121.129 18.68 121.515 18.8293 121.798 19.128C122.081 19.4213 122.222 19.8213 122.222 20.328V23H121.174V20.632C121.174 20.3333 121.089 20.0987 120.918 19.928C120.747 19.752 120.515 19.664 120.222 19.664C119.875 19.6693 119.601 19.7867 119.398 20.016C119.201 20.2453 119.102 20.5387 119.102 20.896V23H118.062V18.72H119.102V19.52C119.395 18.9707 119.907 18.6907 120.638 18.68ZM129.53 17.4V18.352H127.786V23H126.706V18.352H124.962V17.4H129.53ZM132.475 18.68C132.966 18.68 133.352 18.8293 133.635 19.128C133.918 19.4213 134.059 19.8213 134.059 20.328V23H133.011V20.632C133.011 20.3333 132.926 20.0987 132.755 19.928C132.584 19.752 132.352 19.664 132.059 19.664C131.712 19.6693 131.438 19.7867 131.235 20.016C131.032 20.2453 130.931 20.5387 130.931 20.896V23H129.891V17.064H130.931V19.536C131.224 18.976 131.739 18.6907 132.475 18.68ZM137.01 18.688C137.693 18.688 138.205 18.8827 138.546 19.272C138.893 19.6613 139.066 20.208 139.066 20.912C139.066 21.0507 139.063 21.1547 139.058 21.224H135.898C135.967 21.528 136.109 21.768 136.322 21.944C136.541 22.1147 136.807 22.2 137.122 22.2C137.341 22.2 137.549 22.16 137.746 22.08C137.949 21.9947 138.125 21.8747 138.274 21.72L138.834 22.304C138.621 22.5387 138.359 22.72 138.05 22.848C137.746 22.976 137.407 23.04 137.034 23.04C136.597 23.04 136.21 22.9493 135.874 22.768C135.543 22.5867 135.287 22.3333 135.106 22.008C134.925 21.6773 134.834 21.2987 134.834 20.872C134.834 20.4453 134.925 20.0667 135.106 19.736C135.293 19.4053 135.551 19.1493 135.882 18.968C136.213 18.7813 136.589 18.688 137.01 18.688ZM138.114 20.528C138.103 20.2133 137.999 19.9627 137.802 19.776C137.605 19.5893 137.343 19.496 137.018 19.496C136.714 19.496 136.458 19.5893 136.25 19.776C136.047 19.9573 135.922 20.208 135.874 20.528H138.114Z" fill="white"/>
<path d="M75.354 37.128H76.992V40.852C76.4787 41.2347 75.872 41.5473 75.172 41.79C74.472 42.0233 73.786 42.14 73.114 42.14C72.1527 42.14 71.2753 41.916 70.482 41.468C69.698 41.02 69.0773 40.4133 68.62 39.648C68.1627 38.8733 67.934 38.0193 67.934 37.086C67.934 36.1527 68.1673 35.308 68.634 34.552C69.1007 33.7867 69.7353 33.1847 70.538 32.746C71.35 32.298 72.246 32.074 73.226 32.074C73.926 32.074 74.6167 32.2 75.298 32.452C75.9793 32.704 76.5673 33.0493 77.062 33.488L75.998 34.874C75.6247 34.5193 75.1907 34.244 74.696 34.048C74.2107 33.852 73.7207 33.754 73.226 33.754C72.61 33.754 72.0407 33.9033 71.518 34.202C71.0047 34.4913 70.5987 34.8927 70.3 35.406C70.0013 35.9193 69.852 36.4793 69.852 37.086C69.852 37.702 70.0013 38.2667 70.3 38.78C70.608 39.2933 71.0187 39.6993 71.532 39.998C72.0453 40.2967 72.6147 40.446 73.24 40.446C73.576 40.446 73.926 40.3947 74.29 40.292C74.6633 40.18 75.018 40.026 75.354 39.83V37.128ZM82.369 34.454C83.1437 34.454 83.825 34.6127 84.413 34.93C85.0103 35.2473 85.4723 35.6953 85.799 36.274C86.135 36.8433 86.303 37.5013 86.303 38.248C86.303 39.004 86.135 39.6713 85.799 40.25C85.4723 40.8287 85.0103 41.2767 84.413 41.594C83.825 41.9113 83.1437 42.07 82.369 42.07C81.585 42.07 80.8943 41.9113 80.297 41.594C79.6997 41.2767 79.233 40.8287 78.897 40.25C78.5703 39.6713 78.407 39.004 78.407 38.248C78.407 37.5013 78.5703 36.8433 78.897 36.274C79.233 35.6953 79.6997 35.2473 80.297 34.93C80.8943 34.6127 81.585 34.454 82.369 34.454ZM82.369 36.008C81.7343 36.008 81.221 36.218 80.829 36.638C80.437 37.058 80.241 37.604 80.241 38.276C80.241 38.948 80.437 39.494 80.829 39.914C81.221 40.334 81.7343 40.544 82.369 40.544C82.985 40.544 83.489 40.334 83.881 39.914C84.273 39.494 84.469 38.948 84.469 38.276C84.469 37.604 84.273 37.058 83.881 36.638C83.489 36.218 82.985 36.008 82.369 36.008ZM91.16 34.454C91.9347 34.454 92.616 34.6127 93.204 34.93C93.8013 35.2473 94.2633 35.6953 94.59 36.274C94.926 36.8433 95.094 37.5013 95.094 38.248C95.094 39.004 94.926 39.6713 94.59 40.25C94.2633 40.8287 93.8013 41.2767 93.204 41.594C92.616 41.9113 91.9347 42.07 91.16 42.07C90.376 42.07 89.6853 41.9113 89.088 41.594C88.4907 41.2767 88.024 40.8287 87.688 40.25C87.3613 39.6713 87.198 39.004 87.198 38.248C87.198 37.5013 87.3613 36.8433 87.688 36.274C88.024 35.6953 88.4907 35.2473 89.088 34.93C89.6853 34.6127 90.376 34.454 91.16 34.454ZM91.16 36.008C90.5253 36.008 90.012 36.218 89.62 36.638C89.228 37.058 89.032 37.604 89.032 38.276C89.032 38.948 89.228 39.494 89.62 39.914C90.012 40.334 90.5253 40.544 91.16 40.544C91.776 40.544 92.28 40.334 92.672 39.914C93.064 39.494 93.26 38.948 93.26 38.276C93.26 37.604 93.064 37.058 92.672 36.638C92.28 36.218 91.776 36.008 91.16 36.008ZM103.521 34.51V41.286C103.521 41.9953 103.358 42.6113 103.031 43.134C102.714 43.666 102.256 44.072 101.659 44.352C101.071 44.6413 100.385 44.786 99.601 44.786C98.4623 44.786 97.4077 44.4547 96.437 43.792L97.165 42.476C97.8743 42.9987 98.6537 43.26 99.503 43.26C100.175 43.26 100.707 43.0873 101.099 42.742C101.5 42.3967 101.701 41.9253 101.701 41.328V40.446C101.449 40.8287 101.122 41.1227 100.721 41.328C100.32 41.524 99.853 41.622 99.321 41.622C98.6677 41.622 98.089 41.4727 97.585 41.174C97.081 40.866 96.689 40.4413 96.409 39.9C96.129 39.3493 95.989 38.7193 95.989 38.01C95.989 37.31 96.129 36.694 96.409 36.162C96.689 35.6207 97.081 35.2007 97.585 34.902C98.089 34.6033 98.6677 34.454 99.321 34.454C99.8437 34.454 100.306 34.5567 100.707 34.762C101.118 34.9673 101.449 35.2567 101.701 35.63V34.51H103.521ZM99.713 40.194C100.301 40.194 100.777 39.998 101.141 39.606C101.514 39.2047 101.701 38.6867 101.701 38.052C101.701 37.4173 101.514 36.904 101.141 36.512C100.777 36.1107 100.301 35.91 99.713 35.91C99.125 35.91 98.6443 36.1107 98.271 36.512C97.907 36.9133 97.7203 37.4267 97.711 38.052C97.7203 38.6867 97.907 39.2047 98.271 39.606C98.6443 39.998 99.125 40.194 99.713 40.194ZM107.547 31.612V42H105.727V31.612H107.547ZM113.004 34.454C114.199 34.454 115.095 34.7947 115.692 35.476C116.299 36.1573 116.602 37.114 116.602 38.346C116.602 38.5887 116.597 38.7707 116.588 38.892H111.058C111.179 39.424 111.427 39.844 111.8 40.152C112.183 40.4507 112.649 40.6 113.2 40.6C113.583 40.6 113.947 40.53 114.292 40.39C114.647 40.2407 114.955 40.0307 115.216 39.76L116.196 40.782C115.823 41.1927 115.365 41.51 114.824 41.734C114.292 41.958 113.699 42.07 113.046 42.07C112.281 42.07 111.604 41.9113 111.016 41.594C110.437 41.2767 109.989 40.8333 109.672 40.264C109.355 39.6853 109.196 39.0227 109.196 38.276C109.196 37.5293 109.355 36.8667 109.672 36.288C109.999 35.7093 110.451 35.2613 111.03 34.944C111.609 34.6173 112.267 34.454 113.004 34.454ZM114.936 37.674C114.917 37.1233 114.735 36.6847 114.39 36.358C114.045 36.0313 113.587 35.868 113.018 35.868C112.486 35.868 112.038 36.0313 111.674 36.358C111.319 36.6753 111.1 37.114 111.016 37.674H114.936ZM126.029 32.2C127.261 32.2 128.213 32.494 128.885 33.082C129.566 33.67 129.907 34.5007 129.907 35.574C129.907 36.694 129.566 37.5667 128.885 38.192C128.213 38.808 127.261 39.116 126.029 39.116H123.887V42H122.011V32.2H126.029ZM125.931 37.464C126.64 37.464 127.181 37.31 127.555 37.002C127.937 36.694 128.129 36.2367 128.129 35.63C128.129 35.0327 127.937 34.5847 127.555 34.286C127.181 33.9873 126.64 33.838 125.931 33.838H123.887V37.464H125.931ZM133.278 31.612V42H131.458V31.612H133.278ZM140.037 42V41.09C139.775 41.4167 139.439 41.664 139.029 41.832C138.618 42 138.147 42.084 137.615 42.084C137.092 42.084 136.63 41.986 136.229 41.79C135.837 41.5847 135.533 41.3047 135.319 40.95C135.104 40.5953 134.997 40.1987 134.997 39.76C134.997 39.06 135.244 38.514 135.739 38.122C136.233 37.7207 136.933 37.5153 137.839 37.506H140.023V37.31C140.023 36.8713 139.878 36.5307 139.589 36.288C139.299 36.0453 138.879 35.924 138.329 35.924C137.619 35.924 136.877 36.1573 136.103 36.624L135.445 35.364C136.033 35.0373 136.565 34.804 137.041 34.664C137.526 34.5147 138.091 34.44 138.735 34.44C139.705 34.44 140.457 34.6733 140.989 35.14C141.53 35.6067 141.805 36.26 141.815 37.1L141.829 42H140.037ZM138.049 40.684C138.571 40.684 139.019 40.5627 139.393 40.32C139.766 40.068 139.976 39.76 140.023 39.396V38.724H138.133C137.647 38.724 137.288 38.7987 137.055 38.948C136.831 39.088 136.719 39.3213 136.719 39.648C136.719 39.9653 136.835 40.2173 137.069 40.404C137.311 40.5907 137.638 40.684 138.049 40.684ZM146.885 42.938C146.652 43.554 146.316 44.016 145.877 44.324C145.448 44.6413 144.934 44.8 144.337 44.8C143.973 44.8 143.642 44.744 143.343 44.632C143.054 44.5293 142.764 44.3613 142.475 44.128L143.259 42.742C143.436 42.8727 143.6 42.966 143.749 43.022C143.898 43.0873 144.057 43.12 144.225 43.12C144.72 43.12 145.084 42.868 145.317 42.364L145.541 41.874L142.447 34.51H144.337L146.465 39.956L148.411 34.51H150.245L146.885 42.938Z" fill="white"/>
</svg>
