<svg width="129" height="48" viewBox="0 0 129 48" fill="none" xmlns="http://www.w3.org/2000/svg">
<rect width="129" height="48" rx="24" fill="#2DB08A"/>
<path d="M12.0633 15.4575L21.9063 21.117L19.7965 23.2267L12.0633 15.4575ZM10.024 15L19.0593 24L10.0248 33C9.565 32.7967 9.25 32.3445 9.25 31.8187C9.25 31.8015 9.25 31.7843 9.25075 31.7677V31.77V16.2308C9.25 16.2165 9.25 16.1992 9.25 16.182C9.25 15.6562 9.565 15.204 10.0165 15.0037L10.0248 15.0008L10.024 15ZM24.9655 22.9455C25.276 23.1757 25.4748 23.5417 25.4748 23.9535C25.4748 23.97 25.4748 23.9858 25.474 24.0023V24C25.477 24.0323 25.4793 24.0705 25.4793 24.1088C25.4793 24.4958 25.2918 24.8392 25.0023 25.0522L24.9993 25.0545L22.8895 26.2492L20.605 24L22.8903 21.7148L24.9655 22.9455ZM12.0633 32.5425L19.7973 24.7733L21.907 26.883L12.0633 32.5425Z" fill="white"/>
<path d="M38.916 12.44C39.508 12.44 40.0253 12.5547 40.468 12.784C40.916 13.008 41.26 13.3333 41.5 13.76C41.7453 14.1813 41.868 14.6747 41.868 15.24C41.868 15.8053 41.7453 16.296 41.5 16.712C41.26 17.128 40.916 17.448 40.468 17.672C40.0253 17.8907 39.508 18 38.916 18H37.1V12.44H38.916ZM38.916 17.256C39.5667 17.256 40.0653 17.08 40.412 16.728C40.7587 16.376 40.932 15.88 40.932 15.24C40.932 14.5947 40.7587 14.0907 40.412 13.728C40.0653 13.3653 39.5667 13.184 38.916 13.184H38.012V17.256H38.916ZM44.6839 18.072C44.2679 18.072 43.8919 17.9787 43.5559 17.792C43.2199 17.6 42.9559 17.3333 42.7639 16.992C42.5719 16.6453 42.4759 16.2453 42.4759 15.792C42.4759 15.344 42.5745 14.9467 42.7719 14.6C42.9692 14.2533 43.2385 13.9867 43.5799 13.8C43.9212 13.6133 44.3025 13.52 44.7239 13.52C45.1452 13.52 45.5265 13.6133 45.8679 13.8C46.2092 13.9867 46.4785 14.2533 46.6759 14.6C46.8732 14.9467 46.9719 15.344 46.9719 15.792C46.9719 16.24 46.8705 16.6373 46.6679 16.984C46.4652 17.3307 46.1879 17.6 45.8359 17.792C45.4892 17.9787 45.1052 18.072 44.6839 18.072ZM44.6839 17.28C44.9185 17.28 45.1372 17.224 45.3399 17.112C45.5479 17 45.7159 16.832 45.8439 16.608C45.9719 16.384 46.0359 16.112 46.0359 15.792C46.0359 15.472 45.9745 15.2027 45.8519 14.984C45.7292 14.76 45.5665 14.592 45.3639 14.48C45.1612 14.368 44.9425 14.312 44.7079 14.312C44.4732 14.312 44.2545 14.368 44.0519 14.48C43.8545 14.592 43.6972 14.76 43.5799 14.984C43.4625 15.2027 43.4039 15.472 43.4039 15.792C43.4039 16.2667 43.5239 16.6347 43.7639 16.896C44.0092 17.152 44.3159 17.28 44.6839 17.28ZM53.7934 13.592L52.4254 18H51.4654L50.5774 14.744L49.6894 18H48.7294L47.3534 13.592H48.2814L49.2014 17.136L50.1374 13.592H51.0894L51.9854 17.12L52.8974 13.592H53.7934ZM56.699 13.52C57.0457 13.52 57.355 13.592 57.627 13.736C57.9043 13.88 58.1203 14.0933 58.275 14.376C58.4297 14.6587 58.507 15 58.507 15.4V18H57.603V15.536C57.603 15.1413 57.5043 14.84 57.307 14.632C57.1097 14.4187 56.8403 14.312 56.499 14.312C56.1577 14.312 55.8857 14.4187 55.683 14.632C55.4857 14.84 55.387 15.1413 55.387 15.536V18H54.475V13.592H55.387V14.096C55.5363 13.9147 55.7257 13.7733 55.955 13.672C56.1897 13.5707 56.4377 13.52 56.699 13.52ZM60.5823 12.08V18H59.6703V12.08H60.5823ZM63.6917 18.072C63.2757 18.072 62.8997 17.9787 62.5637 17.792C62.2277 17.6 61.9637 17.3333 61.7717 16.992C61.5797 16.6453 61.4837 16.2453 61.4837 15.792C61.4837 15.344 61.5824 14.9467 61.7797 14.6C61.977 14.2533 62.2464 13.9867 62.5877 13.8C62.929 13.6133 63.3104 13.52 63.7317 13.52C64.153 13.52 64.5344 13.6133 64.8757 13.8C65.217 13.9867 65.4864 14.2533 65.6837 14.6C65.881 14.9467 65.9797 15.344 65.9797 15.792C65.9797 16.24 65.8784 16.6373 65.6757 16.984C65.473 17.3307 65.1957 17.6 64.8437 17.792C64.497 17.9787 64.113 18.072 63.6917 18.072ZM63.6917 17.28C63.9264 17.28 64.145 17.224 64.3477 17.112C64.5557 17 64.7237 16.832 64.8517 16.608C64.9797 16.384 65.0437 16.112 65.0437 15.792C65.0437 15.472 64.9824 15.2027 64.8597 14.984C64.737 14.76 64.5744 14.592 64.3717 14.48C64.169 14.368 63.9504 14.312 63.7157 14.312C63.481 14.312 63.2624 14.368 63.0597 14.48C62.8624 14.592 62.705 14.76 62.5877 14.984C62.4704 15.2027 62.4117 15.472 62.4117 15.792C62.4117 16.2667 62.5317 16.6347 62.7717 16.896C63.017 17.152 63.3237 17.28 63.6917 17.28ZM66.5773 15.776C66.5773 15.3333 66.6679 14.9413 66.8493 14.6C67.0359 14.2587 67.2866 13.9947 67.6013 13.808C67.9213 13.616 68.2733 13.52 68.6573 13.52C69.0039 13.52 69.3053 13.5893 69.5613 13.728C69.8226 13.8613 70.0306 14.0293 70.1853 14.232V13.592H71.1053V18H70.1853V17.344C70.0306 17.552 69.8199 17.7253 69.5533 17.864C69.2866 18.0027 68.9826 18.072 68.6413 18.072C68.2626 18.072 67.9159 17.976 67.6013 17.784C67.2866 17.5867 67.0359 17.3147 66.8493 16.968C66.6679 16.616 66.5773 16.2187 66.5773 15.776ZM70.1853 15.792C70.1853 15.488 70.1213 15.224 69.9933 15C69.8706 14.776 69.7079 14.6053 69.5053 14.488C69.3026 14.3707 69.0839 14.312 68.8493 14.312C68.6146 14.312 68.3959 14.3707 68.1933 14.488C67.9906 14.6 67.8253 14.768 67.6973 14.992C67.5746 15.2107 67.5133 15.472 67.5133 15.776C67.5133 16.08 67.5746 16.3467 67.6973 16.576C67.8253 16.8053 67.9906 16.9813 68.1933 17.104C68.4013 17.2213 68.6199 17.28 68.8493 17.28C69.0839 17.28 69.3026 17.2213 69.5053 17.104C69.7079 16.9867 69.8706 16.816 69.9933 16.592C70.1213 16.3627 70.1853 16.096 70.1853 15.792ZM71.9991 15.776C71.9991 15.3333 72.0898 14.9413 72.2711 14.6C72.4578 14.2587 72.7085 13.9947 73.0231 13.808C73.3431 13.616 73.6978 13.52 74.0871 13.52C74.3751 13.52 74.6578 13.584 74.9351 13.712C75.2178 13.8347 75.4418 14 75.6071 14.208V12.08H76.5271V18H75.6071V17.336C75.4578 17.5493 75.2498 17.7253 74.9831 17.864C74.7218 18.0027 74.4205 18.072 74.0791 18.072C73.6951 18.072 73.3431 17.976 73.0231 17.784C72.7085 17.5867 72.4578 17.3147 72.2711 16.968C72.0898 16.616 71.9991 16.2187 71.9991 15.776ZM75.6071 15.792C75.6071 15.488 75.5431 15.224 75.4151 15C75.2925 14.776 75.1298 14.6053 74.9271 14.488C74.7245 14.3707 74.5058 14.312 74.2711 14.312C74.0365 14.312 73.8178 14.3707 73.6151 14.488C73.4125 14.6 73.2471 14.768 73.1191 14.992C72.9965 15.2107 72.9351 15.472 72.9351 15.776C72.9351 16.08 72.9965 16.3467 73.1191 16.576C73.2471 16.8053 73.4125 16.9813 73.6151 17.104C73.8231 17.2213 74.0418 17.28 74.2711 17.28C74.5058 17.28 74.7245 17.2213 74.9271 17.104C75.1298 16.9867 75.2925 16.816 75.4151 16.592C75.5431 16.3627 75.6071 16.096 75.6071 15.792ZM82.3391 18.056C81.8218 18.056 81.3445 17.936 80.9071 17.696C80.4751 17.4507 80.1311 17.112 79.8751 16.68C79.6245 16.2427 79.4991 15.752 79.4991 15.208C79.4991 14.664 79.6245 14.176 79.8751 13.744C80.1311 13.312 80.4751 12.976 80.9071 12.736C81.3445 12.4907 81.8218 12.368 82.3391 12.368C82.8618 12.368 83.3391 12.4907 83.7711 12.736C84.2085 12.976 84.5525 13.312 84.8031 13.744C85.0538 14.176 85.1791 14.664 85.1791 15.208C85.1791 15.752 85.0538 16.2427 84.8031 16.68C84.5525 17.112 84.2085 17.4507 83.7711 17.696C83.3391 17.936 82.8618 18.056 82.3391 18.056ZM82.3391 17.264C82.7071 17.264 83.0351 17.1813 83.3231 17.016C83.6111 16.8453 83.8351 16.6053 83.9951 16.296C84.1605 15.9813 84.2431 15.6187 84.2431 15.208C84.2431 14.7973 84.1605 14.4373 83.9951 14.128C83.8351 13.8187 83.6111 13.5813 83.3231 13.416C83.0351 13.2507 82.7071 13.168 82.3391 13.168C81.9711 13.168 81.6431 13.2507 81.3551 13.416C81.0671 13.5813 80.8405 13.8187 80.6751 14.128C80.5151 14.4373 80.4351 14.7973 80.4351 15.208C80.4351 15.6187 80.5151 15.9813 80.6751 16.296C80.8405 16.6053 81.0671 16.8453 81.3551 17.016C81.6431 17.1813 81.9711 17.264 82.3391 17.264ZM88.3006 13.52C88.6472 13.52 88.9566 13.592 89.2286 13.736C89.5059 13.88 89.7219 14.0933 89.8766 14.376C90.0312 14.6587 90.1086 15 90.1086 15.4V18H89.2046V15.536C89.2046 15.1413 89.1059 14.84 88.9086 14.632C88.7112 14.4187 88.4419 14.312 88.1006 14.312C87.7592 14.312 87.4872 14.4187 87.2846 14.632C87.0872 14.84 86.9886 15.1413 86.9886 15.536V18H86.0766V13.592H86.9886V14.096C87.1379 13.9147 87.3272 13.7733 87.5566 13.672C87.7912 13.5707 88.0392 13.52 88.3006 13.52ZM96.942 12.44V13.184H95.462V18H94.55V13.184H93.062V12.44H96.942ZM100.146 13.52C100.482 13.52 100.78 13.592 101.042 13.736C101.308 13.88 101.516 14.0933 101.666 14.376C101.82 14.6587 101.898 15 101.898 15.4V18H100.994V15.536C100.994 15.1413 100.895 14.84 100.698 14.632C100.5 14.4187 100.231 14.312 99.8896 14.312C99.5483 14.312 99.2763 14.4187 99.0736 14.632C98.8763 14.84 98.7776 15.1413 98.7776 15.536V18H97.8656V12.08H98.7776V14.104C98.9323 13.9173 99.127 13.7733 99.3616 13.672C99.6016 13.5707 99.863 13.52 100.146 13.52ZM107.101 15.688C107.101 15.8533 107.09 16.0027 107.069 16.136H103.701C103.728 16.488 103.858 16.7707 104.093 16.984C104.328 17.1973 104.616 17.304 104.957 17.304C105.448 17.304 105.794 17.0987 105.997 16.688H106.981C106.848 17.0933 106.605 17.4267 106.253 17.688C105.906 17.944 105.474 18.072 104.957 18.072C104.536 18.072 104.157 17.9787 103.821 17.792C103.49 17.6 103.229 17.3333 103.037 16.992C102.85 16.6453 102.757 16.2453 102.757 15.792C102.757 15.3387 102.848 14.9413 103.029 14.6C103.216 14.2533 103.474 13.9867 103.805 13.8C104.141 13.6133 104.525 13.52 104.957 13.52C105.373 13.52 105.744 13.6107 106.069 13.792C106.394 13.9733 106.648 14.2293 106.829 14.56C107.01 14.8853 107.101 15.2613 107.101 15.688ZM106.149 15.4C106.144 15.064 106.024 14.7947 105.789 14.592C105.554 14.3893 105.264 14.288 104.917 14.288C104.602 14.288 104.333 14.3893 104.109 14.592C103.885 14.7893 103.752 15.0587 103.709 15.4H106.149Z" fill="white"/>
<path d="M41.56 30.27C41.4467 30.0833 41.29 29.94 41.09 29.84C40.8967 29.74 40.6667 29.69 40.4 29.69C39.9067 29.69 39.5167 29.85 39.23 30.17C38.95 30.49 38.81 30.92 38.81 31.46C38.81 32.0667 38.96 32.53 39.26 32.85C39.5667 33.1633 40.01 33.32 40.59 33.32C41.2767 33.32 41.7667 33.01 42.06 32.39H40.09V30.98H43.75V32.88C43.5967 33.2533 43.37 33.6033 43.07 33.93C42.7767 34.2567 42.4033 34.5267 41.95 34.74C41.4967 34.9467 40.98 35.05 40.4 35.05C39.6933 35.05 39.0667 34.9 38.52 34.6C37.98 34.2933 37.56 33.87 37.26 33.33C36.9667 32.7833 36.82 32.16 36.82 31.46C36.82 30.7667 36.9667 30.15 37.26 29.61C37.56 29.0633 37.98 28.64 38.52 28.34C39.06 28.0333 39.6833 27.88 40.39 27.88C41.2767 27.88 42.01 28.0933 42.59 28.52C43.17 28.9467 43.53 29.53 43.67 30.27H41.56ZM47.2384 35.07C46.6784 35.07 46.175 34.9533 45.7284 34.72C45.2884 34.4867 44.9417 34.1533 44.6884 33.72C44.435 33.2867 44.3084 32.7767 44.3084 32.19C44.3084 31.61 44.435 31.1033 44.6884 30.67C44.9484 30.2367 45.2984 29.9033 45.7384 29.67C46.185 29.4367 46.6884 29.32 47.2484 29.32C47.8084 29.32 48.3084 29.4367 48.7484 29.67C49.195 29.9033 49.545 30.2367 49.7984 30.67C50.0584 31.1033 50.1884 31.61 50.1884 32.19C50.1884 32.77 50.0584 33.28 49.7984 33.72C49.545 34.1533 49.195 34.4867 48.7484 34.72C48.3017 34.9533 47.7984 35.07 47.2384 35.07ZM47.2384 33.37C47.5117 33.37 47.7384 33.27 47.9184 33.07C48.105 32.8633 48.1984 32.57 48.1984 32.19C48.1984 31.81 48.105 31.52 47.9184 31.32C47.7384 31.12 47.515 31.02 47.2484 31.02C46.9817 31.02 46.7584 31.12 46.5784 31.32C46.3984 31.52 46.3084 31.81 46.3084 32.19C46.3084 32.5767 46.395 32.87 46.5684 33.07C46.7417 33.27 46.965 33.37 47.2384 33.37ZM53.5958 35.07C53.0358 35.07 52.5324 34.9533 52.0858 34.72C51.6458 34.4867 51.2991 34.1533 51.0458 33.72C50.7924 33.2867 50.6658 32.7767 50.6658 32.19C50.6658 31.61 50.7924 31.1033 51.0458 30.67C51.3058 30.2367 51.6558 29.9033 52.0958 29.67C52.5424 29.4367 53.0458 29.32 53.6058 29.32C54.1658 29.32 54.6658 29.4367 55.1058 29.67C55.5524 29.9033 55.9024 30.2367 56.1558 30.67C56.4158 31.1033 56.5458 31.61 56.5458 32.19C56.5458 32.77 56.4158 33.28 56.1558 33.72C55.9024 34.1533 55.5524 34.4867 55.1058 34.72C54.6591 34.9533 54.1558 35.07 53.5958 35.07ZM53.5958 33.37C53.8691 33.37 54.0958 33.27 54.2758 33.07C54.4624 32.8633 54.5558 32.57 54.5558 32.19C54.5558 31.81 54.4624 31.52 54.2758 31.32C54.0958 31.12 53.8724 31.02 53.6058 31.02C53.3391 31.02 53.1158 31.12 52.9358 31.32C52.7558 31.52 52.6658 31.81 52.6658 32.19C52.6658 32.5767 52.7524 32.87 52.9258 33.07C53.0991 33.27 53.3224 33.37 53.5958 33.37ZM59.4132 29.32C59.7932 29.32 60.1232 29.3967 60.4032 29.55C60.6899 29.7033 60.9099 29.91 61.0632 30.17V29.39H63.0232V34.94C63.0232 35.4667 62.9232 35.94 62.7232 36.36C62.5232 36.7867 62.2099 37.1267 61.7832 37.38C61.3632 37.6333 60.8299 37.76 60.1832 37.76C59.3165 37.76 58.6232 37.5567 58.1032 37.15C57.5832 36.7433 57.2865 36.19 57.2132 35.49H59.1432C59.1832 35.67 59.2832 35.81 59.4432 35.91C59.6032 36.01 59.8099 36.06 60.0632 36.06C60.7299 36.06 61.0632 35.6867 61.0632 34.94V34.22C60.9099 34.48 60.6899 34.6867 60.4032 34.84C60.1232 34.9933 59.7932 35.07 59.4132 35.07C58.9665 35.07 58.5599 34.9533 58.1932 34.72C57.8332 34.4867 57.5465 34.1533 57.3332 33.72C57.1265 33.28 57.0232 32.77 57.0232 32.19C57.0232 31.61 57.1265 31.1033 57.3332 30.67C57.5465 30.2367 57.8332 29.9033 58.1932 29.67C58.5599 29.4367 58.9665 29.32 59.4132 29.32ZM61.0632 32.19C61.0632 31.83 60.9632 31.5467 60.7632 31.34C60.5699 31.1333 60.3299 31.03 60.0432 31.03C59.7499 31.03 59.5065 31.1333 59.3132 31.34C59.1199 31.54 59.0232 31.8233 59.0232 32.19C59.0232 32.55 59.1199 32.8367 59.3132 33.05C59.5065 33.2567 59.7499 33.36 60.0432 33.36C60.3299 33.36 60.5699 33.2567 60.7632 33.05C60.9632 32.8433 61.0632 32.5567 61.0632 32.19ZM66.1001 27.6V35H64.1401V27.6H66.1001ZM72.5763 32.13C72.5763 32.2833 72.5663 32.4367 72.5463 32.59H68.8363C68.8563 32.8967 68.9396 33.1267 69.0863 33.28C69.2396 33.4267 69.4329 33.5 69.6663 33.5C69.9929 33.5 70.2263 33.3533 70.3663 33.06H72.4563C72.3696 33.4467 72.1996 33.7933 71.9463 34.1C71.6996 34.4 71.3863 34.6367 71.0063 34.81C70.6263 34.9833 70.2063 35.07 69.7463 35.07C69.1929 35.07 68.6996 34.9533 68.2663 34.72C67.8396 34.4867 67.5029 34.1533 67.2563 33.72C67.0163 33.2867 66.8963 32.7767 66.8963 32.19C66.8963 31.6033 67.0163 31.0967 67.2563 30.67C67.4963 30.2367 67.8296 29.9033 68.2563 29.67C68.6896 29.4367 69.1863 29.32 69.7463 29.32C70.2996 29.32 70.7896 29.4333 71.2163 29.66C71.6429 29.8867 71.9763 30.2133 72.2163 30.64C72.4563 31.06 72.5763 31.5567 72.5763 32.13ZM70.5763 31.64C70.5763 31.4 70.4963 31.2133 70.3363 31.08C70.1763 30.94 69.9763 30.87 69.7363 30.87C69.4963 30.87 69.2996 30.9367 69.1463 31.07C68.9929 31.1967 68.8929 31.3867 68.8463 31.64H70.5763ZM80.8624 30.3C80.8624 30.7267 80.7624 31.1167 80.5624 31.47C80.3691 31.8167 80.0724 32.0967 79.6724 32.31C79.2791 32.5167 78.7958 32.62 78.2224 32.62H77.2524V35H75.2924V27.95H78.2224C78.7891 27.95 79.2691 28.05 79.6624 28.25C80.0624 28.45 80.3624 28.7267 80.5624 29.08C80.7624 29.4333 80.8624 29.84 80.8624 30.3ZM78.0324 31.06C78.5858 31.06 78.8624 30.8067 78.8624 30.3C78.8624 29.7867 78.5858 29.53 78.0324 29.53H77.2524V31.06H78.0324ZM83.6098 27.6V35H81.6498V27.6H83.6098ZM84.406 32.19C84.406 31.61 84.5093 31.1033 84.716 30.67C84.9293 30.2367 85.216 29.9033 85.576 29.67C85.9427 29.4367 86.3493 29.32 86.796 29.32C87.1827 29.32 87.516 29.3967 87.796 29.55C88.076 29.7033 88.2927 29.91 88.446 30.17V29.39H90.406V35H88.446V34.22C88.2927 34.48 88.0727 34.6867 87.786 34.84C87.506 34.9933 87.176 35.07 86.796 35.07C86.3493 35.07 85.9427 34.9533 85.576 34.72C85.216 34.4867 84.9293 34.1533 84.716 33.72C84.5093 33.28 84.406 32.77 84.406 32.19ZM88.446 32.19C88.446 31.83 88.346 31.5467 88.146 31.34C87.9527 31.1333 87.7127 31.03 87.426 31.03C87.1327 31.03 86.8893 31.1333 86.696 31.34C86.5027 31.54 86.406 31.8233 86.406 32.19C86.406 32.55 86.5027 32.8367 86.696 33.05C86.8893 33.2567 87.1327 33.36 87.426 33.36C87.7127 33.36 87.9527 33.2567 88.146 33.05C88.346 32.8433 88.446 32.5567 88.446 32.19ZM97.5629 29.39L94.0029 37.67H91.8729L93.2129 34.76L90.9129 29.39H93.0929L94.2729 32.57L95.4129 29.39H97.5629Z" fill="white"/>
</svg>
