<svg width="21" height="21" viewBox="0 0 21 21" fill="none" xmlns="http://www.w3.org/2000/svg">
<g opacity="0.5" clip-path="url(#clip0_1556_2985)">
<path d="M12.997 15.2073C12.9203 15.2069 12.8442 15.2216 12.7731 15.2506C12.702 15.2796 12.6374 15.3224 12.5829 15.3765L11.0837 16.8815V9.72982C11.0837 9.57511 11.0222 9.42673 10.9128 9.31734C10.8034 9.20794 10.6551 9.14648 10.5004 9.14648C10.3456 9.14648 10.1973 9.20794 10.0879 9.31734C9.97848 9.42673 9.91702 9.57511 9.91702 9.72982V16.8815L8.41786 15.3823C8.30879 15.2717 8.16024 15.2089 8.0049 15.2078C7.84956 15.2068 7.70014 15.2674 7.58952 15.3765C7.47891 15.4856 7.41615 15.6341 7.41505 15.7894C7.41396 15.9448 7.47462 16.0942 7.58369 16.2048L10.5004 19.1215L13.417 16.2048C13.4993 16.1232 13.5554 16.019 13.5782 15.9054C13.601 15.7918 13.5894 15.674 13.545 15.567C13.5006 15.4599 13.4253 15.3686 13.3287 15.3045C13.2322 15.2405 13.1187 15.2066 13.0029 15.2073H12.997Z" fill="black"/>
<path d="M11.5913 2.73523C12.1219 2.73551 12.6493 2.81816 13.1546 2.98023C13.2005 2.5916 13.2986 2.21093 13.4463 1.84856C12.8454 1.66309 12.2201 1.56871 11.5913 1.56856C10.4142 1.55896 9.25947 1.8897 8.26597 2.52099C7.27246 3.15227 6.48256 4.05721 5.99129 5.1269C4.59765 5.29967 3.31891 5.98712 2.4061 7.0543C1.49328 8.12147 1.01232 9.4913 1.05762 10.8949C1.10292 12.2985 1.67121 13.6344 2.65094 14.6405C3.63067 15.6466 4.95107 16.2502 6.35296 16.3327C6.21951 15.9553 6.21951 15.5435 6.35296 15.1661C5.22851 15.0768 4.17956 14.5651 3.41714 13.7338C2.65472 12.9025 2.23539 11.8133 2.24352 10.6854C2.25165 9.55742 2.68664 8.47439 3.46096 7.65417C4.23529 6.83395 5.29151 6.33739 6.41713 6.2644H6.80796L6.94213 5.8969C7.301 4.95787 7.93904 4.1514 8.7703 3.5861C9.60155 3.0208 10.5861 2.72384 11.5913 2.73523Z" fill="black"/>
<path d="M18.0366 7.83948C17.5246 7.90776 17.0043 7.88007 16.5024 7.75781C16.5024 7.80448 16.5024 7.84531 16.5024 7.89198L16.4557 8.31198L16.8349 8.48698C17.5585 8.82015 18.1468 9.3902 18.5026 10.103C18.8584 10.8157 18.9605 11.6285 18.7918 12.4071C18.6232 13.1857 18.194 13.8834 17.5752 14.3851C16.9563 14.8867 16.1849 15.1623 15.3882 15.1661H14.6357C14.7692 15.5436 14.7692 15.9554 14.6357 16.3328H15.3824C16.3815 16.337 17.3556 16.0205 18.1614 15.4297C18.9671 14.8389 19.562 14.0051 19.8585 13.051C20.155 12.0969 20.1374 11.0728 19.8084 10.1294C19.4794 9.186 18.8563 8.37311 18.0307 7.81031L18.0366 7.83948Z" fill="black"/>
<path d="M17.4997 6.41732C19.1105 6.41732 20.4163 5.11148 20.4163 3.50065C20.4163 1.88982 19.1105 0.583984 17.4997 0.583984C15.8888 0.583984 14.583 1.88982 14.583 3.50065C14.583 5.11148 15.8888 6.41732 17.4997 6.41732Z" fill="black"/>
</g>
<defs>
<clipPath id="clip0_1556_2985">
<rect width="21" height="21" fill="white"/>
</clipPath>
</defs>
</svg>
