<svg width="25" height="25" viewBox="0 0 25 25" fill="none" xmlns="http://www.w3.org/2000/svg">
<path fill-rule="evenodd" clip-rule="evenodd" d="M12.8829 9.62812C12.8829 8.25351 13.9973 7.13917 15.3719 7.13917C16.7465 7.13917 17.8608 8.25351 17.8608 9.62812C17.8608 11.0027 16.7465 12.1171 15.3719 12.1171C13.9973 12.1171 12.8829 11.0027 12.8829 9.62812ZM15.3719 8.28792C14.6317 8.28792 14.0317 8.88794 14.0317 9.62812C14.0317 10.3683 14.6317 10.9683 15.3719 10.9683C16.112 10.9683 16.7121 10.3683 16.7121 9.62812C16.7121 8.88794 16.112 8.28792 15.3719 8.28792ZM20.7595 16.6904C20.9241 16.2995 21.0574 15.8918 21.1563 15.4703C21.6146 13.5166 21.6146 11.4834 21.1563 9.52975C20.4945 6.70842 18.2916 4.50549 15.4703 3.8437C13.5166 3.38543 11.4834 3.38543 9.52975 3.8437C6.70842 4.50549 4.5055 6.70841 3.8437 9.52975C3.38543 11.4834 3.38543 13.5166 3.8437 15.4703C3.89229 15.6774 3.94919 15.8812 4.01403 16.0813L4.61782 15.4777C6.80157 13.2943 10.3421 13.2943 12.5258 15.4777L14.2165 17.168L14.6597 16.7249C16.3579 15.0271 19.0837 15.047 20.7595 16.6904ZM20.201 17.7801L20.1765 17.7506C18.9761 16.3104 16.7978 16.2116 15.4719 17.5373L15.0289 17.9802L17.4422 20.3931C18.5581 19.7711 19.4993 18.8786 20.1794 17.802C20.1868 17.7948 20.194 17.7875 20.201 17.7801ZM16.3264 20.9019L11.7136 16.29C9.97848 14.5552 7.16518 14.5552 5.43003 16.29L4.49195 17.2279C5.50173 19.1839 7.32731 20.6397 9.52975 21.1563C11.4834 21.6146 13.5166 21.6146 15.4703 21.1563C15.7626 21.0877 16.0484 21.0026 16.3264 20.9019Z" fill="white"/>
</svg>
