<svg width="55" height="54" viewBox="0 0 55 54" fill="none" xmlns="http://www.w3.org/2000/svg">
<path fill-rule="evenodd" clip-rule="evenodd" d="M1.72781 15.9986C0.286582 19.0048 0.792501 22.5208 1.80434 29.5531L2.54773 34.7192C3.84749 43.7526 4.49738 48.2691 7.6309 50.9672C10.7644 53.6654 15.3598 53.6654 24.5506 53.6654H30.4498C39.6404 53.6654 44.2359 53.6654 47.3695 50.9672C50.5028 48.2691 51.1527 43.7526 52.4527 34.7192L53.1959 29.5531C54.2079 22.5208 54.7138 19.0048 53.2724 15.9986C51.8314 12.9923 48.7636 11.1649 42.6284 7.51019L38.9354 5.31035C33.3642 1.99147 30.5783 0.332031 27.5002 0.332031C24.422 0.332031 21.6363 1.99147 16.0648 5.31035L12.3719 7.51019C6.23666 11.1649 3.16903 12.9923 1.72781 15.9986ZM31.3668 39.024C29.2127 36.6992 25.7884 36.6992 23.6343 39.024C22.8836 39.8344 21.6182 39.8827 20.8079 39.132C19.9976 38.3811 19.9494 37.1158 20.7 36.3056C24.4372 32.272 30.5639 32.272 34.301 36.3056C35.0516 37.1158 35.0034 38.3811 34.1932 39.132C33.3828 39.8827 32.1175 39.8344 31.3668 39.024ZM18.3009 33.2667C23.4004 27.7624 31.6004 27.7624 36.6999 33.2667C37.4508 34.0771 38.7162 34.1254 39.5263 33.3747C40.3367 32.624 40.385 31.3584 39.6343 30.5483C32.9516 23.3352 22.0492 23.3352 15.3667 30.5483C14.616 31.3584 14.6643 32.624 15.4746 33.3747C16.2848 34.1254 17.5502 34.0771 18.3009 33.2667ZM42.0332 27.5107C33.9882 18.8273 21.0126 18.8273 12.9675 27.5107C12.2168 28.3211 10.9514 28.3694 10.1412 27.6187C9.3309 26.868 9.28261 25.6024 10.0333 24.7923C19.6614 14.4001 35.3394 14.4001 44.9676 24.7923C45.7183 25.6024 45.67 26.868 44.8596 27.6187C44.0495 28.3694 42.7839 28.3211 42.0332 27.5107Z" fill="#016AB5"/>
</svg>
