<svg width="57" height="56" viewBox="0 0 57 56" fill="none" xmlns="http://www.w3.org/2000/svg">
<path d="M22.8333 23.7441C22.8333 25.1841 23.2333 25.3974 24.1399 25.7174L25.4999 26.1974V21.6641H24.6999C23.6866 21.6641 22.8333 22.5974 22.8333 23.7441Z" fill="#016AB5"/>
<path d="M29.5 36.3341H30.3C31.34 36.3341 32.1667 35.4008 32.1667 34.2541C32.1667 32.8141 31.7667 32.6008 30.86 32.2808L29.5 31.8008V36.3341Z" fill="#016AB5"/>
<path d="M47.7133 11.612L42.2466 17.0787C41.8466 17.4787 41.3399 17.6654 40.8333 17.6654C40.3266 17.6654 39.8199 17.4787 39.4199 17.0787C38.6466 16.3054 38.6466 15.0254 39.4199 14.252L44.8866 8.78537C40.1933 4.78536 34.1399 2.33203 27.4999 2.33203C12.7799 2.33203 0.833252 14.2787 0.833252 28.9987C0.833252 43.7187 12.7799 55.6654 27.4999 55.6654C42.2199 55.6654 54.1666 43.7187 54.1666 28.9987C54.1666 22.3587 51.7133 16.3054 47.7133 11.612ZM32.1666 28.5187C33.8733 29.132 36.1666 30.3587 36.1666 34.2787C36.1666 37.612 33.5266 40.3587 30.2999 40.3587H29.4999V41.0254C29.4999 42.1187 28.5933 43.0254 27.4999 43.0254C26.4066 43.0254 25.4999 42.1187 25.4999 41.0254V40.3587H25.2866C21.7399 40.3587 18.8333 37.372 18.8333 33.692C18.8333 32.572 19.7399 31.6654 20.8333 31.6654C21.9266 31.6654 22.8333 32.572 22.8333 33.6654C22.8333 35.132 23.9266 36.332 25.2866 36.332H25.4999V30.412L22.8333 29.4787C21.1266 28.8654 18.8333 27.6387 18.8333 23.7187C18.8333 20.3854 21.4733 17.6387 24.6999 17.6387H25.4999V16.9987C25.4999 15.9054 26.4066 14.9987 27.4999 14.9987C28.5933 14.9987 29.4999 15.9054 29.4999 16.9987V17.6654H29.7133C33.2599 17.6654 36.1666 20.652 36.1666 24.332C36.1666 25.4254 35.2599 26.332 34.1666 26.332C33.0733 26.332 32.1666 25.4254 32.1666 24.332C32.1666 22.8654 31.0733 21.6654 29.7133 21.6654H29.4999V27.5854L32.1666 28.5187Z" fill="#016AB5"/>
<path d="M56.0067 1.5587C55.7933 1.0787 55.42 0.678698 54.9133 0.465364C54.6733 0.385364 54.4333 0.332031 54.1667 0.332031H43.5C42.4067 0.332031 41.5 1.2387 41.5 2.33203C41.5 3.42536 42.4067 4.33203 43.5 4.33203H49.34L44.8867 8.78537C45.9 9.66537 46.8333 10.5987 47.7133 11.612L52.1667 7.1587V12.9987C52.1667 14.092 53.0733 14.9987 54.1667 14.9987C55.26 14.9987 56.1667 14.092 56.1667 12.9987V2.33203C56.1667 2.06536 56.1133 1.82536 56.0067 1.5587Z" fill="#016AB5"/>
</svg>
