<svg width="54" height="54" viewBox="0 0 54 54" fill="none" xmlns="http://www.w3.org/2000/svg">
<path d="M11 16.3333H5.66667M11 37.6667H5.66667M11 27H3M13.6667 7.04147C17.4803 4.48872 22.0664 3 27 3C40.2549 3 51 13.7452 51 27C51 40.2549 40.2549 51 27 51C22.0664 51 17.4803 49.5112 13.6667 46.9587M32.3333 20.3331C31 20.0024 28.8269 19.9902 27 20.0024M27 20.0024C26.3891 20.0065 26.7584 19.9805 25.9333 20.0024C23.7803 20.0695 21.6709 20.9644 21.6667 23.4997C21.662 26.2005 24.3333 26.9997 27 26.9997C29.6667 26.9997 32.3333 27.6163 32.3333 30.4997C32.3333 32.6667 30.18 33.6163 27.4963 33.9307C27.3243 33.9307 27.1592 33.9309 27 33.9317M27 20.0024V16.3333M27 33.9317C25.1861 33.9392 24.1181 33.9728 21.6667 33.6664M27 33.9317V37.6667" stroke="#016AB5" stroke-width="5.33333" stroke-linecap="round" stroke-linejoin="round"/>
</svg>
