<svg width="64" height="64" viewBox="0 0 64 64" fill="none" xmlns="http://www.w3.org/2000/svg">
<g clip-path="url(#clip0_1023_1989)">
<path d="M37.5065 11.5892L45.2768 13.6514C45.4785 13.6926 45.644 13.8583 45.6908 14.062L47.739 21.8318C47.7942 22.06 47.9937 22.2201 48.2272 22.2201C48.4628 22.2201 48.6623 22.0599 48.7154 21.8318L50.7658 14.062C50.8103 13.8583 50.9759 13.6926 51.1775 13.6514L58.9483 11.5892C59.1754 11.5468 59.3368 11.3441 59.3368 11.1106C59.3368 10.875 59.1755 10.6766 58.9483 10.6309L51.1775 8.57C50.9759 8.5265 50.8103 8.36312 50.7658 8.15938L48.7153 0.3895C48.6623 0.1635 48.4628 0 48.2272 0C47.9937 0 47.7942 0.1635 47.739 0.3895L45.6908 8.15925C45.644 8.363 45.4785 8.52637 45.2768 8.56987L37.5065 10.6309C37.2773 10.6765 37.1182 10.875 37.1182 11.1106C37.118 11.3441 37.2773 11.5468 37.5065 11.5892Z" fill="#016AB5"/>
<path d="M10.2008 21.9176L11.6633 27.4692C11.7036 27.6337 11.8468 27.7473 12.0134 27.7473C12.1811 27.7473 12.3234 27.6338 12.3626 27.4692L13.8261 21.9176C13.8569 21.7712 13.9769 21.6534 14.1223 21.6226L19.6748 20.1517C19.8371 20.1178 19.9529 19.9713 19.9529 19.8057C19.9529 19.6401 19.8371 19.4979 19.6748 19.4639L14.1223 17.9909C13.9768 17.9591 13.8569 17.8444 13.8261 17.6979L12.3626 12.1432C12.3234 11.9819 12.1811 11.8672 12.0134 11.8672C11.8468 11.8672 11.7036 11.9818 11.6633 12.1432L10.2008 17.6979C10.1656 17.8444 10.05 17.9591 9.9035 17.9909L4.35188 19.4639C4.18638 19.4979 4.07275 19.6401 4.07275 19.8057C4.07275 19.9712 4.18625 20.1177 4.35188 20.1517L9.9035 21.6226C10.0501 21.6534 10.1656 21.7712 10.2008 21.9176Z" fill="#016AB5"/>
<path d="M4.76367 45.9453V50.9461C4.76367 51.7707 4.9293 52.5742 5.25942 53.3723C5.58942 54.1683 6.08405 54.9588 6.74305 55.7316C7.02117 56.0552 7.33317 56.3757 7.66742 56.6909V48.6877C7.4488 48.5243 7.23655 48.3598 7.02967 48.1932C6.1688 47.4906 5.40792 46.7402 4.76367 45.9453Z" fill="#016AB5"/>
<path d="M9.9895 58.517C10.7643 59.0254 11.6134 59.5125 12.5355 59.9688C12.9314 60.1663 13.3441 60.3529 13.7635 60.5355V52.026C12.4083 51.4784 11.1453 50.8704 9.9895 50.207V58.517Z" fill="#016AB5"/>
<path d="M16.0876 52.8711V61.3986H15.9507C17.6052 61.9897 19.3998 62.4961 21.3123 62.9003V54.2361C20.0726 53.9867 18.8713 53.7001 17.7209 53.3732C17.1649 53.2138 16.6193 53.0472 16.0876 52.8711Z" fill="#016AB5"/>
<path d="M23.6357 63.3217C26.0257 63.7079 28.5537 63.9477 31.1836 64.0009V55.2845C28.5675 55.2335 26.0396 55.016 23.6357 54.6445V63.3217Z" fill="#016AB5"/>
<path d="M33.5076 63.9946C36.2458 63.9416 38.8713 63.6826 41.3457 63.2697V54.6055C38.8576 55.0002 36.2288 55.237 33.5076 55.29V63.9946Z" fill="#016AB5"/>
<path d="M43.668 62.8334C44.5828 62.6339 45.4763 62.4163 46.3338 62.1722C47.2233 61.9197 48.0765 61.6437 48.8958 61.3466V52.7734C47.2572 53.3264 45.5082 53.7997 43.668 54.1797V62.8334Z" fill="#016AB5"/>
<path d="M51.2178 51.9029V60.4082C52.6271 59.7713 53.8923 59.0709 54.9918 58.3173V50.0352C54.4165 50.3748 53.8138 50.7027 53.1855 51.0157C52.555 51.3267 51.897 51.6217 51.2178 51.9029Z" fill="#016AB5"/>
<path d="M57.176 48.5685H57.3139V56.4157C58.2947 55.4318 59.0055 54.4056 59.4301 53.3741C59.7613 52.576 59.9268 51.7726 59.9268 50.9478V45.9492C59.8568 46.0362 59.7867 46.1233 59.7123 46.2092C58.995 47.0487 58.1395 47.833 57.176 48.5685Z" fill="#016AB5"/>
<path d="M59.4303 40.8164C59.7614 40.0183 59.9269 39.216 59.9269 38.3924C59.9269 37.5689 59.7614 36.7665 59.4303 35.9685C59.1012 35.1715 58.6068 34.3808 57.9465 33.6093C56.6305 32.0651 54.6523 30.6069 52.154 29.3736C47.1617 26.8988 40.1259 25.3239 32.3455 25.3281C27.2398 25.3281 22.4543 26.0009 18.3567 27.1673C14.258 28.3315 10.8492 29.9968 8.49742 31.9166C6.92567 33.1934 5.83467 34.575 5.25942 35.9686C4.92942 36.7666 4.76367 37.569 4.76367 38.3925C4.76367 39.2161 4.9293 40.0184 5.25942 40.8165C5.58942 41.6125 6.08405 42.4031 6.74305 43.1746C8.06117 44.721 10.0394 46.177 12.5355 47.4114C17.5278 49.8874 24.5652 51.4613 32.3455 51.4581C37.4524 51.4581 42.2373 50.7843 46.3338 49.6169C50.4325 48.4526 53.8434 46.7885 56.1933 44.8696C57.764 43.5905 58.8572 42.2089 59.4303 40.8164ZM41.6622 41.2441C41.3003 41.8978 40.7239 42.455 39.9397 42.9166C39.1384 43.3879 38.1354 43.7424 36.9319 43.978C36.4018 44.082 35.8425 44.152 35.2742 44.2094L35.5055 47.025H31.0079L30.977 44.2646C29.755 44.1893 28.5913 44.046 27.5045 43.8231C25.8612 43.4856 23.8384 42.1654 23.8384 42.1654C23.6649 42.0879 23.5598 41.9531 23.5529 41.8046C23.5455 41.6561 23.6314 41.5075 23.7928 41.4034L25.9509 39.9791C26.1765 39.8306 26.5103 39.804 26.7607 39.9123C26.7607 39.9123 28.2237 40.826 29.3715 41.0489C30.5283 41.2696 31.6845 41.3821 32.8334 41.3821C34.2854 41.3801 35.4724 41.1975 36.3824 40.8366C37.2844 40.4758 37.6787 39.9303 37.5822 39.2001C37.5148 38.6875 37.2425 38.2918 36.7623 38.004C36.2905 37.7185 35.5285 37.5435 34.4794 37.467L31.053 37.2781C29.0365 37.1486 27.505 36.7825 26.4672 36.1934C25.4478 35.6129 25.0095 34.7596 25.1252 33.658C25.1867 33.0679 25.4324 32.5543 25.8569 32.1108C26.2724 31.6768 26.8142 31.3148 27.4769 31.024C28.1355 30.7375 28.8858 30.521 29.7344 30.3788C30.0845 30.3193 30.4529 30.2811 30.8274 30.244L30.8132 28.9195L34.0172 28.911L34.1243 30.211C34.8985 30.2514 35.6393 30.3215 36.3365 30.4298C37.5299 30.609 38.8577 31.1684 38.8577 31.1684C39.0222 31.2171 39.1452 31.3031 39.1908 31.4051C39.2364 31.5101 39.1993 31.612 39.0884 31.6863L37.6339 32.6711C37.4758 32.7773 37.2105 32.807 36.9792 32.738C36.9792 32.738 35.9619 32.3251 35.1182 32.1978C34.2803 32.0705 33.4099 32.0089 32.4989 32.011C31.3118 32.0131 30.4315 32.15 29.86 32.4249C29.2795 32.705 28.9813 33.0701 28.9692 33.5296C28.9569 33.951 29.1569 34.2779 29.5804 34.5093C30.0049 34.7428 30.7249 34.8956 31.7487 34.9571L34.621 35.1099C36.7622 35.2268 38.4342 35.5875 39.6478 36.2031C40.8938 36.8325 41.6558 37.7791 41.9297 39.077C42.1015 39.8856 42.0123 40.6094 41.6622 41.2441ZM55.6244 39.3646L52.2623 40.2561C52.173 40.2731 52.1009 40.3464 52.0819 40.4365L51.1945 43.7976C51.1713 43.8963 51.0863 43.9663 50.9846 43.9663C50.8825 43.9663 50.7957 43.8963 50.7723 43.7976L49.885 40.4365C49.8638 40.3463 49.7938 40.273 49.7047 40.2561L46.3424 39.3646C46.2427 39.3444 46.1727 39.2564 46.1727 39.1566C46.1727 39.0546 46.2427 38.9676 46.3424 38.9475L49.7047 38.057C49.7938 38.0348 49.8638 37.9679 49.885 37.8788L50.7723 34.5145C50.7957 34.4148 50.8825 34.3458 50.9846 34.3458C51.0863 34.3458 51.1713 34.4148 51.1945 34.5145L52.0819 37.8788C52.1009 37.9679 52.1732 38.0348 52.2623 38.057L55.6244 38.9475C55.7222 38.9676 55.7943 39.0546 55.7943 39.1566C55.7943 39.2564 55.7222 39.3444 55.6244 39.3646Z" fill="#016AB5"/>
</g>
<defs>
<clipPath id="clip0_1023_1989">
<rect width="64" height="64" fill="white"/>
</clipPath>
</defs>
</svg>
