<svg width="65" height="64" viewBox="0 0 65 64" fill="none" xmlns="http://www.w3.org/2000/svg">
<path d="M64.5 0H0.5V64H64.5V0Z" fill="#F6F6F6"/>
<path fill-rule="evenodd" clip-rule="evenodd" d="M25.99 9.85789C29.1804 5.39112 35.8191 5.39112 39.0098 9.85789L39.5178 10.569C40.0791 11.3551 41.022 11.7761 41.982 11.6694L44.246 11.4178C49.3415 10.8517 53.6468 15.1571 53.0807 20.2524L52.8293 22.5164C52.7226 23.4766 53.1434 24.4193 53.9295 24.9809L54.6407 25.4888C59.1074 28.6792 59.1074 35.3179 54.6407 38.5086L53.9295 39.0166C53.1434 39.5779 52.7226 40.5208 52.8293 41.4808L53.0807 43.7448C53.6468 48.8403 49.3415 53.1456 44.246 52.5795L41.982 52.328C41.022 52.2214 40.0791 52.6422 39.5178 53.4283L39.0098 54.1395C35.8191 58.6062 29.1807 58.6062 25.99 54.1395L25.4821 53.4283C24.9206 52.6422 23.9778 52.2214 23.0176 52.328L20.7536 52.5795C15.6583 53.1456 11.3529 48.8403 11.9191 43.7448L12.1706 41.4808C12.2773 40.5208 11.8564 39.5779 11.0702 39.0166L10.3591 38.5086C5.89234 35.3179 5.89234 28.6795 10.3591 25.4888L11.0702 24.9809C11.8564 24.4193 12.2773 23.4766 12.1706 22.5164L11.9191 20.2524C11.3529 15.1571 15.6583 10.8517 20.7536 11.4178L23.0176 11.6694C23.9778 11.7761 24.9206 11.3551 25.4821 10.569L25.99 9.85789ZM42.3855 24.7797C43.4268 25.8211 43.4268 27.5096 42.3855 28.551L32.2018 38.7347C30.8938 40.043 28.7727 40.043 27.4647 38.7347L22.6143 33.8843C21.5729 32.843 21.5729 31.1544 22.6143 30.1131C23.6557 29.0718 25.3441 29.0718 26.3855 30.1131L29.8332 33.5608L38.6143 24.7797C39.6556 23.7383 41.3442 23.7383 42.3855 24.7797Z" fill="#016AB5"/>
</svg>
