<svg width="70" height="70" viewBox="0 0 70 70" fill="none" xmlns="http://www.w3.org/2000/svg">
<rect width="70" height="70" rx="32" fill="#091B3C"/>
<g clip-path="url(#clip0_104_329)">
<path fillRule="evenodd" clip-rule="evenodd" d="M42.7066 23.457L43.0255 23.4969C43.868 23.6134 44.9823 23.7695 45.6143 24.4014C46.1312 24.9185 46.3298 25.7583 46.4487 26.5081L46.5187 26.9901C46.676 28.1277 46.7171 29.6184 46.4487 31.2732C45.9189 34.5396 44.1801 38.4367 39.8132 41.4541C39.7901 41.6894 39.7883 41.9263 39.7937 42.1637L39.8053 42.5199C39.8259 43.0659 39.8464 43.6111 39.6935 44.142C39.4558 44.9675 38.6106 45.5107 37.8198 45.901L37.432 46.0839L36.932 46.3046C35.9968 46.7014 34.7341 47.1089 33.9425 46.3174C33.4684 45.8432 33.2724 45.1481 33.1136 44.4564L33.0553 44.1976C32.9796 43.8585 32.9056 43.527 32.8045 43.2301C32.7424 43.0479 32.6754 42.8621 32.6028 42.6744C32.5236 42.7712 32.4388 42.8651 32.3485 42.9554C31.9171 43.3869 31.2736 43.688 30.7434 43.8986C30.1646 44.1284 29.5101 44.3286 28.9039 44.4931L28.5931 44.5755L27.9968 44.7237L27.4568 44.8482L26.8105 44.9859L26.4066 45.0651C26.0461 45.1322 25.6106 45.0447 25.2832 44.7174C24.9558 44.3899 24.8683 43.9545 24.9355 43.594L25.0424 43.0553L25.2346 42.1829L25.3894 41.5465L25.5075 41.0966C25.6719 40.4905 25.8722 39.836 26.102 39.2571C26.3125 38.727 26.6138 38.0835 27.0452 37.6521L27.1456 37.5552L27.065 37.5236C26.8626 37.4444 26.6437 37.3721 26.4164 37.3012L26.0702 37.1951C25.203 36.9319 24.2754 36.6502 23.6983 36.0731C22.9999 35.3747 23.2349 34.3095 23.5725 33.426L23.711 33.0836L23.9316 32.5836L24.1146 32.1958C24.5049 31.4051 25.0482 30.5598 25.8736 30.3221C26.3113 30.1961 26.7665 30.1889 27.2237 30.2016L27.4983 30.2108C27.8557 30.2238 28.2126 30.2367 28.5615 30.2024C31.5789 25.8354 35.476 24.0967 38.7424 23.5669C40.2467 23.3229 41.6155 23.3347 42.7066 23.457ZM30.4415 39.2996C30.0377 38.9994 29.494 38.9741 29.0667 39.2238L28.9289 39.3172L28.8129 39.4199L28.6567 39.6182C28.3312 40.0876 28.1464 40.7377 28.0021 41.3453L27.8677 41.9304C27.8463 42.0228 27.8251 42.112 27.8037 42.1969L28.0426 42.1392L28.5646 42.0197C29.288 41.8511 30.0882 41.6312 30.581 41.1874C31.0291 40.7392 31.0656 40.0357 30.6909 39.5457L30.5887 39.4279L30.5593 39.399L30.4415 39.2996ZM39.4196 30.5811C38.4432 29.6048 36.8604 29.6048 35.884 30.5811C34.9078 31.5575 34.9078 33.1404 35.884 34.1167C36.8604 35.093 38.4432 35.093 39.4196 34.1167C40.3959 33.1404 40.3959 31.5575 39.4196 30.5811Z" fill="white"/>
</g>
<defs>
<clipPath id="clip0_104_329">
<rect width="30" height="30" fill="white" transform="translate(20 20)"/>
</clipPath>
</defs>
</svg>
