<svg width="16" height="15" viewBox="0 0 16 15" fill="none" xmlns="http://www.w3.org/2000/svg">
<path d="M15.1707 6.55395L14.1507 5.36895C13.9557 5.14395 13.7982 4.72395 13.7982 4.42395V3.14895C13.7982 2.35395 13.1457 1.70145 12.3507 1.70145H11.0757C10.7832 1.70145 10.3557 1.54395 10.1307 1.34895L8.94567 0.328945C8.42817 -0.113555 7.58067 -0.113555 7.05568 0.328945L5.87815 1.35645C5.65315 1.54395 5.22565 1.70145 4.93315 1.70145H3.63564C2.84064 1.70145 2.18814 2.35395 2.18814 3.14895V4.43145C2.18814 4.72395 2.03064 5.14395 1.84314 5.36895L0.830645 6.56145C0.395645 7.07895 0.395645 7.91895 0.830645 8.43645L1.84314 9.62895C2.03064 9.85395 2.18814 10.274 2.18814 10.5665V11.849C2.18814 12.644 2.84064 13.2965 3.63564 13.2965H4.93315C5.22565 13.2965 5.65315 13.454 5.87815 13.649L7.06318 14.669C7.58068 15.1115 8.42817 15.1115 8.95317 14.669L10.1382 13.649C10.3632 13.454 10.7832 13.2965 11.0832 13.2965H12.3582C13.1532 13.2965 13.8057 12.644 13.8057 11.849V10.574C13.8057 10.2815 13.9632 9.85395 14.1582 9.62895L15.1782 8.44395C15.6132 7.92645 15.6132 7.07145 15.1707 6.55395ZM11.1207 6.08145L7.49818 9.70395C7.39318 9.80895 7.25068 9.86895 7.10068 9.86895C6.95068 9.86895 6.80817 9.80895 6.70317 9.70395L4.88814 7.88895C4.67065 7.67145 4.67065 7.31145 4.88814 7.09395C5.10565 6.87645 5.46565 6.87645 5.68315 7.09395L7.10068 8.51145L10.3257 5.28645C10.5432 5.06894 10.9032 5.06894 11.1207 5.28645C11.3382 5.50395 11.3382 5.86395 11.1207 6.08145Z" fill="#292D32"/>
</svg>
