<svg width="25" height="25" viewBox="0 0 25 25" fill="none" xmlns="http://www.w3.org/2000/svg">
<path d="M9.0098 2.50001H15.9899C16.2224 2.49995 16.4006 2.49991 16.5564 2.51515C17.6642 2.62352 18.571 3.28958 18.9555 4.18678H6.04419C6.4287 3.28958 7.33546 2.62352 8.44328 2.51515C8.59908 2.49991 8.77732 2.49995 9.0098 2.50001Z" fill="white"/>
<path d="M6.81045 5.22266C5.41982 5.22266 4.27956 6.06241 3.89903 7.17645C3.8911 7.19967 3.88349 7.22302 3.87622 7.24647C4.27437 7.1259 4.68874 7.04713 5.1082 6.99336C6.18858 6.85485 7.55392 6.85492 9.13995 6.85501H16.032C17.618 6.85492 18.9834 6.85485 20.0638 6.99336C20.4832 7.04713 20.8976 7.1259 21.2957 7.24647C21.2885 7.22302 21.2809 7.19967 21.2729 7.17645C20.8924 6.06241 19.7521 5.22266 18.3615 5.22266H6.81045Z" fill="white"/>
<path fillRule="evenodd" clip-rule="evenodd" d="M15.8276 8.04199H9.17239C5.79758 8.04199 4.11017 8.04199 3.16232 9.02882C2.21447 10.0157 2.43748 11.5403 2.88351 14.5896L3.30648 17.4811C3.65626 19.8724 3.83115 21.068 4.72834 21.784C5.62553 22.5 6.9488 22.5 9.59534 22.5H15.4046C18.0512 22.5 19.3745 22.5 20.2717 21.784C21.1689 21.068 21.3437 19.8724 21.6935 17.4811L22.1165 14.5896C22.5625 11.5404 22.7855 10.0156 21.8377 9.02882C20.8898 8.04199 19.2024 8.04199 15.8276 8.04199ZM15.0812 16.2942C15.6396 15.9481 15.6396 15.0519 15.0812 14.7058L11.7096 12.6156C11.1669 12.2792 10.5 12.7171 10.5 13.4099V17.5901C10.5 18.2829 11.1669 18.7208 11.7096 18.3844L15.0812 16.2942Z" fill="white"/>
</svg>
