<svg width="156" height="46" viewBox="0 0 156 46" fill="none" xmlns="http://www.w3.org/2000/svg">
<path d="M100.915 34.0348V10.0348H104.985V11.9548C106.285 10.3648 108.265 9.47482 110.325 9.56482C114.995 9.56482 118.325 13.2948 118.325 18.6448C118.325 23.9948 114.955 27.7948 110.325 27.7948C108.275 27.8848 106.295 27.0148 104.985 25.4348V34.0348H100.915ZM104.985 16.4348V20.8448C105.765 22.7248 107.595 23.9448 109.625 23.9348C112.325 23.9348 114.125 21.9348 114.125 18.6248C114.125 15.3148 112.325 13.3748 109.625 13.3748C107.595 13.3348 105.745 14.5548 104.985 16.4348Z" fill="#00C48C"/>
<path d="M120.985 22.4347C120.855 19.6447 122.995 17.2747 125.785 17.1247L132.695 16.2447V15.3347C132.805 14.5847 132.295 13.8747 131.535 13.7647C131.425 13.7447 131.305 13.7447 131.195 13.7547H122.515V10.0547H131.365C134.865 10.0547 136.795 11.7747 136.795 14.8347V27.3047H132.695V25.1847C131.355 26.9547 129.215 27.9447 126.995 27.8147C123.425 27.8147 120.995 25.6247 120.995 22.3947M127.995 24.5147C129.995 24.5647 131.835 23.4347 132.695 21.6247V19.4347L127.425 20.1747C125.955 20.3847 125.155 21.1747 125.155 22.3947C125.155 23.6147 126.155 24.5147 127.995 24.5147Z" fill="#00C48C"/>
<path d="M139.755 30.3347H142.755C143.715 30.4247 144.585 29.7747 144.755 28.8247L145.295 27.3047L139.025 10.0547H143.185L147.095 22.0547H147.195L150.925 10.0547H155.185L148.315 29.8647C147.385 32.5847 146.145 34.0347 143.115 34.0347H139.805L139.755 30.3347Z" fill="#00C48C"/>
<path d="M15.765 45.8956C20.495 45.8956 24.385 44.4156 26.935 41.8956C28.895 39.9256 29.975 37.2556 29.935 34.4756C29.975 31.9056 28.985 29.4256 27.185 27.5856C25.035 25.5556 22.325 24.2256 19.405 23.7656L13.965 22.7056C11.705 22.2856 10.435 21.1556 10.435 19.5956C10.435 17.5956 12.435 16.1356 15.595 16.1356C17.365 16.0656 19.095 16.7056 20.395 17.9056C21.135 18.7056 21.605 19.7256 21.745 20.8056L29.585 19.0356C29.345 16.7956 28.315 14.7156 26.685 13.1656C23.645 10.3556 19.625 8.85563 15.485 8.99563C11.675 8.87563 7.96503 10.1856 5.08503 12.6756C2.95503 14.6356 1.75503 17.4056 1.76503 20.3056C1.68503 22.7356 2.60503 25.0856 4.31503 26.8056C6.39503 28.7156 8.96503 30.0156 11.735 30.5556L17.105 31.8256C19.795 32.4656 20.995 33.4556 20.995 35.2256C20.995 37.4156 18.995 38.6856 15.765 38.6856C13.755 38.7956 11.785 38.0656 10.325 36.6856C9.46503 35.8156 8.95503 34.6556 8.90503 33.4356L0.845032 35.2056C1.08503 37.5656 2.14503 39.7756 3.84503 41.4256C6.53503 44.2456 10.845 45.9456 15.725 45.9456M75.385 45.9456C79.835 46.0656 84.145 44.4156 87.385 41.3556C89.415 39.3956 90.875 36.9356 91.625 34.2156L83.415 31.4356C82.435 35.0056 79.115 37.4356 75.415 37.3056C73.075 37.2956 70.845 36.3756 69.185 34.7256C67.375 32.7456 66.415 30.1256 66.515 27.4356C66.405 24.7556 67.365 22.1356 69.185 20.1656C70.845 18.5356 73.085 17.6456 75.405 17.6956C77.485 17.5956 79.505 18.3656 80.995 19.8156C81.985 20.8756 82.715 22.1556 83.115 23.5556L91.525 20.7356C90.815 18.0956 89.435 15.6856 87.525 13.7356C84.205 10.5756 79.765 8.86563 75.185 8.99563C70.405 8.94563 65.795 10.8056 62.385 14.1556C58.935 17.7056 57.045 22.4856 57.115 27.4356C57.045 32.4156 58.985 37.2056 62.495 40.7356C65.945 44.1056 70.605 45.9656 75.425 45.8956M46.865 45.8956C50.545 45.8956 53.155 44.7656 54.295 43.7756V36.1456C52.895 37.0856 51.245 37.5856 49.555 37.5556C48.275 37.6556 47.005 37.2556 46.015 36.4356C45.225 35.4356 44.845 34.1656 44.955 32.8956V0.515625H35.625V10.0556H54.295V19.1056H35.625V35.1056C35.495 37.9356 36.485 40.7056 38.385 42.8056C40.385 44.8056 43.265 45.8056 46.865 45.8056" fill="#4F008C"/>
</svg>
