<svg width="58" height="58" viewBox="0 0 58 58" fill="none" xmlns="http://www.w3.org/2000/svg">
<rect width="58" height="58" rx="29" fill="white"/>
<rect x="0.5" y="0.5" width="57" height="57" rx="28.5" stroke="black" stroke-opacity="0.08"/>
<path d="M37.3116 29.6473L37.8293 27.7154C38.4335 25.4603 38.7356 24.3328 38.5081 23.357C38.3285 22.5866 37.9244 21.8867 37.347 21.3459C36.6157 20.6609 35.4881 20.3588 33.2331 19.7546C30.978 19.1503 29.8504 18.8482 28.8747 19.0757C28.1042 19.2554 27.4043 19.6594 26.8635 20.2369C26.2771 20.863 25.9713 21.7796 25.5162 23.4456C25.4398 23.7254 25.3591 24.0263 25.2723 24.3506L24.7546 26.2826C24.1503 28.5377 23.8482 29.6652 24.0757 30.641C24.2554 31.4115 24.6594 32.1114 25.2369 32.6522C25.9681 33.3371 27.0957 33.6392 29.3508 34.2435C31.3834 34.7881 32.4999 35.0873 33.415 34.9744C33.5152 34.9621 33.6129 34.9448 33.7092 34.9223C34.4796 34.7427 35.1795 34.3386 35.7203 33.7612C36.4052 33.0299 36.7074 31.9024 37.3116 29.6473Z" stroke="#016AB5" strokeWidth="2"/>
<path d="M33.415 34.9741C33.2065 35.6126 32.8399 36.1902 32.347 36.6519C31.6157 37.3368 30.4881 37.6389 28.2331 38.2432C25.978 38.8474 24.8504 39.1495 23.8747 38.922C23.1042 38.7424 22.4043 38.3383 21.8635 37.7609C21.1786 37.0296 20.8765 35.9021 20.2722 33.647L19.7546 31.7151C19.1503 29.46 18.8482 28.3325 19.0757 27.3567C19.2554 26.5863 19.6594 25.8864 20.2369 25.3456C20.9681 24.6607 22.0957 24.3585 24.3508 23.7543C24.7774 23.64 25.1637 23.5365 25.5162 23.4453" stroke="#016AB5" strokeWidth="2"/>
<path d="M28.7769 27L33.6065 28.2941" stroke="#016AB5" strokeWidth="2" stroke-linecap="round"/>
<path d="M28 29.8975L30.8978 30.6739" stroke="#016AB5" strokeWidth="2" stroke-linecap="round"/>
</svg>
