<svg width="58" height="58" viewBox="0 0 58 58" fill="none" xmlns="http://www.w3.org/2000/svg">
<rect width="58" height="58" rx="29" fill="white"/>
<rect x="0.5" y="0.5" width="57" height="57" rx="28.5" stroke="black" stroke-opacity="0.08"/>
<path d="M32.5 24.5C32.5 26.433 30.933 28 29 28C27.067 28 25.5 26.433 25.5 24.5C25.5 22.567 27.067 21 29 21C30.933 21 32.5 22.567 32.5 24.5Z" fill="#016AB5"/>
<path d="M35 33.5C35 35.433 32.3137 37 29 37C25.6863 37 23 35.433 23 33.5C23 31.567 25.6863 30 29 30C32.3137 30 35 31.567 35 33.5Z" fill="#016AB5"/>
<path d="M24.1221 22C24.2995 22 24.4728 22.0174 24.6401 22.0506C24.2325 22.7745 24 23.6101 24 24.5C24 25.3682 24.2213 26.1848 24.6106 26.8964C24.4525 26.9258 24.2891 26.9413 24.1221 26.9413C22.7076 26.9413 21.561 25.8351 21.561 24.4706C21.561 23.1061 22.7076 22 24.1221 22Z" fill="#016AB5"/>
<path d="M22.4473 35.9864C21.8794 35.3075 21.5 34.4744 21.5 33.5004C21.5 32.5562 21.8566 31.7444 22.3958 31.0771C20.4911 31.2249 19 32.2666 19 33.5298C19 34.8048 20.5173 35.8542 22.4473 35.9864Z" fill="#016AB5"/>
<path d="M33.9999 24.5C33.9999 25.3682 33.7786 26.1848 33.3893 26.8964C33.5475 26.9258 33.7108 26.9413 33.8779 26.9413C35.2923 26.9413 36.4389 25.8351 36.4389 24.4706C36.4389 23.1061 35.2923 22 33.8779 22C33.7004 22 33.5272 22.0174 33.3599 22.0506C33.7674 22.7745 33.9999 23.6101 33.9999 24.5Z" fill="#016AB5"/>
<path d="M35.5525 35.9864C37.4825 35.8542 38.9998 34.8048 38.9998 33.5298C38.9998 32.2666 37.5087 31.2249 35.604 31.0771C36.1432 31.7444 36.4998 32.5562 36.4998 33.5004C36.4998 34.4744 36.1204 35.3075 35.5525 35.9864Z" fill="#016AB5"/>
</svg>
