<svg width="58" height="58" viewBox="0 0 58 58" fill="none" xmlns="http://www.w3.org/2000/svg">
<rect width="58" height="58" rx="29" fill="white"/>
<rect x="0.5" y="0.5" width="57" height="57" rx="28.5" stroke="black" stroke-opacity="0.08"/>
<path d="M27.8613 20.3634C28.3679 19.4544 28.6213 19 29 19C29.3787 19 29.6321 19.4544 30.1387 20.3634L30.2698 20.5985C30.4138 20.8568 30.4858 20.9859 30.598 21.0711C30.7103 21.1563 30.8501 21.188 31.1296 21.2512L31.3842 21.3088C32.3681 21.5314 32.86 21.6427 32.977 22.0191C33.0941 22.3955 32.7587 22.7876 32.088 23.572L31.9144 23.7749C31.7238 23.9978 31.6285 24.1092 31.5857 24.2471C31.5428 24.385 31.5572 24.5336 31.586 24.831L31.6122 25.1018C31.7136 26.1482 31.7644 26.6715 31.4579 26.9041C31.1515 27.1367 30.6909 26.9246 29.7697 26.5005L29.5314 26.3907C29.2696 26.2702 29.1387 26.2099 29 26.2099C28.8613 26.2099 28.7304 26.2702 28.4686 26.3907L28.2303 26.5005C27.3091 26.9246 26.8485 27.1367 26.5421 26.9041C26.2356 26.6715 26.2863 26.1482 26.3878 25.1018L26.414 24.831C26.4428 24.5336 26.4572 24.385 26.4143 24.2471C26.3715 24.1092 26.2762 23.9978 26.0856 23.7749L25.912 23.572C25.2413 22.7876 24.9059 22.3955 25.023 22.0191C25.14 21.6427 25.6319 21.5314 26.6158 21.3088L26.8703 21.2512C27.1499 21.188 27.2897 21.1563 27.402 21.0711C27.5142 20.9859 27.5862 20.8568 27.7302 20.5985L27.8613 20.3634Z" stroke="#016AB5" strokeWidth="2"/>
<path d="M36.4306 24.6817C36.684 24.2272 36.8106 24 37 24C37.1894 24 37.316 24.2272 37.5694 24.6817L37.6349 24.7993C37.7069 24.9284 37.7429 24.993 37.799 25.0356C37.8551 25.0782 37.925 25.094 38.0648 25.1256L38.1921 25.1544C38.684 25.2657 38.93 25.3214 38.9885 25.5096C39.047 25.6977 38.8794 25.8938 38.544 26.286L38.4572 26.3874C38.3619 26.4989 38.3143 26.5546 38.2928 26.6235C38.2714 26.6925 38.2786 26.7668 38.293 26.9155L38.3061 27.0509C38.3568 27.5741 38.3822 27.8357 38.229 27.952C38.0758 28.0683 37.8455 27.9623 37.3849 27.7502L37.2657 27.6954C37.1348 27.6351 37.0694 27.605 37 27.605C36.9306 27.605 36.8652 27.6351 36.7343 27.6954L36.6151 27.7502C36.1545 27.9623 35.9242 28.0683 35.771 27.952C35.6178 27.8357 35.6432 27.5741 35.6939 27.0509L35.707 26.9155C35.7214 26.7668 35.7286 26.6925 35.7072 26.6235C35.6857 26.5546 35.6381 26.4989 35.5428 26.3874L35.456 26.286C35.1206 25.8938 34.953 25.6977 35.0115 25.5096C35.07 25.3214 35.316 25.2657 35.8079 25.1544L35.9352 25.1256C36.075 25.094 36.1449 25.0782 36.201 25.0356C36.2571 24.993 36.2931 24.9284 36.3651 24.7993L36.4306 24.6817Z" stroke="#016AB5" strokeWidth="2"/>
<path d="M20.4306 24.6817C20.684 24.2272 20.8106 24 21 24C21.1894 24 21.316 24.2272 21.5694 24.6817L21.6349 24.7993C21.7069 24.9284 21.7429 24.993 21.799 25.0356C21.8551 25.0782 21.925 25.094 22.0648 25.1256L22.1921 25.1544C22.684 25.2657 22.93 25.3214 22.9885 25.5096C23.047 25.6977 22.8794 25.8938 22.544 26.286L22.4572 26.3874C22.3619 26.4989 22.3143 26.5546 22.2928 26.6235C22.2714 26.6925 22.2786 26.7668 22.293 26.9155L22.3061 27.0509C22.3568 27.5741 22.3822 27.8357 22.229 27.952C22.0758 28.0683 21.8455 27.9623 21.3849 27.7502L21.2657 27.6954C21.1348 27.6351 21.0694 27.605 21 27.605C20.9306 27.605 20.8652 27.6351 20.7343 27.6954L20.6151 27.7502C20.1545 27.9623 19.9242 28.0683 19.771 27.952C19.6178 27.8357 19.6432 27.5741 19.6939 27.0509L19.707 26.9155C19.7214 26.7668 19.7286 26.6925 19.7072 26.6235C19.6857 26.5546 19.6381 26.4989 19.5428 26.3874L19.456 26.286C19.1207 25.8938 18.953 25.6977 19.0115 25.5096C19.07 25.3214 19.316 25.2657 19.8079 25.1544L19.9352 25.1256C20.075 25.094 20.1449 25.0782 20.201 25.0356C20.2571 24.993 20.2931 24.9284 20.3651 24.7993L20.4306 24.6817Z" stroke="#016AB5" strokeWidth="2"/>
<path d="M22 37.3884H24.2599C25.2708 37.3884 26.2925 37.4937 27.2763 37.6964C29.0166 38.0549 30.8488 38.0983 32.6069 37.8138C33.4738 37.6734 34.326 37.4589 35.0975 37.0865C35.7939 36.7504 36.6469 36.2766 37.2199 35.7459C37.7921 35.216 38.388 34.3487 38.8109 33.6707C39.1736 33.0894 38.9982 32.3762 38.4245 31.943C37.7873 31.4619 36.8417 31.462 36.2046 31.9433L34.3974 33.3084C33.697 33.8375 32.932 34.3245 32.0206 34.4699C31.911 34.4874 31.7962 34.5033 31.6764 34.5172M31.6764 34.5172C31.6403 34.5214 31.6038 34.5254 31.5668 34.5292M31.6764 34.5172C31.8222 34.486 31.9669 34.396 32.1028 34.2775C32.746 33.7161 32.7866 32.77 32.2285 32.1431C32.0991 31.9977 31.9475 31.8764 31.7791 31.7759C28.9817 30.1074 24.6294 31.3782 22 33.2429M31.6764 34.5172C31.6399 34.525 31.6033 34.5292 31.5668 34.5292M31.5668 34.5292C31.0434 34.5829 30.4312 34.5968 29.7518 34.5326" stroke="#016AB5" strokeWidth="2" strokeLinecap="round"/>
<path d="M22 32.5C22 31.6716 21.3284 31 20.5 31C19.6716 31 19 31.6716 19 32.5V37.5C19 38.3284 19.6716 39 20.5 39C21.3284 39 22 38.3284 22 37.5V32.5Z" stroke="#016AB5" strokeWidth="2"/>
</svg>
