<svg width="58" height="58" viewBox="0 0 58 58" fill="none" xmlns="http://www.w3.org/2000/svg">
<rect width="58" height="58" rx="29" fill="white"/>
<rect x="0.5" y="0.5" width="57" height="57" rx="28.5" stroke="black" stroke-opacity="0.08"/>
<path d="M34 25V23C34 21.1144 34 20.1716 33.4142 19.5858C32.8284 19 31.8856 19 30 19H28C26.1144 19 25.1716 19 24.5858 19.5858C24 20.1716 24 21.1144 24 23V25" stroke="#016AB5" stroke-width="2"/>
<path d="M28.1459 29.0225C28.5259 28.3408 28.7159 28 29 28C29.2841 28 29.4741 28.3408 29.8541 29.0225L29.9524 29.1989C30.0603 29.3926 30.1143 29.4894 30.1985 29.5533C30.2827 29.6172 30.3875 29.641 30.5972 29.6884L30.7881 29.7316C31.526 29.8986 31.895 29.982 31.9828 30.2643C32.0706 30.5466 31.819 30.8407 31.316 31.429L31.1858 31.5812C31.0429 31.7483 30.9714 31.8319 30.9392 31.9353C30.9071 32.0387 30.9179 32.1502 30.9395 32.3733L30.9592 32.5763C31.0352 33.3612 31.0733 33.7536 30.8435 33.9281C30.6136 34.1025 30.2682 33.9435 29.5773 33.6254L29.3986 33.5431C29.2022 33.4527 29.1041 33.4075 29 33.4075C28.8959 33.4075 28.7978 33.4527 28.6014 33.5431L28.4227 33.6254C27.7318 33.9435 27.3864 34.1025 27.1565 33.9281C26.9267 33.7536 26.9648 33.3612 27.0408 32.5763L27.0605 32.3733C27.0821 32.1502 27.0929 32.0387 27.0608 31.9353C27.0286 31.8319 26.9571 31.7483 26.8142 31.5812L26.684 31.429C26.181 30.8407 25.9294 30.5466 26.0172 30.2643C26.105 29.982 26.474 29.8986 27.2119 29.7316L27.4028 29.6884C27.6125 29.641 27.7173 29.6172 27.8015 29.5533C27.8857 29.4894 27.9397 29.3926 28.0476 29.1989L28.1459 29.0225Z" stroke="#016AB5" stroke-width="2"/>
<path d="M29 39C33.4183 39 37 35.4183 37 31C37 26.5817 33.4183 23 29 23C24.5817 23 21 26.5817 21 31C21 35.4183 24.5817 39 29 39Z" stroke="#016AB5" stroke-width="2"/>
</svg>
